<svg xmlns="http://www.w3.org/2000/svg" xmlns:xlink="http://www.w3.org/1999/xlink" width="500" zoomAndPan="magnify" viewBox="0 0 375 374.999991" height="500" preserveAspectRatio="xMidYMid meet" version="1.0"><path fill="#935c36" d="M 33.441406 45.378906 C 31.4375 46.847656 29.914062 48.488281 28.765625 50.316406 C 26.265625 46.644531 21.859375 37.78125 22.625 25.128906 C 22.914062 20.351562 24.433594 9.003906 25.40625 11.46875 C 27.316406 15.171875 30.453125 17.738281 32.113281 19.597656 C 36.027344 23.984375 39.292969 25.574219 42.894531 30.277344 C 45.035156 33.078125 46.992188 37.269531 46.617188 41.097656 C 41.929688 41.324219 37.269531 42.574219 33.441406 45.378906 " fill-opacity="1" fill-rule="nonzero"/><path fill="#fac0b0" d="M 29.222656 49.65625 C 24.398438 39.851562 22.78125 30.152344 24.832031 19.484375 C 26.09375 21.703125 27.425781 23.894531 28.886719 26.046875 C 32.328125 31.09375 36.554688 36.308594 36.9375 42.644531 C 36.953125 42.886719 36.996094 43.101562 37.042969 43.324219 C 35.789062 43.894531 34.574219 44.550781 33.441406 45.378906 C 31.683594 46.667969 30.3125 48.097656 29.222656 49.65625 " fill-opacity="1" fill-rule="nonzero"/><path fill="#552d18" d="M 290.328125 160.121094 C 290.328125 160.121094 312.796875 148.644531 315.152344 167.554688 C 317.523438 186.460938 289.855469 227.585938 306.171875 261.859375 C 322.492188 296.132812 361.035156 278.40625 351.8125 255.246094 C 351.8125 255.246094 343.292969 269.804688 336.203125 263.710938 C 329.109375 257.609375 319.414062 251.226562 335.496094 224.992188 C 351.570312 198.757812 374.984375 151.480469 342.113281 122.886719 C 309.246094 94.28125 267.621094 118.152344 271.171875 156.917969 C 274.71875 195.679688 290.328125 160.121094 290.328125 160.121094 " fill-opacity="1" fill-rule="nonzero"/><path fill="#482513" d="M 322.316406 251.574219 C 322.316406 251.574219 322.25 250.84375 322.132812 249.484375 C 322.042969 248.113281 321.929688 246.09375 322.078125 243.53125 C 322.207031 240.964844 322.5625 237.859375 323.246094 234.339844 C 323.917969 230.820312 324.914062 226.898438 326.226562 222.699219 C 328.785156 214.296875 332.328125 204.675781 335.820312 194.367188 C 337.523438 189.1875 339.097656 183.808594 340.367188 178.316406 C 340.648438 176.910156 340.9375 175.5 341.222656 174.082031 C 341.460938 172.746094 341.707031 171.265625 341.914062 169.871094 C 342.339844 167.03125 342.632812 164.179688 342.777344 161.339844 C 342.882812 158.503906 342.835938 155.664062 342.363281 152.949219 C 342.25 152.261719 342.113281 151.597656 341.949219 150.976562 C 341.835938 150.386719 341.527344 149.5625 341.355469 148.996094 C 340.859375 147.648438 340.367188 146.304688 339.878906 144.96875 C 337.859375 139.6875 335.570312 134.5625 332.226562 130.554688 C 330.542969 128.535156 328.683594 126.90625 326.457031 125.726562 C 324.222656 124.488281 321.921875 123.480469 319.601562 122.742188 C 315.683594 121.488281 311.753906 120.878906 308.058594 120.878906 C 307.375 120.878906 306.695312 120.898438 306.027344 120.941406 C 305.007812 120.996094 303.875 121.125 302.914062 121.253906 C 301.953125 121.417969 301 121.703125 300.097656 122.050781 C 298.289062 122.726562 296.660156 123.625 295.253906 124.636719 C 292.414062 126.648438 290.527344 129.144531 289.449219 131.410156 C 288.355469 133.679688 287.949219 135.664062 287.769531 137.007812 C 287.675781 137.6875 287.632812 138.210938 287.617188 138.5625 C 287.597656 138.914062 287.589844 139.097656 287.589844 139.097656 C 287.589844 139.097656 287.589844 138.914062 287.582031 138.558594 C 287.574219 138.203125 287.578125 137.6875 287.617188 136.992188 C 287.710938 135.632812 287.941406 133.589844 288.945312 131.179688 C 289.929688 128.792969 291.753906 126.074219 294.617188 123.800781 C 296.046875 122.664062 297.699219 121.621094 299.589844 120.796875 C 300.535156 120.378906 301.53125 120.015625 302.628906 119.769531 C 303.730469 119.546875 304.734375 119.402344 305.890625 119.28125 C 307.128906 119.152344 308.402344 119.082031 309.703125 119.082031 C 313.09375 119.082031 316.667969 119.542969 320.261719 120.585938 C 322.742188 121.289062 325.21875 122.28125 327.640625 123.511719 C 328.855469 124.113281 330.09375 124.898438 331.210938 125.796875 C 332.324219 126.695312 333.34375 127.714844 334.289062 128.796875 C 338.042969 133.171875 340.539062 138.503906 342.667969 143.890625 C 343.171875 145.246094 343.679688 146.613281 344.195312 147.972656 C 344.445312 148.789062 344.667969 149.316406 344.863281 150.148438 C 345.070312 150.925781 345.230469 151.683594 345.359375 152.429688 C 345.90625 155.445312 345.964844 158.480469 345.867188 161.46875 C 345.746094 164.460938 345.390625 167.414062 344.9375 170.328125 C 344.710938 171.796875 344.480469 173.183594 344.199219 174.691406 C 343.902344 176.105469 343.609375 177.515625 343.308594 178.921875 C 341.996094 184.628906 340.230469 190.0625 338.421875 195.253906 C 336.589844 200.4375 334.679688 205.375 332.875 210.050781 C 331.105469 214.734375 329.410156 219.167969 327.941406 223.269531 C 326.484375 227.371094 325.277344 231.175781 324.386719 234.597656 C 323.503906 238.015625 322.972656 241.058594 322.691406 243.582031 C 322.410156 246.105469 322.316406 248.109375 322.300781 249.480469 C 322.3125 250.84375 322.316406 251.574219 322.316406 251.574219 " fill-opacity="1" fill-rule="nonzero"/><path fill="#482513" d="M 318.375 229.699219 C 318.375 229.699219 318.453125 229.164062 318.597656 228.167969 C 318.75 227.171875 318.929688 225.703125 319.238281 223.847656 C 319.601562 222 319.972656 219.738281 320.574219 217.183594 C 321.125 214.613281 321.832031 211.742188 322.644531 208.617188 C 323.460938 205.488281 324.4375 202.121094 325.515625 198.597656 C 326.566406 195.070312 327.757812 191.300781 329.027344 187.5 C 329.667969 185.589844 330.265625 183.648438 330.886719 181.6875 C 331.519531 179.730469 332.132812 177.738281 332.699219 175.699219 C 332.992188 174.675781 333.285156 173.660156 333.582031 172.636719 L 334.027344 171.101562 C 334.167969 170.640625 334.273438 170.109375 334.394531 169.617188 C 334.851562 167.601562 335.136719 165.535156 335.265625 163.472656 C 335.535156 159.335938 335.179688 155.160156 334.136719 151.234375 C 333.636719 149.277344 333.003906 147.320312 332.210938 145.53125 C 331.855469 144.644531 331.378906 143.714844 330.917969 142.800781 C 330.546875 141.996094 330.019531 141.296875 329.417969 140.566406 C 326.980469 137.71875 323.886719 135.472656 320.667969 134.214844 C 318.296875 133.253906 315.871094 132.8125 313.53125 132.8125 C 312.683594 132.8125 311.84375 132.871094 311.023438 132.980469 C 308.066406 133.339844 305.410156 134.628906 303.257812 135.960938 C 301.085938 137.3125 299.355469 138.78125 298.023438 140.078125 C 296.691406 141.382812 295.730469 142.5 295.109375 143.285156 C 294.492188 144.078125 294.230469 144.550781 294.230469 144.550781 C 294.230469 144.550781 294.421875 144.042969 294.9375 143.164062 C 295.4375 142.289062 296.265625 141.039062 297.5 139.589844 C 298.722656 138.136719 300.335938 136.457031 302.460938 134.808594 C 304.609375 133.203125 307.308594 131.621094 310.746094 130.945312 C 311.949219 130.710938 313.238281 130.589844 314.566406 130.589844 C 316.84375 130.589844 319.242188 130.953125 321.574219 131.804688 C 325.261719 133.148438 328.785156 135.453125 331.621094 138.691406 C 332.308594 139.5 333.027344 140.429688 333.53125 141.480469 C 334 142.390625 334.476562 143.285156 334.902344 144.316406 C 335.804688 146.320312 336.503906 148.359375 337.046875 150.492188 C 338.128906 154.75 338.46875 159.253906 338.128906 163.6875 C 337.933594 165.898438 337.566406 168.097656 337.019531 170.238281 C 336.867188 170.785156 336.75 171.300781 336.570312 171.855469 L 336.097656 173.382812 C 335.78125 174.398438 335.46875 175.417969 335.15625 176.421875 C 334.558594 178.445312 333.851562 180.4375 333.152344 182.40625 C 332.457031 184.371094 331.785156 186.328125 331.082031 188.207031 C 329.703125 192.019531 328.328125 195.597656 327.152344 199.117188 C 325.949219 202.609375 324.839844 205.90625 323.847656 208.964844 C 322.875 212.027344 322.023438 214.851562 321.339844 217.371094 C 320.601562 219.882812 320.132812 222.113281 319.648438 223.925781 C 319.210938 225.753906 318.925781 227.203125 318.703125 228.183594 C 318.488281 229.167969 318.375 229.699219 318.375 229.699219 " fill-opacity="1" fill-rule="nonzero"/><path fill="#482513" d="M 333.984375 273.242188 C 333.933594 273.242188 333.886719 273.242188 333.835938 273.242188 C 332.304688 273.195312 330.710938 272.890625 329.082031 272.296875 C 325.832031 271.140625 322.527344 268.890625 319.578125 265.921875 C 316.601562 263.0625 313.484375 259.453125 311.753906 254.773438 C 310.863281 252.457031 310.308594 249.980469 310.082031 247.375 C 309.867188 244.851562 309.929688 242.238281 310.078125 239.648438 C 310.34375 234.449219 311.015625 229.148438 311.835938 223.78125 C 312.65625 218.421875 313.636719 213.003906 314.828125 207.621094 C 316.023438 202.265625 317.289062 196.839844 319.09375 191.667969 C 320.863281 186.527344 322.820312 181.609375 324.261719 176.761719 C 325.703125 171.933594 326.617188 167.128906 326.160156 162.683594 C 326.035156 161.589844 325.851562 160.472656 325.566406 159.496094 C 325.277344 158.429688 324.886719 157.441406 324.5 156.414062 C 323.699219 154.414062 322.761719 152.558594 321.714844 150.882812 C 319.640625 147.511719 316.859375 145.03125 313.914062 143.847656 C 312.460938 143.261719 310.996094 143.023438 309.628906 143.023438 C 308.222656 143.023438 306.917969 143.273438 305.816406 143.675781 C 303.613281 144.476562 302.179688 145.753906 301.394531 146.730469 C 301.007812 147.238281 300.765625 147.660156 300.628906 147.960938 C 300.496094 148.265625 300.429688 148.425781 300.429688 148.425781 C 300.429688 148.425781 300.480469 148.261719 300.578125 147.941406 C 300.683594 147.632812 300.886719 147.171875 301.222656 146.613281 C 301.917969 145.527344 303.273438 144.035156 305.550781 143.023438 C 306.917969 142.402344 308.648438 141.964844 310.566406 141.964844 C 311.777344 141.964844 313.0625 142.136719 314.371094 142.550781 C 317.769531 143.585938 320.980469 146.261719 323.421875 149.738281 C 324.660156 151.480469 325.707031 153.4375 326.648438 155.507812 C 327.089844 156.539062 327.566406 157.632812 327.894531 158.765625 C 328.277344 159.980469 328.488281 161.160156 328.65625 162.398438 C 329.289062 167.363281 328.324219 172.523438 326.902344 177.527344 C 325.476562 182.554688 323.570312 187.535156 321.898438 192.613281 C 320.179688 197.652344 318.972656 202.925781 317.832031 208.265625 C 316.71875 213.601562 315.671875 218.953125 314.828125 224.253906 C 314.410156 226.902344 314.019531 229.53125 313.695312 232.132812 C 313.351562 234.734375 313.050781 237.308594 312.867188 239.835938 C 312.671875 242.367188 312.558594 244.816406 312.714844 247.222656 C 312.851562 249.546875 313.261719 251.855469 313.996094 253.96875 C 315.421875 258.230469 318.132812 261.679688 320.894531 264.640625 C 323.609375 267.613281 326.566406 269.867188 329.53125 271.179688 C 331 271.832031 332.5 272.214844 333.851562 272.347656 C 334.144531 272.371094 334.429688 272.382812 334.707031 272.382812 C 335.789062 272.382812 336.753906 272.21875 337.65625 271.953125 C 339.902344 271.273438 341.5 270.214844 342.558594 269.511719 C 343.617188 268.78125 344.152344 268.355469 344.152344 268.355469 C 344.152344 268.355469 343.660156 268.828125 342.667969 269.652344 C 341.660156 270.445312 340.171875 271.691406 337.851562 272.546875 C 336.757812 272.964844 335.390625 273.242188 333.984375 273.242188 " fill-opacity="1" fill-rule="nonzero"/><path fill="#895632" d="M 215.675781 277.632812 C 212.542969 281.394531 210.152344 285.703125 207.414062 289.75 C 202.054688 297.667969 198.859375 305.238281 197.25 309.441406 C 194 317.921875 204.265625 339.636719 208.550781 326.449219 C 213.152344 312.296875 225.003906 311.171875 233.535156 298.890625 C 236.660156 294.394531 239.882812 289.972656 242.902344 285.386719 C 245.421875 281.574219 247.417969 276.6875 243.945312 272.894531 C 241.398438 270.113281 229.722656 260.777344 215.675781 277.632812 " fill-opacity="1" fill-rule="nonzero"/><path fill="#895632" d="M 198.339844 306.714844 C 195.121094 311.34375 191.828125 338.964844 190.167969 343.761719 C 188.738281 347.867188 185.949219 351.472656 185.050781 355.765625 C 184.230469 359.636719 180.476562 366.761719 183.660156 370.042969 C 186.707031 373.179688 192.570312 373 196.511719 372.714844 C 201.550781 372.332031 207.15625 372.445312 212.109375 370.085938 C 215.140625 368.636719 215.894531 367.253906 215 364.070312 C 214.449219 362.117188 214.136719 360.234375 213.585938 358.273438 C 212.953125 356.007812 212.066406 353.90625 210.882812 352.042969 C 209.589844 350 208.148438 349.019531 209.757812 346.652344 C 211.34375 344.320312 214.582031 343.957031 216.011719 341.433594 C 217.589844 338.664062 214.78125 336.804688 213.484375 334.382812 C 210.457031 328.757812 210.039062 323.628906 213.730469 317.285156 L 198.339844 306.714844 " fill-opacity="1" fill-rule="nonzero"/><path fill="#251512" d="M 213.585938 358.273438 C 213.03125 356.296875 212.246094 354.476562 211.277344 352.804688 C 205.421875 354.214844 198.53125 354.375 192.855469 353.101562 C 190.339844 352.535156 188.480469 351.570312 187.152344 350.226562 C 186.261719 352.003906 185.453125 353.808594 185.050781 355.765625 C 184.230469 359.636719 180.476562 366.761719 183.660156 370.042969 C 186.707031 373.179688 192.570312 373 196.511719 372.714844 C 201.550781 372.332031 207.15625 372.445312 212.109375 370.085938 C 215.140625 368.636719 215.894531 367.253906 215 364.070312 C 214.449219 362.117188 214.136719 360.234375 213.585938 358.273438 " fill-opacity="1" fill-rule="nonzero"/><path fill="#895632" d="M 250.460938 168.738281 C 255.050781 177.8125 255.035156 187.042969 253.496094 196.816406 C 250.136719 218.144531 239.589844 238.78125 239.269531 260.011719 C 239.207031 264.226562 239.613281 267.800781 242.789062 271.367188 C 235.683594 276.007812 213.421875 292.378906 211.832031 282.582031 C 209.710938 269.460938 199.726562 255.523438 197.664062 251.398438 C 186.289062 228.675781 169.671875 210.453125 164.148438 184.480469 C 162.292969 175.753906 164.976562 165.015625 170.265625 157.851562 C 176.464844 149.460938 185.859375 149.539062 195.339844 149.621094 C 198.144531 149.640625 200.960938 149.667969 203.699219 149.472656 C 215.699219 148.609375 231.496094 131.175781 250.460938 168.738281 " fill-opacity="1" fill-rule="nonzero"/><path fill="#895632" d="M 100.210938 239.867188 C 93.953125 243.15625 87.535156 243.253906 80.722656 242.304688 C 65.859375 240.21875 55.554688 237.984375 40.792969 238.011719 C 37.859375 238.015625 34.679688 238.242188 31.644531 238.585938 C 28.335938 233.707031 13.871094 216.371094 18.515625 211.265625 C 20.570312 209.007812 25.230469 208.230469 27.851562 206.726562 C 30.539062 205.175781 33.597656 203.867188 36.449219 202.382812 C 52.113281 194.21875 70.257812 184.238281 88.253906 180.097656 C 94.292969 178.707031 101.792969 180.445312 106.839844 184.035156 C 114.488281 189.488281 118.460938 197.835938 119.199219 206.160156 C 119.933594 214.480469 126.101562 226.246094 100.210938 239.867188 " fill-opacity="1" fill-rule="nonzero"/><path fill="#895632" d="M 10.925781 230.308594 C 10.96875 235.199219 11.933594 240.03125 12.457031 244.886719 C 13.492188 254.394531 14.734375 263.964844 17.570312 273.117188 C 19.601562 279.664062 22.175781 289.613281 29.300781 292.441406 C 37.722656 295.789062 38.679688 285.269531 37.871094 279.660156 C 35.757812 264.929688 39.730469 249.875 38.304688 234.988281 C 37.777344 229.539062 37.378906 224.085938 36.71875 218.636719 C 36.175781 214.101562 34.535156 209.078125 29.433594 208.425781 C 25.6875 207.949219 10.746094 208.371094 10.925781 230.308594 " fill-opacity="1" fill-rule="nonzero"/><path fill="#935c36" d="M 88.648438 146.988281 C 88.621094 147.175781 88.59375 147.347656 88.574219 147.503906 C 86.269531 162.316406 78.8125 175.835938 77.421875 190.851562 C 76.210938 204.035156 74.578125 233.480469 83.21875 243.703125 C 89.605469 251.261719 100.191406 250.320312 110.863281 249.375 C 116.589844 248.871094 122.34375 248.363281 127.488281 249.175781 C 143.535156 251.707031 160.433594 253.210938 176.667969 252.601562 C 199.628906 251.738281 229.117188 243.480469 250.214844 234.140625 C 269.523438 225.582031 280.414062 218.296875 284.011719 213.078125 C 293.691406 199.050781 299.992188 186.257812 296.738281 169.875 C 293.703125 154.585938 284.886719 143.550781 269.117188 140.792969 C 265.109375 140.089844 226.886719 139.714844 222.945312 139.574219 C 205.671875 138.980469 188.9375 143.011719 171.503906 144.53125 C 160.320312 145.503906 136.921875 134.105469 131.417969 93.964844 C 129 76.316406 123.691406 57.488281 91.191406 38.988281 L 83.652344 123.335938 C 91.695312 123.644531 89.46875 141.546875 88.648438 146.988281 " fill-opacity="1" fill-rule="nonzero"/><path fill="#e9e9e9" d="M 169.296875 252.734375 C 156.765625 252.734375 143.976562 251.59375 131.613281 249.800781 C 143.976562 251.59375 156.765625 252.734375 169.296875 252.734375 C 171.765625 252.734375 174.222656 252.695312 176.667969 252.601562 C 180.546875 252.453125 184.613281 252.097656 188.789062 251.558594 C 184.613281 252.097656 180.546875 252.453125 176.667969 252.601562 C 174.222656 252.695312 171.765625 252.734375 169.296875 252.734375 M 188.804688 251.558594 C 188.820312 251.558594 188.832031 251.554688 188.847656 251.554688 C 188.832031 251.554688 188.820312 251.558594 188.804688 251.558594 M 78.714844 182.800781 C 80.441406 174.972656 83.328125 167.4375 85.644531 159.746094 C 85.640625 159.769531 85.640625 159.792969 85.640625 159.816406 C 83.328125 167.476562 80.441406 174.996094 78.71875 182.796875 C 78.714844 182.800781 78.714844 182.800781 78.714844 182.800781 " fill-opacity="1" fill-rule="nonzero"/><path fill="#7e4f2d" d="M 77.429688 190.796875 C 77.429688 190.792969 77.433594 190.785156 77.433594 190.78125 C 77.433594 190.785156 77.429688 190.792969 77.429688 190.796875 M 77.433594 190.734375 C 77.4375 190.734375 77.4375 190.730469 77.4375 190.726562 C 77.4375 190.730469 77.4375 190.730469 77.433594 190.734375 M 77.445312 190.671875 C 77.445312 190.664062 77.445312 190.65625 77.445312 190.652344 C 77.445312 190.65625 77.445312 190.664062 77.445312 190.671875 M 77.449219 190.617188 C 77.449219 190.605469 77.449219 190.601562 77.449219 190.597656 C 77.449219 190.601562 77.449219 190.605469 77.449219 190.617188 M 77.453125 190.550781 C 77.453125 190.539062 77.460938 190.523438 77.460938 190.515625 C 77.460938 190.523438 77.453125 190.539062 77.453125 190.550781 M 77.460938 190.5 C 77.460938 190.484375 77.464844 190.472656 77.464844 190.457031 C 77.464844 190.472656 77.460938 190.484375 77.460938 190.5 M 77.464844 190.457031 C 77.722656 187.863281 78.160156 185.316406 78.714844 182.800781 C 78.714844 182.800781 78.714844 182.800781 78.71875 182.796875 C 78.160156 185.316406 77.722656 187.863281 77.464844 190.457031 " fill-opacity="1" fill-rule="nonzero"/><path fill="#875431" d="M 169.296875 252.734375 C 156.765625 252.734375 143.976562 251.59375 131.613281 249.800781 C 132.789062 247.867188 133.9375 245.988281 135.015625 244.160156 C 137.367188 244.574219 139.675781 244.9375 141.890625 245.277344 C 150.214844 246.546875 158.480469 247.074219 166.714844 247.074219 C 185.722656 247.074219 204.554688 244.246094 223.511719 241.097656 C 224.832031 240.878906 226.148438 240.644531 227.457031 240.398438 C 227.699219 240.78125 227.941406 241.140625 228.199219 241.472656 C 228.398438 241.746094 228.59375 242.011719 228.777344 242.265625 C 215.796875 246.488281 201.773438 249.882812 188.847656 251.554688 C 188.832031 251.554688 188.820312 251.558594 188.804688 251.558594 C 188.800781 251.558594 188.792969 251.558594 188.789062 251.558594 C 184.613281 252.097656 180.546875 252.453125 176.667969 252.601562 C 174.222656 252.695312 171.765625 252.734375 169.296875 252.734375 M 82.082031 242.160156 C 77.648438 235.304688 76.449219 222.644531 76.441406 210.910156 C 76.441406 203.179688 76.964844 195.851562 77.421875 190.851562 C 77.429688 190.835938 77.429688 190.816406 77.429688 190.796875 C 77.429688 190.792969 77.433594 190.785156 77.433594 190.78125 C 77.433594 190.765625 77.433594 190.75 77.433594 190.734375 C 77.4375 190.730469 77.4375 190.730469 77.4375 190.726562 C 77.4375 190.710938 77.4375 190.6875 77.445312 190.671875 C 77.445312 190.664062 77.445312 190.65625 77.445312 190.652344 C 77.445312 190.636719 77.445312 190.628906 77.449219 190.617188 C 77.449219 190.605469 77.449219 190.601562 77.449219 190.597656 C 77.453125 190.582031 77.453125 190.566406 77.453125 190.550781 C 77.453125 190.539062 77.460938 190.523438 77.460938 190.515625 C 77.460938 190.507812 77.460938 190.503906 77.460938 190.5 C 77.460938 190.484375 77.464844 190.472656 77.464844 190.457031 C 77.722656 187.863281 78.160156 185.316406 78.71875 182.796875 C 80.441406 174.996094 83.328125 167.476562 85.640625 159.816406 C 85.265625 167.820312 84.671875 176.179688 84.679688 184.464844 C 82.714844 208.191406 81.992188 226.679688 82.082031 242.160156 M 228.902344 241.515625 C 228.835938 241.402344 228.761719 241.28125 228.691406 241.164062 C 228.511719 240.882812 228.335938 240.578125 228.167969 240.265625 C 228.167969 240.265625 228.171875 240.261719 228.171875 240.261719 C 228.414062 240.675781 228.65625 241.09375 228.902344 241.515625 " fill-opacity="1" fill-rule="nonzero"/><path fill="#fac0ad" d="M 3.359375 108.296875 C 4.429688 111.582031 11.375 116.636719 14.664062 115.566406 C 17.949219 114.5 16.335938 107.722656 15.269531 104.429688 C 14.199219 101.144531 10.671875 99.339844 7.382812 100.402344 C 4.09375 101.476562 2.289062 105.007812 3.359375 108.296875 " fill-opacity="1" fill-rule="nonzero"/><path fill="#e9e9e9" d="M 3.363281 108.304688 C 3.363281 108.304688 3.359375 108.300781 3.359375 108.296875 C 3.359375 108.292969 3.355469 108.285156 3.355469 108.28125 C 3.355469 108.285156 3.359375 108.292969 3.359375 108.296875 C 3.359375 108.300781 3.363281 108.304688 3.363281 108.304688 M 3.347656 108.265625 C 3.347656 108.265625 3.347656 108.265625 3.347656 108.261719 C 3.347656 108.265625 3.347656 108.265625 3.347656 108.265625 " fill-opacity="1" fill-rule="nonzero"/><path fill="#e5b09e" d="M 6.988281 112.6875 C 5.234375 111.296875 3.804688 109.652344 3.363281 108.304688 C 3.363281 108.304688 3.359375 108.300781 3.359375 108.296875 C 3.359375 108.292969 3.355469 108.285156 3.355469 108.28125 C 3.355469 108.277344 3.347656 108.269531 3.347656 108.265625 C 3.347656 108.265625 3.347656 108.265625 3.347656 108.261719 C 2.484375 105.546875 3.585938 102.695312 5.847656 101.183594 C 5.476562 102.113281 5.285156 103.144531 5.304688 104.019531 C 5.351562 105.914062 6.613281 108.164062 8.476562 108.164062 C 9.171875 108.164062 9.941406 107.847656 10.769531 107.101562 C 9.453125 108.933594 8.167969 110.777344 6.988281 112.6875 " fill-opacity="1" fill-rule="nonzero"/><path fill="#935c36" d="M 91.191406 38.988281 C 84.632812 34.988281 75.152344 33.53125 67.417969 33.140625 C 53.273438 32.429688 30.933594 36.785156 26.054688 51.542969 C 21.96875 63.910156 24.847656 78.199219 20.691406 90.277344 C 16.035156 103.816406 3.738281 111.597656 1.746094 126.46875 C 0.0351562 139.199219 5.203125 152.671875 18.980469 155.515625 C 24.074219 156.574219 32.351562 157.308594 37.296875 155.574219 C 43.738281 153.304688 45.46875 147.054688 49.246094 142.539062 C 57.605469 132.546875 73.738281 138.6875 84.355469 131.027344 C 97.066406 121.855469 99.707031 105.121094 101.421875 92.21875 C 107.125 49.273438 98.609375 43.503906 91.191406 38.988281 " fill-opacity="1" fill-rule="nonzero"/><path fill="#fac0ad" d="M 55.042969 138.28125 C 56.769531 131.984375 56.296875 125.277344 52.171875 118.976562 C 44.433594 107.171875 27.789062 95.65625 13.871094 102.765625 C 8.769531 110.03125 3.050781 116.730469 1.746094 126.46875 C 0.0351562 139.199219 5.203125 152.671875 18.980469 155.515625 C 24.074219 156.574219 32.351562 157.308594 37.296875 155.574219 C 43.738281 153.304688 45.46875 147.054688 49.246094 142.539062 C 50.902344 140.558594 52.878906 139.226562 55.042969 138.28125 " fill-opacity="1" fill-rule="nonzero"/><path fill="#875431" d="M 1.746094 126.46875 C 1.746094 126.449219 1.75 126.433594 1.75 126.417969 C 1.75 126.433594 1.746094 126.453125 1.746094 126.46875 M 1.757812 126.394531 C 1.757812 126.386719 1.757812 126.378906 1.757812 126.367188 C 1.757812 126.378906 1.757812 126.386719 1.757812 126.394531 M 1.761719 126.34375 C 1.761719 126.332031 1.761719 126.328125 1.765625 126.320312 C 1.761719 126.328125 1.761719 126.332031 1.761719 126.34375 " fill-opacity="1" fill-rule="nonzero"/><path fill="#e5b09e" d="M 29.527344 156.609375 C 25.78125 156.609375 21.867188 156.117188 18.980469 155.515625 C 6.882812 153.019531 1.421875 142.332031 1.425781 131.144531 C 1.425781 129.585938 1.535156 128.027344 1.746094 126.46875 C 1.746094 126.453125 1.75 126.433594 1.75 126.417969 C 1.75 126.410156 1.75 126.402344 1.757812 126.394531 C 1.757812 126.386719 1.757812 126.378906 1.757812 126.367188 C 1.757812 126.359375 1.761719 126.347656 1.761719 126.34375 C 1.761719 126.332031 1.761719 126.328125 1.765625 126.320312 C 1.765625 126.3125 1.765625 126.296875 1.765625 126.285156 C 2.851562 118.585938 6.695312 112.789062 10.777344 107.089844 C 7.4375 117.488281 10.523438 130.496094 17.269531 138.339844 C 21.675781 143.464844 27.003906 145.457031 32.585938 145.457031 C 37.101562 145.457031 41.777344 144.152344 46.265625 142.144531 C 46.035156 142.453125 45.804688 142.761719 45.5625 143.0625 C 44.792969 144.0625 43.917969 145.035156 43.007812 145.988281 C 42.09375 146.941406 41.109375 147.855469 40.066406 148.691406 C 39.039062 149.542969 37.949219 150.320312 36.828125 151.007812 C 35.699219 151.675781 34.566406 152.316406 33.417969 152.816406 C 32.269531 153.332031 31.128906 153.765625 30.03125 154.109375 C 28.925781 154.457031 27.863281 154.703125 26.871094 154.9375 C 25.867188 155.101562 24.953125 155.304688 24.128906 155.394531 C 23.304688 155.476562 22.582031 155.597656 21.984375 155.609375 C 20.792969 155.671875 20.097656 155.730469 20.097656 155.730469 C 20.097656 155.730469 20.78125 155.808594 21.984375 155.910156 C 22.589844 155.980469 23.320312 155.941406 24.167969 155.972656 C 24.253906 155.972656 24.34375 155.972656 24.429688 155.972656 C 25.207031 155.972656 26.074219 155.894531 27.007812 155.8125 C 28.046875 155.679688 29.171875 155.527344 30.339844 155.222656 C 31.511719 154.941406 32.734375 154.582031 33.949219 154.074219 C 35.171875 153.589844 36.40625 152.996094 37.605469 152.292969 C 38.789062 151.578125 39.953125 150.777344 41.046875 149.894531 C 42.128906 149 43.152344 148.027344 44.097656 147.015625 C 45.042969 146.011719 45.886719 144.949219 46.652344 143.882812 C 47.335938 142.964844 47.914062 142.019531 48.449219 141.105469 C 50.828125 139.914062 53.136719 138.542969 55.316406 137.09375 C 55.222656 137.492188 55.148438 137.886719 55.042969 138.28125 C 52.878906 139.226562 50.902344 140.558594 49.246094 142.539062 C 45.46875 147.054688 43.738281 153.304688 37.296875 155.574219 C 35.152344 156.324219 32.390625 156.609375 29.527344 156.609375 " fill-opacity="1" fill-rule="nonzero"/><path fill="#d3d2d2" d="M 87.832031 128.097656 C 88.035156 127.902344 88.230469 127.707031 88.417969 127.511719 C 88.425781 127.527344 88.433594 127.550781 88.4375 127.5625 C 88.148438 127.828125 87.941406 128.007812 87.832031 128.097656 " fill-opacity="1" fill-rule="nonzero"/><path fill="#7a4c2c" d="M 88.4375 127.5625 C 88.433594 127.550781 88.425781 127.527344 88.417969 127.511719 C 97.671875 117.988281 99.90625 103.609375 101.421875 92.21875 C 101.632812 90.601562 101.828125 89.039062 102.003906 87.527344 C 102.101562 87.917969 102.1875 88.320312 102.28125 88.726562 C 102.476562 89.480469 102.542969 90.269531 102.6875 91.070312 C 102.800781 91.878906 102.960938 92.699219 102.976562 93.546875 C 103.058594 95.238281 103.214844 96.988281 103.035156 98.773438 C 102.964844 99.664062 102.980469 100.566406 102.832031 101.460938 C 102.6875 102.347656 102.542969 103.25 102.40625 104.148438 C 102.320312 104.589844 102.253906 105.039062 102.152344 105.480469 L 101.777344 106.785156 C 101.527344 107.65625 101.273438 108.515625 101.027344 109.375 C 100.816406 110.242188 100.386719 111.027344 100.054688 111.835938 C 99.707031 112.636719 99.363281 113.425781 99.023438 114.203125 C 98.285156 115.722656 97.363281 117.089844 96.582031 118.414062 C 96.382812 118.742188 96.199219 119.074219 95.980469 119.382812 C 95.757812 119.675781 95.53125 119.96875 95.304688 120.257812 C 94.851562 120.820312 94.414062 121.367188 93.992188 121.894531 C 93.15625 122.933594 92.425781 123.914062 91.597656 124.632812 C 90.824219 125.390625 90.125 126.027344 89.554688 126.558594 C 89.105469 126.96875 88.726562 127.308594 88.4375 127.5625 " fill-opacity="1" fill-rule="nonzero"/><path fill="#7a4c2c" d="M 87.746094 128.171875 C 87.746094 128.171875 88.230469 127.421875 89.09375 126.148438 C 89.527344 125.515625 90.046875 124.746094 90.667969 123.886719 C 91.332031 123.0625 91.855469 121.972656 92.535156 120.867188 C 92.863281 120.3125 93.203125 119.734375 93.558594 119.132812 C 93.738281 118.839844 93.917969 118.535156 94.101562 118.226562 C 94.277344 117.914062 94.414062 117.582031 94.578125 117.246094 C 95.1875 115.902344 95.898438 114.53125 96.53125 113.070312 C 97.054688 111.566406 97.667969 110.039062 98.171875 108.457031 C 98.386719 107.65625 98.601562 106.84375 98.816406 106.027344 L 99.148438 104.808594 C 99.234375 104.394531 99.28125 103.976562 99.351562 103.554688 L 99.800781 101.070312 C 99.964844 100.242188 99.957031 99.398438 100.046875 98.570312 C 100.082031 97.742188 100.242188 96.921875 100.222656 96.105469 C 100.230469 95.28125 100.234375 94.472656 100.246094 93.679688 C 100.292969 92.878906 100.164062 92.105469 100.148438 91.332031 C 100.09375 90.570312 100.109375 89.808594 99.996094 89.085938 C 99.800781 87.625 99.679688 86.234375 99.425781 84.964844 C 99.222656 83.6875 98.945312 82.535156 98.730469 81.496094 C 98.464844 80.476562 98.253906 79.570312 98.03125 78.839844 C 97.8125 78.105469 97.652344 77.523438 97.511719 77.132812 C 97.390625 76.738281 97.308594 76.535156 97.308594 76.535156 C 97.308594 76.535156 97.441406 76.714844 97.660156 77.058594 C 97.894531 77.40625 98.226562 77.921875 98.597656 78.601562 C 98.984375 79.28125 99.402344 80.125 99.851562 81.113281 C 100.265625 82.121094 100.769531 83.246094 101.152344 84.535156 C 101.480469 85.460938 101.75 86.464844 102.003906 87.527344 C 101.828125 89.039062 101.632812 90.601562 101.421875 92.21875 C 99.90625 103.609375 97.671875 117.988281 88.417969 127.511719 C 88.230469 127.707031 88.035156 127.902344 87.832031 128.097656 C 87.777344 128.148438 87.746094 128.171875 87.746094 128.171875 " fill-opacity="1" fill-rule="nonzero"/><path fill="#fac0ad" d="M 52.195312 110.359375 C 50.417969 115.828125 38.867188 124.226562 33.402344 122.453125 C 27.933594 120.683594 30.617188 109.398438 32.394531 103.9375 C 34.167969 98.46875 40.039062 95.472656 45.507812 97.25 C 50.972656 99.023438 53.96875 104.898438 52.195312 110.359375 " fill-opacity="1" fill-rule="nonzero"/><path fill="#f8a48d" d="M 44.972656 103.839844 C 44.09375 102.769531 42.890625 101.878906 41.554688 101.5625 C 40.28125 101.265625 37.609375 101.589844 36.710938 102.703125 C 35.488281 104.207031 36.6875 106.652344 37.492188 108.085938 C 39.691406 112.023438 40.855469 115.019531 40.121094 118.714844 C 42.140625 117.53125 44.175781 114.972656 45.054688 113.75 C 46.957031 111.085938 47.273438 107.257812 45.449219 104.492188 C 45.304688 104.269531 45.148438 104.054688 44.972656 103.839844 " fill-opacity="1" fill-rule="nonzero"/><path fill="#f79889" d="M 39.332031 108.578125 C 38.527344 107.144531 37.328125 104.703125 38.550781 103.191406 C 39.300781 102.273438 41.261719 101.898438 42.640625 101.964844 C 42.289062 101.792969 41.929688 101.652344 41.554688 101.5625 C 40.28125 101.265625 37.609375 101.589844 36.710938 102.703125 C 35.488281 104.207031 36.6875 106.652344 37.492188 108.085938 C 39.691406 112.023438 40.855469 115.019531 40.121094 118.714844 C 40.820312 118.300781 41.515625 117.730469 42.160156 117.109375 C 42.175781 114.308594 41.097656 111.746094 39.332031 108.578125 " fill-opacity="1" fill-rule="nonzero"/><path fill="#cf9e8e" d="M 46.265625 142.144531 C 47.515625 140.46875 48.558594 138.804688 49.40625 137.304688 C 50.40625 135.535156 51.167969 134 51.636719 132.894531 C 52.117188 131.800781 52.359375 131.152344 52.359375 131.152344 C 52.359375 131.152344 52.253906 131.832031 51.917969 132.996094 C 51.570312 134.148438 51.066406 135.816406 50.203125 137.707031 C 49.78125 138.660156 49.265625 139.667969 48.6875 140.710938 C 48.609375 140.84375 48.53125 140.972656 48.449219 141.105469 C 47.730469 141.472656 47 141.816406 46.265625 142.144531 " fill-opacity="1" fill-rule="nonzero"/><path fill="#be9182" d="M 24.429688 155.972656 C 24.34375 155.972656 24.253906 155.972656 24.167969 155.972656 C 23.320312 155.941406 22.589844 155.980469 21.984375 155.910156 C 20.78125 155.808594 20.097656 155.730469 20.097656 155.730469 C 20.097656 155.730469 20.792969 155.671875 21.984375 155.609375 C 22.582031 155.597656 23.304688 155.476562 24.128906 155.394531 C 24.953125 155.304688 25.867188 155.101562 26.871094 154.9375 C 27.863281 154.703125 28.925781 154.457031 30.03125 154.109375 C 31.128906 153.765625 32.269531 153.332031 33.417969 152.816406 C 34.566406 152.316406 35.699219 151.675781 36.828125 151.007812 C 37.949219 150.320312 39.039062 149.542969 40.066406 148.691406 C 41.109375 147.855469 42.09375 146.941406 43.007812 145.988281 C 43.917969 145.035156 44.792969 144.0625 45.5625 143.0625 C 45.804688 142.761719 46.035156 142.453125 46.265625 142.144531 C 47 141.816406 47.730469 141.472656 48.449219 141.105469 C 47.914062 142.019531 47.335938 142.964844 46.652344 143.882812 C 45.886719 144.949219 45.042969 146.011719 44.097656 147.015625 C 43.152344 148.027344 42.128906 149 41.046875 149.894531 C 39.953125 150.777344 38.789062 151.578125 37.605469 152.292969 C 36.40625 152.996094 35.171875 153.589844 33.949219 154.074219 C 32.734375 154.582031 31.511719 154.941406 30.339844 155.222656 C 29.171875 155.527344 28.046875 155.679688 27.007812 155.8125 C 26.074219 155.894531 25.207031 155.972656 24.429688 155.972656 " fill-opacity="1" fill-rule="nonzero"/><path fill="#552d18" d="M 67.417969 33.140625 C 67.246094 33.230469 61.234375 36.84375 59.933594 39.851562 C 58.175781 43.910156 60.078125 48.515625 59.691406 52.679688 C 57.71875 50.804688 57.195312 47.4375 57.0625 44.839844 C 51.292969 47.859375 52.175781 56.496094 51.773438 61.878906 C 50.699219 58.769531 49.792969 52.445312 46.691406 50.53125 C 45.851562 53.96875 46.519531 58.410156 46.101562 61.9375 C 45.605469 66.109375 44.503906 69.199219 41.6875 72.464844 C 39.511719 74.992188 37.019531 76.855469 35.585938 79.933594 C 33.960938 83.414062 33.835938 85.644531 33.558594 89.484375 C 32.578125 87.035156 32.292969 85.414062 32.292969 82.523438 C 32.292969 78.859375 33.097656 75.886719 34.257812 72.410156 C 36.503906 65.703125 35.632812 56.792969 32.695312 50.578125 C 30.917969 50.421875 27.683594 49.007812 24.457031 56.003906 C 24.023438 51.867188 25.230469 47.777344 26.589844 43.902344 C 27.382812 41.644531 28.996094 39.640625 29.636719 37.390625 C 26.640625 38.398438 23.726562 41.023438 20.246094 41.535156 C 22.664062 36.191406 25.71875 32.636719 30.359375 28.703125 C 32.214844 27.132812 33.730469 25.324219 35.8125 24.054688 C 37.007812 23.316406 38.457031 22.796875 39.496094 21.902344 C 36.1875 18.898438 31.527344 20.460938 27.488281 19.96875 C 30.503906 16.542969 34.101562 14.371094 38.039062 12.167969 C 41.230469 10.382812 42.839844 9.621094 46.527344 9.738281 C 48.523438 9.800781 50.484375 10.046875 52.476562 9.917969 C 50.8125 8.894531 48.929688 7.621094 47.105469 6.722656 C 44.179688 5.273438 39.734375 4.816406 37.328125 2.980469 C 41.554688 1.515625 46.621094 2.117188 50.933594 2.886719 C 53.398438 3.324219 55.914062 4.128906 58.21875 5.171875 C 59.691406 5.839844 62.933594 8.417969 64.332031 7.984375 C 64.332031 7.984375 77.316406 11.929688 79.6875 19.597656 C 82.066406 27.265625 67.417969 33.140625 67.417969 33.140625 " fill-opacity="1" fill-rule="nonzero"/><path fill="#3a2015" d="M 74.238281 80.832031 C 74.238281 80.832031 73.933594 80.332031 73.507812 79.503906 C 73.296875 79.105469 73.035156 78.625 72.738281 78.074219 C 72.433594 77.546875 72.125 76.953125 71.746094 76.410156 C 71.375 75.859375 70.96875 75.347656 70.523438 74.960938 C 70.296875 74.773438 70.082031 74.597656 69.796875 74.398438 C 69.660156 74.292969 69.503906 74.195312 69.324219 74.042969 L 69.257812 73.992188 L 69.226562 73.964844 L 69.21875 73.960938 L 69.289062 74.03125 L 69.269531 74.023438 L 69.128906 73.914062 L 68.847656 73.703125 L 68.523438 73.570312 C 68.390625 73.503906 68.269531 73.433594 68.128906 73.386719 C 67.867188 73.269531 67.585938 73.207031 67.316406 73.117188 C 66.765625 72.996094 66.195312 72.90625 65.605469 72.945312 C 65.011719 72.9375 64.414062 73.0625 63.78125 73.238281 C 63.195312 73.425781 63.148438 73.472656 62.878906 73.535156 C 62.605469 73.652344 62.34375 73.78125 62.085938 73.917969 C 61.59375 74.195312 61.117188 74.554688 60.671875 75.007812 C 60.222656 75.449219 59.832031 76.003906 59.460938 76.558594 C 59.101562 77.121094 58.773438 77.695312 58.5 78.234375 C 58.21875 78.769531 57.949219 79.261719 57.75 79.675781 C 57.332031 80.515625 57.050781 81.023438 57.050781 81.023438 C 57.050781 81.023438 56.753906 80.527344 56.429688 79.613281 C 56.09375 78.695312 55.710938 77.355469 55.734375 75.574219 C 55.773438 74.683594 55.886719 73.683594 56.269531 72.621094 C 56.65625 71.566406 57.28125 70.457031 58.191406 69.492188 C 58.632812 69 59.15625 68.59375 59.707031 68.195312 C 60.28125 67.804688 61.09375 67.378906 61.4375 67.238281 C 62.632812 66.679688 64.023438 66.359375 65.429688 66.3125 C 66.839844 66.289062 68.277344 66.546875 69.574219 67.105469 C 70.21875 67.378906 70.832031 67.722656 71.382812 68.128906 C 71.664062 68.320312 71.921875 68.539062 72.171875 68.753906 C 72.425781 68.96875 72.722656 69.28125 72.941406 69.519531 L 73.160156 69.800781 L 73.265625 69.933594 L 73.277344 69.957031 L 73.363281 70.042969 L 73.371094 70.054688 L 73.445312 70.160156 C 73.585938 70.351562 73.746094 70.578125 73.898438 70.816406 C 74.207031 71.300781 74.542969 71.824219 74.75 72.367188 C 75.214844 73.453125 75.367188 74.480469 75.414062 75.367188 C 75.476562 77.15625 75.121094 78.480469 74.8125 79.417969 C 74.691406 79.882812 74.496094 80.222656 74.40625 80.460938 C 74.300781 80.707031 74.238281 80.832031 74.238281 80.832031 " fill-opacity="1" fill-rule="nonzero"/><path fill="#3a2015" d="M 29.125 66.925781 C 29.027344 66.492188 28.886719 66.066406 28.710938 65.660156 L 28.464844 65.109375 L 28.121094 64.5 C 28.011719 64.328125 27.96875 64.203125 27.804688 63.988281 L 27.246094 63.339844 C 26.855469 62.898438 26.476562 62.621094 26.042969 62.296875 C 25.433594 61.898438 24.753906 61.609375 24.050781 61.390625 C 23.886719 62.875 23.765625 64.367188 23.667969 65.867188 L 23.78125 65.914062 C 23.96875 66.042969 24.25 66.175781 24.378906 66.277344 L 24.621094 66.433594 L 24.980469 66.800781 L 25.171875 67.003906 L 25.261719 67.101562 L 25.277344 67.117188 L 25.207031 67.011719 L 25.226562 67.035156 L 25.261719 67.078125 L 25.570312 67.445312 C 25.753906 67.65625 25.882812 67.859375 26.035156 68.058594 C 26.289062 68.464844 26.527344 68.945312 26.707031 69.441406 C 27.019531 70.457031 27.265625 71.382812 27.410156 72.117188 C 27.5625 72.832031 27.691406 73.242188 27.691406 73.242188 C 27.691406 73.242188 27.929688 72.882812 28.269531 72.230469 C 28.441406 71.917969 28.636719 71.515625 28.789062 71.003906 C 28.972656 70.503906 29.121094 69.914062 29.207031 69.246094 C 29.285156 68.570312 29.316406 67.78125 29.125 66.925781 " fill-opacity="1" fill-rule="nonzero"/><path fill="#895632" d="M 19.25 278.480469 C 22.210938 295.882812 30.976562 301.371094 32.351562 302.183594 C 36.726562 304.757812 40.75 308.027344 44.179688 311.773438 C 47.125 314.980469 48.96875 319.144531 52.320312 321.980469 C 55.335938 324.539062 59.824219 331.230469 64.222656 329.988281 C 68.441406 328.800781 71.0625 323.550781 72.679688 319.957031 C 74.746094 315.339844 77.511719 310.46875 77.78125 304.988281 C 77.953125 301.632812 77.089844 300.320312 73.867188 299.59375 C 71.882812 299.148438 70.074219 298.527344 68.09375 298.082031 C 65.796875 297.5625 63.523438 297.339844 61.320312 297.496094 C 58.90625 297.660156 57.359375 298.457031 56.042969 295.917969 C 54.746094 293.414062 55.960938 290.398438 54.425781 287.941406 C 52.734375 285.242188 49.765625 286.820312 47.015625 286.8125 C 40.628906 286.796875 38.011719 283.164062 37.28125 267.140625 L 19.25 278.480469 " fill-opacity="1" fill-rule="nonzero"/><path fill="#251512" d="M 73.867188 299.59375 C 71.882812 299.148438 70.074219 298.527344 68.09375 298.082031 C 65.796875 297.5625 63.523438 297.339844 61.320312 297.496094 C 60.925781 301.175781 60.292969 304.796875 58.21875 307.933594 C 55.636719 311.828125 52.324219 315.222656 47.960938 316.820312 C 49.25 318.6875 50.582031 320.515625 52.320312 321.980469 C 55.335938 324.539062 59.824219 331.230469 64.222656 329.988281 C 68.441406 328.800781 71.0625 323.550781 72.679688 319.957031 C 74.746094 315.339844 77.511719 310.46875 77.78125 304.988281 C 77.953125 301.632812 77.089844 300.320312 73.867188 299.59375 " fill-opacity="1" fill-rule="nonzero"/><path fill="#935c36" d="M 88.042969 268.894531 C 87.230469 273.992188 87.382812 279.1875 87.074219 284.332031 C 86.476562 294.398438 86.085938 304.578125 87.425781 314.589844 C 88.382812 321.761719 89.3125 332.554688 96.230469 336.753906 C 104.398438 341.710938 107.246094 330.9375 107.386719 324.964844 C 107.785156 309.269531 114.566406 294.304688 115.695312 278.578125 C 116.109375 272.8125 116.648438 267.074219 116.925781 261.285156 C 117.15625 256.472656 116.339844 250.964844 111.144531 249.390625 C 107.332031 248.234375 91.710938 246.046875 88.042969 268.894531 " fill-opacity="1" fill-rule="nonzero"/><path fill="#935c36" d="M 86.785156 308.039062 C 87.914062 320.234375 88.203125 324.167969 88.027344 325.835938 C 87.480469 331.167969 86.101562 336.460938 84.015625 341.398438 C 82.226562 345.625 79.035156 349.21875 77.78125 353.675781 C 76.65625 357.691406 72.207031 364.929688 75.328125 368.605469 C 78.316406 372.121094 84.503906 372.339844 88.671875 372.308594 C 94.003906 372.265625 99.890625 372.773438 105.269531 370.640625 C 108.566406 369.324219 109.449219 367.921875 108.730469 364.511719 C 108.289062 362.417969 108.085938 360.410156 107.648438 358.308594 C 107.140625 355.878906 106.351562 353.605469 105.242188 351.5625 C 104.023438 349.320312 102.578125 348.179688 104.433594 345.808594 C 106.269531 343.46875 109.699219 343.308594 111.378906 340.753906 C 113.234375 337.953125 110.414062 335.804688 109.210938 333.15625 C 106.421875 327.023438 108.554688 322.808594 108.8125 312.707031 L 86.785156 308.039062 " fill-opacity="1" fill-rule="nonzero"/><path fill="#251512" d="M 107.648438 358.308594 C 107.171875 356.027344 106.421875 353.902344 105.414062 351.957031 C 99.898438 352.695312 94.347656 353.113281 88.769531 352.660156 C 85.566406 352.398438 81.996094 351.777344 79.320312 349.925781 C 78.699219 351.132812 78.152344 352.363281 77.78125 353.675781 C 76.65625 357.691406 72.207031 364.929688 75.328125 368.605469 C 78.316406 372.121094 84.503906 372.339844 88.671875 372.308594 C 94.003906 372.265625 99.890625 372.773438 105.269531 370.640625 C 108.566406 369.324219 109.449219 367.921875 108.730469 364.511719 C 108.289062 362.417969 108.085938 360.410156 107.648438 358.308594 " fill-opacity="1" fill-rule="nonzero"/><path fill="#935c36" d="M 142.792969 217.175781 C 143.984375 224.535156 141.9375 230.988281 138.695312 237.476562 C 131.625 251.636719 116.960938 269.015625 113.675781 291.644531 C 113.234375 294.710938 87.503906 306.410156 86.523438 299.199219 C 82.617188 270.328125 79.773438 243.789062 84.679688 184.445312 C 85.21875 177.925781 106.863281 184.835938 115.441406 186.886719 C 124.007812 188.941406 137.855469 186.730469 142.792969 217.175781 " fill-opacity="1" fill-rule="nonzero"/><path fill="#935c36" d="M 293.808594 266.625 C 290.085938 269.804688 286.992188 273.636719 283.605469 277.152344 C 276.972656 284.046875 267.734375 292.765625 265.433594 296.632812 C 260.785156 304.441406 285.503906 319.28125 285.464844 305.417969 C 285.449219 298.1875 301.425781 292.574219 304.539062 290.730469 C 310.46875 287.21875 315.558594 282.90625 319.320312 278.90625 C 322.449219 275.578125 325.253906 271.097656 322.476562 266.773438 C 320.441406 263.597656 310.523438 252.410156 293.808594 266.625 " fill-opacity="1" fill-rule="nonzero"/><path fill="#935c36" d="M 265.433594 296.632812 C 260.101562 307.835938 275.339844 330.222656 277.015625 335.015625 C 278.449219 339.117188 280.652344 344.613281 282.609375 348.535156 C 284.378906 352.085938 287.070312 358.898438 291.601562 359.488281 C 295.941406 360.066406 300.429688 356.289062 303.335938 353.613281 C 307.054688 350.195312 311.519531 346.808594 313.941406 341.886719 C 315.414062 338.871094 315.148438 337.320312 312.472656 335.378906 C 310.832031 334.191406 309.410156 332.902344 307.765625 331.707031 C 305.859375 330.324219 303.867188 329.230469 301.78125 328.496094 C 299.492188 327.695312 297.75 327.816406 297.546875 324.964844 C 297.34375 322.148438 299.65625 319.863281 299.214844 317 C 298.734375 313.851562 295.382812 314.132812 292.855469 313.039062 C 286.992188 310.503906 285.789062 308.804688 284.746094 301.542969 L 265.433594 296.632812 " fill-opacity="1" fill-rule="nonzero"/><path fill="#251512" d="M 312.472656 335.378906 C 310.832031 334.191406 309.410156 332.902344 307.765625 331.707031 C 305.859375 330.324219 303.867188 329.230469 301.78125 328.496094 C 301.269531 328.316406 300.792969 328.1875 300.351562 328.0625 C 294.796875 334.21875 286.914062 337.90625 278.8125 339.804688 C 280.003906 342.847656 281.351562 346.007812 282.609375 348.535156 C 284.378906 352.085938 287.070312 358.898438 291.601562 359.488281 C 295.941406 360.066406 300.429688 356.289062 303.335938 353.613281 C 307.054688 350.195312 311.519531 346.808594 313.941406 341.886719 C 315.414062 338.871094 315.148438 337.320312 312.472656 335.378906 " fill-opacity="1" fill-rule="nonzero"/><path fill="#935c36" d="M 294.898438 241.890625 C 292.078125 228.777344 298.15625 225.378906 301.390625 214.429688 C 306.21875 198.027344 304.910156 188.371094 302.589844 178.472656 C 293.015625 137.496094 276.339844 140.476562 262.523438 139.816406 C 250.511719 139.246094 237.589844 140.332031 227.222656 149 C 220.386719 154.71875 215.523438 164.539062 215 173.4375 C 212.695312 212.417969 218.6875 224.597656 231.789062 246.367188 C 247.6875 272.769531 285.78125 262.683594 284.753906 275.941406 C 284.085938 284.546875 302.042969 268.660156 312.691406 259.933594 C 305.695312 259.226562 297.59375 254.371094 294.898438 241.890625 " fill-opacity="1" fill-rule="nonzero"/><path fill="#734729" d="M 231.789062 246.367188 C 231.789062 246.367188 231.179688 245.546875 230.109375 244.101562 C 229.722656 243.574219 229.277344 242.957031 228.785156 242.273438 C 228.9375 242.222656 229.097656 242.171875 229.257812 242.121094 C 230.066406 243.5 230.917969 244.914062 231.789062 246.367188 " fill-opacity="1" fill-rule="nonzero"/><path fill="#7a4c2c" d="M 228.785156 242.273438 C 228.777344 242.269531 228.777344 242.269531 228.777344 242.265625 C 228.9375 242.210938 229.09375 242.160156 229.25 242.109375 C 229.25 242.113281 229.257812 242.113281 229.257812 242.121094 C 229.097656 242.171875 228.9375 242.222656 228.785156 242.273438 M 227.457031 240.398438 C 226.964844 239.632812 226.488281 238.785156 225.941406 237.910156 C 225.160156 236.574219 224.238281 235.167969 223.476562 233.5625 C 222.695312 231.972656 221.75 230.34375 221.015625 228.550781 C 220.300781 226.753906 219.433594 224.941406 218.785156 223.011719 C 218.457031 222.046875 218.132812 221.070312 217.804688 220.09375 C 217.460938 219.125 217.144531 218.144531 216.894531 217.136719 C 216.367188 215.136719 215.808594 213.144531 215.441406 211.136719 C 215.238281 210.140625 215.019531 209.15625 214.859375 208.167969 C 214.714844 207.183594 214.578125 206.207031 214.4375 205.246094 C 214.113281 203.335938 214.058594 201.457031 213.878906 199.695312 C 213.828125 197.917969 213.695312 196.246094 213.730469 194.699219 C 213.734375 193.925781 213.71875 193.183594 213.738281 192.476562 C 213.78125 191.773438 213.816406 191.105469 213.851562 190.484375 C 213.917969 189.226562 214.042969 188.136719 214.125 187.242188 C 214.324219 185.570312 214.527344 184.582031 214.550781 184.460938 C 214.550781 184.46875 214.550781 184.480469 214.550781 184.492188 C 214.535156 184.710938 214.46875 185.691406 214.429688 187.261719 C 214.417969 188.15625 214.386719 189.246094 214.429688 190.492188 C 214.449219 191.742188 214.511719 193.144531 214.597656 194.667969 C 214.613281 195.222656 214.65625 195.792969 214.707031 196.378906 C 215.660156 215.609375 220.234375 226.503906 228.066406 240.074219 C 228.101562 240.136719 228.132812 240.203125 228.167969 240.265625 C 227.929688 240.308594 227.695312 240.351562 227.457031 240.398438 " fill-opacity="1" fill-rule="nonzero"/><path fill="#714628" d="M 228.777344 242.265625 C 228.59375 242.011719 228.398438 241.746094 228.199219 241.472656 C 227.941406 241.140625 227.699219 240.78125 227.457031 240.398438 C 227.695312 240.351562 227.929688 240.308594 228.167969 240.265625 C 228.335938 240.578125 228.511719 240.882812 228.691406 241.164062 C 228.761719 241.28125 228.835938 241.402344 228.902344 241.515625 C 229.019531 241.714844 229.132812 241.914062 229.25 242.109375 C 229.09375 242.160156 228.9375 242.210938 228.777344 242.265625 " fill-opacity="1" fill-rule="nonzero"/><path fill="#7a4c2c" d="M 231.789062 246.367188 C 230.917969 244.914062 230.066406 243.5 229.257812 242.121094 C 229.257812 242.113281 229.25 242.113281 229.25 242.109375 C 229.132812 241.914062 229.019531 241.714844 228.902344 241.515625 C 229.457031 242.4375 229.945312 243.25 230.359375 243.933594 C 231.269531 245.484375 231.789062 246.367188 231.789062 246.367188 M 228.066406 240.074219 C 220.234375 226.503906 215.660156 215.609375 214.707031 196.378906 C 214.792969 197.40625 214.917969 198.484375 215.003906 199.59375 C 215.265625 201.335938 215.433594 203.167969 215.789062 205.050781 C 215.949219 205.992188 216.113281 206.949219 216.28125 207.914062 C 216.46875 208.878906 216.703125 209.84375 216.910156 210.824219 C 217.285156 212.796875 217.855469 214.753906 218.390625 216.714844 C 218.632812 217.707031 218.929688 218.675781 219.257812 219.632812 C 219.578125 220.597656 219.886719 221.558594 220.199219 222.511719 C 220.835938 224.40625 221.605469 226.226562 222.273438 228.011719 C 222.972656 229.796875 223.800781 231.449219 224.488281 233.0625 C 225.160156 234.683594 226.003906 236.117188 226.707031 237.476562 C 227.214844 238.382812 227.636719 239.269531 228.066406 240.074219 M 214.550781 184.492188 C 214.550781 184.480469 214.550781 184.46875 214.550781 184.460938 C 214.558594 184.449219 214.558594 184.445312 214.558594 184.445312 C 214.558594 184.445312 214.558594 184.460938 214.550781 184.492188 " fill-opacity="1" fill-rule="nonzero"/><path fill="#7a4c2c" d="M 276.476562 159.371094 C 271.511719 159.371094 267.492188 156.804688 267.492188 153.636719 C 267.492188 150.472656 271.511719 147.90625 276.476562 147.90625 C 281.433594 147.90625 285.449219 150.472656 285.449219 153.636719 C 285.449219 156.804688 281.433594 159.371094 276.476562 159.371094 " fill-opacity="1" fill-rule="nonzero"/><path fill="#7a4c2c" d="M 278.417969 174.3125 C 275.765625 174.3125 273.609375 173.128906 273.300781 171.34375 C 272.929688 169.207031 275.34375 167.007812 278.6875 166.433594 C 279.238281 166.339844 279.777344 166.296875 280.296875 166.296875 C 282.953125 166.296875 285.105469 167.472656 285.414062 169.257812 C 285.785156 171.394531 283.375 173.59375 280.023438 174.167969 C 279.480469 174.265625 278.9375 174.3125 278.417969 174.3125 " fill-opacity="1" fill-rule="nonzero"/><path fill="#7a4c2c" d="M 287.484375 164.777344 C 285.699219 164.777344 284.242188 163.980469 284.039062 162.773438 C 283.792969 161.339844 285.414062 159.855469 287.671875 159.46875 C 288.039062 159.402344 288.40625 159.371094 288.753906 159.371094 C 290.542969 159.371094 291.992188 160.167969 292.203125 161.371094 C 292.449219 162.808594 290.824219 164.292969 288.570312 164.679688 C 288.199219 164.746094 287.835938 164.777344 287.484375 164.777344 " fill-opacity="1" fill-rule="nonzero"/><path fill="#7a4c2c" d="M 143.132812 221.777344 C 143.152344 220.285156 143.050781 218.753906 142.792969 217.175781 C 142.679688 216.488281 142.566406 215.816406 142.445312 215.160156 C 142.5625 213.789062 142.679688 212.441406 142.691406 211.121094 C 142.742188 210.25 142.738281 209.398438 142.726562 208.558594 C 142.71875 207.726562 142.742188 206.90625 142.695312 206.105469 C 142.625 204.511719 142.542969 203.003906 142.371094 201.621094 C 142.25 200.230469 142.027344 198.972656 141.894531 197.835938 C 141.703125 196.71875 141.53125 195.742188 141.390625 194.9375 C 141.050781 193.332031 140.863281 192.414062 140.863281 192.414062 C 140.863281 192.414062 141.160156 193.300781 141.683594 194.863281 C 141.898438 195.65625 142.164062 196.621094 142.464844 197.722656 C 142.707031 198.84375 143.050781 200.101562 143.234375 201.503906 C 143.488281 202.894531 143.664062 204.421875 143.832031 206.039062 C 143.941406 207.652344 144.113281 209.367188 144.058594 211.144531 C 144.082031 212.914062 143.976562 214.75 143.832031 216.605469 C 143.621094 218.3125 143.460938 220.058594 143.132812 221.777344 " fill-opacity="1" fill-rule="nonzero"/><path fill="#7a4c2c" d="M 131.351562 249.765625 C 131.351562 249.765625 131.773438 248.929688 132.507812 247.460938 C 132.878906 246.730469 133.359375 245.851562 133.847656 244.828125 C 134.3125 243.785156 134.835938 242.613281 135.4375 241.359375 C 136.03125 240.097656 136.550781 238.667969 137.167969 237.195312 C 137.78125 235.714844 138.242188 234.09375 138.859375 232.464844 C 139.363281 230.800781 139.894531 229.085938 140.347656 227.320312 C 140.5625 226.429688 140.78125 225.542969 140.996094 224.644531 C 141.21875 223.746094 141.34375 222.828125 141.523438 221.921875 C 141.914062 220.109375 142.09375 218.265625 142.335938 216.457031 C 142.371094 216.023438 142.410156 215.589844 142.445312 215.160156 C 142.566406 215.816406 142.679688 216.488281 142.792969 217.175781 C 143.050781 218.753906 143.152344 220.285156 143.132812 221.777344 C 143.109375 221.921875 143.082031 222.0625 143.050781 222.199219 C 142.859375 223.125 142.71875 224.0625 142.484375 224.976562 C 142.253906 225.890625 142.023438 226.800781 141.796875 227.703125 C 141.328125 229.503906 140.703125 231.234375 140.148438 232.914062 C 139.496094 234.554688 138.910156 236.167969 138.207031 237.632812 C 137.496094 239.085938 136.902344 240.496094 136.222656 241.738281 C 135.554688 242.988281 134.914062 244.113281 134.347656 245.109375 C 133.761719 246.089844 133.207031 246.917969 132.769531 247.609375 C 131.867188 248.980469 131.351562 249.765625 131.351562 249.765625 " fill-opacity="1" fill-rule="nonzero"/><path fill="#43bcbb" d="M 144.070312 130.382812 C 146.257812 147.90625 145.410156 158.371094 143.226562 166.296875 C 141.847656 171.300781 139.820312 176.15625 138.589844 181.203125 C 137.066406 187.5 139.550781 187.144531 143.519531 186.785156 C 144.910156 186.664062 146.488281 186.535156 148.136719 186.699219 C 158.882812 187.765625 163.546875 195.046875 174.9375 195.839844 C 186.597656 196.644531 196.75 193.507812 204.457031 188.402344 C 219.421875 178.488281 223.878906 156.34375 221.460938 139.554688 C 204.710938 139.226562 188.441406 143.058594 171.503906 144.53125 C 164.789062 145.113281 153.671875 141.222656 144.664062 129.339844 C 144.519531 129.714844 144.320312 130.074219 144.070312 130.382812 " fill-opacity="1" fill-rule="nonzero"/><path fill="#57c7c9" d="M 147.125 133.394531 C 147.484375 134.359375 147.8125 135.328125 148.117188 136.289062 L 149.601562 135.832031 C 149.292969 134.835938 148.953125 133.84375 148.578125 132.847656 L 147.125 133.398438 " fill-opacity="1" fill-rule="nonzero"/><path fill="#57c7c9" d="M 149.679688 142.375 C 150.117188 144.425781 150.476562 146.492188 150.820312 148.589844 L 152.351562 148.34375 C 152.011719 146.230469 151.640625 144.140625 151.199219 142.054688 Z M 151.816406 154.871094 C 151.992188 155.917969 152.171875 156.976562 152.359375 158.042969 C 152.5625 159.148438 152.804688 160.191406 153.089844 161.179688 L 154.585938 160.75 C 154.3125 159.816406 154.082031 158.820312 153.890625 157.765625 C 153.703125 156.707031 153.523438 155.660156 153.351562 154.617188 Z M 155.726562 167.179688 C 156.976562 169.152344 158.484375 170.757812 160.195312 172.03125 L 161.125 170.785156 C 159.566406 169.625 158.1875 168.164062 157.042969 166.347656 Z M 166.105469 174.960938 C 168.128906 175.574219 170.296875 175.914062 172.546875 176.027344 L 172.625 174.476562 C 170.476562 174.367188 168.441406 174.042969 166.550781 173.476562 Z M 179.023438 175.785156 C 180.542969 175.609375 182.085938 175.359375 183.640625 175.042969 C 184.226562 174.921875 184.800781 174.792969 185.367188 174.65625 L 185.007812 173.144531 C 184.457031 173.28125 183.898438 173.402344 183.328125 173.515625 C 181.816406 173.828125 180.316406 174.070312 178.84375 174.238281 Z M 191.539062 172.75 C 193.648438 171.929688 195.585938 170.972656 197.359375 169.902344 L 196.554688 168.570312 C 194.863281 169.597656 193.007812 170.511719 190.972656 171.300781 Z M 202.554688 165.992188 C 204.167969 164.488281 205.585938 162.84375 206.820312 161.078125 L 205.542969 160.191406 C 204.367188 161.867188 203.027344 163.429688 201.496094 164.851562 Z M 210 155.417969 C 210.863281 153.484375 211.578125 151.445312 212.152344 149.316406 L 210.652344 148.914062 C 210.089844 150.964844 209.410156 152.929688 208.582031 154.789062 L 210 155.417969 " fill-opacity="1" fill-rule="nonzero"/><path fill="#57c7c9" d="M 213.472656 142.941406 C 213.625 141.917969 213.753906 140.875 213.863281 139.824219 L 212.316406 139.664062 C 212.207031 140.695312 212.085938 141.710938 211.9375 142.714844 L 213.472656 142.941406 " fill-opacity="1" fill-rule="nonzero"/><path fill="#7a4c2c" d="M 178.558594 195.96875 C 177.371094 195.96875 176.164062 195.921875 174.9375 195.839844 C 163.546875 195.046875 158.882812 187.765625 148.136719 186.699219 C 147.574219 186.640625 147.019531 186.621094 146.476562 186.621094 C 145.429688 186.621094 144.433594 186.703125 143.519531 186.785156 C 142.597656 186.867188 141.761719 186.949219 141.03125 186.949219 C 139.257812 186.949219 138.140625 186.460938 138.140625 184.285156 C 138.140625 186.460938 139.257812 186.949219 141.03125 186.949219 C 141.761719 186.949219 142.597656 186.867188 143.519531 186.785156 C 144.433594 186.703125 145.429688 186.621094 146.476562 186.621094 C 147.019531 186.621094 147.574219 186.640625 148.136719 186.699219 C 158.882812 187.765625 163.546875 195.046875 174.9375 195.839844 C 176.164062 195.921875 177.371094 195.96875 178.558594 195.96875 C 188.703125 195.96875 197.558594 192.96875 204.457031 188.402344 C 204.472656 188.394531 204.484375 188.382812 204.496094 188.371094 C 204.484375 188.382812 204.472656 188.394531 204.457031 188.402344 C 197.558594 192.96875 188.703125 195.96875 178.558594 195.96875 M 204.507812 188.367188 C 204.515625 188.363281 204.527344 188.351562 204.542969 188.347656 C 204.527344 188.351562 204.515625 188.363281 204.507812 188.367188 M 204.546875 188.34375 C 204.589844 188.316406 204.628906 188.285156 204.671875 188.257812 C 204.628906 188.285156 204.589844 188.3125 204.546875 188.34375 M 204.679688 188.253906 C 204.691406 188.246094 204.703125 188.238281 204.710938 188.230469 C 204.703125 188.238281 204.691406 188.246094 204.679688 188.253906 M 204.722656 188.222656 C 204.734375 188.21875 204.742188 188.207031 204.753906 188.203125 C 204.742188 188.207031 204.734375 188.21875 204.722656 188.222656 M 204.769531 188.191406 C 204.773438 188.191406 204.773438 188.1875 204.777344 188.183594 C 204.773438 188.1875 204.769531 188.191406 204.769531 188.191406 M 143.375 165.746094 C 143.527344 165.160156 143.679688 164.554688 143.816406 163.9375 C 143.679688 164.554688 143.527344 165.160156 143.375 165.746094 " fill-opacity="1" fill-rule="nonzero"/><path fill="#379a9b" d="M 178.558594 195.96875 C 177.371094 195.96875 176.164062 195.921875 174.9375 195.839844 C 163.546875 195.046875 158.882812 187.765625 148.136719 186.699219 C 147.574219 186.640625 147.019531 186.621094 146.476562 186.621094 C 145.429688 186.621094 144.433594 186.703125 143.519531 186.785156 C 142.597656 186.867188 141.761719 186.949219 141.03125 186.949219 C 139.257812 186.949219 138.140625 186.460938 138.140625 184.285156 C 138.132812 183.492188 138.277344 182.488281 138.589844 181.203125 C 139.820312 176.15625 141.847656 171.300781 143.226562 166.296875 C 143.277344 166.109375 143.328125 165.929688 143.375 165.746094 C 143.527344 165.160156 143.679688 164.554688 143.816406 163.9375 C 145.917969 170.972656 137.640625 182.953125 152.113281 183.90625 C 163.488281 184.648438 168.007812 190.109375 179.089844 190.109375 C 182.65625 190.109375 186.902344 189.542969 192.277344 188.074219 C 202.769531 185.210938 211.417969 179.359375 217.460938 172.023438 C 214.667969 178.519531 210.542969 184.238281 204.835938 188.148438 C 204.816406 188.164062 204.800781 188.171875 204.777344 188.183594 C 204.773438 188.1875 204.773438 188.191406 204.769531 188.191406 C 204.757812 188.199219 204.753906 188.203125 204.753906 188.203125 C 204.742188 188.207031 204.734375 188.21875 204.722656 188.222656 C 204.722656 188.230469 204.71875 188.230469 204.710938 188.230469 C 204.703125 188.238281 204.691406 188.246094 204.679688 188.253906 C 204.675781 188.253906 204.675781 188.253906 204.671875 188.257812 C 204.628906 188.285156 204.589844 188.316406 204.546875 188.34375 C 204.546875 188.34375 204.542969 188.347656 204.542969 188.347656 C 204.527344 188.351562 204.515625 188.363281 204.507812 188.367188 C 204.5 188.371094 204.5 188.371094 204.496094 188.371094 C 204.484375 188.382812 204.472656 188.394531 204.457031 188.402344 C 197.558594 192.96875 188.703125 195.96875 178.558594 195.96875 " fill-opacity="1" fill-rule="nonzero"/><path fill="#552d18" d="M 80.464844 25.976562 C 83.140625 20.269531 99.539062 18.582031 106.285156 17.792969 C 111.585938 17.171875 121.738281 19.734375 125.527344 23.253906 C 119.503906 21.757812 115.914062 22.433594 110.074219 24.582031 C 112.476562 30.597656 127.84375 31.875 133.109375 37.382812 C 139.546875 44.109375 142.988281 53.707031 144.242188 62.980469 C 146.492188 79.597656 145.917969 100.769531 161.6875 112.644531 C 150.46875 118.609375 140.464844 107.550781 134.707031 100.671875 C 137.117188 111.132812 143.703125 121.421875 153.039062 127.226562 C 149.074219 128.796875 145.414062 126.140625 141.726562 124.914062 C 144.203125 129.414062 151.039062 136.828125 155.53125 139.652344 C 142.867188 146.457031 164.171875 164.492188 163.027344 173.917969 C 159.453125 170.804688 156.964844 166.28125 153.640625 162.574219 C 148.621094 156.976562 148.117188 158.21875 140.570312 158.90625 C 127.347656 160.121094 124.230469 154.929688 120.089844 144.222656 C 114.960938 151.335938 119.914062 159.722656 121.683594 166.804688 C 111.566406 160.75 110.253906 145.425781 112.933594 135.550781 C 115.285156 126.855469 118.441406 116.910156 114.113281 108.628906 C 109.664062 111.070312 107.636719 121.097656 108.03125 125.863281 C 104.378906 119.167969 106.839844 109.59375 108.734375 102.804688 C 111.035156 94.578125 112.304688 90.738281 110.792969 82.085938 C 108.226562 67.367188 109.570312 61.105469 101.683594 48.023438 C 97.296875 40.734375 84.835938 36.109375 84.835938 36.109375 C 84.835938 36.109375 77.53125 32.214844 80.464844 25.976562 " fill-opacity="1" fill-rule="nonzero"/><path fill="#935c36" d="M 78.359375 45.378906 C 80.363281 46.847656 81.886719 48.488281 83.035156 50.316406 C 85.535156 46.644531 89.941406 37.78125 89.175781 25.128906 C 88.886719 20.351562 87.367188 9.003906 86.394531 11.46875 C 84.484375 15.171875 81.347656 17.738281 79.6875 19.597656 C 75.773438 23.984375 72.507812 25.574219 68.90625 30.277344 C 66.765625 33.078125 64.808594 37.269531 65.183594 41.097656 C 69.871094 41.324219 74.53125 42.574219 78.359375 45.378906 " fill-opacity="1" fill-rule="nonzero"/><path fill="#fac0b0" d="M 82.578125 49.65625 C 87.402344 39.851562 89.019531 30.152344 86.96875 19.484375 C 85.707031 21.703125 84.375 23.894531 82.910156 26.046875 C 79.472656 31.09375 75.246094 36.308594 74.863281 42.644531 C 74.847656 42.886719 74.804688 43.101562 74.757812 43.324219 C 76.011719 43.894531 77.226562 44.550781 78.359375 45.378906 C 80.117188 46.667969 81.488281 48.097656 82.578125 49.65625 " fill-opacity="1" fill-rule="nonzero"/></svg>