<svg xmlns="http://www.w3.org/2000/svg" xmlns:xlink="http://www.w3.org/1999/xlink" width="500" zoomAndPan="magnify" viewBox="0 0 375 374.999991" height="500" preserveAspectRatio="xMidYMid meet" version="1.0"><defs><clipPath id="337e2e3689"><path d="M 14.765625 316 L 50 316 L 50 358 L 14.765625 358 Z M 14.765625 316 " clip-rule="nonzero"/></clipPath></defs><path fill="#8c999e" d="M 294.871094 88.640625 C 294.871094 88.640625 290.644531 128.046875 254.027344 106.230469 C 249.761719 103.6875 245.777344 101.5 242.074219 99.617188 C 222.453125 89.640625 199.121094 90.269531 180.09375 101.335938 C 167.523438 108.648438 158.582031 120.882812 155.4375 135.082031 C 155.4375 135.082031 104.03125 132.96875 99.105469 154.78125 C 94.171875 176.59375 108.925781 203.332031 108.925781 203.332031 C 108.925781 203.332031 44.175781 236.402344 44.175781 316.617188 C 44.222656 316.847656 44.269531 317.074219 44.316406 317.304688 C 51.453125 351.0625 81.585938 375.019531 116.117188 375.019531 L 199.804688 375.019531 C 199.804688 375.019531 205.4375 364.460938 208.253906 356.722656 C 208.253906 356.722656 235.722656 361.878906 262.480469 344.878906 C 262.480469 344.878906 241.355469 235.699219 242.058594 220.921875 C 242.058594 220.921875 261.773438 208.257812 270.929688 211.070312 C 280.085938 213.886719 282.902344 204.035156 270.929688 203.332031 C 270.929688 203.332031 360.363281 176.640625 327.265625 88.3125 C 294.167969 -0.015625 213.183594 40.089844 213.183594 40.089844 C 213.183594 40.089844 186.730469 29.535156 189.394531 42.199219 C 192.058594 54.867188 199.804688 52.753906 199.804688 52.753906 C 199.804688 52.753906 188.535156 66.121094 203.328125 68.234375 C 218.113281 70.347656 218.816406 52.753906 218.816406 52.753906 C 218.816406 52.753906 289.238281 31.003906 294.871094 88.640625 " fill-opacity="1" fill-rule="nonzero"/><path fill="#66aa7e" d="M 189.9375 232.867188 L 193.324219 215.945312 C 192.910156 223.085938 191.585938 228.609375 189.9375 232.867188 " fill-opacity="1" fill-rule="nonzero"/><path fill="#677c94" d="M 58.789062 255.578125 C 77.886719 219.195312 108.925781 203.332031 108.925781 203.332031 C 108.925781 203.332031 107.90625 201.476562 106.492188 198.359375 C 106.492188 198.359375 124.660156 236.359375 180.277344 245.847656 C 180.277344 245.847656 186.027344 242.941406 189.9375 232.867188 L 181.921875 272.863281 C 181.921875 272.863281 175.578125 285 177.617188 296.089844 C 179.65625 307.175781 177.757812 297.992188 177.757812 297.992188 C 177.757812 297.992188 156.800781 295.460938 147.214844 307.257812 C 147.214844 307.257812 151.074219 290.703125 145.933594 282.140625 C 145.933594 282.140625 97.308594 191.527344 58.789062 255.578125 " fill-opacity="1" fill-rule="nonzero"/><g clip-path="url(#337e2e3689)"><path fill="#8c999e" d="M 44.175781 316.617188 C 44.175781 316.617188 40.300781 359.363281 14.949219 356.195312 C 14.949219 356.195312 40.585938 364.804688 49.949219 336.488281 L 44.175781 316.617188 " fill-opacity="1" fill-rule="nonzero"/></g><path fill="#566f8c" d="M 234.085938 180.269531 C 234.433594 180.171875 234.527344 179.496094 235.050781 178.855469 C 235.539062 178.210938 236.574219 177.445312 237.699219 177.359375 C 238.941406 177.253906 240.199219 177.710938 241.152344 178.101562 C 242.109375 178.484375 242.789062 178.757812 243.035156 178.503906 C 243.265625 178.265625 243.007812 177.523438 242.140625 176.652344 C 241.707031 176.21875 241.113281 175.761719 240.332031 175.402344 C 239.554688 175.042969 238.5625 174.804688 237.5 174.886719 C 235.1875 175.109375 233.75 176.808594 233.433594 178.179688 C 233.273438 178.875 233.355469 179.46875 233.539062 179.820312 C 233.714844 180.175781 233.925781 180.308594 234.085938 180.269531 " fill-opacity="1" fill-rule="nonzero"/><path fill="#bfd5d5" d="M 214.058594 326.726562 C 214.058594 326.726562 191.875 317.3125 192.550781 301.1875 L 214.667969 308.523438 C 214.667969 308.523438 214.890625 320.371094 214.058594 326.726562 " fill-opacity="1" fill-rule="nonzero"/><path fill="#bfd5d5" d="M 213.578125 330.65625 C 213.578125 330.65625 195.066406 324.570312 189.394531 328.769531 C 183.722656 332.96875 204.871094 348.722656 209.410156 349.8125 L 213.578125 330.65625 " fill-opacity="1" fill-rule="nonzero"/><path fill="#bfd5d5" d="M 256.644531 313.957031 C 259.9375 331.734375 262.480469 344.878906 262.480469 344.878906 C 257 348.355469 251.5 350.898438 246.207031 352.753906 C 240.160156 329.585938 256.644531 313.957031 256.644531 313.957031 " fill-opacity="1" fill-rule="nonzero"/><path fill="#bfd5d5" d="M 239.714844 354.738281 C 239.714844 354.738281 238.09375 334.03125 227.003906 324.796875 C 215.914062 315.5625 216.328125 357.425781 216.328125 357.425781 C 216.328125 357.425781 231.46875 357.359375 239.714844 354.738281 " fill-opacity="1" fill-rule="nonzero"/><path fill="#566f8c" d="M 145.933594 282.140625 C 145.652344 282.253906 146.761719 284.625 147.640625 288.929688 C 148.0625 291.074219 148.367188 293.71875 148.0625 296.691406 C 147.902344 298.171875 147.601562 299.730469 147.105469 301.316406 C 146.957031 301.734375 146.863281 302.058594 146.671875 302.566406 C 146.371094 303.289062 146.0625 304.015625 145.753906 304.75 C 144.878906 306.476562 143.980469 308.242188 143.066406 310.042969 C 144.425781 309.128906 145.804688 308.203125 147.214844 307.257812 C 147.890625 306.820312 148.570312 306.382812 149.253906 305.945312 L 150.296875 305.269531 L 150.902344 304.933594 C 152.460938 304.027344 154.144531 303.253906 155.890625 302.535156 C 159.40625 301.15625 163.296875 300.300781 167.414062 300.007812 C 170.699219 299.75 173.949219 299.773438 177.097656 299.863281 C 180.203125 299.953125 183.1875 300.324219 186.015625 300.835938 C 191.671875 301.871094 196.675781 303.394531 200.882812 304.683594 C 205.082031 305.996094 208.492188 307.085938 210.878906 307.746094 C 213.265625 308.414062 214.613281 308.679688 214.667969 308.523438 C 214.722656 308.355469 213.476562 307.785156 211.195312 306.835938 C 208.910156 305.894531 205.601562 304.558594 201.441406 303.023438 C 197.28125 301.511719 192.257812 299.785156 186.445312 298.589844 C 183.542969 298 180.433594 297.566406 177.183594 297.4375 C 173.988281 297.3125 170.652344 297.269531 167.21875 297.53125 C 162.917969 297.839844 158.726562 298.78125 154.996094 300.308594 C 153.140625 301.097656 151.371094 301.953125 149.75 302.9375 L 149.152344 303.28125 L 149.019531 303.375 L 148.726562 303.574219 C 148.617188 303.65625 148.523438 303.75 148.445312 303.796875 C 148.472656 303.699219 148.503906 303.605469 148.53125 303.511719 C 148.703125 302.957031 148.867188 302.414062 149.027344 301.882812 C 149.503906 300.140625 149.757812 298.4375 149.851562 296.828125 C 150.023438 293.605469 149.515625 290.816406 148.890625 288.628906 C 147.597656 284.234375 146.078125 282.0625 145.933594 282.140625 " fill-opacity="1" fill-rule="nonzero"/><path fill="#566f8c" d="M 177.757812 297.992188 C 178.453125 297.914062 178.472656 293.277344 178.722656 287.621094 C 178.949219 281.964844 179.320312 277.34375 178.632812 277.203125 C 177.980469 277.066406 176.480469 281.640625 176.246094 287.515625 C 175.988281 293.390625 177.09375 298.074219 177.757812 297.992188 " fill-opacity="1" fill-rule="nonzero"/><path fill="#566f8c" d="M 172.613281 270.957031 C 172.390625 271.238281 173.089844 272.117188 174.042969 273.535156 C 174.519531 274.242188 175.050781 275.097656 175.558594 276.078125 C 175.679688 276.324219 175.804688 276.578125 175.933594 276.835938 L 176.113281 277.234375 C 176.214844 277.472656 176.316406 277.714844 176.417969 277.960938 L 176.582031 278.34375 L 176.742188 278.847656 C 176.855469 279.191406 176.96875 279.503906 177.078125 279.882812 C 177.289062 280.675781 177.503906 281.476562 177.71875 282.285156 C 177.871094 282.828125 178.015625 283.363281 178.160156 283.886719 C 179.046875 281.574219 179.945312 279.128906 180.617188 277.21875 C 180.949219 276.164062 181.222656 275.214844 181.417969 274.40625 C 181.582031 273.625 181.753906 273.148438 181.921875 272.863281 C 182.074219 272.578125 182.34375 272.457031 182.335938 272.292969 C 182.355469 272.15625 182.046875 271.867188 181.410156 272.09375 C 180.792969 272.316406 180.234375 273.019531 179.839844 273.792969 C 179.4375 274.519531 178.996094 275.40625 178.535156 276.410156 C 178.417969 276.523438 178.414062 276.421875 178.414062 276.390625 L 178.414062 276.382812 L 178.40625 276.390625 L 178.402344 276.398438 L 178.398438 276.398438 L 178.363281 276.335938 C 178.253906 276.136719 178.140625 275.941406 178.035156 275.742188 C 177.871094 275.453125 177.699219 275.179688 177.527344 274.914062 C 176.828125 273.863281 176.066406 273.011719 175.363281 272.378906 C 173.941406 271.113281 172.8125 270.699219 172.613281 270.957031 " fill-opacity="1" fill-rule="nonzero"/><path fill="#566f8c" d="M 190.269531 234.65625 C 189.097656 237.609375 187.5 240.734375 185.378906 243.832031 C 184.804688 244.59375 184.316406 245.355469 183.632812 246.15625 C 183.285156 246.558594 182.882812 246.964844 182.371094 247.3125 C 181.863281 247.664062 181.210938 247.917969 180.582031 248.007812 C 179.304688 248.179688 178.191406 247.882812 177.210938 247.636719 C 176.234375 247.375 175.25 247.109375 174.246094 246.839844 C 166.242188 244.671875 157.523438 241.785156 148.839844 237.628906 C 140.175781 233.433594 132.457031 228.332031 126.113281 222.917969 C 119.746094 217.519531 114.757812 211.867188 110.886719 206.925781 C 110.03125 205.757812 109.207031 204.65625 108.429688 203.59375 C 108.75 203.421875 108.925781 203.332031 108.925781 203.332031 C 108.925781 203.332031 107.90625 201.476562 106.492188 198.359375 C 108.097656 200.554688 110.007812 203.066406 112.257812 205.832031 C 116.246094 210.5625 121.273438 215.980469 127.582031 221.167969 C 133.871094 226.367188 141.433594 231.28125 149.917969 235.394531 C 158.421875 239.46875 166.976562 242.375 174.859375 244.640625 C 175.84375 244.921875 176.820312 245.203125 177.78125 245.476562 C 178.730469 245.746094 179.59375 245.9375 180.277344 245.847656 C 180.929688 245.78125 181.464844 245.390625 182.042969 244.753906 C 182.605469 244.125 183.15625 243.335938 183.699219 242.640625 C 185.800781 239.738281 187.417969 236.785156 188.648438 233.988281 C 191.078125 228.355469 191.976562 223.390625 192.351562 219.96875 C 192.722656 216.535156 192.695312 214.601562 192.894531 214.589844 C 193.035156 214.582031 193.394531 216.507812 193.316406 220.035156 C 193.226562 223.550781 192.582031 228.714844 190.269531 234.65625 " fill-opacity="1" fill-rule="nonzero"/><path fill="#566f8c" d="M 169.667969 134.664062 C 165.429688 134.722656 161.183594 134.777344 156.945312 134.832031 C 156.46875 134.835938 155.988281 134.832031 155.515625 134.769531 C 157.839844 124.574219 163.160156 115.417969 170.667969 108.378906 C 170.621094 108.429688 170.578125 108.476562 170.535156 108.527344 C 167.644531 111.839844 164.660156 115.324219 163.601562 119.59375 C 162.214844 125.207031 164.777344 131.574219 169.667969 134.664062 " fill-opacity="1" fill-rule="nonzero"/><path fill="#566f8c" d="M 183.585938 186.25 C 183.894531 186.34375 184.472656 185.628906 185.082031 184.128906 C 185.699219 182.636719 186.234375 180.328125 186.320312 177.417969 C 186.414062 174.503906 185.933594 171.003906 184.640625 167.347656 C 183.351562 163.695312 181.195312 159.917969 178.152344 156.589844 C 175.097656 153.304688 171.589844 150.820312 168.179688 149.097656 C 164.769531 147.367188 161.488281 146.335938 158.695312 145.78125 C 153.09375 144.667969 149.574219 145.203125 149.53125 145.824219 C 149.460938 146.558594 152.789062 147.285156 157.726562 149.148438 C 162.628906 150.992188 169.226562 154.246094 174.503906 159.945312 C 177.085938 162.78125 179.046875 165.941406 180.386719 169.015625 C 181.714844 172.09375 182.480469 175.058594 182.816406 177.601562 C 183.527344 182.703125 182.84375 186.039062 183.585938 186.25 " fill-opacity="1" fill-rule="nonzero"/><path fill="#566f8c" d="M 274.800781 204.316406 C 274.800781 204.316406 274.210938 204.347656 273.164062 204.328125 C 272.117188 204.308594 270.613281 204.242188 268.808594 204.035156 C 265.203125 203.625 260.347656 202.652344 255.640625 200.71875 C 253.289062 199.761719 250.964844 198.589844 248.878906 197.222656 C 246.785156 195.863281 244.925781 194.316406 243.417969 192.769531 C 240.363281 189.6875 238.902344 186.621094 238.464844 185.714844 C 237.605469 183.847656 237.316406 181.980469 237.316406 180.636719 C 237.367188 179.277344 237.6875 178.425781 238.183594 178.351562 C 238.6875 178.273438 239.273438 178.957031 239.84375 180.042969 C 240.464844 181.121094 241.074219 182.613281 241.816406 184.21875 C 242.207031 185 243.234375 187.722656 245.722656 190.703125 C 246.949219 192.199219 248.511719 193.75 250.335938 195.183594 C 252.15625 196.625 254.246094 197.929688 256.40625 199.054688 C 260.734375 201.320312 265.390625 202.726562 268.898438 203.472656 C 270.65625 203.847656 272.140625 204.054688 273.171875 204.167969 C 274.210938 204.289062 274.800781 204.316406 274.800781 204.316406 " fill-opacity="1" fill-rule="nonzero"/><path fill="#25313e" d="M 224.082031 135.042969 C 223.929688 135.332031 225.507812 136.558594 228.367188 138.011719 C 229.804688 138.726562 231.527344 139.515625 233.597656 140.183594 C 235.652344 140.828125 238.132812 141.359375 240.816406 140.917969 C 241.476562 140.804688 242.117188 140.664062 242.796875 140.382812 C 243.457031 140.105469 244.160156 139.683594 244.683594 138.992188 C 245.214844 138.304688 245.4375 137.417969 245.398438 136.65625 C 245.355469 135.894531 245.136719 135.246094 244.867188 134.683594 C 244.601562 134.121094 244.273438 133.632812 243.925781 133.195312 C 243.589844 132.777344 243.25 132.394531 242.898438 132.042969 C 242.195312 131.339844 241.476562 130.757812 240.785156 130.292969 C 237.960938 128.441406 235.820312 128.320312 235.757812 128.609375 C 235.636719 128.96875 237.476562 129.695312 239.710938 131.679688 C 240.261719 132.175781 240.828125 132.757812 241.375 133.421875 C 241.921875 134.101562 242.476562 134.84375 242.777344 135.613281 C 242.941406 136 243.027344 136.394531 243.027344 136.722656 C 243.019531 137.050781 242.933594 137.296875 242.761719 137.507812 C 242.425781 137.953125 241.46875 138.3125 240.40625 138.476562 C 238.304688 138.832031 236.15625 138.472656 234.226562 137.992188 C 232.289062 137.492188 230.519531 136.882812 229.046875 136.394531 C 226.09375 135.390625 224.246094 134.730469 224.082031 135.042969 " fill-opacity="1" fill-rule="nonzero"/><path fill="#85cde2" d="M 182.921875 61.941406 C 182.921875 61.941406 182.761719 62.070312 182.480469 62.292969 C 182.1875 62.496094 181.828125 62.867188 181.410156 63.292969 C 180.605469 64.1875 179.792969 65.570312 179.414062 67.070312 C 179.007812 68.5625 178.988281 70.105469 179.203125 71.234375 C 179.402344 72.375 179.785156 73.089844 179.828125 73.324219 C 179.871094 73.570312 179.914062 73.789062 179.867188 74.039062 C 179.820312 74.285156 179.738281 74.535156 179.632812 74.773438 C 179.402344 75.261719 179 75.785156 178.441406 76.113281 C 177.882812 76.445312 177.242188 76.492188 176.625 76.21875 C 176.308594 76.089844 176.027344 75.871094 175.800781 75.582031 C 175.578125 75.292969 175.351562 74.945312 175.269531 74.550781 C 175.175781 74.160156 174.957031 72.820312 175.222656 71.160156 C 175.453125 69.503906 176.199219 67.582031 177.296875 66.03125 C 178.371094 64.460938 179.808594 63.308594 180.960938 62.710938 C 181.550781 62.429688 182.023438 62.210938 182.382812 62.117188 C 182.726562 62.003906 182.921875 61.941406 182.921875 61.941406 " fill-opacity="1" fill-rule="nonzero"/><path fill="#85cde2" d="M 179.429688 45.558594 C 179.429688 45.558594 179.164062 45.523438 178.695312 45.457031 C 178.214844 45.417969 177.558594 45.265625 176.738281 45.066406 C 175.121094 44.636719 172.976562 43.710938 171.03125 42.242188 C 169.074219 40.804688 167.335938 38.867188 166.242188 37.0625 C 165.121094 35.269531 164.625 33.675781 164.511719 33.191406 C 164.386719 32.699219 164.433594 32.199219 164.523438 31.753906 C 164.613281 31.304688 164.804688 30.894531 165.074219 30.558594 C 165.601562 29.890625 166.355469 29.53125 167.203125 29.535156 C 168.050781 29.539062 168.835938 29.867188 169.410156 30.304688 C 169.6875 30.527344 169.9375 30.78125 170.144531 31.054688 C 170.34375 31.332031 170.441406 31.640625 170.535156 31.972656 C 170.617188 32.304688 170.613281 33.433594 170.980469 34.960938 C 171.324219 36.488281 172.089844 38.386719 173.226562 40.097656 C 174.34375 41.824219 175.855469 43.289062 177.148438 44.199219 C 177.800781 44.636719 178.359375 45.007812 178.777344 45.207031 C 179.191406 45.429688 179.429688 45.558594 179.429688 45.558594 " fill-opacity="1" fill-rule="nonzero"/><path fill="#85cde2" d="M 163.613281 64.578125 C 163.613281 64.578125 163.363281 64.898438 162.921875 65.464844 C 162.453125 66 161.902344 66.863281 161.257812 67.871094 C 160.980469 68.402344 160.675781 68.976562 160.351562 69.585938 C 160.066406 70.210938 159.800781 70.882812 159.515625 71.558594 C 159.039062 72.96875 158.589844 74.472656 158.363281 76.023438 C 157.859375 79.117188 158.007812 82.234375 158.515625 84.5625 C 158.980469 86.90625 159.71875 88.453125 159.816406 88.960938 C 159.90625 89.476562 159.96875 89.960938 159.871094 90.472656 C 159.828125 90.726562 159.757812 90.984375 159.660156 91.242188 C 159.582031 91.488281 159.480469 91.738281 159.355469 91.980469 C 158.84375 92.960938 157.976562 93.925781 156.8125 94.488281 C 155.644531 95.054688 154.367188 95.054688 153.199219 94.464844 C 152.910156 94.324219 152.625 94.140625 152.355469 93.929688 C 152.105469 93.710938 151.871094 93.457031 151.65625 93.179688 C 151.238281 92.617188 150.847656 91.949219 150.703125 91.1875 C 150.539062 90.441406 150.183594 87.902344 150.59375 84.6875 C 150.949219 81.472656 152.136719 77.664062 153.953125 74.421875 C 154.832031 72.789062 155.921875 71.320312 156.96875 70.035156 C 157.539062 69.421875 158.066406 68.832031 158.59375 68.304688 C 159.148438 67.808594 159.671875 67.34375 160.148438 66.914062 C 161.179688 66.132812 162.003906 65.515625 162.652344 65.160156 C 163.269531 64.789062 163.613281 64.578125 163.613281 64.578125 " fill-opacity="1" fill-rule="nonzero"/><path fill="#85cde2" d="M 158.617188 51.054688 C 158.617188 51.054688 158.160156 51.09375 157.363281 51.160156 C 156.5625 51.199219 155.398438 51.25 153.972656 51.144531 C 151.136719 50.960938 147.234375 50.125 143.511719 48.1875 C 139.769531 46.300781 136.363281 43.257812 134.1875 40.359375 C 131.964844 37.472656 130.863281 34.835938 130.617188 34.019531 C 130.128906 32.351562 130.390625 30.667969 131.191406 29.46875 C 131.976562 28.261719 133.246094 27.542969 134.671875 27.4375 C 136.117188 27.328125 137.453125 27.78125 138.5 28.441406 C 139.53125 29.109375 140.316406 29.992188 140.632812 31.089844 C 140.804688 31.636719 140.984375 33.523438 141.835938 35.996094 C 142.660156 38.46875 144.242188 41.46875 146.597656 43.980469 C 148.917969 46.515625 151.917969 48.476562 154.367188 49.566406 C 155.589844 50.121094 156.660156 50.472656 157.414062 50.71875 C 158.179688 50.929688 158.617188 51.054688 158.617188 51.054688 " fill-opacity="1" fill-rule="nonzero"/><path fill="#85cde2" d="M 156.132812 58.832031 C 156.132812 58.832031 155.988281 58.9375 155.722656 59.136719 C 155.457031 59.34375 155.054688 59.617188 154.519531 59.960938 C 153.453125 60.632812 151.824219 61.511719 149.714844 62.28125 C 147.617188 63.054688 145.050781 63.722656 142.300781 64.269531 C 139.558594 64.808594 136.570312 65.285156 133.507812 65.628906 C 127.394531 66.3125 120.96875 66.402344 115.804688 66.027344 C 110.640625 65.6875 106.742188 64.972656 105.589844 64.625 C 103.277344 63.886719 101.5 62.289062 100.570312 60.363281 C 99.640625 58.425781 99.542969 56.203125 100.386719 54.125 C 101.238281 52.046875 102.835938 50.488281 104.644531 49.613281 C 106.46875 48.730469 108.527344 48.496094 110.496094 49.128906 C 111.488281 49.421875 114.503906 50.929688 118.730469 52.628906 C 122.949219 54.351562 128.402344 56.1875 133.960938 57.511719 C 136.738281 58.171875 139.53125 58.710938 142.160156 59.125 C 144.78125 59.535156 147.183594 59.777344 149.257812 59.78125 C 151.332031 59.792969 153.054688 59.5625 154.257812 59.3125 C 154.851562 59.183594 155.328125 59.070312 155.644531 58.972656 C 155.960938 58.878906 156.132812 58.832031 156.132812 58.832031 " fill-opacity="1" fill-rule="nonzero"/><path fill="#85cde2" d="M 142.210938 70.65625 C 142.210938 70.65625 141.882812 70.945312 141.308594 71.453125 C 140.757812 71.984375 139.976562 72.742188 139.160156 73.75 C 137.503906 75.734375 135.753906 78.71875 134.875 81.90625 C 133.949219 85.089844 133.933594 88.347656 134.339844 90.820312 C 134.726562 93.300781 135.429688 94.980469 135.53125 95.515625 C 135.761719 96.585938 135.496094 97.683594 134.925781 98.730469 C 134.335938 99.761719 133.410156 100.761719 132.136719 101.335938 C 130.875 101.90625 129.46875 101.878906 128.242188 101.207031 C 127.007812 100.550781 126.011719 99.230469 125.664062 97.582031 C 125.5 96.769531 125.238281 94.003906 125.835938 90.523438 C 126.394531 87.050781 127.96875 82.902344 130.375 79.632812 C 132.742188 76.324219 135.761719 73.914062 138.140625 72.546875 C 139.332031 71.847656 140.363281 71.398438 141.078125 71.089844 C 141.800781 70.8125 142.210938 70.65625 142.210938 70.65625 " fill-opacity="1" fill-rule="nonzero"/><path fill="#85cde2" d="M 176.714844 53.421875 C 176.714844 53.421875 176.601562 53.578125 176.40625 53.859375 C 176.21875 54.15625 175.910156 54.535156 175.523438 55.007812 C 174.734375 55.929688 173.511719 57.074219 172.027344 57.992188 C 170.554688 58.925781 168.84375 59.644531 167.390625 60.003906 C 165.9375 60.382812 164.769531 60.4375 164.414062 60.425781 C 162.957031 60.335938 162.035156 59.074219 162.335938 57.890625 C 162.636719 56.679688 163.675781 55.898438 164.691406 55.960938 C 164.949219 55.964844 165.785156 56.179688 166.96875 56.253906 C 168.144531 56.34375 169.664062 56.261719 171.148438 55.9375 C 172.640625 55.625 174.066406 55.03125 175.078125 54.46875 C 175.578125 54.175781 176 53.925781 176.269531 53.726562 C 176.550781 53.53125 176.714844 53.421875 176.714844 53.421875 " fill-opacity="1" fill-rule="nonzero"/><path fill="#85cde2" d="M 109.90625 80.609375 C 109.90625 80.609375 109.777344 80.792969 109.554688 81.125 C 109.320312 81.445312 109.027344 81.933594 108.679688 82.511719 C 108.003906 83.6875 107.253906 85.328125 106.769531 87.054688 C 106.269531 88.78125 106.011719 90.554688 105.953125 91.960938 C 105.882812 93.363281 105.984375 94.390625 105.953125 94.703125 C 105.847656 95.929688 104.75 97.003906 103.300781 97.101562 C 101.875 97.203125 100.621094 95.9375 100.75 94.292969 C 100.792969 93.894531 101.042969 92.589844 101.660156 90.992188 C 102.261719 89.386719 103.257812 87.515625 104.4375 85.890625 C 105.609375 84.253906 106.976562 82.886719 108.058594 81.988281 C 108.609375 81.542969 109.054688 81.191406 109.394531 80.96875 C 109.722656 80.738281 109.90625 80.609375 109.90625 80.609375 " fill-opacity="1" fill-rule="nonzero"/><path fill="#85cde2" d="M 85.222656 123.234375 C 85.222656 123.234375 85.03125 123.914062 84.839844 124.957031 C 84.648438 126 84.5 127.40625 84.527344 128.816406 C 84.511719 131.664062 85.355469 134.378906 85.445312 134.863281 C 85.585938 135.839844 84.910156 136.847656 83.820312 137.140625 C 82.742188 137.429688 81.605469 136.675781 81.425781 135.4375 C 81.390625 135.132812 81.363281 134.125 81.519531 132.824219 C 81.664062 131.523438 82.015625 129.9375 82.523438 128.476562 C 83.023438 127.007812 83.691406 125.671875 84.246094 124.734375 C 84.804688 123.800781 85.222656 123.234375 85.222656 123.234375 " fill-opacity="1" fill-rule="nonzero"/><path fill="#677c94" d="M 216.328125 357.425781 C 211.296875 357.289062 208.253906 356.722656 208.253906 356.722656 C 208.253906 356.722656 214.234375 327.550781 214.695312 307.257812 C 214.695312 307.257812 215.488281 349.203125 216.328125 357.425781 " fill-opacity="1" fill-rule="nonzero"/><path fill="#566f8c" d="M 302.476562 100.011719 C 303.179688 100.058594 303.769531 100.101562 304.183594 100.089844 C 304.597656 100.09375 304.832031 100.09375 304.832031 100.09375 C 304.832031 100.09375 304.609375 100.171875 304.222656 100.316406 C 303.832031 100.472656 303.257812 100.644531 302.550781 100.855469 C 301.140625 101.242188 299.152344 101.582031 297.050781 101.566406 C 295.015625 101.574219 292.902344 101.265625 291.203125 100.789062 C 291.90625 99.371094 292.484375 97.953125 292.953125 96.609375 C 294.144531 97.417969 295.757812 98.277344 297.480469 98.890625 C 299.230469 99.535156 301.074219 99.886719 302.476562 100.011719 " fill-opacity="1" fill-rule="nonzero"/><path fill="#566f8c" d="M 296.8125 79.34375 C 299.101562 79.179688 301.25 78.339844 301.25 78.339844 C 301.25 78.339844 300.828125 78.71875 300.117188 79.242188 C 299.40625 79.761719 298.386719 80.398438 297.253906 80.921875 C 296.132812 81.46875 294.898438 81.847656 293.878906 82.085938 C 293.683594 81.132812 293.464844 80.203125 293.230469 79.304688 C 294.183594 79.402344 295.484375 79.484375 296.8125 79.34375 " fill-opacity="1" fill-rule="nonzero"/><path fill="#566f8c" d="M 291.542969 73.070312 C 291.457031 73.191406 291.363281 73.304688 291.277344 73.421875 C 291.035156 72.835938 290.785156 72.265625 290.527344 71.703125 C 292.507812 70.390625 294.191406 68.859375 294.191406 68.859375 C 294.191406 68.859375 293.109375 71.007812 291.542969 73.070312 " fill-opacity="1" fill-rule="nonzero"/><path fill="#566f8c" d="M 243.113281 48.769531 C 243.113281 48.898438 244.574219 48.960938 247.203125 49.167969 C 249.824219 49.375 253.625 49.695312 258.226562 50.59375 C 262.8125 51.503906 268.238281 53.011719 273.667969 55.898438 C 279.089844 58.753906 284.40625 63.207031 288.398438 69.042969 C 290.359375 71.972656 291.929688 75.074219 292.910156 78.242188 C 293.898438 81.402344 294.382812 84.605469 294.335938 87.636719 C 294.238281 93.738281 292.050781 99.058594 289.433594 102.832031 C 286.808594 106.65625 283.769531 109.023438 281.53125 110.332031 C 280.390625 110.957031 279.492188 111.4375 278.847656 111.691406 C 278.222656 111.984375 277.894531 112.160156 277.910156 112.214844 C 277.925781 112.261719 278.285156 112.183594 278.957031 111.988281 C 279.648438 111.824219 280.601562 111.425781 281.820312 110.867188 C 284.210938 109.691406 287.488281 107.371094 290.339844 103.472656 C 293.179688 99.621094 295.589844 94.113281 295.78125 87.675781 C 295.871094 84.464844 295.394531 81.105469 294.378906 77.785156 C 293.371094 74.457031 291.742188 71.210938 289.695312 68.164062 C 285.542969 62.089844 279.992188 57.503906 274.34375 54.621094 C 268.691406 51.707031 263.109375 50.289062 258.425781 49.5 C 253.726562 48.730469 249.875 48.582031 247.226562 48.554688 C 244.574219 48.539062 243.113281 48.679688 243.113281 48.769531 " fill-opacity="1" fill-rule="nonzero"/></svg>