<svg xmlns="http://www.w3.org/2000/svg" xmlns:xlink="http://www.w3.org/1999/xlink" width="500" zoomAndPan="magnify" viewBox="0 0 375 374.999991" height="500" preserveAspectRatio="xMidYMid meet" version="1.0"><defs><clipPath id="f1a7eec615"><path d="M 226.667969 97 L 368.453125 97 L 368.453125 186.804688 L 226.667969 186.804688 Z M 226.667969 97 " clip-rule="nonzero"/></clipPath><clipPath id="2adf24903e"><path d="M 132.386719 315 L 170.746094 315 L 170.746094 375 L 132.386719 375 Z M 132.386719 315 " clip-rule="nonzero"/></clipPath></defs><path fill="#399b9f" d="M 362.671875 86.152344 C 343.058594 47.738281 276.988281 60.933594 253.328125 86.492188 C 240.234375 100.636719 232.101562 118.058594 228.238281 136.746094 C 224.65625 154.09375 227.003906 169.109375 226.953125 186.421875 C 226.984375 186.539062 227.019531 186.65625 227.046875 186.777344 L 227.089844 186.847656 L 231.277344 175.964844 C 232.15625 174.070312 233.082031 172.003906 233.785156 170.011719 C 243.621094 142.152344 255.832031 117.976562 280.570312 99.296875 C 307.363281 79.066406 349.167969 80.367188 366.910156 111.875 C 367.625 103.550781 366.425781 93.5 362.671875 86.152344 " fill-opacity="1" fill-rule="nonzero"/><path fill="#2c7b7a" d="M 366.878906 102.082031 C 363.28125 97.675781 358.730469 93.84375 355.128906 91.230469 C 346.535156 84.992188 337.730469 80.601562 327.214844 79.296875 C 309.3125 77.074219 292.050781 79.753906 276.179688 88.199219 C 256.703125 98.570312 247.214844 119.695312 239.382812 139.203125 C 235.667969 148.457031 233.222656 157.851562 230.632812 167.433594 C 229.339844 172.222656 227.445312 177.828125 226.933594 183.054688 C 226.949219 184.164062 226.953125 185.285156 226.949219 186.414062 C 226.984375 186.535156 227.015625 186.65625 227.046875 186.777344 L 227.089844 186.847656 L 231.277344 175.964844 C 232.15625 174.070312 233.082031 172.003906 233.785156 170.011719 C 243.621094 142.152344 255.832031 117.976562 280.570312 99.296875 C 307.363281 79.066406 349.167969 80.367188 366.910156 111.875 C 367.179688 108.773438 367.175781 105.433594 366.878906 102.082031 " fill-opacity="1" fill-rule="nonzero"/><path fill="#399b9f" d="M 296.90625 135.324219 C 281.742188 137.808594 267.386719 145.082031 254.617188 155.445312 C 243.308594 164.617188 236.117188 175.230469 226.867188 186.132812 C 226.960938 186.429688 227.039062 186.734375 227.101562 187.039062 L 233.832031 183.0625 C 235.390625 182.269531 237.070312 181.382812 238.589844 180.433594 C 259.835938 167.136719 280.253906 157.53125 304.300781 158.175781 C 330.339844 158.875 352.183594 181.769531 343.753906 212.019531 C 348.898438 206.871094 353.996094 199.574219 356.171875 192.722656 C 367.539062 156.902344 324.296875 130.839844 296.90625 135.324219 " fill-opacity="1" fill-rule="nonzero"/><path fill="#2c7b7a" d="M 349.191406 192.117188 C 348.117188 183.449219 345.871094 175.894531 340.933594 169.488281 C 332.535156 158.582031 321.675781 151.261719 308.273438 148.503906 C 291.824219 145.117188 274.617188 154.132812 259.230469 162.945312 C 251.933594 167.125 245.242188 172.070312 238.363281 177.0625 C 234.925781 179.554688 230.699219 182.277344 227.433594 185.476562 C 227.246094 185.695312 227.058594 185.917969 226.867188 186.136719 C 226.960938 186.433594 227.039062 186.734375 227.101562 187.039062 L 233.832031 183.0625 C 235.390625 182.269531 237.070312 181.382812 238.589844 180.433594 C 259.835938 167.136719 280.253906 157.53125 304.300781 158.175781 C 330.339844 158.875 352.183594 181.769531 343.753906 212.019531 C 345.667969 210.101562 347.578125 207.886719 349.335938 205.507812 C 349.910156 200.6875 349.644531 195.746094 349.191406 192.117188 " fill-opacity="1" fill-rule="nonzero"/><g clip-path="url(#f1a7eec615)"><path fill="#4d67ba" d="M 287.09375 103.976562 C 271.59375 112.539062 258.445312 125.742188 247.949219 141.519531 C 238.269531 156.066406 233.878906 170.449219 226.859375 186.109375 C 226.902344 186.238281 226.941406 186.367188 226.976562 186.5 L 234.195312 178.332031 C 235.625 176.890625 237.152344 175.3125 238.488281 173.726562 C 257.167969 151.566406 276.101562 133.550781 302.097656 124.71875 C 330.253906 115.152344 360.765625 130.226562 361.082031 164.882812 C 365.011719 157.523438 368.222656 147.949219 368.4375 139.996094 C 369.546875 98.414062 315.09375 88.507812 287.09375 103.976562 " fill-opacity="1" fill-rule="nonzero"/></g><path fill="#7284c6" d="M 361.082031 164.882812 C 360.832031 137.09375 341.15625 121.894531 318.855469 121.894531 C 313.34375 121.894531 307.675781 122.824219 302.097656 124.71875 C 284.671875 130.636719 270.425781 140.679688 257.296875 153.332031 C 270.425781 140.679688 284.671875 130.636719 302.097656 124.71875 C 307.675781 122.824219 313.34375 121.894531 318.855469 121.894531 C 341.15625 121.894531 360.832031 137.09375 361.082031 164.882812 C 362.496094 162.238281 363.816406 159.308594 364.933594 156.269531 C 363.816406 159.308594 362.496094 162.238281 361.082031 164.882812 " fill-opacity="1" fill-rule="nonzero"/><path fill="#3854ad" d="M 230.554688 182.449219 C 230.363281 181.671875 230.164062 180.925781 229.96875 180.21875 C 232.242188 176.726562 234.953125 173.367188 237.199219 170.328125 C 243.03125 162.441406 248.6875 154.675781 255.21875 147.464844 C 269 132.257812 284.671875 116.125 303.363281 113.132812 C 306.671875 112.601562 309.917969 112.339844 313.101562 112.339844 C 324.570312 112.339844 335.203125 115.714844 344.898438 121.957031 C 352.175781 126.640625 356.925781 133.578125 360.761719 142.125 C 362.367188 145.707031 364.179688 150.71875 365.054688 155.9375 C 365.015625 156.046875 364.976562 156.160156 364.933594 156.269531 C 363.816406 159.308594 362.496094 162.238281 361.082031 164.882812 C 360.832031 137.09375 341.15625 121.894531 318.855469 121.894531 C 313.34375 121.894531 307.675781 122.824219 302.097656 124.71875 C 284.671875 130.636719 270.425781 140.679688 257.296875 153.332031 C 250.839844 159.558594 244.648438 166.417969 238.488281 173.726562 C 237.152344 175.3125 235.625 176.890625 234.195312 178.332031 L 230.554688 182.449219 " fill-opacity="1" fill-rule="nonzero"/><path fill="#4d67ba" d="M 323.523438 185.171875 C 314.539062 175.628906 302.425781 170.558594 289.601562 168.890625 C 276.734375 167.214844 265.007812 168.328125 252.683594 172.265625 C 247.257812 174 241.503906 177.539062 236.625 180.40625 C 233.726562 182.109375 229.664062 186.023438 227.054688 186.800781 C 229.945312 185.824219 313.554688 158.378906 335.558594 245.039062 C 337.097656 241.082031 337.574219 234.714844 337.417969 230.191406 C 336.925781 215.980469 333.554688 195.828125 323.523438 185.171875 " fill-opacity="1" fill-rule="nonzero"/><path fill="#7284c6" d="M 335.558594 245.039062 C 335.597656 244.9375 335.636719 244.839844 335.671875 244.734375 C 335.636719 244.839844 335.597656 244.9375 335.558594 245.039062 M 335.484375 244.738281 C 334.945312 242.640625 334.371094 240.609375 333.761719 238.644531 C 334.371094 240.609375 334.945312 242.640625 335.484375 244.738281 M 333.761719 238.644531 C 333.703125 238.449219 333.644531 238.261719 333.585938 238.070312 C 333.644531 238.261719 333.703125 238.449219 333.761719 238.644531 M 333.53125 237.898438 C 333.523438 237.875 333.515625 237.847656 333.507812 237.824219 C 333.515625 237.847656 333.523438 237.875 333.53125 237.898438 M 333.429688 237.589844 C 333.417969 237.546875 333.410156 237.523438 333.398438 237.484375 C 333.410156 237.523438 333.417969 237.546875 333.429688 237.589844 M 313.753906 203.0625 C 313.75 203.058594 313.75 203.058594 313.746094 203.058594 C 313.75 203.058594 313.75 203.058594 313.753906 203.0625 M 313.742188 203.054688 C 297.429688 186.246094 276.566406 181.917969 259.382812 181.917969 C 250.625 181.917969 242.816406 183.046875 237.0625 184.21875 C 237.0625 184.21875 237.0625 184.21875 237.058594 184.21875 C 242.8125 183.046875 250.621094 181.917969 259.382812 181.917969 C 276.566406 181.917969 297.433594 186.246094 313.742188 203.054688 " fill-opacity="1" fill-rule="nonzero"/><path fill="#3854ad" d="M 335.558594 245.039062 C 335.535156 244.9375 335.507812 244.839844 335.484375 244.738281 C 334.945312 242.640625 334.371094 240.609375 333.761719 238.644531 C 333.703125 238.449219 333.644531 238.261719 333.585938 238.070312 C 333.566406 238.015625 333.546875 237.953125 333.53125 237.898438 C 333.523438 237.875 333.515625 237.847656 333.507812 237.824219 C 333.480469 237.746094 333.457031 237.667969 333.429688 237.589844 C 333.417969 237.546875 333.410156 237.523438 333.398438 237.484375 C 328.570312 222.421875 321.703125 211.257812 313.753906 203.0625 C 313.75 203.058594 313.75 203.058594 313.746094 203.058594 L 313.742188 203.054688 C 297.433594 186.246094 276.566406 181.917969 259.382812 181.917969 C 250.621094 181.917969 242.8125 183.046875 237.058594 184.21875 C 236.476562 184.292969 235.902344 184.363281 235.339844 184.433594 C 234.140625 184.582031 232.695312 184.925781 231.214844 185.285156 C 231.15625 185.011719 231.09375 184.738281 231.035156 184.472656 C 231.191406 184.359375 231.34375 184.242188 231.5 184.125 C 235.71875 181.855469 239.816406 179.988281 245.320312 178.859375 C 252.050781 177.484375 259.03125 176.335938 265.929688 176.335938 C 267.050781 176.335938 268.167969 176.367188 269.28125 176.429688 C 283.105469 177.230469 296.667969 180.230469 308.328125 188.28125 C 325.757812 200.3125 332.570312 221.464844 336.378906 242.316406 C 336.175781 243.179688 335.941406 243.996094 335.671875 244.734375 C 335.636719 244.839844 335.597656 244.9375 335.558594 245.039062 " fill-opacity="1" fill-rule="nonzero"/><path fill="#399b9f" d="M 314.605469 219.980469 C 309.570312 208.5625 300.054688 199.832031 288.695312 193.761719 C 277.296875 187.667969 265.988281 184.371094 253.132812 183.28125 C 247.476562 182.804688 240.882812 183.746094 235.339844 184.433594 C 232.960938 184.730469 229.625 185.78125 226.929688 186.246094 C 227.042969 186.410156 227.152344 186.578125 227.253906 186.75 C 243.140625 188.652344 313.730469 201.332031 304.9375 275.574219 C 307.753906 272.746094 310.414062 267.46875 311.847656 263.542969 C 316.34375 251.199219 320.234375 232.738281 314.605469 219.980469 " fill-opacity="1" fill-rule="nonzero"/><path fill="#2c7b7a" d="M 299.371094 217.136719 C 291.316406 206.027344 279.734375 198.550781 267.136719 192.859375 C 259.871094 189.574219 251.820312 187.722656 243.976562 186.261719 C 238.457031 185.234375 233.988281 185.347656 229.265625 185.761719 C 228.457031 185.953125 227.675781 186.113281 226.929688 186.242188 C 227.039062 186.40625 227.152344 186.578125 227.253906 186.75 C 243.132812 188.652344 313.730469 201.324219 304.9375 275.574219 C 305.519531 274.992188 306.089844 274.300781 306.648438 273.542969 C 310.378906 254.316406 311.410156 233.746094 299.371094 217.136719 " fill-opacity="1" fill-rule="nonzero"/><path fill="#be531e" d="M 122.882812 311.140625 C 125.632812 321.9375 127.152344 333.1875 127.28125 344.074219 C 121.4375 341.296875 111.121094 341.554688 105.46875 342.746094 C 104.640625 342.921875 103.976562 343.53125 104.027344 344.382812 C 104.082031 345.230469 104.816406 345.871094 105.664062 345.816406 C 110.234375 345.519531 119.070312 344.53125 123.789062 346.011719 C 117.246094 346.375 106.402344 349.238281 103.683594 352.632812 C 103.15625 353.300781 103.265625 354.261719 103.925781 354.792969 C 104.257812 355.0625 104.660156 355.164062 105.054688 355.121094 C 105.445312 355.078125 105.820312 354.886719 106.089844 354.554688 C 108.058594 352.089844 118.871094 349.058594 125.394531 349.019531 C 122.316406 351.984375 118.722656 358.078125 118.109375 362.152344 C 117.980469 362.992188 118.5625 363.777344 119.402344 363.902344 C 119.535156 363.921875 119.671875 363.925781 119.800781 363.910156 C 120.476562 363.839844 121.046875 363.3125 121.152344 362.609375 C 121.550781 359.957031 124.074219 355.480469 125.660156 353.332031 C 127.03125 351.480469 129.160156 349.027344 131.472656 348.375 C 132.886719 347.976562 136.195312 347.898438 137.570312 348.332031 C 138.378906 348.585938 139.246094 348.140625 139.503906 347.332031 C 139.757812 346.519531 139.308594 345.65625 138.5 345.402344 C 136.445312 344.746094 132.738281 344.96875 130.976562 345.355469 C 130.957031 333.746094 129.382812 321.699219 126.4375 310.152344 C 125.414062 310.8125 124.234375 311.171875 122.882812 311.140625 " fill-opacity="1" fill-rule="nonzero"/><g clip-path="url(#2adf24903e)"><path fill="#be531e" d="M 169.28125 354.570312 C 167.089844 353.996094 163.207031 354.429688 161.386719 354.929688 C 160.679688 341.644531 158.007812 327.917969 153.6875 315.003906 C 152.640625 315.707031 151.410156 316.09375 149.953125 316.070312 C 154.050781 328.261719 156.640625 341.203125 157.4375 353.78125 C 151.152344 351.183594 140.34375 352.007812 134.472656 353.5625 C 133.613281 353.792969 132.945312 354.46875 133.046875 355.359375 C 133.152344 356.246094 133.953125 356.878906 134.84375 356.773438 C 139.621094 356.21875 148.84375 354.707031 153.875 356.003906 C 147.03125 356.738281 135.800781 360.324219 133.132812 364.035156 C 132.613281 364.761719 132.777344 365.769531 133.503906 366.292969 C 133.867188 366.554688 134.296875 366.640625 134.703125 366.578125 C 135.113281 366.507812 135.496094 366.289062 135.757812 365.921875 C 137.695312 363.230469 148.875 359.464844 155.722656 359.070312 C 152.648438 362.351562 149.210938 368.9375 148.78125 373.246094 C 148.695312 374.136719 149.347656 374.929688 150.234375 375.015625 C 150.375 375.03125 150.519531 375.023438 150.652344 375.003906 C 151.355469 374.890625 151.925781 374.308594 152 373.566406 C 152.28125 370.761719 154.6875 365.925781 156.234375 363.585938 C 157.570312 361.570312 159.679688 358.878906 162.066406 358.070312 C 163.527344 357.578125 167 357.316406 168.464844 357.695312 C 169.328125 357.921875 170.210938 357.402344 170.441406 356.542969 C 170.660156 355.671875 170.148438 354.789062 169.28125 354.570312 " fill-opacity="1" fill-rule="nonzero"/></g><path fill="#524540" d="M 153.6875 315.003906 C 159.359375 311.15625 159.300781 297.867188 158.203125 290.332031 C 151.851562 291.355469 145.351562 291.492188 138.785156 290.53125 C 124.429688 288.433594 111.261719 284.09375 98.863281 278.015625 L 98.351562 277.753906 C 107.597656 286.429688 107.089844 305.246094 119.472656 310.359375 C 120.71875 310.871094 121.847656 311.117188 122.882812 311.140625 C 124.234375 311.171875 125.414062 310.8125 126.4375 310.152344 C 129.734375 308.039062 131.441406 302.8125 132.199219 297.335938 C 135.902344 304.957031 139.257812 313.042969 147.042969 315.554688 C 148.101562 315.898438 149.066406 316.054688 149.953125 316.070312 C 151.410156 316.09375 152.640625 315.707031 153.6875 315.003906 " fill-opacity="1" fill-rule="nonzero"/><path fill="#62544b" d="M 226.519531 170.347656 C 221.769531 185.476562 204.816406 188.945312 196.148438 189.808594 C 185.617188 190.863281 172.703125 186.324219 165.0625 178.882812 C 144.632812 158.984375 160.757812 133.890625 164.621094 110.769531 C 169.941406 78.941406 162.824219 48.773438 128.003906 42.921875 C 114.386719 40.632812 100.878906 41.671875 90.914062 51.773438 C 81.414062 61.40625 79.546875 75.078125 72.25 86.042969 C 56.273438 110.042969 26.628906 117.160156 17.695312 147.3125 C 6.441406 185.292969 32.265625 229.152344 60.988281 252.917969 C 73.058594 262.90625 85.515625 271.472656 98.863281 278.015625 C 111.261719 284.09375 124.429688 288.433594 138.785156 290.53125 C 145.351562 291.492188 151.851562 291.355469 158.203125 290.332031 C 179.609375 286.875 199.296875 273.164062 213.988281 256.019531 C 248.132812 216.171875 226.519531 170.347656 226.519531 170.347656 " fill-opacity="1" fill-rule="nonzero"/><path fill="#eae2d7" d="M 164.621094 110.769531 C 164.625 110.753906 164.628906 110.738281 164.628906 110.71875 C 164.6875 110.363281 164.746094 110.003906 164.804688 109.648438 C 164.746094 110.023438 164.683594 110.398438 164.621094 110.769531 M 164.808594 109.625 L 164.808594 109.625 " fill-opacity="1" fill-rule="nonzero"/><path fill="#7b6c5d" d="M 233.25 205.527344 C 231.953125 202.996094 230.296875 200.558594 228.152344 198.230469 C 224.164062 193.910156 219.785156 191.332031 214.589844 191.332031 C 213.097656 191.332031 211.53125 191.546875 209.890625 191.996094 C 201.90625 194.175781 195.375 197.253906 187.433594 197.253906 C 185.984375 197.253906 184.488281 197.152344 182.929688 196.921875 C 174.910156 195.746094 167.882812 193.472656 161.519531 188.101562 C 156.449219 183.828125 153.019531 178.441406 150.914062 172.511719 C 151.738281 172.777344 152.582031 172.988281 153.445312 173.144531 C 153.335938 171.636719 153.28125 170.171875 153.28125 168.738281 C 153.28125 164.53125 153.785156 160.617188 154.976562 156.898438 C 155.359375 164.640625 158.066406 172.066406 165.0625 178.882812 C 171.964844 185.605469 183.171875 189.960938 193.042969 189.960938 C 194.097656 189.960938 195.132812 189.910156 196.148438 189.808594 C 204.816406 188.945312 221.769531 185.476562 226.519531 170.347656 C 226.59375 170.5 233.5625 185.394531 233.25 205.527344 M 164.609375 110.839844 C 164.609375 110.835938 164.609375 110.835938 164.613281 110.835938 C 164.609375 110.835938 164.609375 110.835938 164.609375 110.839844 M 164.617188 110.808594 C 164.617188 110.792969 164.617188 110.78125 164.621094 110.769531 C 164.617188 110.785156 164.617188 110.792969 164.617188 110.808594 M 164.621094 110.769531 C 164.625 110.753906 164.628906 110.738281 164.628906 110.71875 C 164.628906 110.738281 164.625 110.753906 164.621094 110.769531 " fill-opacity="1" fill-rule="nonzero"/><path fill="#c22435" d="M 180.339844 62.144531 C 180.03125 55.675781 174.21875 50.535156 166.703125 49.480469 C 168.523438 42.566406 166.277344 35.605469 161.351562 31.96875 C 160.871094 31.554688 160.3125 31.207031 159.679688 30.917969 C 159.09375 30.609375 158.484375 30.328125 157.839844 30.105469 C 152.71875 28.355469 147.164062 30.015625 143.132812 33.917969 C 143.144531 33.851562 143.164062 33.789062 143.171875 33.71875 C 144.527344 24.503906 139.109375 16.078125 131.074219 14.898438 C 123.039062 13.714844 115.425781 20.226562 114.074219 29.441406 C 114.035156 29.699219 114.023438 29.953125 113.996094 30.207031 C 112.273438 25.734375 112.085938 17.449219 111.339844 14.929688 C 108.617188 5.734375 100.089844 0.00390625 89.503906 1.746094 C 65.710938 5.664062 74.664062 43.242188 87.832031 55.375 C 88.765625 54.128906 89.785156 52.921875 90.914062 51.773438 C 100.878906 41.671875 114.386719 40.632812 128.003906 42.921875 C 149.648438 46.558594 160.585938 59.59375 164.484375 76.582031 C 173.625 76 180.699219 69.597656 180.339844 62.144531 " fill-opacity="1" fill-rule="nonzero"/><path fill="#b06b46" d="M 128.003906 42.921875 C 114.386719 40.632812 100.878906 41.671875 90.914062 51.773438 C 89.785156 52.921875 88.765625 54.128906 87.832031 55.375 C 80.898438 64.625 78.679688 76.386719 72.25 86.042969 C 58.199219 107.15625 33.574219 115.210938 21.765625 137.367188 C 19.835938 143.253906 19.882812 149.441406 21.484375 157.171875 C 24.527344 150.890625 32.851562 141.320312 39.507812 138.601562 C 32.894531 152.191406 34.429688 164.460938 41.109375 175.691406 C 42.023438 163.898438 54.375 148.351562 65.492188 144.472656 C 62.285156 155.863281 64.609375 168.453125 72.402344 176.335938 C 72.980469 166.035156 77.195312 153.488281 83.632812 146.636719 C 85.191406 159.753906 90.957031 168.773438 101.148438 174.824219 C 99.886719 151.972656 108.320312 144.859375 108.3125 145.011719 C 106.585938 153.269531 114.289062 169.441406 123.40625 173.976562 C 123.285156 166.300781 126.035156 154.132812 134.246094 147.648438 C 133.597656 158.675781 141.910156 171.085938 153.445312 173.144531 C 153.019531 167.21875 153.378906 161.882812 154.976562 156.894531 C 154.242188 142.023438 162.082031 125.972656 164.621094 110.769531 C 166.636719 98.726562 166.859375 86.921875 164.484375 76.582031 C 160.585938 59.59375 149.648438 46.558594 128.003906 42.921875 " fill-opacity="1" fill-rule="nonzero"/><path fill="#512c15" d="M 126.464844 86.246094 C 126.421875 86.242188 126.378906 86.238281 126.335938 86.230469 C 125.527344 86.121094 124.964844 85.371094 125.078125 84.558594 C 125.765625 79.625 122.335938 76.660156 118.894531 75.53125 C 114.609375 74.128906 109.03125 74.996094 106.667969 79.375 C 106.277344 80.097656 105.382812 80.367188 104.664062 79.976562 C 103.941406 79.585938 103.671875 78.691406 104.0625 77.96875 C 107.199219 72.15625 114.363281 70.929688 119.820312 72.71875 C 125.566406 74.605469 128.785156 79.414062 128.007812 84.972656 C 127.902344 85.734375 127.222656 86.285156 126.464844 86.246094 " fill-opacity="1" fill-rule="nonzero"/><path fill="#c22435" d="M 75.898438 89.289062 C 77.101562 95.542969 76.03125 103.785156 75.035156 110.039062 C 73.9375 116.914062 69.839844 124.160156 65.472656 129.605469 C 58.457031 138.355469 37.570312 140.085938 40.496094 123.921875 C 40.757812 122.472656 41.957031 120.613281 42.449219 119.304688 C 34.992188 121.167969 27.707031 115.527344 31.4375 107.421875 C 33.992188 101.863281 43.328125 100.078125 48.832031 99.230469 C 53.539062 98.507812 59.65625 98.753906 63.359375 95.550781 C 66.5 92.832031 67.464844 87.28125 72.71875 87.386719 C 74.097656 87.414062 75.09375 87.558594 76.117188 88.640625 L 75.898438 89.289062 " fill-opacity="1" fill-rule="nonzero"/><path fill="#b06b46" d="M 207.71875 199.097656 C 203.617188 205.148438 193.382812 206.429688 188.324219 206.851562 C 179.457031 207.589844 170.511719 204.734375 163.25 199.828125 C 151.121094 191.625 143.515625 178.820312 127.546875 178.34375 C 110.703125 177.839844 90.296875 189.726562 87.550781 207.863281 C 84.304688 229.296875 100.535156 249.894531 117.390625 255.296875 C 205.433594 283.523438 207.71875 199.097656 207.71875 199.097656 " fill-opacity="1" fill-rule="nonzero"/><path fill="#a57851" d="M 175.71875 205.609375 C 171.269531 204.382812 167.03125 202.382812 163.25 199.828125 C 167.03125 202.382812 171.269531 204.375 175.714844 205.597656 C 175.714844 205.601562 175.71875 205.605469 175.71875 205.609375 " fill-opacity="1" fill-rule="nonzero"/><path fill="#c8824f" d="M 127.371094 258.097656 C 124.167969 257.324219 120.851562 256.40625 117.390625 255.296875 C 102 250.363281 87.132812 232.761719 87.132812 213.421875 C 87.132812 211.714844 87.25 209.996094 87.492188 208.265625 C 87.078125 211.214844 87.042969 214.148438 87.316406 217.023438 C 88.738281 222.253906 91.238281 227.238281 94.269531 231.519531 C 97.5625 236.179688 102.636719 238.8125 107.128906 238.8125 C 112.300781 238.8125 116.710938 235.328125 116.78125 227.425781 C 121.011719 232.527344 127.011719 236.511719 133.542969 236.511719 C 135.949219 236.511719 138.425781 235.972656 140.910156 234.75 C 151.394531 229.589844 149.191406 214.238281 143.0625 206.886719 C 145.398438 209.582031 149.910156 211.011719 153.550781 211.011719 C 153.835938 211.011719 154.117188 211.003906 154.390625 210.984375 C 160.992188 210.558594 161.855469 204.394531 161.492188 198.585938 C 162.070312 199.007812 162.65625 199.421875 163.25 199.828125 C 167.03125 202.382812 171.269531 204.382812 175.71875 205.609375 C 177.640625 210.152344 177.976562 215.210938 174.234375 218.765625 C 172.546875 220.367188 170.183594 221.027344 167.710938 221.027344 C 164.191406 221.027344 160.445312 219.695312 158.109375 217.875 C 166.011719 224.386719 172.390625 239.058594 161.917969 247.679688 C 158.925781 250.144531 154.605469 251.230469 150.050781 251.230469 C 142.433594 251.230469 134.164062 248.195312 130.34375 243.46875 C 131.507812 247.484375 134.738281 251.683594 131.5625 255.566406 C 130.425781 256.957031 128.964844 257.722656 127.371094 258.097656 M 133.414062 179.128906 C 133.414062 179.125 133.410156 179.125 133.40625 179.125 C 133.410156 179.125 133.414062 179.125 133.414062 179.128906 M 133.375 179.117188 C 133.367188 179.117188 133.359375 179.113281 133.351562 179.113281 C 133.359375 179.113281 133.367188 179.117188 133.375 179.117188 M 133.339844 179.109375 C 133.328125 179.105469 133.320312 179.105469 133.308594 179.101562 C 133.320312 179.105469 133.328125 179.105469 133.339844 179.109375 M 133.296875 179.097656 C 133.289062 179.097656 133.277344 179.09375 133.265625 179.09375 C 133.277344 179.09375 133.289062 179.097656 133.296875 179.097656 M 133.257812 179.089844 C 133.25 179.085938 133.234375 179.085938 133.222656 179.082031 C 133.234375 179.085938 133.25 179.085938 133.257812 179.089844 M 133.222656 179.082031 C 133.207031 179.078125 133.195312 179.074219 133.183594 179.074219 C 133.195312 179.074219 133.207031 179.078125 133.222656 179.082031 M 133.183594 179.074219 C 131.457031 178.667969 129.632812 178.417969 127.679688 178.347656 C 129.632812 178.417969 131.457031 178.667969 133.183594 179.074219 M 127.679688 178.347656 C 127.664062 178.347656 127.648438 178.347656 127.636719 178.347656 C 127.652344 178.347656 127.664062 178.347656 127.679688 178.347656 M 127.632812 178.347656 C 127.617188 178.347656 127.605469 178.347656 127.59375 178.347656 C 127.605469 178.347656 127.617188 178.347656 127.632812 178.347656 " fill-opacity="1" fill-rule="nonzero"/><path fill="#8d7054" d="M 31.9375 192.570312 C 30.226562 192.570312 28.226562 190.890625 27.578125 187.632812 C 26.5625 182.5625 27.84375 180.296875 29.59375 180.296875 C 31.1875 180.296875 33.167969 182.175781 34.164062 185.527344 C 34.210938 185.683594 34.257812 185.84375 34.296875 186.003906 C 35.441406 190.429688 33.871094 192.570312 31.9375 192.570312 " fill-opacity="1" fill-rule="nonzero"/><path fill="#8d7054" d="M 46.519531 197.769531 C 44.902344 197.769531 42.9375 196.414062 41.863281 193.574219 C 39.910156 188.417969 41.050781 185.980469 43.003906 185.980469 C 44.546875 185.980469 46.59375 187.503906 48.015625 190.421875 C 48.085938 190.566406 48.15625 190.714844 48.222656 190.867188 C 50.21875 195.367188 48.675781 197.769531 46.519531 197.769531 " fill-opacity="1" fill-rule="nonzero"/><path fill="#8d7054" d="M 41.335938 213.332031 C 39.714844 213.332031 37.75 211.976562 36.675781 209.136719 C 34.722656 203.980469 35.863281 201.542969 37.816406 201.542969 C 39.359375 201.542969 41.410156 203.070312 42.828125 205.980469 C 42.898438 206.128906 42.96875 206.277344 43.035156 206.429688 C 45.035156 210.929688 43.492188 213.332031 41.335938 213.332031 " fill-opacity="1" fill-rule="nonzero"/><path fill="#8d7054" d="M 57.972656 216.140625 C 56.355469 216.140625 54.390625 214.785156 53.316406 211.949219 C 51.359375 206.792969 52.503906 204.351562 54.457031 204.351562 C 56 204.351562 58.046875 205.878906 59.46875 208.792969 C 59.539062 208.9375 59.609375 209.089844 59.679688 209.238281 C 61.671875 213.738281 60.132812 216.140625 57.972656 216.140625 " fill-opacity="1" fill-rule="nonzero"/><path fill="#8d7054" d="M 81.207031 253.152344 C 79.710938 253.152344 77.863281 252.171875 76.433594 249.964844 C 73.164062 244.90625 74.1875 242.242188 76.515625 242.242188 C 78 242.242188 80.019531 243.335938 81.789062 245.585938 C 81.890625 245.710938 81.988281 245.847656 82.082031 245.980469 C 85.273438 250.355469 83.742188 253.152344 81.207031 253.152344 " fill-opacity="1" fill-rule="nonzero"/><path fill="#8d7054" d="M 73.960938 220.417969 C 72.582031 220.417969 70.890625 219.355469 69.824219 217.054688 C 67.738281 212.554688 68.695312 210.355469 70.496094 210.355469 C 71.828125 210.355469 73.621094 211.554688 74.992188 213.914062 C 75.0625 214.039062 75.132812 214.164062 75.199219 214.289062 C 77.289062 218.210938 75.949219 220.421875 73.960938 220.417969 " fill-opacity="1" fill-rule="nonzero"/><path fill="#8d7054" d="M 67.167969 231.78125 C 66.039062 231.78125 64.65625 230.941406 63.734375 229.109375 C 61.859375 225.402344 62.636719 223.5625 64.164062 223.5625 C 65.261719 223.5625 66.742188 224.503906 67.914062 226.378906 C 67.972656 226.480469 68.035156 226.582031 68.09375 226.6875 C 69.953125 229.914062 68.847656 231.78125 67.167969 231.78125 " fill-opacity="1" fill-rule="nonzero"/><path fill="#8d7054" d="M 65.4375 244.75 C 64.3125 244.75 62.925781 243.914062 62.003906 242.082031 C 60.132812 238.371094 60.90625 236.53125 62.4375 236.53125 C 63.53125 236.53125 65.011719 237.476562 66.183594 239.351562 C 66.242188 239.449219 66.304688 239.550781 66.363281 239.65625 C 68.222656 242.882812 67.117188 244.75 65.4375 244.75 " fill-opacity="1" fill-rule="nonzero"/><path fill="#8d7054" d="M 60.898438 198.707031 C 59.773438 198.707031 58.386719 197.871094 57.464844 196.039062 C 55.59375 192.332031 56.367188 190.492188 57.898438 190.492188 C 58.992188 190.492188 60.472656 191.433594 61.644531 193.308594 C 61.707031 193.410156 61.765625 193.511719 61.828125 193.613281 C 63.6875 196.839844 62.578125 198.710938 60.898438 198.707031 " fill-opacity="1" fill-rule="nonzero"/><path fill="#8d7054" d="M 55.355469 182.496094 C 54.078125 182.496094 52.554688 181.34375 51.875 179.003906 C 50.730469 175.070312 51.65625 173.265625 53.070312 173.265625 C 54.269531 173.265625 55.824219 174.5625 56.769531 176.96875 C 56.8125 177.082031 56.859375 177.203125 56.898438 177.320312 C 58.109375 180.753906 56.917969 182.496094 55.355469 182.496094 " fill-opacity="1" fill-rule="nonzero"/><path fill="#8d7054" d="M 80.886719 237.578125 C 79.699219 237.578125 78.242188 236.722656 77.230469 234.835938 C 75.121094 230.910156 75.933594 228.933594 77.59375 228.933594 C 78.75 228.933594 80.316406 229.898438 81.59375 231.824219 C 81.65625 231.929688 81.726562 232.035156 81.792969 232.144531 C 83.878906 235.558594 82.707031 237.578125 80.886719 237.578125 " fill-opacity="1" fill-rule="nonzero"/><path fill="#8d7054" d="M 94.070312 253.710938 C 93.230469 253.710938 92.203125 253.238281 91.308594 252.148438 C 88.957031 249.265625 89.546875 247.621094 91.070312 247.621094 C 91.921875 247.621094 93.070312 248.136719 94.152344 249.242188 C 94.21875 249.308594 94.285156 249.378906 94.351562 249.453125 C 96.609375 251.921875 95.703125 253.710938 94.070312 253.710938 " fill-opacity="1" fill-rule="nonzero"/><path fill="#8d7054" d="M 90.898438 267.539062 C 89.804688 267.539062 88.457031 266.917969 87.296875 265.484375 C 84.246094 261.722656 85.015625 259.578125 86.996094 259.578125 C 88.105469 259.578125 89.601562 260.261719 91.015625 261.710938 C 91.101562 261.800781 91.191406 261.890625 91.273438 261.988281 C 94.199219 265.214844 93.019531 267.539062 90.898438 267.539062 " fill-opacity="1" fill-rule="nonzero"/><path fill="#8d7054" d="M 104.40625 264.714844 C 103.382812 264.714844 102.144531 264.238281 100.96875 263.117188 C 97.234375 259.566406 98.023438 257.273438 100.300781 257.273438 C 101.367188 257.273438 102.761719 257.777344 104.171875 258.894531 C 104.265625 258.972656 104.367188 259.050781 104.460938 259.132812 C 107.984375 262.128906 106.789062 264.714844 104.40625 264.714844 " fill-opacity="1" fill-rule="nonzero"/><path fill="#8d7054" d="M 71.5625 194.34375 C 70.035156 194.34375 68.171875 193.097656 67.09375 190.464844 C 65.085938 185.554688 66.15625 183.203125 68.054688 183.203125 C 69.515625 183.203125 71.46875 184.605469 72.875 187.308594 C 72.945312 187.445312 73.015625 187.585938 73.085938 187.730469 C 75.121094 192.011719 73.65625 194.34375 71.5625 194.34375 " fill-opacity="1" fill-rule="nonzero"/><path fill="#8d7054" d="M 53.296875 231.09375 C 51.738281 231.09375 49.820312 229.933594 48.542969 227.398438 C 45.945312 222.261719 47.019531 219.714844 49.140625 219.714844 C 50.65625 219.714844 52.707031 221.019531 54.328125 223.613281 C 54.414062 223.75 54.5 223.890625 54.582031 224.035156 C 57.160156 228.507812 55.628906 231.09375 53.296875 231.09375 " fill-opacity="1" fill-rule="nonzero"/><path fill="#d82333" d="M 176.617188 71.296875 C 177.304688 69.296875 177.585938 67.21875 177.109375 65.035156 C 176.355469 61.570312 173.710938 58.75 170.839844 56.820312 C 167.71875 54.722656 162.738281 53.644531 161.433594 49.730469 C 159.925781 45.226562 161.253906 41.585938 156.242188 38.375 C 154.277344 37.113281 152.578125 36.710938 150.964844 36.710938 C 149.558594 36.710938 148.214844 37.019531 146.820312 37.324219 C 145.425781 37.625 143.976562 37.929688 142.351562 37.929688 C 142.132812 37.929688 141.914062 37.925781 141.691406 37.914062 C 133.207031 37.476562 135.464844 22.894531 126.871094 22.894531 C 126.632812 22.894531 126.386719 22.90625 126.132812 22.925781 C 121.046875 23.382812 119.9375 30.355469 116.457031 33.382812 C 115.234375 34.445312 114.0625 34.894531 112.980469 34.894531 C 110.398438 34.894531 108.3125 32.34375 107.226562 29.410156 C 104.746094 22.730469 102.578125 10.398438 93.453125 10.398438 C 92.898438 10.398438 92.316406 10.441406 91.707031 10.539062 C 75.160156 13.136719 80.554688 43.464844 90.449219 52.257812 C 89.503906 53.257812 88.636719 54.300781 87.832031 55.375 C 80.625 48.734375 74.679688 34.46875 74.675781 22.273438 C 74.671875 12.1875 78.734375 3.519531 89.503906 1.746094 C 90.777344 1.535156 92.023438 1.433594 93.234375 1.433594 C 102.058594 1.433594 108.945312 6.84375 111.339844 14.929688 C 112.085938 17.449219 112.273438 25.734375 113.996094 30.207031 C 114.023438 29.953125 114.035156 29.699219 114.074219 29.441406 C 115.320312 20.953125 121.878906 14.757812 129.1875 14.757812 C 129.8125 14.757812 130.441406 14.804688 131.074219 14.898438 C 138.277344 15.957031 143.375 22.839844 143.378906 30.890625 C 143.382812 31.820312 143.3125 32.765625 143.171875 33.71875 C 143.164062 33.789062 143.144531 33.851562 143.132812 33.917969 C 146.082031 31.066406 149.839844 29.410156 153.648438 29.410156 C 155.050781 29.410156 156.464844 29.636719 157.839844 30.105469 C 158.484375 30.328125 159.09375 30.609375 159.679688 30.917969 C 160.3125 31.207031 160.871094 31.554688 161.351562 31.96875 C 165.132812 34.761719 167.335938 39.511719 167.332031 44.695312 C 167.328125 46.265625 167.125 47.875 166.703125 49.480469 C 174.21875 50.535156 180.03125 55.675781 180.339844 62.144531 C 180.503906 65.578125 179.082031 68.777344 176.617188 71.296875 " fill-opacity="1" fill-rule="nonzero"/><path fill="#ce473e" d="M 87.832031 55.375 C 88.636719 54.300781 89.503906 53.257812 90.449219 52.257812 C 90.453125 52.261719 90.457031 52.265625 90.460938 52.269531 C 89.515625 53.269531 88.636719 54.300781 87.832031 55.375 " fill-opacity="1" fill-rule="nonzero"/><path fill="#ce473e" d="M 40.847656 130.582031 C 40.847656 130.578125 40.847656 130.578125 40.847656 130.574219 C 40.847656 130.578125 40.847656 130.578125 40.847656 130.582031 M 40.84375 130.566406 C 40.179688 128.8125 40.007812 126.617188 40.496094 123.921875 C 40.007812 126.617188 40.179688 128.8125 40.84375 130.566406 M 39.574219 119.660156 L 39.574219 119.660156 M 39.574219 119.660156 C 40.515625 119.660156 41.480469 119.546875 42.449219 119.304688 C 41.480469 119.546875 40.515625 119.660156 39.574219 119.660156 " fill-opacity="1" fill-rule="nonzero"/><path fill="#f6899d" d="M 31.335938 107.644531 C 31.339844 107.636719 31.34375 107.628906 31.347656 107.617188 C 31.34375 107.628906 31.339844 107.636719 31.335938 107.644531 M 31.371094 107.566406 C 31.382812 107.539062 31.394531 107.511719 31.40625 107.484375 C 31.394531 107.511719 31.382812 107.539062 31.371094 107.566406 M 31.40625 107.484375 C 31.414062 107.472656 31.417969 107.460938 31.421875 107.449219 C 31.417969 107.460938 31.414062 107.472656 31.40625 107.484375 M 63.359375 95.550781 C 63.363281 95.546875 63.367188 95.542969 63.371094 95.539062 C 63.367188 95.542969 63.363281 95.546875 63.359375 95.550781 M 63.375 95.539062 C 63.382812 95.53125 63.390625 95.523438 63.398438 95.515625 C 63.390625 95.523438 63.382812 95.53125 63.375 95.539062 M 63.398438 95.515625 C 63.40625 95.511719 63.40625 95.507812 63.410156 95.503906 C 63.40625 95.507812 63.40625 95.511719 63.398438 95.515625 M 63.410156 95.503906 C 63.417969 95.5 63.421875 95.496094 63.425781 95.492188 C 63.421875 95.496094 63.417969 95.5 63.410156 95.503906 M 63.425781 95.492188 C 63.429688 95.488281 63.433594 95.484375 63.4375 95.480469 C 63.433594 95.484375 63.429688 95.488281 63.425781 95.492188 M 63.4375 95.480469 C 63.441406 95.476562 63.449219 95.472656 63.453125 95.46875 C 63.445312 95.472656 63.441406 95.476562 63.4375 95.480469 M 63.453125 95.46875 C 63.457031 95.464844 63.457031 95.460938 63.460938 95.457031 C 63.457031 95.460938 63.457031 95.464844 63.453125 95.46875 M 63.464844 95.453125 C 63.46875 95.453125 63.472656 95.449219 63.476562 95.445312 C 63.472656 95.449219 63.46875 95.449219 63.464844 95.453125 M 63.480469 95.441406 C 63.484375 95.441406 63.484375 95.4375 63.488281 95.4375 C 63.484375 95.4375 63.484375 95.441406 63.480469 95.441406 M 63.496094 95.429688 C 63.496094 95.429688 63.496094 95.425781 63.496094 95.425781 C 63.496094 95.429688 63.496094 95.429688 63.496094 95.429688 " fill-opacity="1" fill-rule="nonzero"/><path fill="#d82333" d="M 50.652344 136.160156 C 46.253906 136.160156 42.335938 134.488281 40.847656 130.582031 C 40.847656 130.578125 40.847656 130.578125 40.847656 130.574219 C 40.84375 130.570312 40.84375 130.566406 40.84375 130.566406 C 40.179688 128.8125 40.007812 126.617188 40.496094 123.921875 C 40.757812 122.472656 41.957031 120.613281 42.449219 119.304688 C 41.480469 119.546875 40.515625 119.660156 39.574219 119.660156 C 33.351562 119.660156 28.296875 114.582031 31.335938 107.644531 C 31.339844 107.636719 31.34375 107.628906 31.347656 107.617188 C 31.355469 107.601562 31.363281 107.585938 31.371094 107.566406 C 31.382812 107.539062 31.394531 107.511719 31.40625 107.484375 C 31.414062 107.472656 31.417969 107.460938 31.421875 107.449219 C 31.429688 107.4375 31.433594 107.433594 31.4375 107.421875 C 33.992188 101.863281 43.328125 100.078125 48.832031 99.230469 C 53.539062 98.507812 59.65625 98.753906 63.359375 95.550781 C 63.363281 95.546875 63.367188 95.542969 63.371094 95.539062 C 63.371094 95.539062 63.375 95.539062 63.375 95.539062 C 63.382812 95.53125 63.390625 95.523438 63.398438 95.515625 C 63.40625 95.511719 63.40625 95.507812 63.410156 95.503906 C 63.417969 95.5 63.421875 95.496094 63.425781 95.492188 C 63.429688 95.488281 63.433594 95.484375 63.4375 95.480469 C 63.441406 95.476562 63.445312 95.472656 63.453125 95.46875 C 63.457031 95.464844 63.457031 95.460938 63.460938 95.457031 C 63.464844 95.457031 63.464844 95.457031 63.464844 95.453125 C 63.46875 95.449219 63.472656 95.449219 63.476562 95.445312 C 63.476562 95.445312 63.480469 95.441406 63.480469 95.441406 C 63.484375 95.441406 63.484375 95.4375 63.488281 95.4375 C 63.488281 95.433594 63.492188 95.433594 63.496094 95.429688 C 63.496094 95.429688 63.496094 95.429688 63.496094 95.425781 C 64.40625 94.597656 65.136719 93.535156 65.851562 92.453125 L 67.773438 94.007812 C 63.976562 98.992188 55.554688 102.445312 49.457031 102.472656 C 45.789062 102.488281 40.625 102.339844 37.132812 104.300781 C 35.472656 105.039062 34.144531 106.296875 33.523438 108.109375 C 32.707031 110.488281 33.707031 112.609375 35.140625 114.453125 C 36.925781 116.753906 39.992188 117.476562 43.09375 117.476562 C 43.832031 117.476562 44.570312 117.433594 45.296875 117.367188 L 45.3125 117.402344 C 41.820312 122.097656 42.011719 129.398438 46.992188 133.011719 C 49.292969 134.675781 51.679688 135.367188 54.046875 135.367188 C 54.628906 135.367188 55.210938 135.328125 55.792969 135.25 C 55.949219 135.273438 56.109375 135.304688 56.265625 135.328125 C 54.40625 135.867188 52.488281 136.160156 50.652344 136.160156 " fill-opacity="1" fill-rule="nonzero"/><path fill="#f9af1d" d="M 69.4375 95.132812 C 73.6875 93.464844 77.21875 89.914062 78.734375 85.1875 C 79.933594 81.4375 79.652344 77.609375 78.21875 74.34375 L 78.1875 74.269531 L 51.335938 73.863281 L 42.691406 73.734375 L 49.535156 79.265625 L 69.257812 95.207031 C 69.316406 95.183594 69.375 95.15625 69.4375 95.132812 " fill-opacity="1" fill-rule="nonzero"/><path fill="#f9d418" d="M 77.816406 87.433594 L 42.714844 73.75 L 42.691406 73.734375 L 51.335938 73.863281 L 78.1875 74.269531 L 78.21875 74.34375 C 79.042969 76.21875 79.484375 78.28125 79.484375 80.402344 C 79.484375 81.980469 79.246094 83.589844 78.734375 85.1875 C 78.480469 85.96875 78.171875 86.71875 77.816406 87.433594 M 74.4375 78.359375 C 74.242188 78.359375 74.046875 78.402344 73.859375 78.488281 C 73.175781 78.804688 72.875 79.621094 73.195312 80.308594 C 73.421875 80.808594 73.921875 81.105469 74.4375 81.105469 C 74.632812 81.105469 74.828125 81.066406 75.011719 80.980469 C 75.699219 80.660156 76 79.847656 75.679688 79.160156 C 75.449219 78.65625 74.953125 78.359375 74.4375 78.359375 " fill-opacity="1" fill-rule="nonzero"/><path fill="#c18e1c" d="M 74.4375 81.105469 C 73.921875 81.105469 73.421875 80.808594 73.195312 80.308594 C 72.875 79.621094 73.175781 78.804688 73.859375 78.488281 C 74.046875 78.402344 74.242188 78.359375 74.4375 78.359375 C 74.953125 78.359375 75.449219 78.65625 75.679688 79.160156 C 76 79.847656 75.699219 80.660156 75.011719 80.980469 C 74.828125 81.066406 74.632812 81.105469 74.4375 81.105469 " fill-opacity="1" fill-rule="nonzero"/><path fill="#edceb0" d="M 154.976562 156.894531 C 154.738281 152.054688 155.40625 147.089844 156.503906 142.070312 C 156.507812 142.066406 156.507812 142.0625 156.511719 142.0625 C 155.410156 147.085938 154.738281 152.050781 154.976562 156.894531 " fill-opacity="1" fill-rule="nonzero"/><path fill="#8d6b4e" d="M 21.765625 137.367188 C 21.777344 137.351562 21.78125 137.332031 21.792969 137.316406 C 21.78125 137.332031 21.777344 137.351562 21.765625 137.367188 " fill-opacity="1" fill-rule="nonzero"/><path fill="#c17b4c" d="M 72.402344 176.335938 C 66.867188 170.742188 64.09375 162.773438 64.097656 154.542969 C 64.097656 151.183594 64.5625 147.777344 65.492188 144.472656 C 54.375 148.351562 42.023438 163.898438 41.109375 175.691406 C 37.378906 169.417969 35.253906 162.820312 35.253906 155.847656 C 35.257812 150.339844 36.589844 144.597656 39.507812 138.601562 C 32.851562 141.320312 24.527344 150.890625 21.484375 157.171875 C 20.707031 153.425781 20.296875 150.042969 20.300781 146.882812 C 20.300781 143.519531 20.769531 140.402344 21.765625 137.367188 C 21.777344 137.351562 21.78125 137.332031 21.792969 137.316406 C 22.304688 136.363281 22.84375 135.445312 23.402344 134.539062 C 22.660156 138.121094 22.6875 141.890625 23.71875 145.773438 C 27.933594 141.328125 35.851562 136.410156 41.851562 136.410156 C 41.890625 136.410156 41.933594 136.410156 41.972656 136.410156 C 39.414062 142.261719 38.726562 155.847656 40.671875 162.132812 C 47.113281 153.125 56.75 143.109375 66.824219 139.867188 C 67.320312 146.90625 66.269531 156.148438 70.28125 162.566406 C 73.976562 153.296875 79.140625 142.679688 88.457031 136.640625 C 86.921875 145.054688 89.945312 157.160156 96.210938 163.429688 C 96.644531 156.730469 100.75 142.460938 113.542969 136.636719 C 109.824219 145.054688 114.796875 159.753906 119.550781 163.863281 C 122.488281 153.171875 129.339844 140.703125 138.136719 134.246094 C 136.902344 146.496094 140.945312 156.945312 147.210938 164.078125 C 148.101562 158.03125 153.316406 147.410156 156.503906 142.070312 C 155.40625 147.089844 154.738281 152.054688 154.976562 156.894531 C 153.785156 160.617188 153.28125 164.53125 153.28125 168.738281 C 153.28125 170.171875 153.335938 171.636719 153.445312 173.144531 C 142.328125 171.160156 134.203125 159.558594 134.210938 148.847656 C 134.210938 148.449219 134.222656 148.046875 134.246094 147.648438 C 126.210938 153.996094 123.402344 165.78125 123.402344 173.472656 C 123.402344 173.640625 123.40625 173.808594 123.40625 173.976562 C 115.164062 169.875 108.074219 156.257812 108.070312 147.582031 C 108.070312 146.664062 108.148438 145.800781 108.3125 145.011719 C 108.3125 145.007812 108.3125 145.007812 108.3125 145.007812 C 108.160156 145.007812 101.019531 151.230469 101.023438 170.277344 C 101.023438 171.71875 101.0625 173.234375 101.148438 174.824219 C 90.957031 168.773438 85.191406 159.753906 83.632812 146.636719 C 77.195312 153.488281 72.980469 166.035156 72.402344 176.335938 " fill-opacity="1" fill-rule="nonzero"/><path fill="#875f47" d="M 87.492188 208.265625 C 87.511719 208.132812 87.53125 207.996094 87.550781 207.863281 C 87.53125 207.996094 87.511719 208.132812 87.492188 208.265625 M 161.492188 198.585938 C 151.886719 191.519531 144.894531 181.925781 133.414062 179.128906 C 144.894531 181.925781 151.886719 191.519531 161.492188 198.582031 C 161.492188 198.582031 161.492188 198.582031 161.492188 198.585938 M 133.40625 179.125 C 133.394531 179.121094 133.386719 179.121094 133.375 179.117188 C 133.386719 179.121094 133.394531 179.121094 133.40625 179.125 M 133.351562 179.113281 C 133.347656 179.109375 133.34375 179.109375 133.339844 179.109375 C 133.34375 179.109375 133.347656 179.109375 133.351562 179.113281 M 133.308594 179.101562 C 133.304688 179.101562 133.300781 179.097656 133.296875 179.097656 C 133.300781 179.097656 133.304688 179.101562 133.308594 179.101562 M 133.265625 179.09375 C 133.265625 179.089844 133.261719 179.089844 133.257812 179.089844 C 133.261719 179.089844 133.265625 179.089844 133.265625 179.09375 M 133.222656 179.082031 L 133.222656 179.082031 M 127.679688 178.347656 L 127.679688 178.347656 M 127.636719 178.347656 C 127.636719 178.347656 127.632812 178.347656 127.632812 178.347656 C 127.632812 178.347656 127.636719 178.347656 127.636719 178.347656 M 127.59375 178.347656 C 127.578125 178.34375 127.5625 178.34375 127.546875 178.34375 C 127.5625 178.34375 127.578125 178.34375 127.59375 178.347656 " fill-opacity="1" fill-rule="nonzero"/><path fill="#bb764a" d="M 107.128906 238.8125 C 102.636719 238.8125 97.5625 236.179688 94.269531 231.519531 C 91.238281 227.238281 88.738281 222.253906 87.316406 217.023438 C 87.042969 214.148438 87.078125 211.214844 87.492188 208.265625 C 87.511719 208.132812 87.53125 207.996094 87.550781 207.863281 C 90.242188 190.097656 109.871094 178.328125 126.507812 178.328125 C 126.855469 178.328125 127.203125 178.332031 127.546875 178.34375 C 127.5625 178.34375 127.578125 178.34375 127.59375 178.347656 C 127.605469 178.347656 127.617188 178.347656 127.632812 178.347656 C 127.632812 178.347656 127.636719 178.347656 127.636719 178.347656 C 127.648438 178.347656 127.664062 178.347656 127.679688 178.347656 C 129.632812 178.417969 131.457031 178.667969 133.183594 179.074219 C 133.195312 179.074219 133.207031 179.078125 133.222656 179.082031 C 133.234375 179.085938 133.25 179.085938 133.257812 179.089844 C 133.261719 179.089844 133.265625 179.089844 133.265625 179.09375 C 133.277344 179.09375 133.289062 179.097656 133.296875 179.097656 C 133.300781 179.097656 133.304688 179.101562 133.308594 179.101562 C 133.320312 179.105469 133.328125 179.105469 133.339844 179.109375 C 133.34375 179.109375 133.347656 179.109375 133.351562 179.113281 C 133.359375 179.113281 133.367188 179.117188 133.375 179.117188 C 133.386719 179.121094 133.394531 179.121094 133.40625 179.125 C 133.410156 179.125 133.414062 179.125 133.414062 179.128906 C 144.894531 181.925781 151.886719 191.519531 161.492188 198.585938 C 161.855469 204.394531 160.992188 210.558594 154.390625 210.984375 C 154.117188 211.003906 153.835938 211.011719 153.550781 211.011719 C 149.910156 211.011719 145.398438 209.582031 143.0625 206.886719 C 149.191406 214.238281 151.394531 229.589844 140.910156 234.75 C 138.425781 235.972656 135.949219 236.511719 133.542969 236.511719 C 127.011719 236.511719 121.011719 232.527344 116.78125 227.425781 C 116.710938 235.328125 112.300781 238.8125 107.128906 238.8125 " fill-opacity="1" fill-rule="nonzero"/><path fill="#7f4b2d" d="M 130.390625 70.144531 C 127.96875 65.570312 123.503906 62.582031 118.101562 60.257812 C 119.492188 59.394531 120.820312 59.015625 122.058594 59.015625 C 126.953125 59.015625 130.394531 64.957031 130.390625 70.144531 " fill-opacity="1" fill-rule="nonzero"/></svg>