<svg xmlns="http://www.w3.org/2000/svg" xmlns:xlink="http://www.w3.org/1999/xlink" width="500" zoomAndPan="magnify" viewBox="0 0 375 374.999991" height="500" preserveAspectRatio="xMidYMid meet" version="1.0"><defs><clipPath id="27691ff69a"><path d="M 33.046875 36 L 135 36 L 135 363 L 33.046875 363 Z M 33.046875 36 " clip-rule="nonzero"/></clipPath></defs><path fill="#ffffff" d="M 73.210938 227.617188 C 80.160156 249.171875 89.097656 273.125 101.617188 288.410156 C 110.992188 299.851562 122.382812 303.527344 134.363281 304.515625 C 134.457031 305.820312 134.488281 307.144531 134.484375 308.453125 C 134.460938 311.527344 134.25 314.617188 133.980469 317.703125 C 133.753906 320.304688 133.464844 322.902344 133.335938 325.5 C 133.097656 330.152344 132.964844 334.800781 133.007812 339.421875 C 133.070312 345.882812 133.472656 352.265625 134.246094 358.503906 C 88.863281 327.433594 49.007812 273.546875 41.6875 196.746094 C 37.910156 157.066406 40.847656 107.113281 59.175781 71.691406 C 66.226562 58.054688 78.003906 43.148438 89.863281 48.542969 C 101.132812 53.667969 100.421875 71.976562 97.003906 86.710938 C 91.238281 111.550781 79.269531 132.621094 72.308594 156.769531 C 65.132812 181.667969 65.945312 205.058594 73.210938 227.617188 " fill-opacity="1" fill-rule="nonzero"/><path fill="#656263" d="M 128.605469 303.796875 C 118.753906 302.128906 109.476562 298.003906 101.617188 288.410156 C 89.097656 273.125 80.160156 249.171875 73.210938 227.617188 C 65.945312 205.058594 65.132812 181.667969 72.308594 156.769531 C 75.636719 145.21875 80.109375 134.375 84.503906 123.484375 C 71.953125 116.855469 58.8125 110.519531 45.175781 113.394531 C 39.617188 140.992188 39.238281 171.023438 41.6875 196.746094 C 48.523438 268.484375 83.753906 320.234375 125.351562 352.070312 C 123.574219 336.84375 125.410156 319.820312 128.605469 303.796875 " fill-opacity="1" fill-rule="nonzero"/><path fill="#4d3a1d" d="M 119.488281 303.242188 C 113.523438 309.558594 106.035156 323.53125 105.890625 335.183594 C 113.539062 342.675781 121.5625 349.417969 129.800781 355.378906 C 129.515625 351.921875 129.261719 348.441406 129.019531 344.953125 C 128.539062 337.90625 127.589844 330.910156 127.6875 323.722656 C 127.769531 317.566406 128.148438 310.652344 129.144531 303.894531 C 126.21875 303.429688 123.335938 302.738281 120.53125 301.765625 C 120.25 302.28125 119.929688 302.785156 119.488281 303.242188 " fill-opacity="1" fill-rule="nonzero"/><path fill="#7b7979" d="M 78.589844 299.957031 C 78.566406 300.679688 78.460938 301.308594 78.320312 301.902344 C 83.148438 309.097656 88.292969 315.875 93.730469 322.1875 C 95.277344 317.128906 97.15625 312.320312 98.820312 308.359375 C 100.894531 303.421875 103.441406 297.957031 106.488281 293.515625 C 104.816406 292.011719 103.1875 290.328125 101.617188 288.410156 C 97.648438 283.5625 94.039062 277.835938 90.734375 271.597656 C 84.484375 278.824219 78.917969 289.933594 78.589844 299.957031 " fill-opacity="1" fill-rule="nonzero"/><path fill="#7b7979" d="M 61.921875 229.394531 C 58.097656 233.707031 53.699219 238.859375 51.324219 245.21875 C 54.863281 256.597656 59.171875 267.300781 64.121094 277.347656 C 66.351562 273.160156 69.074219 269.367188 71.394531 266.171875 C 74.507812 261.875 78.179688 256.726562 82.136719 252.722656 C 78.8125 244.417969 75.863281 235.839844 73.210938 227.617188 C 72.515625 225.4375 71.890625 223.246094 71.308594 221.054688 C 67.828125 222.914062 64.152344 226.882812 61.921875 229.394531 " fill-opacity="1" fill-rule="nonzero"/><path fill="#7b7979" d="M 40.527344 179.554688 C 40.769531 185.441406 41.160156 191.195312 41.6875 196.746094 C 42.234375 202.414062 42.984375 207.9375 43.875 213.351562 C 51.453125 206.722656 59.054688 197.671875 67.410156 194.082031 C 67.15625 184.847656 68 175.441406 70.050781 165.804688 C 59.808594 166.421875 49.007812 170.90625 40.527344 179.554688 " fill-opacity="1" fill-rule="nonzero"/><path fill="#7b7979" d="M 82.855469 113.878906 C 78.117188 111.800781 73.210938 110.476562 68.203125 109.769531 C 61.675781 108.851562 52.742188 106.855469 45.863281 110.121094 C 42.894531 123.746094 41.230469 138.039062 40.578125 152.179688 C 51.285156 144.273438 64.183594 145.363281 75.875 145.742188 C 79.421875 135.691406 83.570312 126.015625 87.433594 116.164062 C 85.753906 115.070312 83.851562 114.320312 82.855469 113.878906 " fill-opacity="1" fill-rule="nonzero"/><g clip-path="url(#27691ff69a)"><path fill="#231f20" d="M 133.484375 299.253906 C 133.53125 299.414062 133.585938 299.566406 133.625 299.730469 C 134.039062 301.269531 134.25 302.921875 134.367188 304.605469 C 118.71875 306.210938 104.488281 291.078125 94.636719 276.226562 C 80.605469 255.066406 71.046875 226.523438 67.605469 196.550781 C 64.316406 167.863281 68.644531 137.980469 83.269531 114.640625 C 92.1875 100.398438 114.492188 62.183594 100.269531 46.15625 C 93.390625 38.402344 80.546875 38.570312 72.554688 45.777344 C 64.777344 52.78125 60.421875 66.136719 57.105469 77.808594 C 54.863281 85.683594 53.917969 94.054688 52.328125 102.164062 C 50.246094 112.75 48.464844 123.425781 46.707031 134.089844 C 43.417969 154.117188 41.027344 173.75 41.742188 193.863281 C 44.410156 269.558594 85.792969 318.0625 125.949219 352.1875 C 128.792969 354.601562 131.527344 357.191406 134.378906 359.5625 C 134.492188 360.445312 134.621094 361.320312 134.753906 362.203125 C 92.761719 337.757812 51.960938 293.242188 37.910156 227.765625 C 34.390625 211.355469 32.984375 193.839844 33.511719 176.121094 C 34.105469 156.265625 38.175781 136.96875 42.058594 117.59375 C 45.519531 100.296875 49.730469 83.582031 55.167969 67.152344 C 58.636719 56.703125 63.535156 46.367188 70.757812 40.832031 C 83.246094 31.238281 106.40625 37.070312 109.449219 57.996094 C 111.1875 69.960938 106.796875 82.761719 102.871094 93.652344 C 98.5625 105.597656 91.722656 114.949219 85.980469 125.410156 C 71.902344 151.054688 72.324219 185.726562 77.40625 213.550781 C 82.792969 243.019531 94.726562 271.359375 111.546875 288.625 C 117.867188 295.113281 125.386719 299.253906 133.484375 299.253906 " fill-opacity="1" fill-rule="nonzero"/></g><path fill="#7b7979" d="M 326.957031 344.746094 C 322.777344 341.558594 317.171875 340.796875 313.136719 337.542969 C 310.632812 335.519531 311.53125 331.164062 311.546875 328.363281 C 311.578125 324.316406 311.171875 320.261719 310.726562 316.246094 C 309.910156 308.847656 308.503906 301.539062 307.691406 294.140625 C 306.769531 285.808594 306.632812 277.476562 305.5 269.152344 C 304.460938 261.515625 302.902344 253.96875 301.914062 246.328125 C 300.804688 237.769531 301.363281 228.863281 301.5 220.261719 C 301.640625 212.082031 300.511719 203.203125 302.484375 195.214844 C 304.34375 187.675781 307.414062 180.964844 306.867188 173.007812 C 306.722656 170.945312 306.015625 169.152344 304.929688 167.738281 C 307.304688 166.316406 301.613281 167.453125 296.691406 169.664062 C 281.882812 176.332031 267.15625 182.417969 250.726562 183.445312 C 234.992188 184.425781 217.257812 182.644531 202.535156 176.644531 C 195.457031 173.757812 189.675781 169.675781 183.25 165.644531 C 178.664062 162.769531 174.019531 160.082031 169.589844 157.023438 C 143.835938 183.523438 113.5625 210.246094 99.742188 245.144531 C 92.84375 262.570312 91.820312 282.054688 92.585938 300.566406 C 93.15625 314.484375 94.148438 337.53125 98.339844 353.417969 C 102.109375 357.90625 105.875 362.507812 111.085938 365.273438 C 113.992188 366.816406 117.117188 367.539062 120.386719 367.675781 C 123.632812 367.820312 126.871094 367.570312 130.105469 367.429688 C 130.96875 367.390625 131.847656 367.355469 132.734375 367.339844 C 136.589844 365.347656 140.328125 363.566406 144.742188 363.332031 C 148.851562 363.113281 152.972656 365.425781 156.800781 366.652344 C 160.738281 367.910156 165.347656 368.113281 169.386719 367.3125 C 172.539062 366.6875 174.980469 366.789062 178.234375 367.242188 C 182.480469 367.828125 187.421875 366.746094 191.726562 366.089844 C 196.25 365.40625 200.160156 364.058594 204.785156 364.808594 C 215.6875 366.574219 226.316406 366.726562 236.746094 363.195312 C 240.894531 361.792969 241.074219 361.488281 245.058594 362.917969 C 249.109375 364.363281 253.316406 364.867188 257.570312 365.320312 C 266.859375 366.320312 276.332031 365.230469 285.445312 363.441406 C 290.292969 362.488281 288.03125 367.144531 292.988281 367.242188 C 296.242188 367.308594 305.03125 367.222656 308.179688 367.941406 C 316.386719 369.816406 325.429688 364.050781 330.113281 356.773438 C 332.941406 352.375 330.628906 347.554688 326.957031 344.746094 " fill-opacity="1" fill-rule="nonzero"/><path fill="#656263" d="M 127.125 328.105469 C 131.910156 328.667969 146.5 335.347656 149.527344 331.222656 C 151.425781 328.640625 132.777344 321.359375 130.582031 320.027344 C 117.375 312.003906 104.683594 301.742188 92.976562 291.691406 C 92.195312 299.835938 92.441406 307.960938 93.859375 315.757812 C 94.949219 315.347656 96.238281 315.382812 97.574219 316.15625 C 106.78125 321.449219 116.382812 326.855469 127.125 328.105469 " fill-opacity="1" fill-rule="nonzero"/><path fill="#656263" d="M 148.449219 295.367188 C 139.480469 289.480469 129.503906 285.132812 121.039062 278.488281 C 112.214844 271.5625 103.140625 259.558594 97.035156 250.253906 C 94.042969 258.246094 94.054688 268.8125 92.105469 277.082031 C 90.777344 282.699219 144.078125 296.863281 150.125 296.894531 C 149.738281 296.210938 149.136719 295.816406 148.449219 295.367188 " fill-opacity="1" fill-rule="nonzero"/><path fill="#656263" d="M 189.941406 209.09375 C 184.421875 202.167969 177.136719 195.949219 172.507812 188.667969 C 167.679688 181.078125 164.542969 170.859375 163.585938 162.554688 C 156.492188 166.988281 151.679688 173.257812 145.445312 178.230469 C 141.210938 181.601562 184.953125 208.671875 190.742188 210.679688 C 190.734375 210.089844 190.363281 209.621094 189.941406 209.09375 " fill-opacity="1" fill-rule="nonzero"/><path fill="#656263" d="M 181.601562 237.964844 C 184.625 238.777344 195.886719 240.964844 195.082031 239.613281 C 194.28125 238.265625 191.085938 236.597656 189.671875 235.742188 C 187.273438 234.289062 184.824219 232.867188 182.324219 231.589844 C 174.625 227.675781 166.160156 224.957031 158.882812 220.25 C 147.8125 213.078125 139.230469 203.863281 131.984375 193.382812 C 128.710938 197.601562 125.546875 201.941406 122.488281 206.371094 C 138.160156 214.15625 151.59375 226.246094 167.691406 233.09375 C 172.210938 235.011719 176.859375 236.699219 181.601562 237.964844 " fill-opacity="1" fill-rule="nonzero"/><path fill="#656263" d="M 157.441406 256.59375 C 161.679688 257.640625 169.609375 257.628906 166.136719 254.972656 C 159.628906 249.996094 151.394531 248.070312 144.761719 243.378906 C 134.402344 236.058594 120.65625 228 113.183594 216.710938 C 109.109375 223.675781 105.355469 230.828125 101.972656 238.148438 C 103.007812 237.832031 104.191406 237.886719 105.425781 238.5625 C 113.671875 243.070312 120.617188 244.269531 129.25 247.960938 C 139.730469 252.4375 142.1875 252.820312 157.441406 256.59375 " fill-opacity="1" fill-rule="nonzero"/><path fill="#ffffff" d="M 156.800781 366.652344 C 160.738281 367.910156 165.347656 368.113281 169.386719 367.3125 C 171.644531 366.863281 173.535156 366.792969 175.625 366.953125 C 175.867188 366.253906 176.136719 365.574219 176.40625 364.910156 C 178.574219 359.671875 179.171875 355.621094 179.910156 350.019531 C 181.570312 337.425781 177.472656 326.890625 163.648438 324.683594 C 157.832031 323.753906 149.855469 319.160156 144.238281 322.457031 C 138.828125 325.632812 135.820312 330.078125 134.5 336.1875 C 133.363281 341.472656 132.351562 346.820312 131.316406 352.125 C 130.222656 357.726562 129.832031 362.832031 133.90625 366.734375 C 137.359375 365 140.777344 363.546875 144.742188 363.332031 C 148.851562 363.113281 152.972656 365.425781 156.800781 366.652344 " fill-opacity="1" fill-rule="nonzero"/><path fill="#ffffff" d="M 326.957031 344.746094 C 322.777344 341.558594 317.171875 340.796875 313.136719 337.542969 C 311.679688 336.363281 311.378906 334.398438 311.382812 332.40625 C 309.164062 332.140625 307.054688 332 305.242188 331.945312 C 302.660156 331.871094 299.339844 331.480469 296.851562 332.355469 C 293.832031 333.410156 291.03125 334.867188 287.902344 335.550781 C 282.179688 336.796875 278.488281 332.175781 273.9375 329.777344 C 267.59375 326.4375 256.152344 326.863281 249.300781 328.523438 C 242.34375 330.207031 235.378906 333.472656 228.128906 333.679688 C 220.527344 333.890625 212.710938 328.175781 205.875 333.144531 C 200.652344 336.949219 195.5625 341.039062 189.9375 344.242188 C 189.855469 348.394531 187.003906 348.578125 186.601562 352.785156 C 186.394531 354.929688 188.132812 360.863281 187.414062 362.820312 C 189.371094 363.449219 191.09375 364.601562 192.71875 365.921875 C 196.832031 365.210938 200.503906 364.117188 204.785156 364.808594 C 215.6875 366.574219 226.316406 366.726562 236.746094 363.195312 C 240.894531 361.792969 241.074219 361.488281 245.058594 362.917969 C 249.109375 364.363281 253.316406 364.867188 257.570312 365.320312 C 266.859375 366.320312 276.332031 365.230469 285.445312 363.441406 C 290.292969 362.488281 288.03125 367.144531 292.988281 367.242188 C 296.242188 367.308594 305.03125 367.222656 308.179688 367.941406 C 316.386719 369.816406 325.429688 364.050781 330.113281 356.773438 C 332.941406 352.375 330.628906 347.554688 326.957031 344.746094 " fill-opacity="1" fill-rule="nonzero"/><path fill="#7b7979" d="M 169.753906 156.214844 C 169.574219 156.398438 169.394531 156.585938 169.207031 156.769531 C 173.617188 160.265625 176.394531 165.164062 181.132812 168.328125 C 188.132812 173.015625 195.636719 177.195312 203.664062 179.910156 C 221.207031 185.847656 238.789062 186.113281 257.066406 184.046875 C 271.308594 182.441406 286.070312 181.117188 298.5 173.433594 C 306.464844 168.507812 313.128906 161.988281 319.132812 154.910156 C 321.953125 149.25 323.320312 142.503906 324.558594 134.679688 C 328.453125 110.0625 320.679688 86.082031 309.042969 56.847656 C 308.382812 55.402344 307.773438 53.921875 307.339844 52.363281 C 305.648438 46.261719 307.261719 39.378906 308.429688 33.339844 C 310.121094 24.585938 307.421875 14.382812 304.171875 5.761719 C 303.6875 4.488281 302.195312 4.335938 301.402344 5.40625 C 296.542969 11.953125 293.683594 17.351562 287.773438 22.851562 C 282.449219 27.796875 277.621094 34.070312 273.308594 40.082031 C 260 38.011719 245.917969 38.511719 233.277344 38.949219 C 225.796875 39.214844 218.441406 39.980469 211.324219 41.375 C 206.113281 26.996094 194.492188 12.226562 181.992188 6.089844 C 181.734375 5.960938 181.457031 5.953125 181.207031 6.003906 C 180.851562 5.179688 179.613281 4.851562 178.910156 5.820312 C 173.734375 12.957031 177.113281 24.660156 177.449219 32.765625 C 177.753906 40.3125 176.5 49.15625 177.210938 57.265625 C 168.695312 69.527344 159.015625 95.996094 158.972656 103.136719 C 158.914062 112.460938 158.386719 123.449219 159.585938 132.6875 C 160.757812 141.75 163.734375 149.4375 169.753906 156.214844 " fill-opacity="1" fill-rule="nonzero"/><path fill="#ffffff" d="M 271.53125 120.664062 C 259.195312 111.945312 252.40625 98.3125 252.300781 83.328125 C 252.199219 68.1875 258.453125 53.710938 259.492188 38.761719 C 254.96875 38.554688 243.257812 40.535156 238.808594 40.605469 C 236.277344 64.277344 243.914062 90.367188 227.730469 108.804688 C 217.828125 120.089844 206.207031 123.582031 191.578125 125.578125 C 180.433594 127.105469 168.957031 127.0625 158.886719 122.941406 C 158.988281 126.300781 159.183594 129.597656 159.585938 132.6875 C 160.757812 141.75 163.734375 149.4375 169.753906 156.214844 C 169.574219 156.398438 169.394531 156.585938 169.207031 156.769531 C 173.617188 160.265625 176.394531 165.164062 181.132812 168.328125 C 188.132812 173.015625 195.636719 177.195312 203.664062 179.910156 C 221.207031 185.847656 238.789062 186.113281 257.066406 184.046875 C 271.308594 182.441406 286.070312 181.117188 298.5 173.433594 C 306.464844 168.507812 313.128906 161.988281 319.132812 154.910156 C 321.953125 149.25 323.320312 142.503906 324.558594 134.679688 C 324.753906 133.464844 324.898438 132.253906 325.027344 131.046875 C 306.066406 133.347656 286.132812 130.988281 271.53125 120.664062 " fill-opacity="1" fill-rule="nonzero"/><path fill="#f79876" d="M 201.804688 46.542969 C 202.363281 47.230469 202.195312 46.804688 201.304688 45.273438 C 199.800781 42.578125 198.195312 39.785156 196.261719 37.367188 C 192.34375 32.46875 187.875 28.230469 182.917969 24.46875 C 181.992188 30.585938 182.5 37.117188 184.097656 43.007812 C 184.535156 44.636719 188.042969 51.3125 186.273438 52.148438 C 189.109375 50.804688 192.023438 49.832031 195.015625 48.878906 C 197.011719 48.238281 199.914062 47.578125 201.804688 46.542969 " fill-opacity="1" fill-rule="nonzero"/><path fill="#f79876" d="M 296.886719 47.410156 C 297.644531 43.933594 297.289062 40.171875 297.960938 36.609375 C 298.59375 33.246094 299.441406 29.699219 299.308594 26.253906 C 299.230469 24.125 300.609375 23.878906 299.25 24.675781 C 298.277344 25.246094 297.390625 25.925781 296.542969 26.671875 C 294.402344 28.5625 292.390625 30.578125 290.46875 32.683594 C 287.703125 35.722656 285.097656 39.261719 282.011719 42.097656 C 288 44.59375 296.6875 48.347656 296.886719 47.410156 " fill-opacity="1" fill-rule="nonzero"/><path fill="#231f20" d="M 176.320312 55.179688 C 151.035156 85.902344 146.363281 137.671875 175.355469 167.519531 C 193.765625 186.476562 220.707031 190.449219 245.933594 189.90625 C 267.414062 189.445312 292.523438 187.347656 309.210938 172.179688 C 322.269531 160.304688 326.105469 141.976562 326.742188 125.066406 C 327.191406 113.078125 326.375 100.921875 323.28125 89.3125 C 319.402344 74.78125 312.613281 60.824219 306.34375 47.203125 C 306.449219 48.519531 306.554688 49.832031 306.664062 51.144531 C 311.480469 35.277344 311.519531 18.445312 306.632812 2.589844 C 306.425781 1.929688 306.109375 1.023438 305.300781 0.933594 C 300.511719 0.390625 294.273438 7.535156 290.925781 10.511719 C 285.769531 15.085938 281.035156 20.179688 276.640625 25.484375 C 273.265625 29.5625 270.734375 36.90625 264.941406 37.058594 C 256.910156 37.265625 248.722656 35.929688 240.632812 35.96875 C 233.75 36.007812 226.890625 36.546875 220.046875 37.21875 C 218.933594 37.324219 211.28125 38.875 210.785156 37.957031 C 209.171875 34.964844 207.511719 32.003906 205.789062 29.074219 C 199.195312 17.871094 190.980469 5.910156 178.46875 0.917969 C 177.46875 0.519531 176.992188 1.746094 176.828125 2.519531 C 173.0625 20.320312 171.476562 37.71875 174.8125 55.714844 C 175.65625 60.277344 178.207031 56.84375 177.652344 53.820312 C 174.664062 37.550781 176.140625 22.003906 179.476562 5.886719 C 178.933594 6.421875 178.382812 6.960938 177.839844 7.488281 C 193.730469 13.679688 202.015625 30.113281 209.445312 44.359375 C 209.648438 44.746094 210.011719 45.417969 210.566406 45.371094 C 219.949219 44.523438 229.289062 43.453125 238.714844 43.167969 C 244.164062 42.996094 249.632812 43.097656 255.074219 43.386719 C 259.667969 43.636719 264.710938 45.109375 269.195312 43.625 C 271.441406 42.882812 272.335938 40.113281 273.476562 38.300781 C 275.953125 34.34375 279.027344 30.746094 282.097656 27.242188 C 285.625 23.210938 289.484375 19.480469 293.472656 15.914062 C 296.089844 13.574219 301.722656 7.453125 305.46875 7.757812 C 305.027344 7.210938 304.582031 6.65625 304.144531 6.105469 C 307.859375 17.523438 308.402344 29.125 306.035156 40.890625 C 305.421875 43.96875 303.582031 47.246094 304.042969 50.429688 C 304.609375 54.320312 306.960938 58.367188 308.515625 61.9375 C 316.46875 80.132812 323.109375 97.085938 323.648438 117.171875 C 324.277344 140.878906 317.410156 163.421875 294.746094 174.109375 C 284.125 179.121094 272.09375 180.796875 260.507812 181.757812 C 246.046875 182.953125 231.210938 183.0625 216.898438 180.53125 C 193.085938 176.328125 172.277344 162.515625 163.078125 139.683594 C 151.976562 112.136719 160.816406 81.167969 177.058594 57.773438 C 177.5 57.128906 177.140625 54.179688 176.320312 55.179688 " fill-opacity="1" fill-rule="nonzero"/><path fill="#231f20" d="M 213.9375 139.023438 C 218.652344 145.886719 229.34375 148.738281 236.335938 143.488281 C 242.167969 139.109375 243.121094 128.804688 241.308594 122.234375 C 241.164062 121.726562 240.773438 121.730469 240.664062 122.25 C 239.03125 129.773438 241.160156 136.421875 234.867188 142.546875 C 230.015625 147.265625 218.035156 142.230469 214.050781 138.527344 C 213.859375 138.351562 213.859375 138.917969 213.9375 139.023438 " fill-opacity="1" fill-rule="nonzero"/><path fill="#231f20" d="M 268.117188 138.5 C 263.597656 142.65625 256.871094 144.375 250.851562 143.914062 C 240.5625 143.132812 242.878906 129.148438 241.507812 122.4375 C 241.402344 121.917969 241.023438 121.546875 240.820312 122.25 C 239.164062 128.003906 239.855469 138.382812 244.769531 142.5625 C 251.882812 148.613281 263.054688 146.605469 268.230469 139.019531 C 268.292969 138.929688 268.25 138.378906 268.117188 138.5 " fill-opacity="1" fill-rule="nonzero"/><path fill="#231f20" d="M 183.246094 21.1875 C 179.972656 30.691406 183.433594 42.691406 184.65625 52.332031 C 184.703125 52.710938 185.015625 53.949219 185.65625 53.5625 C 189.988281 50.941406 194.6875 49.023438 198.941406 46.261719 L 198.914062 45.980469 C 194.027344 46.722656 189.429688 47.519531 185.152344 50.109375 C 185.484375 50.515625 185.820312 50.925781 186.152344 51.339844 C 185.613281 47.128906 184.976562 42.929688 184.457031 38.710938 C 183.761719 33.132812 184.3125 27.707031 184.292969 22.132812 C 184.285156 21.664062 183.652344 20 183.246094 21.1875 " fill-opacity="1" fill-rule="nonzero"/><path fill="#231f20" d="M 183.445312 23.210938 C 185.648438 26.660156 189.390625 29.550781 192.101562 32.710938 C 195.410156 36.558594 198.3125 40.703125 200.035156 45.507812 C 200.75 47.484375 201.386719 44.613281 201.027344 43.648438 C 199.347656 39.101562 196.714844 35.261719 193.535156 31.632812 C 191.984375 29.867188 190.320312 28.210938 188.683594 26.535156 C 186.921875 24.742188 185.746094 22.53125 183.804688 20.960938 C 183.140625 20.421875 183.21875 22.859375 183.445312 23.210938 " fill-opacity="1" fill-rule="nonzero"/><path fill="#231f20" d="M 200.261719 44.28125 L 190.902344 48.902344 L 191.550781 50.21875 L 200.910156 45.589844 " fill-opacity="1" fill-rule="nonzero"/><path fill="#231f20" d="M 298.714844 19.480469 C 298.675781 29.449219 298.085938 38.78125 296.828125 48.691406 C 297.140625 48.269531 297.453125 47.839844 297.765625 47.414062 C 293.503906 44.835938 288.949219 44.042969 284.082031 43.304688 L 284.074219 43.582031 C 288.359375 46.339844 293.078125 48.257812 297.4375 50.894531 C 298.085938 51.285156 298.324219 49.953125 298.367188 49.613281 C 299.589844 40.015625 302.96875 28.25 299.816406 18.761719 C 299.351562 17.375 298.722656 18.664062 298.714844 19.480469 " fill-opacity="1" fill-rule="nonzero"/><path fill="#231f20" d="M 299.144531 18.289062 C 297.5625 19.546875 296.613281 21.324219 295.265625 22.859375 C 293.414062 24.972656 291.316406 26.882812 289.421875 28.964844 C 286.1875 32.511719 283.589844 36.488281 281.921875 40.988281 C 281.636719 41.769531 282.371094 44.609375 282.910156 43.109375 C 284.527344 38.601562 287.054688 34.828125 290.027344 31.125 C 292.945312 27.484375 297.179688 24.375 299.609375 20.523438 C 299.847656 20.148438 299.820312 17.742188 299.144531 18.289062 " fill-opacity="1" fill-rule="nonzero"/><path fill="#231f20" d="M 282.089844 42.914062 L 291.449219 47.535156 L 292.101562 46.226562 L 282.742188 41.601562 " fill-opacity="1" fill-rule="nonzero"/><path fill="#ffffff" d="M 257.84375 99.652344 C 257.644531 98.6875 258.207031 97.519531 258.371094 96.5625 C 258.53125 95.621094 258.648438 94.71875 258.910156 93.800781 C 259.699219 91.078125 261.695312 88.9375 263.949219 87.132812 C 264.390625 86.777344 264.855469 86.457031 265.300781 86.105469 C 265.761719 85.738281 266.257812 85.585938 266.785156 85.332031 C 268.011719 84.746094 269.027344 84.253906 270.335938 83.957031 C 272.1875 83.546875 274.074219 82.996094 275.898438 83.285156 C 277.410156 83.527344 278.882812 82.964844 280.394531 83.207031 C 281.941406 83.449219 283.867188 83.359375 285.242188 84.316406 C 286.613281 85.273438 286.867188 87.175781 286.609375 88.652344 C 286.414062 89.789062 286.054688 92.765625 285.488281 93.746094 C 284.808594 94.925781 283.734375 96.171875 283.09375 97.371094 C 282.414062 98.65625 280.980469 99.183594 280.109375 100.339844 C 279.347656 101.347656 278.519531 102.289062 277.414062 102.949219 C 275.726562 103.953125 273.960938 104.136719 272.023438 104.089844 C 270.148438 104.042969 268.195312 104.105469 266.347656 103.757812 C 264.757812 103.453125 263.296875 102.832031 261.820312 102.195312 C 261.027344 101.847656 260.25 101.480469 259.476562 101.089844 C 259.128906 100.914062 258.511719 100.652344 258.304688 100.328125 L 257.84375 99.652344 " fill-opacity="1" fill-rule="nonzero"/><path fill="#34505e" d="M 267.234375 84.433594 C 266.792969 85.15625 266.105469 85.578125 265.765625 86.367188 C 265.464844 87.070312 265.390625 88.007812 265.210938 88.78125 C 264.441406 92.015625 264.597656 96.207031 266.308594 99.113281 C 267.335938 100.859375 269.585938 103.441406 271.605469 103.933594 C 272.261719 104.089844 273.074219 104.324219 273.757812 104.175781 C 274.511719 104.007812 275.277344 103.4375 275.8125 102.957031 C 277.644531 101.3125 278.121094 99.878906 278.273438 99.292969 C 278.609375 98.03125 278.855469 97.226562 279.015625 95.9375 C 279.167969 94.644531 279.019531 93.238281 278.789062 91.964844 C 278.582031 90.824219 278.285156 89.582031 277.703125 88.53125 C 277.101562 87.453125 276.484375 86.703125 275.621094 85.902344 C 274.746094 85.078125 272.996094 83.6875 271.789062 83.511719 C 271.0625 83.402344 267.234375 84.433594 267.234375 84.433594 " fill-opacity="1" fill-rule="nonzero"/><path fill="#231f20" d="M 257.5625 99.664062 C 257.71875 91.300781 262.105469 86.3125 269.808594 84.050781 C 271.945312 83.429688 286.644531 82.042969 286.441406 85.863281 C 285.582031 101.867188 269.527344 109.4375 257.53125 98.75 C 257.167969 98.421875 256.910156 100.175781 257.359375 100.578125 C 263.007812 105.613281 270.097656 107.628906 277.140625 104.238281 C 284.382812 100.742188 286.953125 91.988281 287.347656 84.617188 C 287.363281 84.332031 287.386719 83.59375 287.03125 83.445312 C 274 78.210938 256.738281 83.507812 257.332031 99.664062 C 257.347656 99.980469 257.554688 99.96875 257.5625 99.664062 " fill-opacity="1" fill-rule="nonzero"/><path fill="#231f20" d="M 267.386719 83.925781 C 264.488281 86.550781 263.113281 92.265625 264.328125 96.023438 C 265.179688 98.640625 266.679688 100.980469 268.433594 103.082031 C 270.246094 105.25 272.777344 104.839844 275.226562 104.179688 C 283.988281 101.824219 280.050781 82.058594 271.394531 82.023438 C 270.988281 82.023438 271.0625 83.171875 271.351562 83.316406 C 274.136719 84.734375 276.085938 85.503906 277.789062 88.417969 C 280.355469 92.816406 279.671875 99.246094 276.050781 102.738281 C 273.046875 105.625 269.0625 102.992188 267.175781 100.402344 C 264.238281 96.371094 263.53125 88.53125 267.496094 84.664062 C 267.664062 84.5 267.546875 83.777344 267.386719 83.925781 " fill-opacity="1" fill-rule="nonzero"/><path fill="#231f20" d="M 268.054688 84.335938 C 267.789062 88.066406 268.480469 90.511719 269.398438 94.148438 C 270.132812 96.84375 271.5625 102.722656 274.375 103.902344 C 275.855469 95.886719 269.414062 85.109375 268.253906 84.105469 " fill-opacity="1" fill-rule="nonzero"/><path fill="#231f20" d="M 257.484375 101.324219 C 259.808594 93.460938 262.992188 86.359375 271.691406 84.558594 C 275.554688 83.761719 279.722656 84.554688 283.597656 84.835938 C 286.882812 85.070312 290.175781 83.597656 293.019531 82.15625 L 292.992188 81.914062 C 284.425781 83.988281 275.976562 78.886719 267.289062 82.550781 C 260.332031 85.484375 257.632812 93.875 256.777344 100.671875 C 256.707031 101.195312 257.1875 102.332031 257.484375 101.324219 " fill-opacity="1" fill-rule="nonzero"/><path fill="#ffffff" d="M 226.152344 99.652344 C 226.351562 98.6875 225.789062 97.519531 225.625 96.5625 C 225.464844 95.621094 225.347656 94.71875 225.078125 93.800781 C 224.296875 91.078125 222.300781 88.9375 220.046875 87.132812 C 219.605469 86.777344 219.140625 86.457031 218.695312 86.105469 C 218.234375 85.738281 217.738281 85.585938 217.210938 85.332031 C 215.988281 84.746094 214.96875 84.253906 213.660156 83.957031 C 211.8125 83.546875 209.921875 82.996094 208.097656 83.285156 C 206.585938 83.527344 205.113281 82.964844 203.601562 83.207031 C 202.046875 83.449219 200.128906 83.359375 198.753906 84.316406 C 197.386719 85.273438 197.132812 87.175781 197.386719 88.652344 C 197.582031 89.789062 197.941406 92.765625 198.507812 93.746094 C 199.1875 94.925781 200.261719 96.171875 200.902344 97.371094 C 201.582031 98.65625 203.015625 99.183594 203.886719 100.339844 C 204.648438 101.347656 205.476562 102.289062 206.585938 102.949219 C 208.269531 103.953125 210.035156 104.136719 211.972656 104.089844 C 213.847656 104.042969 215.800781 104.105469 217.648438 103.757812 C 219.238281 103.453125 220.703125 102.832031 222.175781 102.195312 C 222.96875 101.847656 223.746094 101.480469 224.519531 101.089844 C 224.867188 100.914062 225.484375 100.652344 225.699219 100.328125 L 226.152344 99.652344 " fill-opacity="1" fill-rule="nonzero"/><path fill="#34505e" d="M 216.761719 84.433594 C 217.203125 85.15625 217.898438 85.578125 218.230469 86.367188 C 218.53125 87.070312 218.601562 88.007812 218.785156 88.78125 C 219.554688 92.015625 219.402344 96.207031 217.6875 99.113281 C 216.660156 100.859375 214.410156 103.441406 212.390625 103.933594 C 211.734375 104.089844 210.914062 104.324219 210.238281 104.175781 C 209.484375 104.007812 208.71875 103.4375 208.183594 102.957031 C 206.351562 101.3125 205.875 99.878906 205.722656 99.292969 C 205.386719 98.03125 205.132812 97.226562 204.980469 95.9375 C 204.828125 94.644531 204.976562 93.238281 205.207031 91.964844 C 205.414062 90.824219 205.710938 89.582031 206.292969 88.53125 C 206.894531 87.453125 207.511719 86.703125 208.375 85.902344 C 209.25 85.078125 211 83.6875 212.207031 83.511719 C 212.933594 83.402344 216.761719 84.433594 216.761719 84.433594 " fill-opacity="1" fill-rule="nonzero"/><path fill="#231f20" d="M 226.660156 99.726562 C 227.257812 83.550781 210.007812 78.191406 196.921875 83.449219 C 196.652344 83.5625 196.625 84.164062 196.636719 84.386719 C 197.042969 91.945312 199.394531 99.199219 205.878906 103.652344 C 212.632812 108.292969 221.082031 105.566406 226.679688 100.574219 C 227.128906 100.171875 226.808594 98.410156 226.414062 98.753906 C 214.6875 109.207031 200.191406 102.46875 197.726562 87.519531 C 196.804688 81.949219 209.785156 83.1875 213.035156 83.773438 C 221.289062 85.261719 226.277344 91.230469 226.433594 99.664062 C 226.4375 99.894531 226.648438 100.035156 226.660156 99.726562 " fill-opacity="1" fill-rule="nonzero"/><path fill="#231f20" d="M 216.480469 84.628906 C 222.070312 90.082031 218.410156 107.117188 208.824219 103.28125 C 203.738281 101.25 204.453125 93.460938 205.761719 89.4375 C 206.894531 85.949219 209.765625 84.8125 212.675781 83.316406 C 212.976562 83.160156 212.972656 82.023438 212.566406 82.023438 C 203.902344 82.058594 200.035156 101.8125 208.792969 104.179688 C 211.242188 104.839844 213.773438 105.25 215.582031 103.078125 C 217.121094 101.226562 219.292969 98.492188 219.6875 96.007812 C 220.339844 91.933594 219.820312 86.851562 216.589844 83.921875 C 216.4375 83.78125 216.328125 84.484375 216.480469 84.628906 " fill-opacity="1" fill-rule="nonzero"/><path fill="#231f20" d="M 215.941406 84.335938 C 216.207031 88.066406 215.511719 90.511719 214.597656 94.148438 C 213.863281 96.84375 212.433594 102.722656 209.625 103.902344 C 208.140625 95.886719 214.582031 85.109375 215.742188 84.105469 " fill-opacity="1" fill-rule="nonzero"/><path fill="#231f20" d="M 227.207031 100.652344 C 226.324219 93.742188 223.847656 87.253906 217.882812 83.21875 C 209.617188 77.628906 199.675781 84.03125 190.992188 81.914062 L 190.988281 82.15625 C 197.683594 85.542969 203.679688 84.101562 210.894531 84.378906 C 220.386719 84.746094 224.226562 93.449219 226.53125 101.339844 C 226.832031 102.367188 227.273438 101.148438 227.207031 100.652344 " fill-opacity="1" fill-rule="nonzero"/><path fill="#231f20" d="M 141.839844 107.65625 C 163.132812 110.085938 183.710938 116.421875 204.769531 120.003906 C 205.726562 120.167969 205.878906 116.613281 204.679688 116.40625 C 183.832031 112.910156 163.105469 106.367188 141.835938 107.3125 L 141.839844 107.65625 " fill-opacity="1" fill-rule="nonzero"/><path fill="#231f20" d="M 142.246094 148.167969 C 162.5625 142.070312 183.804688 140.015625 204.363281 135.078125 C 205.546875 134.792969 205.207031 131.257812 204.273438 131.480469 C 183.46875 136.414062 161.699219 138.664062 142.21875 147.835938 L 142.246094 148.167969 " fill-opacity="1" fill-rule="nonzero"/><path fill="#231f20" d="M 145.875 128.394531 C 167.109375 126.519531 188.433594 128.589844 209.675781 127.863281 C 210.800781 127.828125 210.695312 124.226562 209.589844 124.265625 C 188.339844 125.039062 166.644531 122.851562 145.867188 128.050781 L 145.875 128.394531 " fill-opacity="1" fill-rule="nonzero"/><path fill="#231f20" d="M 341.957031 107.3125 C 320.652344 106.367188 299.90625 112.902344 279.027344 116.40625 C 277.851562 116.605469 278.117188 120.171875 279.117188 120.003906 C 300.148438 116.425781 320.699219 110.097656 341.964844 107.65625 L 341.957031 107.3125 " fill-opacity="1" fill-rule="nonzero"/><path fill="#231f20" d="M 341.570312 147.835938 C 322.054688 138.675781 300.269531 136.417969 279.433594 131.480469 C 278.539062 131.265625 278.324219 134.785156 279.523438 135.078125 C 300.042969 140.011719 321.25 142.050781 341.539062 148.164062 L 341.570312 147.835938 " fill-opacity="1" fill-rule="nonzero"/><path fill="#231f20" d="M 337.917969 128.050781 C 317.105469 122.867188 295.402344 125.042969 274.121094 124.265625 C 273.046875 124.230469 273.058594 127.824219 274.210938 127.863281 C 295.417969 128.589844 316.722656 126.507812 337.929688 128.394531 L 337.917969 128.050781 " fill-opacity="1" fill-rule="nonzero"/><path fill="#231f20" d="M 165.996094 151.199219 C 164.390625 159.914062 159.664062 165.363281 152.90625 170.699219 C 146.347656 175.882812 140.148438 181.085938 134.265625 187.046875 C 123.0625 198.398438 113.195312 211.011719 105.605469 225.0625 C 98.339844 238.519531 93.902344 253.203125 92.046875 268.355469 C 90.460938 281.335938 91.488281 294.789062 91.578125 307.84375 C 91.707031 325.957031 90.789062 353.328125 105.859375 366.546875 C 115.140625 374.683594 125.113281 371.46875 136.109375 370.492188 C 144.007812 369.789062 152.011719 370.511719 159.898438 371.042969 C 164.738281 371.363281 169.96875 371.804688 174.398438 369.441406 C 182.660156 365.035156 182.949219 348.535156 181.675781 340.871094 C 180.757812 335.328125 178.09375 330.492188 173.722656 326.960938 C 171.003906 324.757812 167.511719 323.757812 164.15625 323.042969 C 156.84375 321.484375 153.058594 319.453125 151.726562 311.0625 C 151.085938 307.035156 148.800781 310.074219 149.234375 312.726562 C 150.15625 318.320312 152.058594 323.386719 156.679688 326.945312 C 158.808594 328.582031 161.800781 328.433594 164.300781 328.789062 C 167.972656 329.3125 171.300781 330.886719 174.175781 333.171875 C 182.183594 339.519531 181.1875 355.042969 175.546875 362.667969 C 172.539062 366.726562 165.636719 365.96875 161.296875 365.753906 C 152.820312 365.332031 144.476562 364.691406 135.976562 365.09375 C 129.800781 365.382812 124.171875 367.234375 117.894531 366.417969 C 112.605469 365.738281 107.96875 362.910156 104.464844 358.992188 C 96.929688 350.554688 95.433594 337.441406 94.539062 326.660156 C 93.5625 314.894531 93.828125 303.054688 93.757812 291.257812 C 93.660156 273.414062 95.476562 256.757812 102.234375 240.09375 C 108.578125 224.460938 118.632812 210.597656 129.851562 198.125 C 137.570312 189.550781 146.015625 182.316406 155.03125 175.195312 C 162.460938 169.332031 166.398438 162.179688 167.796875 152.859375 C 168.003906 151.496094 166.476562 148.617188 165.996094 151.199219 " fill-opacity="1" fill-rule="nonzero"/><path fill="#231f20" d="M 310.320312 166.242188 C 302.8125 175.269531 302.167969 191.113281 301.65625 202.261719 C 301.105469 214.164062 301.960938 226.222656 303.417969 238.035156 C 305.765625 256.988281 305.699219 276.390625 306.5625 295.449219 C 307.261719 310.789062 305.679688 329.800781 315.285156 342.824219 C 318.492188 347.171875 322.761719 347.269531 327.089844 349.714844 C 336.265625 354.886719 327.285156 362.050781 321.1875 363.761719 C 318.152344 364.613281 315.039062 365.039062 311.894531 365.15625 C 309.414062 365.257812 310.390625 361.960938 310.230469 360.242188 C 309.804688 355.59375 308.402344 351.78125 304.988281 348.503906 C 303.453125 347.035156 303.097656 351.832031 303.996094 352.808594 C 308.703125 357.929688 306.527344 362.476562 308.222656 368.105469 C 309.492188 372.316406 314.050781 371.003906 317.640625 370.535156 C 327.085938 369.304688 334.816406 364.796875 333.949219 354.292969 C 333.632812 350.425781 331.996094 347.003906 329.210938 344.324219 C 327.984375 343.148438 326.390625 342.210938 324.742188 341.792969 C 320.675781 340.765625 318.164062 338.980469 315.691406 335.617188 C 310.46875 328.519531 310.824219 318.644531 310.316406 310.277344 C 309.015625 288.875 308.34375 267.425781 306.828125 246.03125 C 306.113281 235.910156 304.691406 225.867188 304.21875 215.722656 C 303.859375 208.074219 304.085938 200.421875 304.910156 192.8125 C 305.867188 183.992188 308.730469 175.867188 310.824219 167.324219 C 310.882812 167.101562 310.765625 165.707031 310.320312 166.242188 " fill-opacity="1" fill-rule="nonzero"/><path fill="#231f20" d="M 199.042969 239.863281 C 198.988281 251.03125 201.867188 262.539062 202.9375 273.679688 C 204.09375 285.675781 204.699219 297.742188 204.8125 309.789062 C 204.847656 314.09375 204.78125 318.402344 204.496094 322.703125 C 204.046875 329.441406 199.457031 333.320312 194.449219 337.320312 C 188.207031 342.292969 185.246094 348.078125 185.109375 356.144531 C 185 362.5625 188.3125 367.960938 194.644531 369.457031 C 204.257812 371.722656 215.910156 372.242188 225.714844 370.878906 C 230.746094 370.179688 238.613281 370.171875 241.53125 365.105469 C 244.332031 360.242188 243.015625 352.949219 242.746094 347.691406 C 242.59375 344.753906 240.5625 344.796875 240.578125 347.742188 C 240.605469 352.402344 242.476562 360.046875 237.410156 362.558594 C 231.753906 365.363281 223.25 364.691406 217.121094 364.621094 C 212.820312 364.574219 208.511719 364.253906 204.226562 363.882812 C 199.53125 363.472656 193.113281 363.636719 189.613281 360.019531 C 182.015625 352.1875 197.839844 342.007812 201.957031 337.664062 C 206.507812 332.867188 207.117188 327.050781 207.378906 320.789062 C 207.71875 312.953125 207.511719 305.101562 207.183594 297.273438 C 206.777344 287.441406 205.953125 277.625 204.890625 267.851562 C 203.925781 258.890625 203.738281 247.46875 199.628906 239.28125 C 199.292969 238.625 199.046875 239.566406 199.042969 239.863281 " fill-opacity="1" fill-rule="nonzero"/><path fill="#231f20" d="M 167.179688 368.765625 C 173.078125 371.226562 180.613281 370.792969 186.933594 370.71875 C 191.828125 370.667969 199.796875 371.238281 203.109375 367.101562 C 203.214844 366.96875 203.230469 366.539062 203.058594 366.445312 C 200.800781 365.246094 199.179688 366.074219 196.65625 366.53125 C 193.429688 367.117188 190.121094 367.253906 186.847656 367.386719 C 180.480469 367.640625 173.21875 366.246094 167.175781 368.402344 L 167.179688 368.765625 " fill-opacity="1" fill-rule="nonzero"/><path fill="#231f20" d="M 219.238281 239.972656 C 221.582031 244.367188 225.449219 247.671875 229.09375 250.992188 C 233.222656 254.753906 237.480469 258.394531 241.773438 261.960938 C 242.355469 262.449219 242.625 259.90625 242.023438 259.363281 C 238.234375 255.945312 234.273438 252.710938 230.453125 249.335938 C 227.007812 246.292969 223.550781 241.578125 219.304688 239.6875 L 219.238281 239.972656 " fill-opacity="1" fill-rule="nonzero"/><path fill="#231f20" d="M 261.523438 236.167969 C 256.746094 240.441406 252.859375 246.300781 248.527344 251.089844 C 246.042969 253.835938 241.398438 257.054688 240.933594 260.9375 C 239.652344 271.59375 239.765625 282.554688 239.75 293.269531 C 239.71875 315.183594 240.769531 337.082031 240.832031 358.992188 C 240.84375 361.898438 242.972656 361.824219 242.960938 358.9375 C 242.882812 338.625 241.9375 318.3125 241.828125 297.992188 C 241.761719 286.890625 241.59375 275.730469 242.429688 264.65625 C 242.730469 260.636719 246.308594 258.078125 249.488281 254.511719 C 254.144531 249.289062 259.429688 244.21875 261.914062 237.5625 C 261.980469 237.382812 261.960938 235.777344 261.523438 236.167969 " fill-opacity="1" fill-rule="nonzero"/><path fill="#231f20" d="M 208.46875 344.347656 C 208.332031 344.214844 208.195312 344.078125 208.058594 343.945312 C 207.851562 343.742188 207.671875 343.597656 207.378906 343.765625 C 200.953125 347.410156 199.40625 359.6875 202.867188 365.605469 C 204.140625 367.78125 204.859375 363.414062 204.214844 362.296875 C 204.976562 363.613281 204.824219 365.554688 204.496094 363.3125 C 204.339844 362.222656 203.632812 361.359375 203.300781 360.3125 C 202.363281 357.394531 204 353.71875 205.402344 351.21875 C 206.054688 350.074219 210.175781 346.011719 208.46875 344.347656 " fill-opacity="1" fill-rule="nonzero"/><path fill="#231f20" d="M 220.789062 368.480469 C 224.757812 362.261719 224.085938 350.941406 220.519531 344.675781 C 219.832031 343.476562 219.539062 345.507812 219.582031 345.984375 C 219.847656 349.03125 220.699219 351.980469 221.132812 355.011719 C 221.691406 358.96875 220.503906 362.652344 219.859375 366.488281 C 219.804688 366.808594 220.089844 369.566406 220.789062 368.480469 " fill-opacity="1" fill-rule="nonzero"/><path fill="#231f20" d="M 283.839844 239.292969 C 279.929688 246.792969 279.785156 257.523438 278.804688 265.792969 C 277.589844 275.992188 276.8125 286.253906 276.335938 296.519531 C 275.78125 308.601562 272.992188 325.828125 280.503906 336.304688 C 285.066406 342.667969 299.84375 349.117188 294.4375 359.097656 C 290.859375 365.699219 274.179688 364.355469 267.773438 364.585938 C 260.976562 364.828125 253.242188 364.933594 246.714844 362.847656 C 240.8125 360.960938 242.886719 352.429688 242.914062 347.691406 C 242.925781 345.492188 240.917969 344.242188 240.769531 347.082031 C 240.5 352.351562 239.34375 359.039062 241.539062 364.066406 C 243.777344 369.167969 249.710938 369.710938 254.617188 370.382812 C 264.921875 371.792969 274.929688 371.296875 285.261719 370.015625 C 293.320312 369.023438 297.78125 365.339844 298.351562 356.984375 C 298.816406 350.191406 296.085938 343.109375 290.828125 338.765625 C 285.683594 334.523438 279.601562 330.757812 279.027344 323.472656 C 278.707031 319.441406 278.683594 315.382812 278.671875 311.335938 C 278.648438 299.460938 279.378906 287.570312 280.398438 275.738281 C 281.425781 263.878906 284.511719 251.710938 284.449219 239.839844 C 284.449219 239.507812 284.164062 238.667969 283.839844 239.292969 " fill-opacity="1" fill-rule="nonzero"/><path fill="#231f20" d="M 316.316406 368.402344 C 310.917969 366.503906 304.691406 367.550781 299.027344 367.429688 C 295.730469 367.355469 292.476562 367.199219 289.191406 366.867188 C 286.195312 366.566406 283.148438 364.949219 280.421875 366.449219 C 280.246094 366.546875 280.292969 366.980469 280.398438 367.105469 C 283.851562 371.273438 291.644531 370.546875 296.644531 370.71875 C 302.847656 370.941406 310.546875 371.207031 316.320312 368.765625 L 316.316406 368.402344 " fill-opacity="1" fill-rule="nonzero"/><path fill="#231f20" d="M 274.867188 345.65625 C 275.308594 347.601562 276.550781 348.8125 277.671875 350.433594 C 279.363281 352.882812 280.5 356.089844 280.363281 359.082031 C 280.261719 361.171875 278.765625 362.453125 278.992188 364.589844 C 279.121094 365.785156 280.484375 366.324219 281.15625 364.800781 C 283.824219 358.773438 282.226562 347.324219 276.019531 343.75 C 275.726562 343.585938 275.539062 343.769531 275.351562 343.964844 C 274.851562 344.5 274.703125 344.925781 274.867188 345.65625 " fill-opacity="1" fill-rule="nonzero"/><path fill="#231f20" d="M 263.671875 366.808594 C 263.058594 363.277344 262.082031 359.957031 262.257812 356.324219 C 262.429688 352.800781 263.636719 349.457031 263.925781 345.957031 C 263.949219 345.703125 263.589844 343.558594 263.042969 344.484375 C 259.28125 350.839844 258.832031 362.132812 262.769531 368.496094 C 263.382812 369.488281 263.722656 367.109375 263.671875 366.808594 " fill-opacity="1" fill-rule="nonzero"/><path fill="#231f20" d="M 311.839844 347.9375 C 313.621094 350.082031 315.914062 351.609375 317.699219 353.835938 C 320.324219 357.117188 322.191406 362.894531 321.230469 367.117188 C 321.203125 367.21875 321.296875 367.671875 321.410156 367.417969 C 323.101562 363.472656 322.203125 359.507812 320.875 355.589844 C 319.671875 352.050781 316.382812 345.410156 312.113281 345.03125 C 311.121094 344.949219 311.488281 347.515625 311.839844 347.9375 " fill-opacity="1" fill-rule="nonzero"/><path fill="#231f20" d="M 164.210938 340.125 C 167.285156 343.285156 170.238281 345.355469 172.078125 349.597656 C 174.625 355.460938 172.890625 361 170.53125 366.613281 C 170.492188 366.710938 170.566406 367.183594 170.671875 367.011719 C 173.625 362.132812 175.535156 358.15625 174.535156 352.355469 C 173.574219 346.78125 170.726562 338.667969 164.480469 337.226562 C 163.582031 337.011719 163.839844 339.746094 164.210938 340.125 " fill-opacity="1" fill-rule="nonzero"/><path fill="#231f20" d="M 151.128906 341.277344 C 154.207031 344.4375 157.160156 346.5 159.003906 350.746094 C 161.546875 356.613281 159.8125 362.144531 157.449219 367.765625 C 157.414062 367.855469 157.488281 368.335938 157.59375 368.15625 C 160.542969 363.28125 162.453125 359.304688 161.457031 353.503906 C 160.496094 347.929688 157.644531 339.820312 151.40625 338.371094 C 150.5 338.160156 150.761719 340.894531 151.128906 341.277344 " fill-opacity="1" fill-rule="nonzero"/><path fill="#c0755a" d="M 248.46875 108.976562 C 245.59375 108.808594 243.109375 108.714844 238.671875 108.914062 C 236.28125 109 232.921875 109.15625 230.09375 109.589844 C 228.179688 109.882812 228.445312 111.839844 230.285156 114.792969 C 232.550781 118.433594 234.09375 120.242188 236.980469 123.390625 C 241.203125 128.011719 241.019531 129.671875 243.597656 127.664062 C 247.617188 124.527344 252.027344 118.746094 253.996094 115.347656 C 256.230469 111.492188 256.699219 109.464844 248.46875 108.976562 " fill-opacity="1" fill-rule="nonzero"/><path fill="#231f20" d="M 248.472656 108.835938 C 248.472656 108.835938 249.609375 108.882812 251.625 109.035156 C 252.628906 109.199219 253.878906 109.109375 255.351562 110.113281 C 255.6875 110.414062 256.019531 110.859375 256.132812 111.375 C 256.285156 111.894531 256.230469 112.394531 256.167969 112.859375 C 256.011719 113.785156 255.699219 114.636719 255.328125 115.449219 C 254.996094 116.261719 254.5 117.039062 254.035156 117.875 C 253.800781 118.292969 253.546875 118.703125 253.285156 119.121094 C 253.003906 119.519531 252.710938 119.917969 252.417969 120.324219 C 251.832031 121.140625 251.25 121.984375 250.554688 122.796875 C 249.832031 123.605469 249.097656 124.4375 248.320312 125.246094 C 247.570312 126.109375 246.71875 126.734375 245.890625 127.464844 C 245.46875 127.816406 245.050781 128.175781 244.621094 128.53125 C 244.003906 129 243.648438 129.3125 242.714844 129.636719 C 242.257812 129.789062 241.574219 129.792969 241.042969 129.5625 C 240.558594 129.328125 240.230469 129.039062 239.996094 128.785156 C 239.515625 128.261719 239.210938 127.785156 238.871094 127.316406 C 238.238281 126.363281 237.625 125.449219 236.953125 124.542969 C 235.617188 122.691406 234.140625 120.875 232.757812 119.117188 C 232.117188 118.203125 231.480469 117.289062 230.796875 116.425781 C 230.449219 115.988281 230.097656 115.550781 229.757812 115.117188 C 229.429688 114.664062 229.105469 114.207031 228.804688 113.722656 C 228.507812 113.234375 228.230469 112.734375 228.015625 112.148438 C 227.828125 111.570312 227.609375 110.871094 227.921875 109.957031 C 228.089844 109.523438 228.441406 109.074219 228.832031 108.851562 C 229.015625 108.714844 229.257812 108.628906 229.480469 108.539062 C 229.660156 108.492188 229.644531 108.476562 229.941406 108.414062 C 230.449219 108.339844 230.957031 108.257812 231.445312 108.179688 C 232.445312 108.054688 233.417969 107.9375 234.363281 107.851562 C 235.289062 107.808594 236.175781 107.832031 237.03125 107.859375 C 238.734375 107.878906 240.363281 108.105469 241.753906 108.238281 C 243.152344 108.386719 244.359375 108.488281 245.351562 108.601562 C 246.34375 108.71875 247.121094 108.773438 247.660156 108.792969 C 248.1875 108.824219 248.472656 108.835938 248.472656 108.835938 Z M 248.464844 109.121094 C 248.464844 109.121094 248.179688 109.117188 247.648438 109.09375 C 247.109375 109.078125 246.328125 109.074219 245.335938 109.105469 C 244.335938 109.089844 243.121094 109.269531 241.753906 109.46875 C 240.382812 109.671875 238.835938 109.890625 237.148438 110.136719 C 236.304688 110.25 235.414062 110.347656 234.5 110.414062 C 233.613281 110.527344 232.695312 110.605469 231.75 110.683594 C 231.273438 110.707031 230.785156 110.730469 230.300781 110.765625 L 230.019531 110.800781 L 229.976562 110.796875 L 229.882812 110.8125 C 229.804688 110.863281 229.71875 111.25 229.796875 111.671875 C 229.863281 112.101562 230.003906 112.570312 230.179688 113.039062 C 230.34375 113.523438 230.582031 113.988281 230.808594 114.460938 C 231.035156 114.878906 231.355469 115.382812 231.636719 115.835938 C 232.207031 116.78125 232.835938 117.695312 233.476562 118.613281 C 234.867188 120.367188 236.484375 121.910156 238.125 123.496094 C 238.960938 124.300781 239.78125 125.148438 240.550781 125.972656 C 240.933594 126.378906 241.320312 126.808594 241.648438 127.074219 C 241.808594 127.214844 241.9375 127.273438 241.964844 127.277344 L 241.941406 127.21875 C 242.070312 127.171875 242.613281 126.777344 242.839844 126.542969 C 243.242188 126.160156 243.640625 125.769531 244.03125 125.386719 C 244.789062 124.609375 245.667969 123.890625 246.253906 123.089844 C 246.894531 122.300781 247.554688 121.5625 248.199219 120.832031 C 248.816406 120.066406 249.40625 119.273438 250.019531 118.539062 C 250.3125 118.171875 250.609375 117.804688 250.898438 117.441406 C 251.160156 117.066406 251.414062 116.691406 251.683594 116.335938 C 252.191406 115.609375 252.746094 114.949219 253.226562 114.261719 C 253.675781 113.578125 254.128906 112.964844 254.382812 112.390625 C 254.632812 111.804688 254.6875 111.425781 254.429688 111.011719 C 254.144531 110.59375 253.578125 110.289062 253.066406 110.054688 C 252.539062 109.839844 252.019531 109.671875 251.539062 109.574219 C 250.582031 109.34375 249.800781 109.242188 249.273438 109.195312 C 248.742188 109.148438 248.464844 109.121094 248.464844 109.121094 " fill-opacity="1" fill-rule="nonzero"/></svg>