<svg xmlns="http://www.w3.org/2000/svg" xmlns:xlink="http://www.w3.org/1999/xlink" width="500" zoomAndPan="magnify" viewBox="0 0 375 374.999991" height="500" preserveAspectRatio="xMidYMid meet" version="1.0"><path fill="#916240" d="M 138.066406 271.335938 C 99.742188 249.640625 127.105469 278.261719 114.4375 278.949219 C 110.160156 279.179688 106.867188 274.335938 103.992188 269.496094 C 101.023438 264.492188 98.507812 259.484375 95.835938 260.082031 C 90.835938 261.207031 100.957031 282.875 95.316406 282.933594 C 88.59375 283.007812 86.132812 271.386719 79.203125 270.058594 C 74.089844 269.074219 73.625 271.558594 73.777344 274.039062 C 73.953125 277.011719 75.015625 279.976562 70.054688 277.015625 C 40.691406 259.480469 8.578125 215.34375 21.929688 193.015625 C 35.277344 170.691406 71.605469 170.53125 100.972656 188.070312 C 136.550781 208.214844 162.96875 280.082031 138.066406 271.335938 " fill-opacity="1" fill-rule="nonzero"/><path fill="#a67a5c" d="M 66.59375 207.316406 C 66.4375 208.328125 60.636719 212.058594 54.308594 211.109375 C 47.984375 210.164062 43.527344 204.898438 43.679688 203.882812 C 43.828125 202.867188 48.53125 206.488281 54.863281 207.4375 C 61.1875 208.386719 66.746094 206.300781 66.59375 207.316406 " fill-opacity="1" fill-rule="nonzero"/><path fill="#a67a5c" d="M 81.511719 217.890625 C 81.359375 218.90625 75.554688 222.636719 69.226562 221.6875 C 62.898438 220.738281 58.445312 215.472656 58.597656 214.457031 C 58.746094 213.441406 63.449219 217.0625 69.777344 218.015625 C 76.105469 218.960938 81.664062 216.878906 81.511719 217.890625 " fill-opacity="1" fill-rule="nonzero"/><path fill="#a67a5c" d="M 82.375 196.300781 C 82.226562 197.3125 76.421875 201.039062 70.089844 200.09375 C 63.765625 199.148438 59.308594 193.878906 59.460938 192.867188 C 59.613281 191.851562 64.316406 195.472656 70.644531 196.421875 C 76.96875 197.371094 82.527344 195.285156 82.375 196.300781 " fill-opacity="1" fill-rule="nonzero"/><path fill="#a67a5c" d="M 94.402344 210.027344 C 94.253906 211.039062 88.449219 214.769531 82.121094 213.824219 C 75.792969 212.871094 71.339844 207.609375 71.492188 206.589844 C 71.644531 205.578125 76.347656 209.199219 82.671875 210.148438 C 89 211.09375 94.554688 209.011719 94.402344 210.027344 " fill-opacity="1" fill-rule="nonzero"/><path fill="#a67a5c" d="M 109.375 203.273438 C 109.222656 204.289062 103.417969 208.015625 97.089844 207.066406 C 90.765625 206.121094 86.308594 200.855469 86.460938 199.839844 C 86.609375 198.828125 91.3125 202.445312 97.640625 203.394531 C 103.96875 204.34375 109.527344 202.261719 109.375 203.273438 " fill-opacity="1" fill-rule="nonzero"/><path fill="#a67a5c" d="M 55.410156 197.820312 C 55.257812 198.835938 49.453125 202.5625 43.128906 201.613281 C 36.800781 200.667969 32.34375 195.398438 32.496094 194.386719 C 32.652344 193.371094 37.347656 196.992188 43.679688 197.9375 C 50.007812 198.890625 55.5625 196.804688 55.410156 197.820312 " fill-opacity="1" fill-rule="nonzero"/><path fill="#cfd2d5" d="M 95.269531 282.933594 C 95.269531 282.933594 95.269531 282.933594 95.273438 282.933594 C 95.269531 282.933594 95.269531 282.933594 95.269531 282.933594 M 95.285156 282.933594 C 95.285156 282.933594 95.285156 282.933594 95.289062 282.933594 C 95.285156 282.933594 95.285156 282.933594 95.285156 282.933594 M 77.671875 281.417969 C 77.234375 281.417969 76.476562 281.109375 75.269531 280.386719 C 73.542969 279.355469 71.789062 278.21875 70.015625 276.996094 C 70.027344 277.003906 70.042969 277.011719 70.054688 277.015625 C 71.503906 277.882812 72.441406 278.238281 73.035156 278.238281 C 74.46875 278.238281 73.902344 276.140625 73.777344 274.039062 C 73.648438 271.9375 73.964844 269.835938 77.167969 269.835938 C 77.738281 269.835938 78.414062 269.90625 79.1875 270.054688 C 78.550781 269.929688 78.007812 269.875 77.539062 269.875 C 74.203125 269.875 74.894531 272.761719 76.09375 275.648438 C 77.292969 278.535156 78.996094 281.417969 77.671875 281.417969 M 114.140625 278.957031 C 114.140625 278.957031 114.136719 278.957031 114.136719 278.957031 C 114.136719 278.957031 114.140625 278.957031 114.140625 278.957031 M 114.140625 278.957031 C 114.234375 278.957031 114.328125 278.953125 114.417969 278.949219 C 114.328125 278.953125 114.234375 278.957031 114.140625 278.957031 M 114.453125 278.949219 C 114.472656 278.945312 114.496094 278.945312 114.515625 278.945312 C 114.496094 278.945312 114.472656 278.945312 114.453125 278.949219 M 114.570312 278.941406 C 114.570312 278.941406 114.574219 278.941406 114.578125 278.941406 C 114.574219 278.941406 114.570312 278.941406 114.570312 278.941406 M 114.601562 278.9375 C 114.609375 278.9375 114.617188 278.9375 114.625 278.9375 C 114.617188 278.9375 114.609375 278.9375 114.601562 278.9375 M 117.402344 277.695312 C 120.316406 273.957031 112.921875 263.222656 119.183594 263.222656 C 112.925781 263.230469 120.316406 273.957031 117.402344 277.695312 M 84.027344 272.96875 C 82.675781 271.578125 81.183594 270.488281 79.382812 270.09375 C 81.183594 270.488281 82.675781 271.578125 84.027344 272.96875 M 141.828125 272.070312 C 141.449219 272.070312 141.050781 272.042969 140.636719 271.984375 C 141.050781 272.042969 141.449219 272.070312 141.824219 272.070312 C 150.457031 272.070312 149.199219 257.296875 141.882812 239.777344 C 149.199219 257.296875 150.464844 272.074219 141.828125 272.070312 M 138.414062 271.457031 C 138.300781 271.414062 138.183594 271.378906 138.066406 271.335938 C 138.179688 271.378906 138.300781 271.414062 138.414062 271.457031 M 137.988281 271.292969 C 137.976562 271.285156 137.964844 271.273438 137.953125 271.269531 C 137.964844 271.273438 137.976562 271.285156 137.988281 271.292969 M 137.714844 271.136719 C 137.707031 271.132812 137.699219 271.128906 137.695312 271.125 C 137.699219 271.128906 137.707031 271.132812 137.714844 271.136719 M 137.550781 271.046875 C 137.472656 271 137.390625 270.953125 137.308594 270.90625 C 137.390625 270.953125 137.472656 271 137.550781 271.046875 M 79.378906 270.089844 C 79.371094 270.089844 79.367188 270.089844 79.359375 270.085938 C 79.367188 270.089844 79.371094 270.089844 79.378906 270.089844 M 79.3125 270.078125 C 79.308594 270.078125 79.304688 270.074219 79.300781 270.074219 C 79.304688 270.074219 79.308594 270.078125 79.3125 270.078125 M 119.273438 263.222656 C 119.246094 263.222656 119.214844 263.222656 119.183594 263.222656 C 119.214844 263.222656 119.246094 263.222656 119.273438 263.222656 M 95.851562 260.082031 C 95.980469 260.054688 96.113281 260.035156 96.25 260.03125 C 96.113281 260.035156 95.980469 260.054688 95.851562 260.082031 " fill-opacity="1" fill-rule="nonzero"/><path fill="#775137" d="M 95.253906 282.933594 C 90.394531 282.929688 87.761719 276.808594 84.027344 272.96875 C 82.675781 271.578125 81.183594 270.488281 79.382812 270.09375 C 79.382812 270.089844 79.378906 270.089844 79.378906 270.089844 C 79.371094 270.089844 79.367188 270.089844 79.359375 270.085938 C 79.34375 270.082031 79.328125 270.082031 79.3125 270.078125 C 79.308594 270.078125 79.304688 270.074219 79.300781 270.074219 C 79.269531 270.070312 79.234375 270.0625 79.203125 270.058594 C 79.199219 270.054688 79.195312 270.054688 79.1875 270.054688 C 78.414062 269.90625 77.738281 269.835938 77.167969 269.835938 C 73.964844 269.835938 73.648438 271.9375 73.777344 274.039062 C 73.902344 276.140625 74.46875 278.238281 73.035156 278.238281 C 72.441406 278.238281 71.503906 277.882812 70.054688 277.015625 C 70.042969 277.011719 70.027344 277.003906 70.015625 276.996094 C 65.191406 273.648438 60.253906 269.617188 55.433594 265.125 C 64.542969 263.121094 65.703125 252.636719 63.039062 240.042969 C 67.414062 242.136719 71.402344 243.003906 74.890625 243.003906 C 85.84375 243.003906 91.910156 234.453125 89.75 228.3125 C 93.015625 229.019531 96.0625 229.390625 98.847656 229.390625 C 111.617188 229.390625 118.832031 221.554688 115.738281 202.121094 C 115.628906 201.453125 116.046875 200.808594 116.179688 200.148438 C 127.144531 211.378906 136.289062 226.378906 141.882812 239.777344 C 149.199219 257.296875 150.457031 272.070312 141.824219 272.070312 C 141.449219 272.070312 141.050781 272.042969 140.636719 271.984375 C 139.949219 271.886719 139.207031 271.714844 138.414062 271.457031 C 138.300781 271.414062 138.179688 271.378906 138.066406 271.335938 C 138.042969 271.320312 138.011719 271.304688 137.988281 271.292969 C 137.976562 271.285156 137.964844 271.273438 137.953125 271.269531 C 137.871094 271.222656 137.796875 271.179688 137.714844 271.136719 C 137.707031 271.132812 137.699219 271.128906 137.695312 271.125 C 137.644531 271.09375 137.597656 271.070312 137.550781 271.046875 C 137.472656 271 137.390625 270.953125 137.308594 270.90625 C 127.398438 265.347656 122.046875 263.269531 119.273438 263.222656 C 119.246094 263.222656 119.214844 263.222656 119.183594 263.222656 C 112.921875 263.222656 120.316406 273.957031 117.402344 277.695312 C 116.867188 278.378906 115.992188 278.824219 114.625 278.9375 C 114.617188 278.9375 114.609375 278.9375 114.601562 278.9375 C 114.59375 278.9375 114.585938 278.9375 114.578125 278.941406 C 114.574219 278.941406 114.570312 278.941406 114.570312 278.941406 C 114.546875 278.941406 114.53125 278.941406 114.515625 278.945312 C 114.496094 278.945312 114.472656 278.945312 114.453125 278.949219 C 114.445312 278.949219 114.441406 278.949219 114.4375 278.949219 C 114.429688 278.949219 114.425781 278.949219 114.417969 278.949219 C 114.328125 278.953125 114.234375 278.957031 114.140625 278.957031 C 114.140625 278.957031 114.136719 278.957031 114.136719 278.957031 C 110.011719 278.953125 106.800781 274.226562 103.992188 269.496094 C 101.1875 264.765625 98.785156 260.03125 96.273438 260.03125 C 96.265625 260.03125 96.257812 260.03125 96.25 260.03125 C 96.113281 260.035156 95.980469 260.054688 95.851562 260.082031 C 95.84375 260.082031 95.839844 260.082031 95.835938 260.082031 C 94.78125 260.320312 94.398438 261.46875 94.398438 263.128906 C 94.398438 267.542969 97.085938 275.589844 97.085938 279.945312 C 97.085938 281.75 96.621094 282.921875 95.316406 282.933594 C 95.3125 282.933594 95.304688 282.933594 95.300781 282.933594 C 95.296875 282.933594 95.292969 282.933594 95.289062 282.933594 C 95.285156 282.933594 95.285156 282.933594 95.285156 282.933594 C 95.28125 282.933594 95.277344 282.933594 95.273438 282.933594 C 95.269531 282.933594 95.269531 282.933594 95.269531 282.933594 C 95.265625 282.933594 95.261719 282.933594 95.253906 282.933594 " fill-opacity="1" fill-rule="nonzero"/><path fill="#ed6827" d="M 152.726562 339.546875 L 146.15625 326.363281 L 146.15625 293.28125 C 146.15625 291.191406 144.460938 289.5 142.375 289.5 C 140.285156 289.5 138.589844 291.191406 138.589844 293.28125 L 138.589844 325.175781 L 124.71875 330.527344 C 122.847656 331.460938 122.089844 333.730469 123.027344 335.597656 C 123.960938 337.460938 126.230469 338.21875 128.097656 337.285156 L 134.578125 334.785156 L 128.472656 342.683594 C 127.359375 344.449219 127.886719 346.777344 129.65625 347.894531 C 131.417969 349.003906 133.753906 348.480469 134.867188 346.714844 L 142.785156 336.476562 L 146.304688 343.542969 C 147.414062 345.316406 149.742188 345.855469 151.515625 344.75 C 153.289062 343.648438 153.828125 341.316406 152.726562 339.546875 " fill-opacity="1" fill-rule="nonzero"/><path fill="#ed6827" d="M 112.792969 331.6875 L 106.222656 318.503906 L 106.222656 285.417969 C 106.222656 283.332031 104.53125 281.640625 102.441406 281.640625 C 100.355469 281.640625 98.664062 283.332031 98.664062 285.417969 L 98.664062 317.3125 L 84.785156 322.667969 C 82.917969 323.601562 82.160156 325.871094 83.09375 327.734375 C 84.027344 329.605469 86.300781 330.363281 88.167969 329.429688 L 94.644531 326.929688 L 88.542969 334.824219 C 87.425781 336.589844 87.957031 338.921875 89.722656 340.035156 C 91.484375 341.144531 93.820312 340.621094 94.9375 338.855469 L 102.851562 328.617188 L 106.375 335.683594 C 107.480469 337.453125 109.8125 337.996094 111.585938 336.894531 C 113.355469 335.785156 113.898438 333.460938 112.792969 331.6875 " fill-opacity="1" fill-rule="nonzero"/><path fill="#916240" d="M 123.542969 276.066406 C 123.542969 285.488281 114.949219 293.121094 104.351562 293.121094 C 93.757812 293.121094 85.164062 285.488281 85.164062 276.066406 C 85.164062 266.644531 93.757812 259.007812 104.351562 259.007812 C 114.949219 259.007812 123.542969 266.644531 123.542969 276.066406 " fill-opacity="1" fill-rule="nonzero"/><path fill="#916240" d="M 164.636719 282.753906 C 164.636719 292.179688 156.050781 299.816406 145.449219 299.816406 C 134.851562 299.816406 126.265625 292.179688 126.265625 282.753906 C 126.265625 273.339844 134.851562 265.703125 145.449219 265.703125 C 156.050781 265.703125 164.636719 273.339844 164.636719 282.753906 " fill-opacity="1" fill-rule="nonzero"/><path fill="#3c1e14" d="M 343.996094 183.179688 C 313.0625 199.195312 255.414062 213.929688 247.820312 199.273438 C 240.21875 184.621094 285.550781 146.125 316.484375 130.105469 C 347.417969 114.089844 352.242188 126.613281 359.84375 141.273438 C 367.4375 155.929688 374.929688 167.164062 343.996094 183.179688 " fill-opacity="1" fill-rule="nonzero"/><path fill="#1e0c0d" d="M 333.574219 183.546875 C 307.261719 197.171875 254.28125 211.742188 247.820312 199.273438 C 241.355469 186.808594 283.859375 152.027344 310.175781 138.402344 C 336.488281 124.773438 340.734375 135.960938 347.195312 148.421875 C 353.65625 160.894531 359.886719 169.921875 333.574219 183.546875 " fill-opacity="1" fill-rule="nonzero"/><path fill="#4c261a" d="M 323.609375 185.082031 C 300.625 196.984375 253.390625 210.023438 247.746094 199.136719 C 242.101562 188.25 280.183594 157.554688 303.167969 145.652344 C 326.148438 133.753906 332.917969 142.648438 338.5625 153.535156 C 344.207031 164.425781 346.589844 173.183594 323.609375 185.082031 " fill-opacity="1" fill-rule="nonzero"/><path fill="#3c1e14" d="M 260.726562 76.941406 C 250.257812 110.148438 220.03125 161.375 204.28125 156.410156 C 188.527344 151.449219 193.214844 92.1875 203.683594 58.976562 C 214.15625 25.765625 226.445312 31.1875 242.195312 36.148438 C 257.949219 41.109375 271.199219 43.730469 260.726562 76.941406 " fill-opacity="1" fill-rule="nonzero"/><path fill="#1e0c0d" d="M 253.636719 84.578125 C 244.730469 112.832031 217.675781 160.632812 204.28125 156.410156 C 190.878906 152.191406 196.207031 97.546875 205.117188 69.300781 C 214.019531 41.046875 224.945312 45.933594 238.34375 50.152344 C 251.742188 54.371094 262.542969 56.332031 253.636719 84.578125 " fill-opacity="1" fill-rule="nonzero"/><path fill="#4c261a" d="M 247.691406 92.722656 C 239.914062 117.394531 215.835938 160.050781 204.132812 156.363281 C 192.429688 152.679688 197.535156 104.050781 205.3125 79.375 C 213.09375 54.703125 224.171875 56.1875 235.878906 59.875 C 247.582031 63.558594 255.472656 68.050781 247.691406 92.722656 " fill-opacity="1" fill-rule="nonzero"/><path fill="#3c1e14" d="M 204.964844 63.054688 C 205.839844 97.863281 193.867188 156.113281 177.359375 156.527344 C 160.847656 156.941406 146.050781 99.359375 145.179688 64.554688 C 144.304688 29.746094 157.6875 30.886719 174.195312 30.472656 C 190.707031 30.058594 204.089844 28.246094 204.964844 63.054688 " fill-opacity="1" fill-rule="nonzero"/><path fill="#1e0c0d" d="M 200.738281 72.578125 C 201.480469 102.1875 191.402344 156.175781 177.359375 156.527344 C 163.316406 156.878906 150.621094 103.460938 149.875 73.851562 C 149.132812 44.242188 161.054688 45.320312 175.097656 44.96875 C 189.140625 44.617188 199.996094 42.96875 200.738281 72.578125 " fill-opacity="1" fill-rule="nonzero"/><path fill="#4c261a" d="M 197.757812 82.207031 C 198.40625 108.070312 189.472656 156.222656 177.203125 156.53125 C 164.9375 156.835938 153.988281 109.179688 153.335938 83.320312 C 152.6875 57.460938 163.65625 55.273438 175.921875 54.964844 C 188.183594 54.660156 197.109375 56.347656 197.757812 82.207031 " fill-opacity="1" fill-rule="nonzero"/><path fill="#3c1e14" d="M 158.117188 67.332031 C 167.03125 100.992188 168.890625 160.425781 152.921875 164.652344 C 136.960938 168.875 109.21875 116.285156 100.304688 82.628906 C 91.386719 48.96875 104.667969 46.980469 120.636719 42.757812 C 136.597656 38.535156 149.199219 33.667969 158.117188 67.332031 " fill-opacity="1" fill-rule="nonzero"/><path fill="#1e0c0d" d="M 156.210938 77.574219 C 163.796875 106.207031 166.503906 161.058594 152.921875 164.652344 C 139.339844 168.242188 114.613281 119.21875 107.03125 90.589844 C 99.445312 61.957031 111.289062 60.242188 124.871094 56.648438 C 138.453125 53.054688 148.625 48.941406 156.210938 77.574219 " fill-opacity="1" fill-rule="nonzero"/><path fill="#4c261a" d="M 155.546875 87.632812 C 162.167969 112.640625 164.632812 161.554688 152.773438 164.691406 C 140.910156 167.828125 119.214844 124.003906 112.589844 98.996094 C 105.964844 73.988281 116.121094 69.320312 127.984375 66.183594 C 139.851562 63.046875 148.921875 62.628906 155.546875 87.632812 " fill-opacity="1" fill-rule="nonzero"/><path fill="#3c1e14" d="M 305.789062 101.472656 C 290.457031 132.738281 252.890625 178.855469 238.0625 171.585938 C 223.230469 164.324219 236.753906 106.433594 252.085938 75.167969 C 267.417969 43.898438 278.753906 51.101562 293.585938 58.363281 C 308.410156 65.628906 321.125 70.207031 305.789062 101.472656 " fill-opacity="1" fill-rule="nonzero"/><path fill="#1e0c0d" d="M 297.632812 107.960938 C 284.589844 134.558594 250.675781 177.769531 238.0625 171.585938 C 225.445312 165.410156 238.90625 112.183594 251.953125 85.585938 C 264.992188 58.988281 275.058594 65.453125 287.675781 71.632812 C 300.292969 77.8125 310.675781 81.367188 297.632812 107.960938 " fill-opacity="1" fill-rule="nonzero"/><path fill="#4c261a" d="M 290.535156 115.121094 C 279.140625 138.351562 248.9375 176.917969 237.921875 171.519531 C 226.902344 166.121094 239.242188 118.808594 250.636719 95.578125 C 262.027344 72.351562 272.765625 75.476562 283.777344 80.875 C 294.796875 86.269531 301.925781 91.894531 290.535156 115.121094 " fill-opacity="1" fill-rule="nonzero"/><path fill="#3c1e14" d="M 332.570312 147.710938 C 305.304688 169.386719 251.578125 194.945312 241.300781 182.023438 C 231.019531 169.109375 268.078125 122.601562 295.34375 100.929688 C 322.613281 79.257812 329.761719 90.617188 340.042969 103.535156 C 350.320312 116.453125 359.839844 126.035156 332.570312 147.710938 " fill-opacity="1" fill-rule="nonzero"/><path fill="#1e0c0d" d="M 322.417969 150.078125 C 299.226562 168.515625 250.046875 193.015625 241.300781 182.023438 C 232.554688 171.035156 267.558594 128.71875 290.75 110.285156 C 313.945312 91.847656 320.265625 102 329.011719 112.992188 C 337.753906 123.980469 345.613281 131.640625 322.417969 150.078125 " fill-opacity="1" fill-rule="nonzero"/><path fill="#4c261a" d="M 312.933594 153.507812 C 292.675781 169.609375 248.839844 191.5 241.203125 181.902344 C 233.566406 172.304688 265.015625 134.851562 285.273438 118.746094 C 305.535156 102.648438 313.886719 110.074219 321.527344 119.667969 C 329.164062 129.269531 333.191406 137.402344 312.933594 153.507812 " fill-opacity="1" fill-rule="nonzero"/><path fill="#a67a5c" d="M 161.503906 119.453125 C 168.144531 142.988281 163.332031 164.945312 150.753906 168.488281 C 138.175781 172.035156 122.59375 155.824219 115.953125 132.289062 C 109.3125 108.75 114.125 86.796875 126.703125 83.25 C 139.28125 79.707031 154.863281 95.914062 161.503906 119.453125 " fill-opacity="1" fill-rule="nonzero"/><path fill="#916240" d="M 159.894531 126.773438 C 165.546875 146.796875 161.453125 165.472656 150.753906 168.488281 C 140.054688 171.503906 126.800781 157.71875 121.152344 137.695312 C 115.503906 117.675781 119.59375 98.996094 130.292969 95.980469 C 140.992188 92.964844 154.246094 106.75 159.894531 126.773438 " fill-opacity="1" fill-rule="nonzero"/><path fill="#a67a5c" d="M 201.480469 119.480469 C 200.753906 143.925781 189.578125 163.429688 176.519531 163.042969 C 163.453125 162.65625 153.453125 142.527344 154.171875 118.082031 C 154.898438 93.636719 166.074219 74.132812 179.136719 74.515625 C 192.199219 74.90625 202.199219 95.035156 201.480469 119.480469 " fill-opacity="1" fill-rule="nonzero"/><path fill="#916240" d="M 197.75 125.988281 C 197.132812 146.78125 187.628906 163.371094 176.519531 163.042969 C 165.40625 162.710938 156.894531 145.589844 157.515625 124.796875 C 158.128906 104.003906 167.636719 87.410156 178.746094 87.742188 C 189.859375 88.066406 198.367188 105.191406 197.75 125.988281 " fill-opacity="1" fill-rule="nonzero"/><path fill="#a67a5c" d="M 233.472656 131.808594 C 224 154.359375 206.558594 168.546875 194.507812 163.492188 C 182.457031 158.441406 180.363281 136.0625 189.828125 113.511719 C 199.296875 90.957031 216.742188 76.773438 228.792969 81.824219 C 240.84375 86.882812 242.9375 109.257812 233.472656 131.808594 " fill-opacity="1" fill-rule="nonzero"/><path fill="#916240" d="M 227.648438 136.542969 C 219.597656 155.722656 204.757812 167.792969 194.507812 163.492188 C 184.257812 159.195312 182.476562 140.160156 190.53125 120.976562 C 198.582031 101.789062 213.421875 89.726562 223.671875 94.023438 C 233.921875 98.324219 235.707031 117.359375 227.648438 136.542969 " fill-opacity="1" fill-rule="nonzero"/><path fill="#a67a5c" d="M 259.410156 155.335938 C 244.023438 174.347656 223.308594 183.105469 213.152344 174.890625 C 202.988281 166.675781 207.226562 144.605469 222.617188 125.589844 C 238.007812 106.574219 258.71875 97.820312 268.882812 106.035156 C 279.039062 114.25 274.800781 136.320312 259.410156 155.335938 " fill-opacity="1" fill-rule="nonzero"/><path fill="#916240" d="M 252.5 158.253906 C 239.410156 174.429688 221.792969 181.878906 213.152344 174.890625 C 204.503906 167.902344 208.113281 149.128906 221.203125 132.953125 C 234.296875 116.777344 251.914062 109.332031 260.554688 116.320312 C 269.203125 123.308594 265.59375 142.082031 252.5 158.253906 " fill-opacity="1" fill-rule="nonzero"/><path fill="#a67a5c" d="M 282.273438 191.148438 C 260.921875 203.097656 238.4375 203.539062 232.054688 192.140625 C 225.671875 180.742188 237.808594 161.824219 259.160156 149.882812 C 280.515625 137.933594 302.996094 137.492188 309.378906 148.890625 C 315.761719 160.289062 303.628906 179.207031 282.273438 191.148438 " fill-opacity="1" fill-rule="nonzero"/><path fill="#916240" d="M 274.773438 191.296875 C 256.609375 201.460938 237.484375 201.839844 232.054688 192.140625 C 226.625 182.449219 236.949219 166.351562 255.113281 156.191406 C 273.277344 146.03125 292.402344 145.652344 297.832031 155.351562 C 303.257812 165.042969 292.9375 181.140625 274.773438 191.296875 " fill-opacity="1" fill-rule="nonzero"/><path fill="#4c261a" d="M 170.105469 136.328125 C 176.480469 157.507812 174.910156 176.707031 166.59375 179.207031 C 158.28125 181.710938 146.371094 166.5625 139.996094 145.382812 C 133.617188 124.199219 135.191406 105.003906 143.507812 102.503906 C 151.824219 100.003906 163.734375 115.152344 170.105469 136.328125 " fill-opacity="1" fill-rule="nonzero"/><path fill="#3c1e14" d="M 169.582031 142.730469 C 175.007812 160.75 173.667969 177.082031 166.59375 179.207031 C 159.523438 181.332031 149.394531 168.453125 143.96875 150.433594 C 138.546875 132.414062 139.882812 116.085938 146.953125 113.957031 C 154.03125 111.832031 164.160156 124.71875 169.582031 142.730469 " fill-opacity="1" fill-rule="nonzero"/><path fill="#4c261a" d="M 145.398438 143.714844 C 153.949219 159.636719 155.808594 175.253906 149.558594 178.609375 C 143.308594 181.960938 131.316406 171.769531 122.765625 155.851562 C 114.21875 139.933594 112.359375 124.308594 118.605469 120.960938 C 124.859375 117.605469 136.851562 127.792969 145.398438 143.714844 " fill-opacity="1" fill-rule="nonzero"/><path fill="#3c1e14" d="M 146.019531 148.925781 C 153.292969 162.46875 154.875 175.757812 149.558594 178.609375 C 144.238281 181.457031 134.035156 172.792969 126.769531 159.25 C 119.5 145.707031 117.914062 132.417969 123.230469 129.566406 C 128.546875 126.714844 138.75 135.386719 146.019531 148.925781 " fill-opacity="1" fill-rule="nonzero"/><path fill="#4c261a" d="M 188.617188 144.363281 C 185.238281 166.222656 175.539062 182.871094 166.957031 181.542969 C 158.378906 180.21875 154.160156 161.421875 157.542969 139.566406 C 160.921875 117.703125 170.621094 101.058594 179.199219 102.382812 C 187.78125 103.707031 191.996094 122.503906 188.617188 144.363281 " fill-opacity="1" fill-rule="nonzero"/><path fill="#3c1e14" d="M 185.382812 149.914062 C 182.507812 168.511719 174.261719 182.667969 166.957031 181.542969 C 159.65625 180.414062 156.070312 164.429688 158.949219 145.832031 C 161.824219 127.242188 170.070312 113.078125 177.371094 114.203125 C 184.671875 115.332031 188.257812 131.320312 185.382812 149.914062 " fill-opacity="1" fill-rule="nonzero"/><path fill="#4c261a" d="M 210.339844 155.84375 C 200.828125 175.816406 186.761719 188.988281 178.925781 185.253906 C 171.082031 181.527344 172.4375 162.3125 181.945312 142.339844 C 191.457031 122.367188 205.523438 109.203125 213.363281 112.925781 C 221.203125 116.660156 219.847656 135.875 210.339844 155.84375 " fill-opacity="1" fill-rule="nonzero"/><path fill="#3c1e14" d="M 206.164062 162.488281 C 198.078125 179.480469 186.109375 190.679688 179.441406 187.507812 C 172.773438 184.335938 173.921875 167.992188 182.011719 151 C 190.105469 134.011719 202.070312 122.808594 208.734375 125.984375 C 215.410156 129.152344 214.257812 145.496094 206.164062 162.488281 " fill-opacity="1" fill-rule="nonzero"/><path fill="#4c261a" d="M 231.878906 173.601562 C 218.433594 191.171875 201.9375 201.132812 195.042969 195.867188 C 188.148438 190.589844 193.457031 172.074219 206.90625 154.507812 C 220.351562 136.9375 236.84375 126.96875 243.746094 132.242188 C 250.640625 137.519531 245.328125 156.035156 231.878906 173.601562 " fill-opacity="1" fill-rule="nonzero"/><path fill="#3c1e14" d="M 226.378906 176.929688 C 214.9375 191.871094 200.910156 200.347656 195.042969 195.867188 C 189.175781 191.375 193.695312 175.625 205.132812 160.683594 C 216.574219 145.738281 230.601562 137.261719 236.46875 141.75 C 242.335938 146.230469 237.816406 161.984375 226.378906 176.929688 " fill-opacity="1" fill-rule="nonzero"/><path fill="#4c261a" d="M 248.730469 196.136719 C 230.445312 208.59375 211.65625 212.882812 206.765625 205.714844 C 201.875 198.546875 212.734375 182.632812 231.015625 170.171875 C 249.304688 157.710938 268.089844 153.421875 272.984375 160.589844 C 277.875 167.761719 267.015625 183.675781 248.730469 196.136719 " fill-opacity="1" fill-rule="nonzero"/><path fill="#3c1e14" d="M 242.464844 197.566406 C 226.90625 208.164062 210.925781 211.816406 206.765625 205.714844 C 202.601562 199.617188 211.839844 186.078125 227.394531 175.480469 C 242.949219 164.878906 258.933594 161.230469 263.09375 167.332031 C 267.253906 173.429688 258.019531 186.96875 242.464844 197.566406 " fill-opacity="1" fill-rule="nonzero"/><path fill="#4c261a" d="M 257.347656 220.398438 C 236.316406 227.289062 217.074219 226.191406 214.367188 217.945312 C 211.667969 209.695312 226.519531 197.425781 247.550781 190.535156 C 268.582031 183.644531 287.820312 184.742188 290.527344 192.988281 C 293.230469 201.238281 278.375 213.507812 257.347656 220.398438 " fill-opacity="1" fill-rule="nonzero"/><path fill="#3c1e14" d="M 250.929688 220.035156 C 233.039062 225.894531 216.671875 224.957031 214.367188 217.945312 C 212.070312 210.929688 224.707031 200.492188 242.597656 194.628906 C 260.484375 188.765625 276.851562 189.703125 279.15625 196.714844 C 281.453125 203.730469 268.820312 214.171875 250.929688 220.035156 " fill-opacity="1" fill-rule="nonzero"/><path fill="#4c261a" d="M 139.023438 179.285156 L 146.660156 162.699219 C 150.503906 153.875 165.34375 149.417969 171.703125 161.609375 C 178.0625 173.804688 189.34375 165.050781 189.34375 165.050781 C 196.082031 162.347656 213.570312 162.617188 211.027344 182.472656 C 208.484375 202.332031 218.070312 195.734375 224.359375 195.476562 C 231.160156 195.195312 248.019531 215.175781 238.554688 224.484375 L 197.898438 259.769531 L 139.023438 179.285156 " fill-opacity="1" fill-rule="nonzero"/><path fill="#371b13" d="M 139.355469 183.144531 L 149.347656 166.863281 C 152.808594 158.589844 166.238281 154.445312 172.035156 165.910156 C 177.832031 177.375 188.035156 169.191406 188.035156 169.191406 C 194.125 166.675781 209.96875 166.972656 207.722656 185.609375 C 205.476562 204.242188 215.792969 201.265625 220.273438 199.457031 C 226.011719 197.148438 241.707031 216.683594 233.15625 225.394531 L 194.9375 260.023438 L 139.355469 183.144531 " fill-opacity="1" fill-rule="nonzero"/><path fill="#3c1e14" d="M 207.496094 228.339844 C 207.496094 237.222656 209.839844 255.082031 203.742188 259.625 C 181.988281 264.640625 194.523438 272.441406 175.113281 284.660156 C 166.539062 290.050781 161.101562 275.945312 151.121094 275.511719 C 138.296875 274.953125 134.648438 286.832031 124.910156 288.796875 C 115.089844 290.78125 113.539062 278.617188 104.363281 274.675781 C 97.066406 271.542969 89.074219 280.9375 81.957031 280.53125 C 70.578125 279.875 56.257812 281.085938 49.585938 267.613281 C 31.042969 260.554688 41.6875 248.074219 37.6875 245.128906 C 22.4375 238.53125 38.378906 204.507812 37.128906 194.027344 C 48.101562 166.421875 62.664062 163.152344 107.714844 163.152344 C 112.75 163.152344 134.195312 167.515625 139.105469 168.300781 C 178.121094 174.53125 207.496094 203.261719 207.496094 228.339844 " fill-opacity="1" fill-rule="nonzero"/><path fill="#4c261a" d="M 207.496094 225.597656 C 207.496094 234.101562 209.839844 251.214844 203.742188 255.5625 C 181.988281 260.371094 194.523438 267.847656 175.113281 279.546875 C 166.539062 284.714844 161.101562 271.203125 151.121094 270.785156 C 138.296875 270.25 134.648438 281.628906 124.910156 283.511719 C 115.089844 285.414062 113.539062 273.757812 104.363281 269.984375 C 97.066406 266.980469 89.074219 275.984375 81.957031 275.589844 C 53.308594 278.019531 50.09375 265.082031 43.144531 256.019531 C 30.875 241.148438 34.820312 203.875 37.128906 194.027344 C 42.851562 169.605469 62.664062 163.152344 107.714844 163.152344 C 112.75 163.152344 134.195312 167.335938 139.105469 168.082031 C 178.121094 174.054688 207.496094 201.574219 207.496094 225.597656 " fill-opacity="1" fill-rule="nonzero"/><path fill="#e92e30" d="M 111.113281 166.851562 C 89.605469 146.039062 93.03125 105.285156 92.789062 85.277344 C 92.632812 72.492188 74.515625 54.9375 56.257812 54.9375 C 38.003906 54.9375 19.925781 77.074219 19.925781 89.855469 C 19.925781 100.902344 31.027344 112.679688 51.289062 108.183594 C 58.691406 106.253906 71.558594 126.988281 54.667969 148.6875 C 33.4375 171.351562 33.832031 213.058594 33.832031 213.058594 C 34.511719 216.554688 43.457031 209.769531 48.074219 209.453125 C 49.351562 209.359375 51.042969 210.730469 52.851562 212.097656 C 54.933594 213.675781 57.164062 215.253906 59.085938 214.601562 C 64.34375 212.816406 62.710938 199.933594 68.664062 196.597656 C 71.285156 195.128906 75.136719 196.402344 78.972656 197.671875 C 83.03125 199.019531 87.074219 200.367188 89.617188 198.46875 C 94.382812 194.90625 93.1875 185.628906 96.644531 181.964844 C 120.253906 179.550781 116.570312 171.445312 111.113281 166.851562 " fill-opacity="1" fill-rule="nonzero"/><path fill="#eb5948" d="M 29.292969 73.117188 C 29.472656 73.234375 29.65625 73.347656 29.828125 73.472656 C 29.648438 73.347656 29.472656 73.234375 29.292969 73.117188 " fill-opacity="1" fill-rule="nonzero"/><path fill="#eb5948" d="M 34.085938 78.742188 C 34.160156 78.960938 34.203125 79.1875 34.261719 79.417969 C 34.203125 79.1875 34.160156 78.960938 34.085938 78.742188 " fill-opacity="1" fill-rule="nonzero"/><path fill="#eb5948" d="M 27.441406 72.070312 L 27.4375 72.078125 C 27.558594 72.136719 27.679688 72.195312 27.796875 72.253906 C 27.679688 72.195312 27.558594 72.128906 27.441406 72.070312 " fill-opacity="1" fill-rule="nonzero"/><path fill="#eb5948" d="M 33.261719 77.011719 C 33.59375 77.558594 33.878906 78.125 34.082031 78.734375 C 33.875 78.125 33.59375 77.558594 33.261719 77.011719 " fill-opacity="1" fill-rule="nonzero"/><path fill="#eb5948" d="M 28.296875 72.519531 C 28.472656 72.621094 28.652344 72.722656 28.832031 72.824219 C 28.652344 72.722656 28.476562 72.621094 28.296875 72.519531 " fill-opacity="1" fill-rule="nonzero"/><path fill="#eb5948" d="M 31.148438 74.519531 C 31.316406 74.671875 31.484375 74.820312 31.640625 74.980469 C 31.484375 74.820312 31.316406 74.671875 31.148438 74.519531 " fill-opacity="1" fill-rule="nonzero"/><path fill="#eb5948" d="M 32.6875 76.175781 C 32.832031 76.367188 32.984375 76.558594 33.113281 76.757812 C 32.984375 76.558594 32.835938 76.367188 32.6875 76.175781 " fill-opacity="1" fill-rule="nonzero"/><path fill="#eb5948" d="M 31.964844 75.324219 C 32.125 75.492188 32.28125 75.65625 32.429688 75.832031 C 32.28125 75.65625 32.125 75.492188 31.964844 75.324219 " fill-opacity="1" fill-rule="nonzero"/><path fill="#eb5948" d="M 34.492188 81.191406 C 34.492188 80.710938 34.4375 80.25 34.351562 79.796875 C 32.789062 77.039062 29.292969 75.066406 26.019531 74.046875 C 22.234375 79.550781 19.925781 85.300781 19.925781 89.855469 C 19.925781 92.582031 20.605469 95.347656 21.925781 97.90625 C 22.203125 97.957031 22.457031 97.980469 22.699219 97.988281 L 22.917969 98.003906 C 27.292969 97.976562 34.492188 87.898438 34.492188 81.191406 " fill-opacity="1" fill-rule="nonzero"/><path fill="#eb5948" d="M 30.253906 73.785156 C 30.425781 73.917969 30.601562 74.050781 30.769531 74.1875 C 30.601562 74.050781 30.425781 73.917969 30.253906 73.785156 " fill-opacity="1" fill-rule="nonzero"/><path fill="#d3d2d2" d="M 22.246094 97.957031 C 22.476562 97.988281 22.699219 98.007812 22.902344 98.007812 L 22.929688 98.003906 L 22.917969 98.003906 L 22.699219 97.988281 C 22.550781 97.980469 22.40625 97.976562 22.246094 97.957031 " fill-opacity="1" fill-rule="nonzero"/><path fill="#eb5948" d="M 71.050781 81.191406 C 71.050781 87.90625 61.839844 98.007812 56.265625 98.007812 C 50.691406 98.007812 37.683594 90.964844 37.683594 84.25 C 37.683594 77.53125 48.878906 70.492188 54.457031 70.492188 C 60.027344 70.492188 71.050781 74.472656 71.050781 81.191406 " fill-opacity="1" fill-rule="nonzero"/><path fill="#916240" d="M 63.257812 234.101562 C 63.257812 234.914062 59.160156 238.503906 54.109375 238.503906 C 49.0625 238.503906 44.964844 234.914062 44.964844 234.101562 C 44.964844 233.292969 49.0625 235.570312 54.109375 235.570312 C 59.160156 235.570312 63.257812 233.292969 63.257812 234.101562 " fill-opacity="1" fill-rule="nonzero"/><path fill="#916240" d="M 85.308594 225.457031 C 85.308594 226.488281 80.121094 231.035156 73.722656 231.035156 C 67.324219 231.035156 62.136719 226.488281 62.136719 225.457031 C 62.136719 224.433594 67.324219 227.320312 73.722656 227.320312 C 80.121094 227.320312 85.308594 224.433594 85.308594 225.457031 " fill-opacity="1" fill-rule="nonzero"/><path fill="#916240" d="M 98.164062 236.410156 C 98.164062 237.3125 93.609375 241.300781 87.992188 241.300781 C 82.375 241.300781 77.824219 237.3125 77.824219 236.410156 C 77.824219 235.511719 82.375 238.039062 87.992188 238.039062 C 93.609375 238.039062 98.164062 235.511719 98.164062 236.410156 " fill-opacity="1" fill-rule="nonzero"/><path fill="#916240" d="M 57.957031 221.046875 C 57.957031 221.964844 53.324219 226.023438 47.609375 226.023438 C 41.890625 226.023438 37.257812 221.964844 37.257812 221.046875 C 37.257812 220.128906 41.890625 222.707031 47.609375 222.707031 C 53.324219 222.707031 57.957031 220.128906 57.957031 221.046875 " fill-opacity="1" fill-rule="nonzero"/><path fill="#916240" d="M 66.34375 247.988281 C 66.34375 248.875 61.832031 252.835938 56.265625 252.835938 C 50.699219 252.835938 46.191406 248.875 46.191406 247.988281 C 46.191406 247.09375 50.699219 249.601562 56.265625 249.601562 C 61.832031 249.601562 66.34375 247.09375 66.34375 247.988281 " fill-opacity="1" fill-rule="nonzero"/><path fill="#916240" d="M 79.324219 258.238281 C 79.324219 259.277344 74.050781 263.902344 67.554688 263.902344 C 61.050781 263.902344 55.785156 259.277344 55.785156 258.238281 C 55.785156 257.199219 61.050781 260.128906 67.554688 260.128906 C 74.050781 260.128906 79.324219 257.199219 79.324219 258.238281 " fill-opacity="1" fill-rule="nonzero"/><path fill="#916240" d="M 93.265625 248.480469 C 93.265625 249.347656 88.890625 253.179688 83.492188 253.179688 C 78.097656 253.179688 73.722656 249.347656 73.722656 248.480469 C 73.722656 247.613281 78.097656 250.046875 83.492188 250.046875 C 88.890625 250.046875 93.265625 247.613281 93.265625 248.480469 " fill-opacity="1" fill-rule="nonzero"/><path fill="#916240" d="M 227.007812 269.816406 C 185.03125 249.101562 216.261719 278.875 203.144531 280.992188 C 194.140625 282.445312 187.332031 259.523438 181.972656 261.425781 C 176.878906 263.238281 189.492188 286.894531 183.632812 287.554688 C 176.640625 288.347656 172.960938 275.34375 165.621094 274.558594 C 153.730469 273.28125 172.511719 292.007812 162.519531 286.761719 C 130.269531 269.839844 86.855469 219.5625 98.601562 192.683594 C 110.347656 165.800781 148.144531 161.800781 180.386719 178.714844 C 219.351562 197.960938 253.765625 277.175781 227.007812 269.816406 " fill-opacity="1" fill-rule="nonzero"/><path fill="#a67a5c" d="M 146.460938 204.296875 C 146.402344 205.472656 140.71875 210.335938 134.039062 209.921875 C 127.363281 209.507812 122.222656 203.96875 122.285156 202.792969 C 122.34375 201.621094 127.585938 205.257812 134.261719 205.667969 C 140.941406 206.085938 146.519531 203.125 146.460938 204.296875 " fill-opacity="1" fill-rule="nonzero"/><path fill="#a67a5c" d="M 163.003906 214.792969 C 162.945312 215.96875 157.257812 220.832031 150.585938 220.417969 C 143.90625 220 138.765625 214.460938 138.828125 213.289062 C 138.886719 212.117188 144.128906 215.753906 150.808594 216.167969 C 157.480469 216.585938 163.0625 213.617188 163.003906 214.792969 " fill-opacity="1" fill-rule="nonzero"/><path fill="#a67a5c" d="M 161.828125 190.0625 C 161.765625 191.238281 156.082031 196.101562 149.410156 195.691406 C 142.730469 195.277344 137.585938 189.738281 137.648438 188.566406 C 137.710938 187.390625 142.953125 191.023438 149.625 191.441406 C 156.304688 191.855469 161.886719 188.894531 161.828125 190.0625 " fill-opacity="1" fill-rule="nonzero"/><path fill="#a67a5c" d="M 175.664062 204.460938 C 175.609375 205.632812 169.925781 210.5 163.25 210.085938 C 156.570312 209.671875 151.429688 204.128906 151.488281 202.957031 C 151.550781 201.78125 156.792969 205.421875 163.46875 205.832031 C 170.144531 206.25 175.726562 203.289062 175.664062 204.460938 " fill-opacity="1" fill-rule="nonzero"/><path fill="#a67a5c" d="M 190.597656 195.179688 C 190.535156 196.351562 184.851562 201.21875 178.179688 200.808594 C 171.5 200.390625 166.355469 194.851562 166.417969 193.679688 C 166.480469 192.503906 171.722656 196.136719 178.398438 196.554688 C 185.074219 196.96875 190.65625 194.003906 190.597656 195.179688 " fill-opacity="1" fill-rule="nonzero"/><path fill="#a67a5c" d="M 133.910156 194.640625 C 133.847656 195.816406 128.167969 200.679688 121.492188 200.265625 C 114.816406 199.851562 109.671875 194.308594 109.730469 193.136719 C 109.792969 191.964844 115.03125 195.597656 121.710938 196.011719 C 128.386719 196.429688 133.972656 193.464844 133.910156 194.640625 " fill-opacity="1" fill-rule="nonzero"/><path fill="#bf4d41" d="M 56.265625 98.007812 C 56.261719 98.007812 56.257812 98.007812 56.253906 98.007812 C 55.996094 98.007812 55.71875 97.988281 55.433594 97.957031 C 55.738281 97.984375 56.03125 98.003906 56.304688 98.003906 L 56.265625 98.007812 " fill-opacity="1" fill-rule="nonzero"/><path fill="#1e0c0d" d="M 53.535156 83.425781 C 53.535156 86.695312 51.980469 89.347656 50.070312 89.347656 C 48.15625 89.347656 46.605469 86.695312 46.605469 83.425781 C 46.605469 80.160156 48.15625 77.507812 50.070312 77.507812 C 51.980469 77.507812 53.535156 80.160156 53.535156 83.425781 " fill-opacity="1" fill-rule="nonzero"/><path fill="#1e0c0d" d="M 29.46875 82.722656 C 29.46875 85.601562 28.105469 87.9375 26.421875 87.9375 C 24.734375 87.9375 23.367188 85.601562 23.367188 82.722656 C 23.367188 79.84375 24.734375 77.507812 26.421875 77.507812 C 28.105469 77.507812 29.46875 79.84375 29.46875 82.722656 " fill-opacity="1" fill-rule="nonzero"/><path fill="#9a272a" d="M 31.203125 89.648438 C 32.253906 90.820312 47.011719 92.023438 45.261719 103.65625 C 38.054688 142.117188 50.054688 169.855469 37.773438 172.707031 C 22.742188 172.890625 36.175781 109.492188 39.164062 103.085938 C 42.15625 96.679688 31.203125 89.648438 31.203125 89.648438 " fill-opacity="1" fill-rule="nonzero"/><path fill="#7e1a22" d="M 34.082031 90.566406 C 35.296875 91.570312 50.070312 90.566406 50.070312 102.328125 C 48.65625 141.433594 64.648438 167.074219 52.933594 171.722656 C 38.09375 174.140625 41.949219 109.453125 43.953125 102.671875 C 45.957031 95.890625 34.082031 90.566406 34.082031 90.566406 " fill-opacity="1" fill-rule="nonzero"/><path fill="#d24825" d="M 46.226562 101.042969 C 46.207031 103.367188 33.75 109.671875 26.234375 109.621094 C 18.71875 109.566406 12.636719 107.640625 12.660156 105.316406 C 12.675781 103 18.785156 101.160156 26.304688 101.210938 C 33.824219 101.265625 46.25 98.726562 46.226562 101.042969 " fill-opacity="1" fill-rule="nonzero"/><path fill="#ed6827" d="M 0.167969 111.609375 C 2.777344 106.410156 19.128906 88.023438 32.367188 90.859375 C 46.933594 93.976562 47.222656 99.359375 46.226562 101.042969 C 44.386719 104.175781 37.035156 103.316406 25.816406 102.628906 C 17.265625 104.164062 0.96875 112.632812 0.167969 111.609375 " fill-opacity="1" fill-rule="nonzero"/></svg>