<svg xmlns="http://www.w3.org/2000/svg" xmlns:xlink="http://www.w3.org/1999/xlink" width="500" zoomAndPan="magnify" viewBox="0 0 375 374.999991" height="500" preserveAspectRatio="xMidYMid meet" version="1.0"><defs><clipPath id="f6e2d0664f"><path d="M 0 61.363281 L 375 61.363281 L 375 313.363281 L 0 313.363281 Z M 0 61.363281 " clip-rule="nonzero"/></clipPath><clipPath id="4449eae7df"><path d="M 0 61.363281 L 375 61.363281 L 375 313.363281 L 0 313.363281 Z M 0 61.363281 " clip-rule="nonzero"/></clipPath></defs><path fill="#803300" d="M 135.914062 63.761719 C 144.507812 63.664062 153.144531 64.828125 161.4375 67.214844 C 180.925781 72.816406 198.503906 84.121094 214.535156 97.121094 C 213.195312 98.257812 211.675781 99.113281 210.121094 99.121094 C 207.914062 99.273438 205.753906 97.828125 203.796875 96.214844 L 202.339844 97.894531 C 203.15625 98.625 204.078125 99.324219 205.070312 99.894531 L 205.070312 101.578125 C 203.128906 101.609375 201.226562 101.671875 199.382812 101.53125 C 196.890625 101.332031 194.414062 100.667969 192.515625 99.257812 L 191.195312 101.03125 C 191.925781 101.550781 192.707031 101.988281 193.515625 102.347656 L 193.515625 105.347656 C 191.242188 105.378906 189.046875 105.625 186.964844 105.484375 C 184.378906 105.292969 181.777344 104.238281 180.457031 102.210938 L 178.683594 103.441406 C 180.589844 106.105469 183.722656 107.488281 186.828125 107.667969 C 189.136719 107.8125 191.382812 107.566406 193.515625 107.53125 L 193.515625 107.574219 L 195.699219 107.574219 L 195.699219 106.121094 L 195.746094 105.394531 L 195.699219 105.394531 L 195.699219 103.074219 C 196.859375 103.394531 198.03125 103.632812 199.203125 103.710938 C 201.96875 103.910156 204.664062 103.667969 207.253906 103.710938 L 207.300781 101.53125 L 207.253906 101.53125 L 207.253906 100.804688 C 208.191406 101.109375 209.179688 101.316406 210.214844 101.304688 C 212.601562 101.167969 214.675781 99.980469 216.265625 98.484375 C 216.835938 98.957031 217.425781 99.417969 217.992188 99.894531 L 218.039062 99.847656 L 267.449219 114.03125 L 259.488281 120.03125 L 260.808594 121.757812 L 270.5 114.484375 C 285.890625 115.503906 297.257812 117.832031 311.355469 124.847656 C 322.515625 130.402344 337.054688 140.699219 344.160156 150.84375 C 349.921875 159.074219 354.105469 168.1875 354.355469 178.160156 C 354.582031 187.042969 351.015625 195.421875 346.484375 203.023438 C 343.617188 207.828125 343.46875 214.089844 345.4375 218.019531 C 347.15625 220.863281 350.246094 222.320312 353.398438 222.566406 C 353.382812 223.75 353.136719 224.863281 352.441406 225.609375 C 351.867188 226.355469 350.789062 226.90625 349.714844 227.792969 L 349.621094 227.792969 L 349.394531 229.972656 C 352.601562 230.351562 356.035156 230.226562 359.175781 228.882812 C 360.601562 228.25 361.863281 227.367188 362.910156 226.246094 L 362.773438 231.292969 L 364.863281 231.335938 L 364.863281 231.382812 C 367.246094 230.796875 369.792969 229.796875 371.644531 227.835938 C 370.863281 231.167969 369.351562 234.230469 366.867188 236.425781 C 363.632812 239.367188 359.015625 240.820312 354.671875 240.289062 C 350.75 239.867188 347.234375 237.136719 344.664062 233.882812 C 342.011719 230.464844 340.175781 226.402344 339.386719 222.15625 C 338.796875 219.136719 339.398438 215.890625 340.160156 212.703125 C 341.101562 208.839844 342.4375 205.09375 343.753906 201.25 C 345.167969 197.132812 346.585938 192.921875 347.574219 188.613281 C 348.542969 184.429688 349.113281 180.074219 348.710938 175.707031 C 348.101562 169.382812 344.054688 163.710938 339.292969 159.796875 C 337.277344 158.140625 332.214844 157.210938 331.695312 157.117188 C 331.203125 153.738281 330.539062 150.355469 329.648438 147.070312 L 327.511719 147.664062 C 330.214844 157.675781 331.21875 168.207031 329.558594 178.386719 C 328.128906 187.210938 324.722656 195.679688 320.230469 203.476562 L 322.140625 204.566406 C 322.992188 203.089844 323.78125 201.546875 324.550781 200.023438 C 323.890625 209.78125 324.246094 219.707031 327.507812 229.019531 C 330.085938 236.394531 335.457031 243.019531 342.796875 245.925781 C 342.828125 246.257812 342.863281 246.59375 342.886719 246.925781 C 343.019531 248.761719 343.074219 250.597656 343.023438 252.425781 C 342.964844 254.550781 342.777344 256.652344 342.296875 258.652344 C 341.796875 260.5 341.199219 262.269531 340.023438 263.425781 L 339.476562 295.605469 C 338.839844 295.582031 338.203125 295.535156 337.566406 295.558594 C 335.882812 295.542969 333.785156 295.726562 332.105469 297.148438 C 331.019531 298.222656 330.472656 299.558594 330.148438 300.832031 C 328.773438 299.734375 327.355469 298.640625 325.734375 297.742188 C 324.203125 296.898438 322.515625 296.359375 320.777344 296.148438 C 321.777344 295.003906 322.554688 293.734375 323.1875 292.511719 C 323.640625 291.675781 324.066406 290.785156 324.460938 289.921875 C 324.582031 289.65625 324.664062 289.421875 324.78125 289.148438 C 324.8125 289.074219 324.882812 289 324.914062 288.921875 C 324.902344 288.917969 324.882812 288.929688 324.871094 288.921875 C 327.824219 278.503906 327.054688 267.238281 323.367188 257.105469 C 319.664062 246.914062 312.878906 237.898438 304.214844 231.382812 C 304.539062 231.410156 304.84375 231.449219 305.167969 231.472656 L 305.351562 229.335938 C 294.269531 228.515625 283.199219 223.910156 276.277344 215.382812 C 267.808594 205.105469 265.703125 190.753906 266.359375 177.207031 L 266.402344 177.207031 C 266.886719 166.386719 263.828125 155.832031 259.578125 146.027344 C 259.554688 145.953125 259.554688 145.871094 259.53125 145.800781 C 259.507812 145.738281 259.46875 145.679688 259.441406 145.617188 C 258.574219 142.597656 258.171875 139.441406 258.757812 136.480469 C 259.257812 133.894531 260.585938 131.441406 262.582031 129.753906 C 268.226562 124.792969 277.128906 125.386719 285.011719 126.664062 L 285.375 124.484375 C 277.328125 122.988281 267.84375 122.613281 261.171875 128.117188 C 258.777344 130.164062 257.207031 133.011719 256.621094 136.074219 C 255.960938 139.59375 256.433594 143.171875 257.441406 146.480469 C 261.648438 156.167969 264.679688 166.492188 264.21875 176.886719 L 264.171875 176.886719 C 263.386719 190.804688 265.65625 205.722656 274.59375 216.746094 C 276.433594 218.984375 278.496094 221.019531 280.78125 222.746094 C 278.722656 223.207031 276.75 223.757812 274.867188 223.792969 C 270.460938 223.964844 266.164062 221.726562 262.171875 219.246094 L 261.898438 219.703125 L 261.761719 219.472656 C 257.210938 222.324219 252.800781 225.285156 248.023438 227.429688 C 242.546875 229.894531 236.605469 231.355469 230.59375 232.0625 L 230.003906 226.335938 C 234.171875 225.078125 238.269531 223.566406 242.242188 221.703125 L 241.332031 219.746094 C 225.859375 227.058594 208.386719 229.085938 191.054688 229.609375 C 194.601562 226.589844 197.519531 222.746094 198.972656 218.246094 C 200.058594 214.761719 200.0625 211.222656 200.519531 207.929688 L 198.382812 207.65625 C 197.886719 211.148438 197.871094 214.566406 196.878906 217.609375 C 195.53125 221.925781 192.585938 225.652344 188.964844 228.5625 C 189.300781 227.1875 189.46875 225.746094 189.464844 224.292969 L 187.28125 224.335938 C 187.414062 229.46875 184.550781 234.285156 180.636719 237.972656 C 180.511719 237.402344 180.320312 236.816406 180.046875 236.246094 C 179.78125 235.75 179.484375 235.390625 179.226562 235.0625 C 179.3125 234.824219 179.425781 234.578125 179.5 234.335938 L 177.40625 233.746094 C 176.261719 237.804688 172.832031 240.882812 168.851562 242.835938 C 168.851562 239.363281 168.777344 235.914062 168.945312 232.515625 L 166.761719 232.425781 C 166.476562 238.234375 166.875 243.992188 166.488281 249.605469 C 166.308594 252.070312 166.0625 254.476562 165.257812 256.652344 C 164.640625 258.179688 163.808594 259.648438 162.527344 260.015625 L 162.574219 260.105469 C 161.4375 266.316406 161.113281 272.621094 160.84375 278.832031 C 160.578125 284.929688 160.425781 291.011719 160.027344 297.058594 L 158.933594 297.011719 C 158.085938 297.023438 157.207031 297.078125 156.296875 297.285156 C 155.617188 297.367188 154.753906 297.761719 154.066406 298.648438 C 153.464844 299.621094 153.15625 300.628906 152.929688 301.601562 C 151.660156 300.183594 150.351562 298.75 148.789062 297.511719 C 147.292969 296.34375 145.554688 295.484375 143.738281 294.96875 C 144.363281 294.234375 144.980469 293.472656 145.511719 292.648438 C 146.910156 290.476562 147.753906 287.917969 147.695312 285.285156 L 147.742188 285.285156 L 146.921875 265.695312 C 147.902344 266.253906 148.949219 266.710938 150.0625 267.015625 L 150.609375 264.925781 C 147.949219 264.25 145.652344 262.375 143.828125 260.152344 C 141.589844 257.402344 140.003906 254.113281 138.6875 250.699219 C 135.390625 242.109375 133.800781 232.902344 132.226562 223.699219 L 130.042969 224.0625 C 131.308594 231.519531 132.660156 239.035156 134.910156 246.335938 C 132.96875 245.722656 131.203125 244.699219 130.40625 243.0625 C 129.433594 241.289062 129.101562 239.003906 127.996094 236.746094 L 126.039062 237.699219 C 126.09375 237.8125 126.121094 237.945312 126.175781 238.0625 C 125.117188 240.015625 124.425781 242.132812 123.945312 244.242188 C 122.421875 242.839844 120.996094 241.328125 120.03125 239.609375 C 118.808594 237.476562 118.074219 235.027344 117.257812 232.519531 L 115.210938 233.152344 C 115.253906 233.289062 115.300781 233.425781 115.34375 233.5625 C 115.207031 234.738281 115.097656 235.835938 114.753906 236.746094 C 114.476562 237.542969 113.949219 238.234375 113.253906 238.746094 C 112.722656 236.96875 112.226562 235.179688 111.75 233.382812 L 111.113281 233.5625 C 105.667969 229.839844 101.597656 224.230469 98.875 218.109375 C 96.09375 211.847656 94.421875 205.097656 92.003906 198.476562 L 89.957031 199.203125 C 92.320312 205.6875 94.046875 212.523438 96.917969 219.019531 C 97.027344 219.261719 97.125 219.503906 97.238281 219.746094 L 93.003906 225.109375 L 92.960938 221.019531 L 90.777344 221.0625 L 90.820312 224.882812 C 88.265625 226.347656 86.375 228.515625 84.679688 230.699219 L 84.453125 227.382812 L 82.265625 227.519531 L 82.449219 230.335938 C 79.6875 231.148438 77.40625 232.902344 75.535156 234.925781 C 75.246094 223.085938 73.074219 210.8125 66.207031 201.066406 C 68.550781 199.933594 70.769531 198.417969 72.441406 196.292969 C 73.824219 194.554688 74.648438 192.21875 74.304688 189.886719 L 85.726562 178.386719 L 84.179688 176.839844 L 73.257812 187.839844 C 72.722656 186.761719 72.375 185.507812 72.078125 184.203125 C 71.546875 181.730469 71.242188 179.167969 70.800781 176.566406 L 70.984375 176.429688 L 69.574219 174.75 L 57.242188 185.023438 L 58.609375 186.703125 L 68.890625 178.203125 C 69.21875 180.328125 69.476562 182.484375 69.9375 184.660156 C 70.300781 186.496094 70.886719 188.472656 72.121094 190.15625 C 72.4375 191.730469 71.777344 193.5 70.710938 194.929688 C 69.394531 196.667969 67.546875 197.996094 65.480469 199.019531 C 65.640625 195.878906 65.785156 192.71875 65.617188 189.519531 L 63.429688 189.613281 C 63.632812 193.34375 63.363281 197.15625 63.160156 200.976562 C 59.683594 203.402344 55.121094 204.082031 50.554688 204.476562 C 51.398438 202.839844 52.238281 200.792969 52.238281 200.792969 C 52.238281 200.792969 54.035156 197.988281 53.96875 196.429688 C 53.917969 195.300781 53.308594 194.179688 52.464844 193.429688 C 50.945312 192.078125 49.277344 191.9375 46.734375 191.339844 L 44.867188 194.203125 C 46.890625 195.53125 49.480469 197.207031 49.871094 198.019531 C 49.777344 197.867188 49.890625 198.0625 49.964844 198.203125 C 50.136719 198.601562 50.300781 199.355469 50.097656 200.339844 C 49.863281 201.488281 48.90625 203.191406 47.960938 204.613281 L 48.050781 204.65625 C 45.6875 204.796875 43.347656 204.847656 41 204.703125 C 40.09375 204.644531 39.175781 204.570312 38.316406 204.429688 C 37.78125 204.324219 37.367188 204.300781 37.085938 204.15625 C 37.0625 204.117188 36.996094 204.011719 36.8125 203.882812 C 36.484375 203.570312 36.203125 203.199219 35.902344 202.792969 C 35.117188 201.703125 34.460938 200.511719 34.082031 199.25 C 33.703125 197.914062 33.601562 196.503906 34.039062 195.339844 C 34.480469 193.929688 35.816406 192.808594 37.3125 192.066406 L 36.402344 190.113281 C 34.972656 190.761719 33.632812 191.777344 32.71875 193.15625 C 29.21875 190.101562 26.046875 186.695312 23.753906 182.75 C 21.875 179.527344 20.609375 175.941406 20.117188 172.25 C 19.296875 166.347656 20.351562 160.285156 21.390625 154.164062 L 25.804688 159.753906 L 27.488281 158.433594 L 21.84375 151.253906 C 21.867188 151.117188 21.914062 150.980469 21.9375 150.84375 L 19.796875 150.527344 C 19.433594 152.773438 19.023438 155.054688 18.660156 157.34375 C 17.296875 156.519531 16.109375 155.320312 15.109375 153.980469 C 13.675781 152.039062 12.648438 149.789062 11.878906 147.433594 C 10.085938 141.914062 9.769531 135.917969 10.742188 130.164062 C 11.777344 124.144531 14.359375 118.332031 18.660156 114.121094 C 23.578125 109.230469 30.753906 106.925781 37.816406 106.757812 C 38.410156 107.792969 38.832031 108.917969 38.996094 110.074219 C 39.148438 111.003906 39.175781 111.941406 39.089844 112.894531 C 37.601562 113.027344 36.082031 113.410156 34.765625 114.257812 C 33.46875 115.117188 32.492188 116.367188 31.855469 117.757812 C 30.558594 120.636719 30.667969 123.902344 31.71875 126.753906 C 32.75 129.6875 34.929688 132.339844 37.953125 133.527344 C 41.757812 134.871094 45.820312 133.59375 48.917969 131.484375 C 51.355469 129.652344 53.546875 127.367188 55.058594 124.621094 C 56.300781 122.347656 57.003906 119.773438 57.015625 117.164062 C 57.003906 115.0625 56.597656 113.007812 55.878906 111.074219 C 59.816406 109.125 63.515625 106.859375 67.296875 104.847656 C 70.640625 103.113281 73.953125 101.289062 77.351562 101.121094 C 77.609375 106.507812 76.957031 111.984375 73.757812 115.894531 C 71.558594 118.679688 67.964844 120.351562 64.386719 120.390625 C 63.277344 120.351562 62.199219 119.996094 61.746094 119.210938 C 61.085938 118.359375 61.074219 117.039062 61.382812 115.800781 C 62.304688 112.03125 66.78125 109.777344 70.9375 109.4375 L 70.800781 107.257812 C 65.9375 107.503906 60.808594 110.285156 59.289062 115.210938 C 58.78125 116.890625 58.859375 118.851562 59.925781 120.484375 C 61.199219 122.15625 63.253906 122.785156 65.113281 122.574219 L 65.113281 122.527344 C 67.777344 122.363281 70.347656 121.457031 72.53125 119.9375 C 75.519531 120.164062 78.523438 120.992188 80.21875 123.121094 C 81.726562 124.851562 82.417969 127.277344 83.175781 129.753906 L 80.71875 129.984375 L 80.628906 129.890625 L 80.539062 129.984375 L 80.492188 129.984375 L 80.492188 130.027344 L 79.082031 131.480469 C 81.175781 133.53125 83.4375 135.199219 84.90625 137.34375 C 86.90625 140.15625 87.710938 143.71875 88.046875 147.34375 L 84.042969 145.4375 L 83.085938 147.433594 L 89.367188 150.433594 L 90.230469 148.617188 L 90.367188 148.617188 C 90.15625 144.320312 89.285156 139.796875 86.726562 136.074219 C 85.601562 134.488281 84.246094 133.203125 82.90625 131.984375 L 85.632812 131.753906 L 85.453125 129.574219 L 85.40625 129.574219 C 84.644531 126.949219 83.792969 124.121094 81.859375 121.757812 C 79.988281 119.621094 77.417969 118.457031 74.761719 117.984375 C 74.988281 117.738281 75.230469 117.519531 75.441406 117.257812 C 79.503906 112.03125 80.007812 105.054688 79.355469 98.804688 L 77.808594 98.984375 L 77.808594 98.894531 C 73.511719 99.015625 69.738281 101.066406 66.296875 102.941406 C 62.460938 104.980469 58.757812 107.195312 54.96875 109.074219 C 53.917969 106.964844 52.546875 105.007812 50.964844 103.304688 C 50.496094 102.796875 50.007812 102.277344 49.507812 101.804688 C 59.042969 95.832031 68.277344 89.402344 77.808594 83.578125 C 89.882812 76.207031 102.546875 69.703125 116.074219 66.308594 C 122.574219 64.667969 129.226562 63.835938 135.910156 63.761719 Z M 135.914062 63.761719 " fill-opacity="1" fill-rule="nonzero"/><g clip-path="url(#f6e2d0664f)"><path fill="#803300" d="M 135.914062 61.542969 C 129.0625 61.613281 122.238281 62.457031 115.574219 64.132812 C 101.742188 67.625 88.875 74.238281 76.71875 81.675781 C 66.914062 87.671875 57.507812 94.273438 47.828125 100.3125 C 44.566406 97.617188 40.792969 95.609375 36.769531 94.3125 C 31.371094 92.554688 25.355469 92.199219 19.890625 94.039062 C 19.878906 94.035156 19.859375 94.042969 19.84375 94.039062 L 19.800781 94.085938 L 19.800781 94.132812 L 19.117188 96.085938 C 22.25 97.203125 25.375 98.269531 28.355469 99.585938 C 31 100.761719 33.566406 102.078125 35.589844 103.949219 C 35.835938 104.175781 36.042969 104.429688 36.269531 104.675781 C 29.25 105.105469 22.210938 107.558594 17.117188 112.539062 C 16.015625 113.628906 15.050781 114.835938 14.15625 116.082031 C 12.414062 115.355469 10.808594 114.226562 9.925781 112.71875 C 9.144531 111.46875 8.878906 109.894531 8.878906 108.3125 C 8.875 105.269531 10.011719 102.242188 10.972656 99.039062 L 8.925781 98.402344 C 8.921875 98.417969 8.929688 98.433594 8.925781 98.449219 C 7.269531 99.445312 6.015625 100.792969 4.921875 102.175781 C 3.195312 104.3125 1.808594 106.789062 1.007812 109.449219 C 0.0390625 112.691406 0.00390625 116.1875 0.917969 119.445312 C 2.207031 123.957031 5.023438 127.824219 8.289062 130.992188 L 8.472656 130.808594 C 7.628906 136.582031 7.988281 142.550781 9.789062 148.125 C 10.601562 150.648438 11.738281 153.121094 13.339844 155.308594 C 14.613281 157.058594 16.289062 158.597656 18.296875 159.625 C 17.703125 163.882812 17.367188 168.183594 17.933594 172.535156 C 18.472656 176.519531 19.824219 180.382812 21.847656 183.851562 C 24.441406 188.277344 27.964844 192.035156 31.8125 195.304688 C 31.453125 196.851562 31.546875 198.425781 31.992188 199.847656 C 32.453125 201.371094 33.210938 202.8125 34.132812 204.074219 C 34.472656 204.546875 34.863281 205 35.316406 205.441406 C 35.429688 205.597656 35.695312 205.792969 36.042969 205.984375 L 36.042969 206.03125 C 36.121094 206.066406 36.191406 206.089844 36.269531 206.121094 C 36.378906 206.171875 36.464844 206.214844 36.589844 206.257812 L 36.589844 206.210938 C 37.101562 206.386719 37.597656 206.523438 38 206.574219 C 38.96875 206.730469 39.921875 206.835938 40.867188 206.894531 C 43.492188 207.054688 46.085938 206.976562 48.691406 206.804688 C 54.058594 206.492188 59.960938 205.90625 64.664062 202.621094 C 71.5 212.417969 73.296875 225.265625 73.398438 237.527344 C 73.339844 237.605469 73.273438 237.679688 73.214844 237.753906 L 74.992188 239.027344 C 77.140625 236.21875 79.582031 233.53125 82.632812 232.574219 L 82.679688 233.253906 L 82.769531 233.253906 C 82.746094 233.289062 82.707031 233.3125 82.679688 233.347656 L 84.410156 234.710938 C 86.5625 232.066406 88.398438 229.1875 90.871094 227.4375 L 90.871094 227.800781 L 90.777344 227.9375 L 90.871094 228.027344 L 90.871094 228.164062 L 91.050781 228.164062 L 92.507812 229.300781 L 98.332031 221.9375 C 101.136719 227.25 105.023438 232.019531 110.023438 235.4375 C 111.613281 241.335938 113.476562 247.234375 116.394531 252.707031 C 118.546875 256.847656 121.667969 260.960938 126.175781 262.933594 C 128.246094 269.476562 129.980469 276.097656 130.636719 282.84375 C 130.777344 285.070312 130.050781 287.355469 128.816406 289.296875 C 127.402344 291.527344 125.394531 293.4375 123.3125 295.296875 C 118.628906 299.425781 113.34375 303.398438 109.980469 309.066406 L 109.890625 309.066406 L 109.890625 311.25 L 124.722656 311.25 L 124.722656 313.292969 L 153.839844 313.292969 L 153.839844 312.523438 L 153.886719 312.523438 C 153.886719 312.511719 153.886719 312.492188 153.886719 312.476562 C 153.886719 312.449219 153.886719 312.414062 153.886719 312.386719 C 153.886719 312.277344 153.882812 312.175781 153.886719 312.066406 C 153.898438 311.675781 153.914062 311.28125 153.933594 310.886719 C 153.992188 309.625 154.078125 308.367188 154.203125 307.113281 C 154.351562 305.660156 154.542969 304.234375 154.84375 302.839844 C 155.109375 301.691406 155.355469 300.628906 155.886719 299.839844 C 155.855469 299.699219 156.289062 299.632812 156.796875 299.433594 C 157.445312 299.269531 158.136719 299.222656 158.890625 299.207031 L 161.984375 299.339844 L 162.03125 299.339844 C 162.554688 292.527344 162.734375 285.707031 163.03125 278.933594 C 163.292969 273.011719 163.589844 267.101562 164.578125 261.34375 C 165.953125 260.347656 166.824219 258.855469 167.308594 257.390625 C 168.214844 254.875 168.507812 252.277344 168.671875 249.753906 C 168.777344 248.253906 168.832031 246.746094 168.855469 245.253906 C 172.644531 243.625 176.117188 240.976562 178.183594 237.394531 C 178.476562 238.023438 178.59375 238.820312 178.683594 239.664062 C 178.558594 239.765625 178.445312 239.886719 178.320312 239.984375 L 179.640625 241.710938 C 183.050781 239.1875 186.019531 235.820312 187.785156 231.9375 C 201.226562 231.695312 214.9375 230.597656 227.914062 226.984375 L 228.460938 232.300781 C 228.414062 232.308594 228.367188 232.296875 228.324219 232.300781 L 228.503906 234.4375 C 235.484375 233.835938 242.453125 232.285156 248.890625 229.394531 C 251.710938 228.121094 254.378906 226.617188 256.988281 225.03125 C 262.414062 235.738281 265.5625 247.992188 262.992188 259.527344 C 260.832031 269.523438 254.742188 278.359375 247.613281 285.933594 C 243.414062 289.753906 238.007812 292.261719 232.917969 295.433594 C 227.503906 298.761719 222.292969 303.117188 219.585938 309.113281 L 219.542969 309.113281 L 219.542969 309.203125 C 219.527344 309.234375 219.511719 309.265625 219.496094 309.296875 L 219.542969 309.296875 L 219.542969 311.296875 L 249.890625 311.296875 L 249.890625 310.476562 L 251.347656 305.660156 C 251.890625 304.230469 252.503906 302.839844 253.300781 301.613281 C 254.019531 300.5625 254.773438 299.578125 255.714844 299.207031 C 256.390625 298.742188 257.574219 299.308594 258.898438 299.707031 L 261.402344 300.84375 L 261.445312 300.75 L 262.902344 301.160156 C 266.679688 287.707031 275.316406 275.6875 287.0625 268.164062 L 287.109375 268.207031 C 287.40625 268.039062 287.667969 267.828125 287.925781 267.617188 L 288.15625 267.480469 L 288.15625 267.433594 C 289.554688 266.199219 290.390625 264.4375 290.519531 262.617188 C 290.652344 260.710938 290.398438 258.902344 290.113281 257.164062 L 290.246094 257.117188 C 290.15625 256.894531 290.0625 256.664062 289.976562 256.4375 C 289.941406 256.230469 289.917969 256.003906 289.882812 255.800781 L 289.746094 255.800781 C 286.625 247.050781 287.566406 237.179688 290.929688 228.347656 C 293.839844 229.480469 296.863281 230.300781 299.9375 230.847656 L 299.847656 230.984375 C 309.652344 237.332031 317.347656 246.882812 321.324219 257.84375 C 324.832031 267.523438 325.59375 278.296875 322.824219 288.160156 C 322.808594 288.199219 322.796875 288.257812 322.78125 288.296875 C 322.671875 288.550781 322.578125 288.816406 322.460938 289.070312 C 322.085938 289.890625 321.707031 290.691406 321.277344 291.476562 C 320.246094 293.292969 319.296875 295.082031 317.820312 295.976562 C 313.546875 298.753906 309.714844 302.121094 306.171875 305.703125 C 304.945312 306.945312 303.734375 308.214844 302.578125 309.523438 C 302.246094 309.898438 301.902344 310.273438 301.578125 310.660156 L 301.53125 310.703125 L 301.304688 310.703125 L 301.304688 311.023438 C 301.292969 311.035156 301.269531 311.054688 301.257812 311.066406 C 301.25 311.082031 301.269531 311.097656 301.257812 311.113281 L 301.304688 311.15625 L 301.304688 312.886719 L 329.832031 312.886719 L 329.832031 313.023438 C 329.984375 312.996094 330.074219 312.925781 330.199219 312.886719 L 330.878906 312.886719 L 330.878906 312.476562 L 330.925781 312.386719 C 331.105469 312.085938 331.222656 311.855469 331.242188 311.703125 C 331.371094 311.164062 331.40625 310.667969 331.425781 310.25 C 331.511719 308.867188 331.53125 307.554688 331.609375 306.25 C 331.699219 304.71875 331.804688 303.207031 332.152344 301.796875 C 332.484375 300.582031 332.855469 299.4375 333.609375 298.796875 C 334.371094 297.929688 335.996094 297.945312 337.660156 297.796875 C 338.390625 297.765625 339.148438 297.757812 339.890625 297.796875 C 340.121094 297.808594 340.34375 297.820312 340.570312 297.839844 L 340.753906 297.839844 C 340.761719 297.777344 340.789062 297.722656 340.796875 297.660156 L 341.617188 297.660156 L 341.890625 264.253906 C 343.386719 262.820312 344.074219 260.929688 344.4375 259.164062 C 344.964844 256.949219 345.15625 254.691406 345.210938 252.480469 C 345.261719 250.570312 345.210938 248.695312 345.074219 246.800781 C 345.035156 246.203125 345 245.578125 344.9375 244.980469 C 344.921875 244.8125 344.867188 244.652344 344.847656 244.480469 L 344.894531 244.390625 C 337.609375 242.1875 332.164062 235.609375 329.5625 228.300781 C 325.746094 217.558594 326.117188 205.675781 327.285156 194.121094 C 329.3125 189.179688 330.835938 184.050781 331.699219 178.757812 C 332.738281 172.347656 332.769531 165.828125 332.019531 159.398438 C 333.75 159.777344 336.878906 160.546875 338.34375 161.761719 C 342.535156 165.242188 346.019531 170.253906 346.53125 175.941406 C 346.917969 179.984375 346.363281 184.121094 345.441406 188.167969 C 344.484375 192.335938 343.117188 196.421875 341.710938 200.53125 C 340.394531 204.355469 339.007812 208.203125 338.023438 212.210938 C 337.199219 215.5 336.617188 219.042969 337.25 222.574219 C 338.105469 227.171875 340.117188 231.5625 342.984375 235.257812 C 345.742188 238.867188 349.691406 241.863281 354.402344 242.484375 C 359.402344 243.082031 364.59375 241.449219 368.328125 238.074219 C 373.328125 233.445312 374.972656 226.265625 374.421875 219.710938 L 372.238281 219.894531 C 372.242188 219.910156 372.238281 219.925781 372.238281 219.9375 C 371.957031 222.195312 371.640625 224.414062 370.417969 225.9375 C 369.261719 227.558594 367.191406 228.367188 365.003906 229.03125 L 365.1875 222.894531 L 365.140625 222.894531 C 365.183594 222.800781 365.238281 222.714844 365.277344 222.621094 L 363.230469 221.757812 C 362.277344 224.015625 360.523438 225.945312 358.316406 226.894531 C 356.746094 227.601562 354.980469 227.886719 353.175781 227.9375 C 353.5 227.671875 353.824219 227.375 354.132812 227.03125 C 355.179688 225.695312 355.609375 224.085938 355.632812 222.53125 L 355.722656 222.53125 L 355.542969 220.347656 C 352.3125 220.585938 348.671875 219.578125 347.304688 216.9375 C 345.421875 212.347656 346.417969 207.152344 348.582031 203.757812 C 353.492188 196.054688 356.738281 187.1875 356.496094 178.078125 C 356.210938 167.613281 351.878906 158.140625 345.894531 149.625 C 338.523438 139.136719 323.742188 128.617188 312.316406 122.945312 C 297.53125 115.609375 285.667969 113.292969 269.457031 112.3125 L 218.996094 97.859375 C 202.050781 83.683594 183.167969 71.195312 162.03125 65.089844 C 153.542969 62.644531 144.722656 61.453125 135.917969 61.542969 Z M 135.914062 61.542969 " fill-opacity="1" fill-rule="nonzero"/></g><path fill="#ffffff" d="M 28.261719 94.988281 C 30.90625 95.050781 33.558594 95.542969 36.089844 96.351562 C 41.132812 97.984375 45.761719 100.875 49.328125 104.761719 C 52.484375 108.234375 54.886719 112.648438 54.835938 117.167969 C 54.832031 119.390625 54.222656 121.609375 53.152344 123.578125 C 51.847656 125.984375 49.851562 128.003906 47.601562 129.710938 L 47.601562 129.757812 C 44.824219 131.5 41.476562 132.625 38.726562 131.484375 C 36.425781 130.65625 34.667969 128.453125 33.769531 126.03125 C 32.917969 123.609375 32.765625 120.878906 33.8125 118.667969 C 34.296875 117.632812 35.066406 116.730469 36 116.121094 C 36.769531 115.601562 37.707031 115.28125 38.683594 115.121094 C 38.320312 116.617188 37.769531 118.128906 37.136719 119.578125 L 39.136719 120.441406 C 40.625 117.183594 41.671875 113.480469 41.140625 109.714844 C 40.683594 106.824219 39.152344 104.269531 37.042969 102.351562 C 34.726562 100.242188 31.960938 98.777344 29.21875 97.578125 C 27.355469 96.757812 25.464844 96.039062 23.578125 95.351562 C 25.105469 95.074219 26.691406 94.949219 28.261719 94.988281 Z M 28.261719 94.988281 " fill-opacity="1" fill-rule="nonzero"/><path fill="#ffffff" d="M 7.695312 102.3125 C 7.148438 104.226562 6.726562 106.21875 6.691406 108.308594 C 6.664062 110.195312 7.035156 112.140625 8.058594 113.855469 C 9.234375 115.742188 11.042969 117.066406 12.972656 117.898438 C 11.003906 121.136719 9.644531 124.746094 8.875 128.445312 C 6.226562 125.644531 4.039062 122.441406 3.050781 118.855469 C 2.25 116 2.246094 112.921875 3.097656 110.082031 C 3.800781 107.722656 5.039062 105.480469 6.601562 103.539062 C 6.957031 103.105469 7.324219 102.710938 7.691406 102.308594 Z M 7.695312 102.3125 " fill-opacity="1" fill-rule="nonzero"/><path fill="#803300" d="M 44.421875 145.945312 L 36.914062 159.488281 L 36.867188 159.488281 L 36.867188 159.578125 L 36.777344 159.761719 L 36.867188 159.804688 L 36.914062 161.667969 C 39.808594 161.65625 42.941406 161.738281 45.96875 160.625 C 47.371094 160.09375 48.675781 159.203125 49.652344 157.988281 C 50.8125 156.488281 51.394531 154.679688 51.65625 152.941406 L 49.515625 152.625 C 49.261719 154.121094 48.792969 155.558594 47.921875 156.625 C 47.25 157.496094 46.273438 158.160156 45.195312 158.578125 C 43.980469 159.058594 42.667969 159.253906 41.28125 159.351562 C 44.796875 156.613281 49.941406 150.554688 44.421875 145.945312 Z M 44.421875 145.945312 " fill-opacity="1" fill-rule="nonzero"/><path fill="#803300" d="M 262.171875 221.847656 C 265.976562 224.15625 270.296875 226.066406 274.957031 225.980469 C 278 225.875 280.714844 224.863281 283.328125 224.480469 C 285.109375 225.621094 286.988281 226.617188 288.925781 227.480469 C 285.328125 236.824219 284.382812 247.398438 287.832031 256.886719 C 288.144531 258.816406 288.484375 260.679688 288.335938 262.433594 C 288.230469 263.679688 287.726562 264.90625 286.878906 265.707031 C 274.78125 273.128906 265.769531 284.996094 261.445312 298.476562 L 259.761719 297.703125 C 258.46875 297.101562 256.675781 296.523438 254.800781 297.203125 C 253.265625 297.9375 252.230469 299.203125 251.480469 300.429688 C 250.917969 301.308594 250.441406 302.226562 250.023438 303.15625 C 248.929688 301.050781 247.464844 299.160156 245.746094 297.566406 C 244.097656 296.039062 242.3125 294.75 240.558594 293.476562 C 243.652344 291.667969 246.726562 289.75 249.433594 287.25 L 249.386719 287.203125 C 256.605469 279.535156 262.8125 270.460938 265.128906 260.023438 C 267.78125 247.738281 264.476562 234.953125 258.804688 223.9375 C 259.925781 223.238281 261.058594 222.546875 262.171875 221.847656 Z M 262.171875 221.847656 " fill-opacity="1" fill-rule="nonzero"/><path fill="#803300" d="M 116.714844 237.65625 C 117.117188 238.679688 117.617188 239.714844 118.171875 240.703125 C 119.550781 243.101562 121.449219 245.035156 123.449219 246.746094 C 123.4375 246.824219 123.414062 246.898438 123.402344 246.972656 L 125.585938 247.292969 C 125.941406 245.097656 126.421875 242.964844 127.226562 240.976562 C 127.554688 242.003906 127.949219 243.0625 128.5 244.109375 C 130.054688 246.84375 132.890625 248.304688 135.734375 248.839844 C 136.03125 249.710938 136.3125 250.609375 136.644531 251.472656 C 137.984375 255 139.664062 258.488281 142.101562 261.519531 C 142.863281 262.46875 143.746094 263.367188 144.695312 264.15625 L 145.5625 284.835938 L 145.46875 284.835938 C 145.679688 287.132812 144.972656 289.511719 143.695312 291.515625 C 142.28125 293.746094 140.273438 295.609375 138.191406 297.46875 C 137.808594 297.804688 137.394531 298.136719 137.007812 298.46875 C 134.855469 295.628906 131.386719 294.207031 127.953125 293.832031 C 128.929688 292.796875 129.890625 291.699219 130.683594 290.46875 C 132.078125 288.300781 132.875 285.734375 132.820312 283.109375 L 132.867188 283.109375 C 132.171875 275.515625 130.183594 268.140625 127.863281 260.972656 L 127.453125 261.109375 C 123.425781 259.660156 120.582031 255.707031 118.351562 251.65625 C 116.523438 248.246094 115.136719 244.609375 113.9375 240.882812 C 115.191406 240.148438 116.167969 239.015625 116.714844 237.65625 Z M 116.714844 237.65625 " fill-opacity="1" fill-rule="nonzero"/><path fill="#803300" d="M 336.382812 246.386719 C 335.988281 246.394531 335.628906 246.40625 335.246094 246.429688 L 332.289062 246.75 L 332.515625 248.929688 L 335.429688 248.613281 C 336.144531 248.566406 336.808594 248.574219 337.476562 248.613281 C 337.890625 248.671875 338.21875 248.660156 338.386719 248.703125 C 338.394531 248.726562 338.40625 248.71875 338.429688 248.75 C 338.511719 249.003906 338.5 249.339844 338.523438 249.703125 C 338.574219 250.757812 338.460938 251.871094 338.25 252.976562 C 337.648438 255.738281 336.691406 258.460938 334.835938 260.292969 C 334.710938 262.78125 334.636719 265.261719 334.609375 267.746094 C 334.617188 268.46875 334.636719 269.203125 334.65625 269.929688 C 334.660156 270.128906 334.648438 270.320312 334.65625 270.519531 C 334.65625 270.574219 334.652344 270.601562 334.65625 270.65625 C 335.015625 270.664062 335.386719 270.703125 335.746094 270.703125 L 336.839844 270.609375 C 336.835938 270.558594 336.839844 270.480469 336.839844 270.429688 C 336.832031 270.234375 336.84375 270.035156 336.839844 269.839844 C 336.820312 269.125 336.800781 268.417969 336.792969 267.703125 C 336.710938 265.492188 336.683594 263.273438 336.703125 261.066406 C 338.871094 258.964844 339.914062 256.144531 340.386719 253.386719 C 340.625 252.179688 340.757812 250.90625 340.707031 249.613281 C 340.691406 249.175781 340.667969 248.675781 340.523438 248.160156 C 340.511719 247.855469 340.273438 247.410156 339.707031 246.929688 C 338.882812 246.476562 338.125 246.410156 337.613281 246.429688 C 337.203125 246.410156 336.78125 246.378906 336.382812 246.386719 Z M 336.382812 246.386719 " fill-opacity="1" fill-rule="nonzero"/><path fill="#803300" d="M 280.785156 255.886719 L 279.464844 257.613281 L 281.785156 259.339844 C 282.34375 259.785156 282.910156 260.226562 283.378906 260.703125 C 283.644531 261.027344 283.875 261.238281 283.96875 261.382812 C 283.960938 261.410156 283.929688 261.390625 283.921875 261.429688 C 283.8125 261.671875 283.652344 261.964844 283.421875 262.246094 C 282.75 263.0625 281.910156 263.753906 281.011719 264.429688 C 278.710938 266.074219 276.15625 267.449219 273.550781 267.566406 C 271.785156 269.324219 270.054688 271.148438 268.363281 272.972656 C 267.882812 273.515625 267.425781 274.0625 266.953125 274.609375 C 266.820312 274.761719 266.671875 274.910156 266.542969 275.066406 C 266.507812 275.105469 266.488281 275.113281 266.453125 275.15625 C 266.714844 275.402344 266.964844 275.679688 267.226562 275.929688 C 267.230469 275.941406 267.265625 275.929688 267.269531 275.929688 C 267.558594 276.144531 267.804688 276.394531 268.089844 276.609375 C 268.125 276.570312 268.191406 276.511719 268.226562 276.472656 C 268.351562 276.324219 268.460938 276.167969 268.589844 276.019531 C 269.054688 275.480469 269.527344 274.964844 270 274.429688 C 271.425781 272.734375 272.875 271.054688 274.367188 269.429688 C 277.390625 269.328125 280.125 267.929688 282.332031 266.203125 C 283.316406 265.46875 284.277344 264.605469 285.105469 263.613281 C 285.390625 263.277344 285.636719 262.910156 285.878906 262.429688 C 286.074219 262.199219 286.207031 261.667969 286.109375 260.929688 C 285.800781 260.039062 285.320312 259.484375 284.925781 259.15625 C 284.347656 258.578125 283.753906 258.089844 283.148438 257.613281 L 280.785156 255.882812 Z M 280.785156 255.886719 " fill-opacity="1" fill-rule="nonzero"/><path fill="#ffffff" d="M 238.472656 294.652344 C 240.5 296.128906 242.503906 297.515625 244.25 299.152344 C 246.253906 301.023438 247.914062 303.277344 248.847656 305.785156 L 249.074219 305.695312 L 248.027344 309.105469 L 228.554688 309.105469 L 233.921875 302.46875 L 232.195312 301.105469 L 225.734375 309.105469 L 222.003906 309.105469 C 224.484375 304.132812 229.140625 300.378906 234.058594 297.285156 C 235.492188 296.398438 236.984375 295.503906 238.472656 294.652344 Z M 238.472656 294.652344 " fill-opacity="1" fill-rule="nonzero"/><path fill="#ffffff" d="M 125.90625 295.925781 C 129.585938 296.03125 133.542969 297.128906 135.371094 299.925781 C 132.136719 302.699219 128.84375 305.535156 126.273438 309.058594 L 119.128906 309.058594 L 124.863281 302.46875 L 123.222656 301.058594 L 116.214844 309.058594 L 112.578125 309.058594 C 115.640625 304.414062 120.359375 300.863281 124.769531 296.925781 C 125.144531 296.59375 125.535156 296.265625 125.910156 295.925781 Z M 125.90625 295.925781 " fill-opacity="1" fill-rule="nonzero"/><path fill="#ffffff" d="M 142.054688 296.832031 C 144.003906 297.203125 145.871094 298.015625 147.425781 299.242188 C 149.226562 300.640625 150.761719 302.460938 152.382812 304.285156 C 152.25 305.160156 152.152344 306.007812 152.066406 306.875 C 151.933594 308.171875 151.808594 309.488281 151.746094 310.785156 C 151.742188 310.890625 151.75 310.996094 151.746094 311.101562 L 131.816406 311.101562 L 138.050781 303.96875 L 136.367188 302.558594 L 128.90625 311.101562 L 127.496094 311.101562 C 130.5625 306.523438 135.277344 303.003906 139.644531 299.105469 C 140.457031 298.386719 141.265625 297.613281 142.054688 296.832031 Z M 142.054688 296.832031 " fill-opacity="1" fill-rule="nonzero"/><path fill="#ffffff" d="M 318.589844 298.066406 L 318.589844 298.25 C 320.679688 298.117188 322.828125 298.636719 324.6875 299.65625 C 326.414062 300.597656 327.992188 301.929688 329.644531 303.246094 C 329.511719 304.203125 329.46875 305.128906 329.417969 306.066406 C 329.339844 307.441406 329.320312 308.8125 329.238281 310.109375 C 329.21875 310.351562 329.167969 310.507812 329.144531 310.703125 L 311.445312 310.703125 L 316.769531 304.792969 L 315.132812 303.339844 L 308.488281 310.703125 L 304.441406 310.703125 C 305.496094 309.519531 306.597656 308.375 307.714844 307.246094 C 311.074219 303.855469 314.65625 300.671875 318.589844 298.066406 Z M 318.589844 298.066406 " fill-opacity="1" fill-rule="nonzero"/><g clip-path="url(#4449eae7df)"><path fill="#000000" d="M 135.914062 61.542969 C 129.0625 61.613281 122.238281 62.457031 115.574219 64.132812 C 101.742188 67.625 88.875 74.238281 76.71875 81.675781 C 66.914062 87.671875 57.507812 94.273438 47.828125 100.3125 C 44.566406 97.617188 40.792969 95.609375 36.769531 94.3125 C 31.371094 92.554688 25.355469 92.199219 19.890625 94.039062 L 19.84375 94.039062 L 19.800781 94.085938 L 19.800781 94.128906 L 19.117188 96.085938 C 22.25 97.203125 25.375 98.269531 28.355469 99.585938 C 31 100.761719 33.566406 102.078125 35.589844 103.949219 C 35.835938 104.175781 36.042969 104.429688 36.269531 104.675781 C 29.25 105.101562 22.210938 107.558594 17.117188 112.539062 C 16.015625 113.625 15.050781 114.835938 14.15625 116.082031 C 12.414062 115.355469 10.808594 114.226562 9.925781 112.71875 C 9.144531 111.46875 8.878906 109.894531 8.878906 108.3125 C 8.875 105.269531 10.011719 102.242188 10.972656 99.039062 L 8.925781 98.402344 C 8.921875 98.417969 8.929688 98.433594 8.925781 98.449219 C 7.269531 99.445312 6.015625 100.792969 4.921875 102.175781 C 3.195312 104.3125 1.808594 106.785156 1.007812 109.445312 C 0.0390625 112.691406 0.00390625 116.183594 0.917969 119.445312 C 2.207031 123.957031 5.023438 127.824219 8.289062 130.988281 L 8.472656 130.808594 C 7.628906 136.582031 7.988281 142.550781 9.789062 148.125 C 10.601562 150.644531 11.738281 153.117188 13.339844 155.304688 C 14.613281 157.058594 16.289062 158.597656 18.296875 159.625 C 17.703125 163.878906 17.367188 168.183594 17.933594 172.53125 C 18.472656 176.519531 19.824219 180.378906 21.847656 183.847656 C 24.441406 188.277344 27.964844 192.035156 31.8125 195.300781 C 31.453125 196.851562 31.546875 198.421875 31.992188 199.847656 C 32.453125 201.371094 33.210938 202.808594 34.132812 204.074219 C 34.472656 204.546875 34.863281 204.996094 35.316406 205.4375 C 35.429688 205.597656 35.695312 205.789062 36.042969 205.984375 L 36.042969 206.027344 C 36.121094 206.066406 36.191406 206.085938 36.269531 206.121094 C 36.378906 206.167969 36.464844 206.210938 36.589844 206.257812 L 36.589844 206.210938 C 37.101562 206.386719 37.597656 206.523438 38 206.574219 C 38.96875 206.730469 39.921875 206.835938 40.867188 206.894531 C 43.492188 207.054688 46.085938 206.976562 48.691406 206.804688 C 54.058594 206.496094 59.960938 205.90625 64.664062 202.621094 C 71.5 212.417969 73.296875 225.265625 73.398438 237.527344 C 73.339844 237.605469 73.273438 237.679688 73.214844 237.757812 L 74.992188 239.027344 C 77.140625 236.21875 79.582031 233.53125 82.632812 232.574219 L 82.679688 233.257812 L 82.769531 233.257812 C 82.746094 233.289062 82.707031 233.3125 82.679688 233.347656 L 84.410156 234.710938 C 86.5625 232.066406 88.398438 229.1875 90.871094 227.4375 L 90.871094 227.800781 L 90.777344 227.9375 L 90.871094 228.027344 L 90.871094 228.164062 L 91.050781 228.164062 L 92.507812 229.300781 L 98.332031 221.9375 C 101.136719 227.25 105.023438 232.019531 110.023438 235.4375 C 111.613281 241.335938 113.476562 247.234375 116.394531 252.707031 C 118.546875 256.847656 121.667969 260.960938 126.175781 262.933594 C 128.246094 269.476562 129.980469 276.097656 130.636719 282.84375 C 130.777344 285.070312 130.050781 287.355469 128.816406 289.296875 C 127.402344 291.523438 125.394531 293.4375 123.3125 295.296875 C 118.628906 299.425781 113.34375 303.398438 109.980469 309.066406 L 109.890625 309.066406 L 109.890625 311.25 L 124.722656 311.25 L 124.722656 313.292969 L 153.839844 313.292969 L 153.839844 312.523438 L 153.886719 312.523438 C 153.886719 312.507812 153.886719 312.492188 153.886719 312.476562 C 153.886719 312.449219 153.886719 312.414062 153.886719 312.386719 C 153.886719 312.277344 153.882812 312.175781 153.886719 312.066406 C 153.898438 311.675781 153.914062 311.28125 153.933594 310.886719 C 153.992188 309.625 154.078125 308.367188 154.203125 307.113281 C 154.351562 305.660156 154.542969 304.234375 154.84375 302.839844 C 155.109375 301.6875 155.355469 300.628906 155.886719 299.839844 C 155.855469 299.699219 156.289062 299.632812 156.796875 299.433594 C 157.445312 299.269531 158.136719 299.222656 158.890625 299.203125 L 161.984375 299.339844 L 162.03125 299.339844 C 162.554688 292.527344 162.734375 285.707031 163.03125 278.933594 C 163.292969 273.011719 163.589844 267.101562 164.578125 261.34375 C 165.953125 260.347656 166.824219 258.855469 167.308594 257.390625 C 168.214844 254.875 168.507812 252.277344 168.671875 249.753906 C 168.777344 248.253906 168.832031 246.746094 168.855469 245.253906 C 172.644531 243.625 176.117188 240.976562 178.183594 237.394531 C 178.476562 238.023438 178.59375 238.820312 178.683594 239.664062 C 178.558594 239.765625 178.445312 239.886719 178.320312 239.984375 L 179.640625 241.710938 C 183.050781 239.1875 186.019531 235.820312 187.785156 231.9375 C 201.226562 231.695312 214.9375 230.597656 227.914062 226.984375 L 228.460938 232.300781 L 228.324219 232.300781 L 228.503906 234.4375 C 235.484375 233.835938 242.453125 232.285156 248.890625 229.394531 C 251.710938 228.121094 254.378906 226.617188 256.988281 225.03125 C 262.414062 235.738281 265.5625 247.992188 262.992188 259.527344 C 260.832031 269.523438 254.742188 278.359375 247.613281 285.933594 C 243.414062 289.753906 238.007812 292.261719 232.917969 295.433594 C 227.503906 298.761719 222.292969 303.117188 219.585938 309.113281 L 219.542969 309.113281 L 219.542969 309.207031 C 219.527344 309.234375 219.511719 309.265625 219.496094 309.296875 L 219.542969 309.296875 L 219.542969 311.296875 L 249.890625 311.296875 L 249.890625 310.476562 L 251.347656 305.660156 C 251.890625 304.230469 252.503906 302.839844 253.300781 301.613281 C 254.019531 300.5625 254.773438 299.578125 255.714844 299.207031 C 256.390625 298.742188 257.574219 299.308594 258.898438 299.707031 L 261.402344 300.84375 L 261.445312 300.75 L 262.902344 301.160156 C 266.679688 287.707031 275.316406 275.6875 287.0625 268.164062 L 287.109375 268.207031 C 287.40625 268.035156 287.667969 267.824219 287.925781 267.617188 L 288.15625 267.480469 L 288.15625 267.433594 C 289.554688 266.199219 290.390625 264.4375 290.519531 262.617188 C 290.652344 260.710938 290.398438 258.902344 290.113281 257.164062 L 290.246094 257.117188 C 290.15625 256.890625 290.0625 256.664062 289.976562 256.4375 C 289.941406 256.230469 289.917969 256.003906 289.882812 255.800781 L 289.746094 255.800781 C 286.625 247.050781 287.566406 237.179688 290.929688 228.347656 C 293.839844 229.480469 296.863281 230.300781 299.9375 230.847656 L 299.847656 230.984375 C 309.652344 237.332031 317.347656 246.882812 321.324219 257.84375 C 324.832031 267.523438 325.59375 278.296875 322.824219 288.160156 C 322.808594 288.203125 322.796875 288.257812 322.78125 288.296875 C 322.671875 288.550781 322.578125 288.816406 322.460938 289.070312 C 322.085938 289.890625 321.707031 290.691406 321.277344 291.480469 C 320.246094 293.292969 319.296875 295.082031 317.820312 295.976562 C 313.546875 298.753906 309.714844 302.121094 306.171875 305.703125 C 304.945312 306.945312 303.734375 308.214844 302.578125 309.523438 C 302.246094 309.898438 301.902344 310.273438 301.578125 310.660156 L 301.53125 310.703125 L 301.304688 310.703125 L 301.304688 311.023438 C 301.292969 311.035156 301.269531 311.054688 301.257812 311.066406 C 301.25 311.082031 301.269531 311.097656 301.257812 311.113281 L 301.304688 311.15625 L 301.304688 312.882812 L 329.832031 312.882812 L 329.832031 313.019531 C 329.984375 312.996094 330.074219 312.921875 330.199219 312.882812 L 330.878906 312.882812 L 330.878906 312.472656 L 330.925781 312.382812 C 331.105469 312.082031 331.222656 311.851562 331.242188 311.699219 C 331.371094 311.160156 331.40625 310.664062 331.425781 310.246094 C 331.511719 308.863281 331.53125 307.550781 331.609375 306.246094 C 331.699219 304.714844 331.804688 303.203125 332.152344 301.792969 C 332.484375 300.578125 332.855469 299.433594 333.609375 298.792969 C 334.371094 297.925781 335.996094 297.941406 337.660156 297.792969 C 338.390625 297.761719 339.148438 297.753906 339.890625 297.792969 L 340.570312 297.835938 L 340.753906 297.835938 C 340.761719 297.773438 340.789062 297.71875 340.796875 297.65625 L 341.617188 297.65625 L 341.890625 264.25 C 343.386719 262.816406 344.074219 260.925781 344.4375 259.160156 C 344.964844 256.945312 345.15625 254.6875 345.210938 252.476562 C 345.261719 250.570312 345.210938 248.691406 345.074219 246.796875 C 345.035156 246.203125 345 245.574219 344.9375 244.976562 C 344.921875 244.8125 344.867188 244.648438 344.847656 244.476562 L 344.894531 244.386719 C 337.609375 242.183594 332.164062 235.605469 329.5625 228.296875 C 325.746094 217.554688 326.117188 205.671875 327.285156 194.117188 C 329.3125 189.175781 330.835938 184.046875 331.699219 178.753906 C 332.738281 172.34375 332.769531 165.824219 332.019531 159.394531 C 333.75 159.773438 336.878906 160.542969 338.34375 161.757812 C 342.535156 165.238281 346.019531 170.25 346.53125 175.9375 C 346.917969 179.980469 346.363281 184.117188 345.441406 188.164062 C 344.484375 192.332031 343.117188 196.417969 341.710938 200.527344 C 340.394531 204.351562 339.007812 208.199219 338.023438 212.207031 C 337.199219 215.496094 336.617188 219.039062 337.25 222.570312 C 338.105469 227.167969 340.117188 231.558594 342.984375 235.253906 C 345.742188 238.863281 349.691406 241.855469 354.402344 242.480469 C 359.402344 243.078125 364.59375 241.445312 368.328125 238.070312 C 373.328125 233.441406 374.972656 226.261719 374.421875 219.707031 L 372.238281 219.890625 C 372.242188 219.90625 372.238281 219.921875 372.238281 219.933594 C 371.957031 222.191406 371.640625 224.410156 370.417969 225.933594 C 369.261719 227.554688 367.191406 228.363281 365.003906 229.023438 L 365.1875 222.890625 L 365.140625 222.890625 C 365.183594 222.796875 365.238281 222.710938 365.277344 222.617188 L 363.230469 221.753906 C 362.277344 224.011719 360.523438 225.941406 358.316406 226.890625 C 356.746094 227.597656 354.980469 227.882812 353.175781 227.933594 C 353.5 227.667969 353.824219 227.371094 354.132812 227.023438 C 355.179688 225.691406 355.609375 224.078125 355.632812 222.527344 L 355.722656 222.527344 L 355.542969 220.34375 C 352.3125 220.582031 348.671875 219.574219 347.304688 216.933594 C 345.421875 212.34375 346.417969 207.148438 348.578125 203.753906 C 353.492188 196.050781 356.738281 187.183594 356.496094 178.074219 C 356.210938 167.609375 351.878906 158.136719 345.894531 149.621094 C 338.523438 139.132812 323.742188 128.613281 312.316406 122.941406 C 297.53125 115.605469 285.667969 113.289062 269.457031 112.308594 L 218.996094 97.855469 C 202.050781 83.679688 183.167969 71.191406 162.03125 65.085938 C 153.542969 62.640625 144.722656 61.449219 135.917969 61.539062 Z M 135.914062 63.769531 C 144.507812 63.671875 153.144531 64.835938 161.4375 67.222656 C 180.925781 72.824219 198.503906 84.128906 214.535156 97.128906 C 213.195312 98.265625 211.675781 99.121094 210.121094 99.128906 C 207.914062 99.28125 205.753906 97.835938 203.796875 96.222656 L 202.339844 97.902344 C 203.15625 98.632812 204.078125 99.332031 205.070312 99.902344 L 205.070312 101.585938 C 203.128906 101.617188 201.226562 101.679688 199.382812 101.539062 C 196.890625 101.339844 194.414062 100.675781 192.515625 99.265625 L 191.195312 101.039062 C 191.925781 101.5625 192.707031 101.996094 193.515625 102.359375 L 193.515625 105.359375 C 191.242188 105.390625 189.046875 105.632812 186.964844 105.496094 C 184.378906 105.300781 181.777344 104.246094 180.457031 102.222656 L 178.683594 103.449219 C 180.589844 106.113281 183.722656 107.496094 186.828125 107.675781 C 189.136719 107.820312 191.382812 107.574219 193.515625 107.539062 L 193.515625 107.585938 L 195.699219 107.585938 L 195.699219 106.128906 L 195.746094 105.402344 L 195.699219 105.402344 L 195.699219 103.085938 C 196.859375 103.402344 198.03125 103.640625 199.203125 103.722656 C 201.96875 103.921875 204.664062 103.675781 207.253906 103.722656 L 207.300781 101.539062 L 207.253906 101.539062 L 207.253906 100.8125 C 208.191406 101.117188 209.179688 101.324219 210.214844 101.3125 C 212.601562 101.179688 214.675781 99.988281 216.265625 98.496094 C 216.835938 98.964844 217.425781 99.425781 217.992188 99.902344 L 218.039062 99.859375 L 267.449219 114.039062 L 259.488281 120.039062 L 260.808594 121.765625 L 270.5 114.492188 C 285.890625 115.515625 297.257812 117.839844 311.355469 124.855469 C 322.515625 130.410156 337.054688 140.707031 344.160156 150.855469 C 349.921875 159.082031 354.105469 168.199219 354.355469 178.167969 C 354.582031 187.050781 351.015625 195.429688 346.484375 203.03125 C 343.617188 207.835938 343.46875 214.097656 345.4375 218.027344 C 347.15625 220.871094 350.246094 222.328125 353.398438 222.574219 C 353.382812 223.761719 353.136719 224.875 352.441406 225.617188 C 351.867188 226.363281 350.789062 226.914062 349.714844 227.800781 L 349.621094 227.800781 L 349.394531 229.980469 C 352.601562 230.359375 356.035156 230.238281 359.175781 228.890625 C 360.601562 228.257812 361.863281 227.375 362.910156 226.253906 L 362.773438 231.300781 L 364.863281 231.34375 L 364.863281 231.390625 C 367.246094 230.804688 369.792969 229.804688 371.644531 227.84375 C 370.863281 231.179688 369.351562 234.238281 366.867188 236.433594 C 363.632812 239.375 359.015625 240.828125 354.671875 240.296875 C 350.75 239.875 347.234375 237.144531 344.664062 233.890625 C 342.011719 230.472656 340.175781 226.410156 339.386719 222.164062 C 338.796875 219.144531 339.398438 215.898438 340.160156 212.710938 C 341.101562 208.847656 342.4375 205.101562 343.753906 201.257812 C 345.167969 197.140625 346.585938 192.929688 347.574219 188.621094 C 348.542969 184.4375 349.113281 180.082031 348.710938 175.714844 C 348.101562 169.390625 344.054688 163.71875 339.292969 159.804688 C 337.277344 158.148438 332.214844 157.21875 331.695312 157.125 C 331.203125 153.746094 330.539062 150.363281 329.648438 147.078125 L 327.511719 147.671875 C 330.214844 157.683594 331.21875 168.214844 329.558594 178.394531 C 328.128906 187.21875 324.722656 195.6875 320.230469 203.484375 L 322.140625 204.574219 C 322.992188 203.097656 323.78125 201.554688 324.550781 200.03125 C 323.890625 209.789062 324.246094 219.714844 327.507812 229.027344 C 330.085938 236.402344 335.457031 243.027344 342.796875 245.933594 C 342.828125 246.265625 342.863281 246.601562 342.886719 246.933594 C 343.019531 248.769531 343.074219 250.605469 343.023438 252.433594 C 342.964844 254.558594 342.777344 256.660156 342.296875 258.660156 C 341.796875 260.511719 341.199219 262.277344 340.023438 263.433594 L 339.476562 295.613281 C 338.839844 295.589844 338.203125 295.542969 337.566406 295.566406 C 335.882812 295.550781 333.785156 295.738281 332.105469 297.15625 C 331.019531 298.230469 330.472656 299.570312 330.148438 300.839844 C 328.773438 299.742188 327.355469 298.648438 325.734375 297.75 C 324.203125 296.90625 322.515625 296.371094 320.777344 296.15625 C 321.777344 295.011719 322.554688 293.742188 323.1875 292.523438 C 323.640625 291.683594 324.066406 290.792969 324.460938 289.929688 C 324.582031 289.664062 324.664062 289.429688 324.78125 289.160156 C 324.8125 289.082031 324.882812 289.011719 324.914062 288.929688 L 324.871094 288.929688 C 327.824219 278.511719 327.054688 267.246094 323.367188 257.117188 C 319.664062 246.921875 312.878906 237.90625 304.214844 231.390625 C 304.539062 231.421875 304.84375 231.460938 305.167969 231.480469 L 305.351562 229.34375 C 294.269531 228.523438 283.199219 223.917969 276.277344 215.390625 C 267.808594 205.113281 265.703125 190.761719 266.359375 177.214844 L 266.402344 177.214844 C 266.886719 166.394531 263.828125 155.839844 259.578125 146.035156 C 259.554688 145.960938 259.554688 145.878906 259.53125 145.808594 L 259.441406 145.625 C 258.574219 142.605469 258.171875 139.449219 258.757812 136.488281 C 259.257812 133.902344 260.585938 131.449219 262.582031 129.761719 C 268.226562 124.800781 277.128906 125.394531 285.011719 126.671875 L 285.375 124.492188 C 277.328125 122.996094 267.84375 122.621094 261.171875 128.125 C 258.777344 130.171875 257.207031 133.019531 256.621094 136.082031 C 255.960938 139.601562 256.433594 143.179688 257.441406 146.488281 C 261.648438 156.175781 264.679688 166.5 264.21875 176.894531 L 264.171875 176.894531 C 263.386719 190.816406 265.65625 205.730469 274.59375 216.753906 C 276.433594 218.992188 278.496094 221.027344 280.78125 222.753906 C 278.722656 223.214844 276.75 223.765625 274.867188 223.800781 C 270.460938 223.972656 266.164062 221.734375 262.171875 219.253906 L 261.898438 219.710938 L 261.761719 219.480469 C 257.210938 222.332031 252.800781 225.292969 248.023438 227.4375 C 242.546875 229.90625 236.605469 231.363281 230.59375 232.070312 L 230.003906 226.34375 C 234.171875 225.085938 238.269531 223.574219 242.242188 221.710938 L 241.332031 219.753906 C 225.863281 227.066406 208.386719 229.09375 191.054688 229.617188 C 194.601562 226.597656 197.519531 222.753906 198.972656 218.253906 C 200.058594 214.769531 200.0625 211.230469 200.519531 207.9375 L 198.382812 207.664062 C 197.886719 211.15625 197.875 214.574219 196.878906 217.617188 C 195.53125 221.933594 192.585938 225.660156 188.964844 228.570312 C 189.300781 227.195312 189.46875 225.753906 189.464844 224.300781 L 187.28125 224.34375 C 187.414062 229.476562 184.550781 234.292969 180.636719 237.980469 C 180.511719 237.410156 180.320312 236.824219 180.046875 236.253906 C 179.78125 235.757812 179.484375 235.398438 179.226562 235.070312 C 179.3125 234.832031 179.425781 234.585938 179.5 234.34375 L 177.40625 233.753906 C 176.261719 237.8125 172.832031 240.890625 168.851562 242.84375 C 168.851562 239.371094 168.777344 235.921875 168.945312 232.523438 L 166.761719 232.433594 C 166.476562 238.246094 166.875 244 166.488281 249.613281 C 166.308594 252.078125 166.0625 254.484375 165.257812 256.660156 C 164.640625 258.1875 163.808594 259.65625 162.527344 260.023438 L 162.574219 260.113281 C 161.4375 266.324219 161.113281 272.628906 160.84375 278.839844 C 160.578125 284.941406 160.425781 291.019531 160.027344 297.066406 L 158.933594 297.023438 C 158.085938 297.035156 157.207031 297.085938 156.296875 297.292969 C 155.617188 297.378906 154.753906 297.769531 154.066406 298.65625 C 153.464844 299.628906 153.15625 300.636719 152.929688 301.613281 C 151.660156 300.191406 150.351562 298.757812 148.789062 297.519531 C 147.292969 296.351562 145.554688 295.492188 143.738281 294.976562 C 144.363281 294.242188 144.980469 293.484375 145.511719 292.65625 C 146.910156 290.484375 147.753906 287.929688 147.695312 285.296875 L 147.742188 285.296875 L 146.921875 265.707031 C 147.902344 266.265625 148.949219 266.722656 150.0625 267.023438 L 150.609375 264.933594 C 147.949219 264.257812 145.652344 262.382812 143.828125 260.160156 C 141.589844 257.414062 140.003906 254.121094 138.6875 250.707031 C 135.390625 242.117188 133.800781 232.910156 132.226562 223.710938 L 130.042969 224.074219 C 131.308594 231.527344 132.660156 239.046875 134.910156 246.34375 C 132.96875 245.734375 131.203125 244.707031 130.40625 243.070312 C 129.433594 241.296875 129.101562 239.011719 127.996094 236.753906 L 126.039062 237.707031 C 126.09375 237.820312 126.121094 237.957031 126.175781 238.070312 C 125.117188 240.023438 124.425781 242.140625 123.945312 244.253906 C 122.421875 242.847656 120.996094 241.335938 120.03125 239.617188 C 118.808594 237.484375 118.074219 235.035156 117.257812 232.527344 L 115.210938 233.164062 C 115.253906 233.296875 115.300781 233.4375 115.347656 233.570312 C 115.207031 234.746094 115.097656 235.847656 114.753906 236.753906 C 114.476562 237.554688 113.949219 238.246094 113.253906 238.753906 C 112.722656 236.976562 112.226562 235.191406 111.75 233.390625 L 111.113281 233.570312 C 105.667969 229.847656 101.597656 224.238281 98.875 218.117188 C 96.09375 211.855469 94.421875 205.109375 92.003906 198.484375 L 89.957031 199.210938 C 92.320312 205.695312 94.046875 212.535156 96.917969 219.027344 C 97.027344 219.269531 97.125 219.515625 97.238281 219.753906 L 93.003906 225.117188 L 92.960938 221.027344 L 90.777344 221.074219 L 90.820312 224.890625 C 88.265625 226.355469 86.375 228.523438 84.679688 230.707031 L 84.453125 227.390625 L 82.265625 227.527344 L 82.449219 230.34375 C 79.6875 231.15625 77.40625 232.910156 75.535156 234.9375 C 75.246094 223.097656 73.074219 210.820312 66.207031 201.074219 C 68.550781 199.945312 70.769531 198.429688 72.441406 196.304688 C 73.824219 194.5625 74.648438 192.230469 74.304688 189.894531 L 85.726562 178.394531 L 84.179688 176.851562 L 73.257812 187.847656 C 72.722656 186.773438 72.375 185.515625 72.078125 184.210938 C 71.546875 181.742188 71.242188 179.175781 70.800781 176.578125 L 70.984375 176.441406 L 69.574219 174.757812 L 57.242188 185.03125 L 58.609375 186.710938 L 68.890625 178.210938 C 69.21875 180.335938 69.476562 182.492188 69.9375 184.667969 C 70.300781 186.507812 70.886719 188.480469 72.121094 190.167969 C 72.4375 191.738281 71.777344 193.507812 70.710938 194.9375 C 69.394531 196.675781 67.546875 198.007812 65.480469 199.03125 C 65.640625 195.886719 65.785156 192.726562 65.617188 189.53125 L 63.429688 189.621094 C 63.632812 193.351562 63.363281 197.167969 63.160156 200.984375 C 59.683594 203.410156 55.121094 204.09375 50.554688 204.484375 C 51.398438 202.847656 52.238281 200.800781 52.238281 200.800781 C 52.238281 200.800781 54.035156 198 53.96875 196.4375 C 53.917969 195.308594 53.308594 194.1875 52.464844 193.4375 C 50.945312 192.085938 49.277344 191.945312 46.734375 191.347656 L 44.867188 194.210938 C 46.890625 195.539062 49.480469 197.214844 49.871094 198.027344 C 49.777344 197.875 49.890625 198.070312 49.964844 198.210938 C 50.136719 198.609375 50.300781 199.363281 50.097656 200.347656 C 49.863281 201.5 48.90625 203.199219 47.960938 204.621094 L 48.050781 204.664062 C 45.6875 204.804688 43.347656 204.855469 41 204.710938 C 40.09375 204.652344 39.175781 204.578125 38.316406 204.4375 C 37.78125 204.332031 37.367188 204.308594 37.085938 204.164062 C 37.0625 204.125 36.996094 204.019531 36.8125 203.890625 C 36.484375 203.578125 36.203125 203.207031 35.902344 202.800781 C 35.117188 201.710938 34.460938 200.515625 34.082031 199.253906 C 33.703125 197.921875 33.601562 196.511719 34.039062 195.347656 C 34.480469 193.9375 35.816406 192.816406 37.3125 192.074219 L 36.40625 190.121094 C 34.972656 190.769531 33.632812 191.785156 32.71875 193.164062 C 29.21875 190.109375 26.046875 186.703125 23.753906 182.757812 C 21.875 179.535156 20.609375 175.949219 20.117188 172.257812 C 19.296875 166.355469 20.351562 160.292969 21.390625 154.167969 L 25.804688 159.761719 L 27.488281 158.441406 L 21.84375 151.261719 C 21.867188 151.125 21.914062 150.988281 21.9375 150.851562 L 19.796875 150.535156 C 19.433594 152.78125 19.023438 155.058594 18.660156 157.351562 C 17.296875 156.527344 16.109375 155.328125 15.109375 153.988281 C 13.675781 152.046875 12.648438 149.796875 11.878906 147.441406 C 10.085938 141.921875 9.769531 135.925781 10.742188 130.171875 C 11.777344 124.152344 14.359375 118.339844 18.660156 114.128906 C 23.578125 109.238281 30.753906 106.933594 37.816406 106.765625 C 38.410156 107.800781 38.832031 108.925781 38.996094 110.082031 C 39.148438 111.011719 39.175781 111.949219 39.089844 112.902344 C 37.601562 113.035156 36.082031 113.414062 34.765625 114.265625 C 33.46875 115.125 32.492188 116.375 31.855469 117.765625 C 30.558594 120.644531 30.667969 123.910156 31.71875 126.761719 C 32.75 129.695312 34.929688 132.347656 37.953125 133.535156 C 41.757812 134.875 45.820312 133.597656 48.917969 131.488281 C 51.355469 129.65625 53.546875 127.375 55.058594 124.628906 C 56.300781 122.355469 57.003906 119.78125 57.015625 117.171875 C 57.003906 115.066406 56.597656 113.015625 55.878906 111.082031 C 59.816406 109.128906 63.515625 106.867188 67.296875 104.855469 C 70.640625 103.121094 73.953125 101.296875 77.351562 101.128906 C 77.609375 106.515625 76.957031 111.992188 73.757812 115.898438 C 71.558594 118.6875 67.964844 120.359375 64.386719 120.398438 C 63.277344 120.359375 62.199219 120.003906 61.746094 119.21875 C 61.085938 118.367188 61.074219 117.042969 61.382812 115.808594 C 62.304688 112.039062 66.78125 109.785156 70.9375 109.445312 L 70.800781 107.265625 C 65.9375 107.507812 60.808594 110.292969 59.289062 115.21875 C 58.78125 116.894531 58.859375 118.859375 59.925781 120.492188 C 61.199219 122.164062 63.253906 122.789062 65.113281 122.582031 L 65.113281 122.535156 C 67.777344 122.371094 70.347656 121.464844 72.53125 119.945312 C 75.519531 120.171875 78.523438 121 80.21875 123.128906 C 81.726562 124.859375 82.417969 127.285156 83.175781 129.761719 L 80.71875 129.988281 L 80.628906 129.898438 L 80.539062 129.988281 L 80.492188 129.988281 L 80.492188 130.035156 L 79.082031 131.488281 C 81.175781 133.539062 83.4375 135.207031 84.90625 137.351562 C 86.90625 140.164062 87.710938 143.726562 88.046875 147.351562 L 84.042969 145.441406 L 83.085938 147.441406 L 89.367188 150.441406 L 90.230469 148.625 L 90.367188 148.625 C 90.15625 144.328125 89.285156 139.804688 86.726562 136.082031 C 85.601562 134.496094 84.246094 133.210938 82.90625 131.988281 L 85.632812 131.761719 L 85.453125 129.582031 L 85.40625 129.582031 C 84.644531 126.953125 83.792969 124.128906 81.859375 121.765625 C 79.988281 119.628906 77.421875 118.464844 74.761719 117.992188 C 74.988281 117.746094 75.230469 117.527344 75.441406 117.265625 C 79.503906 112.035156 80.007812 105.0625 79.355469 98.8125 L 77.808594 98.992188 L 77.808594 98.902344 C 73.511719 99.023438 69.738281 101.074219 66.296875 102.949219 C 62.460938 104.988281 58.757812 107.203125 54.96875 109.082031 C 53.917969 106.972656 52.546875 105.015625 50.964844 103.3125 C 50.496094 102.804688 50.007812 102.285156 49.507812 101.8125 C 59.042969 95.839844 68.277344 89.410156 77.808594 83.585938 C 89.882812 76.214844 102.546875 69.710938 116.074219 66.316406 C 122.574219 64.675781 129.226562 63.84375 135.910156 63.769531 Z M 28.261719 94.992188 C 30.90625 95.058594 33.558594 95.546875 36.089844 96.359375 C 41.132812 97.988281 45.761719 100.878906 49.328125 104.765625 C 52.484375 108.242188 54.886719 112.65625 54.835938 117.171875 C 54.832031 119.394531 54.222656 121.617188 53.152344 123.582031 C 51.847656 125.988281 49.851562 128.007812 47.601562 129.71875 L 47.601562 129.761719 C 44.824219 131.507812 41.476562 132.632812 38.726562 131.488281 C 36.425781 130.660156 34.667969 128.457031 33.769531 126.035156 C 32.917969 123.617188 32.765625 120.882812 33.8125 118.671875 C 34.296875 117.636719 35.066406 116.734375 36 116.128906 C 36.769531 115.605469 37.707031 115.285156 38.683594 115.128906 C 38.320312 116.625 37.769531 118.132812 37.136719 119.582031 L 39.136719 120.445312 C 40.625 117.1875 41.671875 113.484375 41.140625 109.71875 C 40.683594 106.828125 39.152344 104.273438 37.042969 102.355469 C 34.726562 100.25 31.960938 98.78125 29.21875 97.582031 C 27.355469 96.761719 25.46875 96.042969 23.578125 95.355469 C 25.105469 95.082031 26.691406 94.953125 28.261719 94.992188 Z M 7.699219 102.3125 C 7.152344 104.230469 6.730469 106.21875 6.695312 108.3125 C 6.667969 110.195312 7.039062 112.140625 8.0625 113.855469 C 9.238281 115.742188 11.046875 117.066406 12.976562 117.902344 C 11.007812 121.136719 9.648438 124.746094 8.878906 128.445312 C 6.230469 125.648438 4.042969 122.441406 3.054688 118.855469 C 2.253906 116 2.25 112.925781 3.101562 110.082031 C 3.804688 107.722656 5.042969 105.480469 6.605469 103.539062 C 6.960938 103.105469 7.328125 102.710938 7.695312 102.3125 Z M 44.414062 145.945312 L 36.90625 159.488281 L 36.863281 159.488281 L 36.863281 159.582031 L 36.773438 159.761719 L 36.863281 159.808594 L 36.90625 161.671875 C 39.804688 161.65625 42.9375 161.738281 45.960938 160.625 C 47.367188 160.097656 48.671875 159.207031 49.648438 157.988281 C 50.808594 156.488281 51.390625 154.683594 51.648438 152.945312 L 49.511719 152.625 C 49.257812 154.121094 48.789062 155.558594 47.917969 156.625 C 47.242188 157.496094 46.269531 158.164062 45.1875 158.582031 C 43.976562 159.0625 42.660156 159.253906 41.277344 159.351562 C 44.792969 156.613281 49.9375 150.554688 44.414062 145.945312 Z M 262.175781 221.847656 C 265.980469 224.160156 270.300781 226.066406 274.960938 225.984375 C 278.003906 225.875 280.71875 224.863281 283.332031 224.484375 C 285.113281 225.621094 286.992188 226.617188 288.929688 227.484375 C 285.332031 236.824219 284.386719 247.398438 287.839844 256.890625 C 288.148438 258.820312 288.488281 260.683594 288.339844 262.433594 C 288.234375 263.679688 287.730469 264.910156 286.882812 265.707031 C 274.785156 273.128906 265.777344 285 261.449219 298.476562 L 259.765625 297.703125 C 258.476562 297.101562 256.679688 296.527344 254.804688 297.203125 C 253.269531 297.9375 252.234375 299.203125 251.484375 300.429688 C 250.921875 301.3125 250.445312 302.226562 250.027344 303.15625 C 248.933594 301.050781 247.46875 299.160156 245.75 297.566406 C 244.105469 296.039062 242.316406 294.75 240.566406 293.476562 C 243.660156 291.667969 246.734375 289.75 249.4375 287.25 L 249.390625 287.203125 C 256.613281 279.535156 262.820312 270.460938 265.132812 260.027344 C 267.789062 247.742188 264.480469 234.957031 258.808594 223.9375 C 259.933594 223.238281 261.066406 222.550781 262.175781 221.847656 Z M 116.71875 237.664062 C 117.121094 238.6875 117.621094 239.722656 118.175781 240.710938 C 119.554688 243.109375 121.453125 245.042969 123.453125 246.753906 C 123.441406 246.828125 123.417969 246.90625 123.40625 246.980469 L 125.589844 247.300781 C 125.945312 245.105469 126.425781 242.972656 127.230469 240.980469 C 127.558594 242.011719 127.953125 243.066406 128.503906 244.117188 C 130.058594 246.847656 132.898438 248.3125 135.738281 248.84375 C 136.039062 249.71875 136.316406 250.613281 136.648438 251.480469 C 137.988281 255.007812 139.667969 258.496094 142.109375 261.523438 C 142.867188 262.476562 143.75 263.371094 144.703125 264.160156 L 145.566406 284.839844 L 145.476562 284.839844 C 145.683594 287.140625 144.976562 289.515625 143.699219 291.523438 C 142.285156 293.75 140.277344 295.617188 138.195312 297.476562 C 137.8125 297.8125 137.398438 298.140625 137.011719 298.476562 C 134.859375 295.636719 131.390625 294.214844 127.957031 293.839844 C 128.9375 292.800781 129.894531 291.707031 130.6875 290.476562 C 132.085938 288.308594 132.878906 285.742188 132.824219 283.113281 L 132.871094 283.113281 C 132.175781 275.523438 130.1875 268.144531 127.867188 260.980469 L 127.457031 261.117188 C 123.429688 259.667969 120.585938 255.714844 118.355469 251.664062 C 116.53125 248.253906 115.140625 244.617188 113.945312 240.890625 C 115.195312 240.15625 116.171875 239.023438 116.71875 237.664062 Z M 336.394531 246.390625 C 335.996094 246.40625 335.640625 246.410156 335.253906 246.433594 L 332.296875 246.753906 L 332.527344 248.933594 L 335.4375 248.617188 C 336.152344 248.570312 336.816406 248.578125 337.484375 248.617188 C 337.898438 248.675781 338.226562 248.664062 338.394531 248.707031 C 338.40625 248.730469 338.417969 248.722656 338.441406 248.753906 C 338.519531 249.007812 338.507812 249.34375 338.53125 249.707031 C 338.582031 250.761719 338.46875 251.875 338.257812 252.980469 C 337.660156 255.742188 336.699219 258.464844 334.847656 260.296875 C 334.71875 262.785156 334.644531 265.265625 334.617188 267.75 C 334.625 268.472656 334.644531 269.207031 334.664062 269.933594 C 334.667969 270.132812 334.65625 270.320312 334.664062 270.523438 C 334.667969 270.578125 334.660156 270.605469 334.664062 270.660156 C 335.023438 270.660156 335.394531 270.703125 335.753906 270.703125 L 336.847656 270.613281 C 336.84375 270.5625 336.847656 270.484375 336.847656 270.433594 C 336.839844 270.238281 336.851562 270.039062 336.847656 269.84375 C 336.828125 269.128906 336.808594 268.421875 336.800781 267.707031 C 336.722656 265.496094 336.695312 263.277344 336.710938 261.070312 C 338.882812 258.96875 339.921875 256.148438 340.398438 253.390625 C 340.636719 252.183594 340.765625 250.910156 340.714844 249.617188 C 340.703125 249.179688 340.675781 248.679688 340.53125 248.164062 C 340.519531 247.859375 340.285156 247.414062 339.714844 246.933594 C 338.890625 246.480469 338.136719 246.414062 337.621094 246.433594 C 337.210938 246.414062 336.789062 246.382812 336.390625 246.390625 Z M 280.792969 255.890625 L 279.472656 257.617188 L 281.792969 259.34375 C 282.355469 259.789062 282.917969 260.230469 283.386719 260.707031 C 283.65625 261.03125 283.882812 261.242188 283.976562 261.390625 C 283.96875 261.414062 283.9375 261.390625 283.933594 261.433594 C 283.820312 261.675781 283.660156 261.96875 283.433594 262.253906 C 282.761719 263.066406 281.917969 263.757812 281.019531 264.433594 C 278.722656 266.082031 276.164062 267.453125 273.558594 267.570312 C 271.792969 269.328125 270.0625 271.152344 268.371094 272.980469 C 267.890625 273.519531 267.433594 274.066406 266.960938 274.613281 C 266.832031 274.765625 266.683594 274.917969 266.550781 275.070312 C 266.515625 275.113281 266.496094 275.117188 266.460938 275.160156 C 266.722656 275.40625 266.972656 275.683594 267.234375 275.933594 C 267.238281 275.945312 267.277344 275.933594 267.28125 275.933594 C 267.566406 276.148438 267.8125 276.398438 268.097656 276.613281 C 268.132812 276.574219 268.203125 276.515625 268.234375 276.476562 C 268.363281 276.328125 268.472656 276.171875 268.597656 276.023438 C 269.066406 275.480469 269.535156 274.96875 270.011719 274.433594 C 271.433594 272.738281 272.882812 271.058594 274.378906 269.433594 C 277.398438 269.328125 280.136719 267.933594 282.339844 266.207031 C 283.324219 265.472656 284.285156 264.609375 285.117188 263.613281 C 285.398438 263.28125 285.648438 262.914062 285.890625 262.433594 C 286.082031 262.203125 286.21875 261.671875 286.117188 260.933594 C 285.8125 260.042969 285.328125 259.488281 284.933594 259.160156 C 284.355469 258.582031 283.761719 258.09375 283.160156 257.617188 L 280.792969 255.886719 Z M 238.480469 294.660156 C 240.503906 296.136719 242.507812 297.523438 244.257812 299.160156 C 246.261719 301.03125 247.917969 303.285156 248.851562 305.792969 L 249.082031 305.703125 L 248.035156 309.113281 L 228.558594 309.113281 L 233.929688 302.476562 L 232.199219 301.113281 L 225.738281 309.113281 L 222.007812 309.113281 C 224.492188 304.140625 229.148438 300.386719 234.066406 297.296875 C 235.496094 296.410156 236.988281 295.511719 238.480469 294.660156 Z M 125.914062 295.929688 C 129.59375 296.039062 133.550781 297.132812 135.378906 299.929688 C 132.140625 302.707031 128.847656 305.542969 126.277344 309.066406 L 119.132812 309.066406 L 124.867188 302.476562 L 123.230469 301.066406 L 116.222656 309.066406 L 112.582031 309.066406 C 115.648438 304.421875 120.367188 300.871094 124.777344 296.929688 C 125.152344 296.601562 125.542969 296.273438 125.914062 295.929688 Z M 142.066406 296.839844 C 144.015625 297.210938 145.882812 298.027344 147.4375 299.25 C 149.238281 300.652344 150.773438 302.46875 152.394531 304.292969 C 152.261719 305.167969 152.164062 306.015625 152.078125 306.886719 C 151.945312 308.179688 151.820312 309.5 151.757812 310.792969 C 151.753906 310.898438 151.761719 311.007812 151.757812 311.113281 L 131.828125 311.113281 L 138.0625 303.976562 L 136.378906 302.566406 L 128.917969 311.113281 L 127.507812 311.113281 C 130.574219 306.53125 135.289062 303.011719 139.65625 299.113281 C 140.46875 298.394531 141.277344 297.625 142.066406 296.839844 Z M 318.601562 298.066406 L 318.601562 298.25 C 320.691406 298.117188 322.839844 298.636719 324.699219 299.660156 C 326.425781 300.597656 328.003906 301.929688 329.65625 303.25 C 329.523438 304.207031 329.480469 305.128906 329.429688 306.066406 C 329.351562 307.445312 329.332031 308.8125 329.25 310.113281 C 329.230469 310.351562 329.179688 310.507812 329.15625 310.703125 L 311.457031 310.703125 L 316.78125 304.792969 L 315.144531 303.339844 L 308.5 310.703125 L 304.453125 310.703125 C 305.507812 309.519531 306.609375 308.378906 307.726562 307.25 C 311.085938 303.859375 314.667969 300.671875 318.601562 298.066406 Z M 318.601562 298.066406 " fill-opacity="1" fill-rule="nonzero"/></g></svg>