<svg xmlns="http://www.w3.org/2000/svg" xmlns:xlink="http://www.w3.org/1999/xlink" width="500" zoomAndPan="magnify" viewBox="0 0 375 374.999991" height="500" preserveAspectRatio="xMidYMid meet" version="1.0"><defs><clipPath id="ce929cde86"><path d="M 47 61.703125 L 88 61.703125 L 88 91 L 47 91 Z M 47 61.703125 " clip-rule="nonzero"/></clipPath><clipPath id="65bf536a8f"><path d="M 0 63 L 367 63 L 367 312.953125 L 0 312.953125 Z M 0 63 " clip-rule="nonzero"/></clipPath><clipPath id="bc6ea295ec"><path d="M 47 61.703125 L 100 61.703125 L 100 97 L 47 97 Z M 47 61.703125 " clip-rule="nonzero"/></clipPath><clipPath id="095bd843b8"><path d="M 297 290 L 329 290 L 329 312.953125 L 297 312.953125 Z M 297 290 " clip-rule="nonzero"/></clipPath></defs><path fill="#f5f2e6" d="M 53.8125 76.847656 C 53.8125 76.847656 56.453125 75.644531 57.765625 73.886719 C 59.488281 72.011719 60.515625 69.269531 61.71875 68.953125 C 63.257812 68.582031 65.664062 66.527344 66.660156 65.5 C 67.71875 64.472656 70.464844 64.128906 71.597656 64.019531 C 72.523438 63.441406 75.953125 63.101562 77.035156 63.03125 C 78.015625 63.101562 79.011719 64.511719 79.011719 64.511719 L 81.976562 65.007812 L 81.976562 66.488281 L 79.503906 84.25 L 53.8125 76.847656 " fill-opacity="1" fill-rule="nonzero"/><g clip-path="url(#ce929cde86)"><path stroke-linecap="butt" transform="matrix(0.494071, 0, 0, -0.493404, -4.117255, 315.285507)" fill="none" stroke-linejoin="miter" d="M 117.249819 483.250989 C 117.249819 483.250989 122.594444 485.689408 125.250944 489.252033 C 128.7376 493.052166 130.816943 498.609861 133.252068 499.251134 C 136.367131 500.003243 141.237381 504.167556 143.253474 506.249712 C 145.396068 508.331869 150.954161 509.02856 153.246974 509.250234 C 155.120755 510.421942 162.062442 511.110716 164.252473 511.253221 C 166.236942 511.110716 168.253036 508.252699 168.253036 508.252699 L 174.253879 507.247247 L 174.253879 504.246725 L 169.249223 468.24838 Z M 117.249819 483.250989 " stroke="#000000" stroke-width="2.083" stroke-opacity="1" stroke-miterlimit="4"/></g><path fill="#dbd6d1" d="M 17.25 142.964844 C 17.25 142.964844 18.65625 144.652344 20.710938 143.949219 C 22.773438 143.621094 25.347656 143.621094 27.132812 141.976562 C 28.433594 140.539062 29.980469 137.453125 32.566406 137.535156 C 35.125 137.453125 38.496094 132.601562 38.496094 132.601562 L 33.554688 129.640625 L 17.25 142.964844 " fill-opacity="1" fill-rule="nonzero"/><path stroke-linecap="butt" transform="matrix(0.494071, 0, 0, -0.493404, -4.117255, 315.285507)" fill="none" stroke-linejoin="miter" d="M 43.247322 349.248791 C 43.247322 349.248791 46.093572 345.828671 50.252259 347.253721 C 54.426759 347.918744 59.636978 347.918744 63.250134 351.251778 C 65.882915 354.165213 69.01379 360.419599 74.247727 360.253343 C 79.426321 360.419599 86.249414 370.252444 86.249414 370.252444 L 76.248008 376.253488 Z M 43.247322 349.248791 " stroke="#000000" stroke-width="2.083" stroke-opacity="1" stroke-miterlimit="4"/><path fill="#dbd6d1" d="M 293.4375 297.398438 C 294.644531 293.558594 294.917969 288.023438 294.917969 288.023438 C 294.917969 288.023438 300.6875 283.933594 300.847656 282.597656 C 300.6875 280.847656 298.628906 276.738281 299.859375 275.195312 C 300.6875 273.65625 313.191406 246.542969 313.199219 243.125 C 312.011719 227.914062 312.210938 206.121094 312.210938 206.121094 L 277.132812 206.613281 C 277.132812 206.613281 296.054688 217.121094 294.917969 251.511719 C 294.710938 262.144531 290.394531 273.65625 288.003906 277.171875 C 288.003906 277.171875 285.25 287.015625 282.074219 289.011719 C 282.074219 289.011719 280.199219 292.125 278.121094 295.425781 L 293.4375 297.398438 " fill-opacity="1" fill-rule="nonzero"/><path stroke-linecap="butt" transform="matrix(0.494071, 0, 0, -0.493404, -4.117255, 315.285507)" fill="none" stroke-linejoin="miter" d="M 602.250798 36.252399 C 604.693829 44.034755 605.247267 55.253065 605.247267 55.253065 C 605.247267 55.253065 616.924797 63.542106 617.248954 66.249701 C 616.924797 69.796492 612.758204 78.125117 615.248673 81.25231 C 616.924797 84.371586 642.232703 139.323097 642.248515 146.250423 C 639.845015 177.079004 640.248234 221.247636 640.248234 221.247636 L 569.250112 220.250101 C 569.250112 220.250101 607.547985 198.953521 605.247267 129.252743 C 604.828236 107.702821 596.09183 84.371586 591.253205 77.246337 C 591.253205 77.246337 585.679299 57.295637 579.251518 53.250079 C 579.251518 53.250079 575.456518 46.940274 571.250393 40.250456 Z M 602.250798 36.252399 " stroke="#000000" stroke-width="2.083" stroke-opacity="1" stroke-miterlimit="4"/><path fill="#dbd6d1" d="M 142.746094 233.75 L 147.191406 254.96875 C 147.191406 254.96875 144.449219 257.425781 152.132812 264.835938 C 154.527344 267.488281 159.671875 277.253906 158.554688 283.089844 C 157.40625 289.691406 152.472656 298.261719 154.109375 298.878906 C 157.894531 300.296875 171.195312 300.296875 171.894531 297.894531 C 173.570312 293.183594 168.4375 292.035156 169.425781 290 C 170.464844 288.167969 173.125 289.578125 172.390625 286.050781 C 171.953125 282.402344 168.285156 282.332031 167.449219 277.664062 C 166.5 273.199219 166.332031 264.484375 166.460938 262.863281 C 166.394531 261.238281 166.617188 256.0625 165.964844 253.488281 C 165.078125 251.160156 161.519531 245.097656 161.519531 245.097656 L 158.554688 207.601562 L 133.359375 213.519531 L 142.746094 233.75 " fill-opacity="1" fill-rule="nonzero"/><path stroke-linecap="butt" transform="matrix(0.494071, 0, 0, -0.493404, -4.117255, 315.285507)" fill="none" stroke-linejoin="miter" d="M 297.251405 165.251089 L 306.248717 122.246248 C 306.248717 122.246248 300.69853 117.26649 316.250123 102.248047 C 321.096654 96.872441 331.509185 77.080081 329.247997 65.252166 C 326.92356 51.87253 316.937967 34.502755 320.250685 33.251877 C 327.911841 30.378027 354.832621 30.378027 356.24784 35.246947 C 359.639621 44.794782 349.250809 47.122364 351.25109 51.247092 C 353.354153 54.960139 358.738309 52.102122 357.251934 59.251122 C 356.366434 66.645548 348.942465 66.788053 347.250528 76.248802 C 345.329309 85.297869 344.98934 102.960572 345.250247 106.246103 C 345.11584 109.539552 345.566497 120.029503 344.246153 125.24677 C 342.451434 129.965268 335.248841 142.252366 335.248841 142.252366 L 329.247997 218.247114 L 278.252687 206.252943 Z M 297.251405 165.251089 " stroke="#000000" stroke-width="2.083" stroke-opacity="1" stroke-miterlimit="4"/><path fill="#f5f2e6" d="M 92.351562 187.863281 C 92.082031 186.285156 91.839844 185.042969 91.855469 184.410156 C 91.222656 180.113281 79.898438 162.125 77.527344 155.792969 C 74.753906 149.789062 75.269531 148.246094 72.09375 146.417969 C 64.460938 141.050781 57.269531 139.511719 57.269531 139.511719 C 55.710938 137.96875 53.652344 140.023438 51.835938 140.992188 C 49.535156 142.078125 47.992188 138.996094 45.90625 138.523438 C 43.875 137.96875 41.953125 140.003906 41.953125 140.003906 L 37.507812 139.511719 C 35.382812 138.996094 31.007812 134.371094 28.613281 136.550781 C 25.859375 138.484375 18.65625 143.109375 17.25 142.964844 C 15.570312 143.109375 11.324219 141.976562 11.324219 141.976562 C 8.019531 140.195312 9.390625 137.453125 7.371094 137.042969 C 5.277344 136.425781 4.761719 135.910156 2.921875 134.082031 C 0.644531 131.800781 3.214844 126.148438 4.40625 124.707031 C 4.738281 123.867188 6.882812 121.726562 12.3125 116.320312 C 15.824219 113.042969 16 110.734375 18.238281 108.917969 C 21.398438 105.539062 21.230469 104.902344 23.179688 103 C 25.003906 101.476562 22.773438 101.476562 25.15625 97.570312 C 27.546875 93.851562 26.03125 93.082031 27.625 89.675781 C 27.625 89.675781 33.582031 82.460938 36.027344 80.796875 C 36.027344 80.796875 37.441406 78.863281 36.519531 78.328125 C 35.898438 77.320312 39.484375 75.367188 39.484375 75.367188 L 39.980469 70.925781 L 42.941406 69.445312 L 44.917969 69.941406 L 49.859375 68.953125 L 49.367188 70.433594 L 51.835938 70.433594 L 54.800781 69.941406 L 54.800781 71.914062 C 63.175781 71.152344 67.238281 73.105469 74.070312 76.847656 C 82.988281 81.433594 87.902344 79.808594 87.902344 79.808594 C 87.902344 79.808594 102.671875 85.636719 118.042969 87.210938 C 121.085938 87.546875 124.207031 87.695312 127.429688 87.703125 C 151.179688 86.828125 177.824219 92.636719 177.824219 92.636719 C 177.824219 92.636719 186.597656 94.835938 194.128906 96.089844 C 196.894531 96.515625 199.589844 96.851562 201.539062 97.078125 C 207.535156 96.851562 251.65625 100.753906 260.335938 99.542969 C 270.839844 97.878906 278.042969 96.335938 305.789062 94.117188 C 333.625 92.226562 347.152344 94.804688 358.65625 110.894531 C 363.855469 117.546875 361.410156 162.578125 346.300781 187.863281 L 92.351562 187.863281 " fill-opacity="1" fill-rule="nonzero"/><path fill="#f5f2e6" d="M 346.300781 187.863281 C 344.386719 191.117188 342.207031 194.070312 339.878906 196.746094 C 337.011719 199.449219 329.324219 197.296875 328.515625 215.988281 C 328.015625 221.582031 324.945312 224.917969 327.035156 233.257812 C 328.527344 239.542969 332.484375 240.386719 330.492188 244.113281 C 328.589844 248.328125 327.238281 258.34375 327.035156 260.886719 C 327.066406 263.582031 326.457031 271.175781 325.550781 278.648438 C 324.046875 287.332031 327.132812 291.746094 326.539062 294.4375 C 326.203125 299.035156 321.097656 288.804688 323.082031 300.359375 C 323.246094 302.304688 323.523438 303.550781 323.574219 304.800781 L 307.765625 299.867188 C 308.613281 298.589844 313.394531 291.785156 314.1875 290 C 317.160156 282.390625 316.484375 255.390625 314.1875 248.058594 C 311.105469 238.835938 296.023438 231.410156 296.402344 214.015625 C 296.402344 214.015625 281.902344 205.554688 274.664062 207.105469 C 267.75 208.378906 249.527344 215.675781 247.488281 217.46875 C 246.859375 217.46875 246.222656 217.566406 245.511719 217.46875 C 231.726562 219.175781 232.753906 222.773438 222.785156 220.921875 C 213.195312 218.660156 185.40625 216.605469 178.8125 216.976562 C 172.023438 217.632812 150.453125 222.804688 147.191406 226.84375 C 135.484375 242.300781 137.542969 247.441406 138.296875 251.019531 C 138.910156 256.996094 137.953125 262.265625 137.3125 265.820312 C 137.03125 270.542969 132.4375 274.664062 132.371094 278.648438 C 132.421875 282.949219 129.449219 291.949219 130.394531 292.960938 C 134.453125 296.78125 133.234375 297.871094 130.886719 298.878906 C 128.25 299.519531 130.394531 301.839844 130.394531 301.839844 C 129.503906 303.578125 131.382812 306.773438 131.382812 306.773438 L 115.078125 303.8125 L 111.617188 301.347656 C 111.898438 300.148438 112.164062 298.953125 112.605469 297.894531 C 113.578125 294.082031 118.042969 290 118.042969 290 C 118.042969 290 120.820312 275.820312 121.5 273.714844 C 122.355469 271.488281 120.039062 267.003906 120.019531 262.863281 C 120.050781 258.71875 120.042969 259.777344 119.523438 251.511719 C 119.015625 243.332031 123.648438 239.734375 118.042969 223.882812 C 116.78125 220.410156 104.90625 211.765625 104.703125 211.546875 C 99.113281 205.804688 95.429688 197.367188 93.339844 191.316406 C 93.0625 189.96875 92.738281 188.832031 92.351562 187.863281 L 346.300781 187.863281 " fill-opacity="1" fill-rule="nonzero"/><g clip-path="url(#65bf536a8f)"><path stroke-linecap="butt" transform="matrix(0.494071, 0, 0, -0.493404, -4.117255, 315.285507)" fill="none" stroke-linejoin="miter" d="M 509.249583 198.248913 C 507.976677 198.248913 506.687958 198.050989 505.249021 198.248913 C 477.347866 194.789208 479.42721 187.497702 459.250461 191.250334 C 439.840618 195.834245 383.595558 199.998557 370.249808 199.246448 C 356.508746 197.916401 312.850436 187.434367 306.248717 179.248247 C 282.553687 147.920898 286.72028 137.502199 288.246187 130.250278 C 289.487468 118.137354 287.550437 107.457396 286.253812 100.252977 C 285.684562 90.681391 276.386812 82.329015 276.252406 74.253732 C 276.355187 65.537176 270.338531 47.296536 272.251844 45.246048 C 280.466437 37.503276 277.999687 35.294449 273.248031 33.251877 C 267.911313 31.953499 272.251844 27.250834 272.251844 27.250834 C 270.449219 23.727793 274.252125 17.251733 274.252125 17.251733 L 241.251439 23.252777 L 234.246501 28.248369 C 234.815751 30.67887 235.353376 33.101455 236.246783 35.246947 C 238.215439 42.973885 247.252282 51.247092 247.252282 51.247092 C 247.252282 51.247092 252.873626 79.985599 254.249313 84.252832 C 255.980782 88.765491 251.292376 97.854143 251.252845 106.246103 C 251.316095 114.645981 251.300282 112.500489 250.248751 129.252743 C 249.220938 145.830825 258.59775 153.12233 247.252282 185.24929 C 244.698564 192.287454 220.663565 209.807651 220.25244 210.251 C 208.938596 221.888908 201.483003 238.989508 197.253159 251.252855 C 195.490066 257.7685 194.351566 262.882846 194.248784 265.250012 C 192.967972 273.958651 170.047754 310.416179 165.248661 323.249546 C 159.635223 335.417889 160.678848 338.545082 154.251067 342.250212 C 138.802256 353.128093 124.24685 356.247369 124.24685 356.247369 C 121.092256 359.374562 116.925663 355.21025 113.249257 353.246847 C 108.592476 351.045937 105.469507 357.292406 101.24757 358.250356 C 97.13632 359.374562 93.246445 355.249834 93.246445 355.249834 L 84.249133 356.247369 C 79.948133 357.292406 71.093134 366.666068 66.246602 362.248413 C 60.672696 358.329526 46.093572 348.955864 43.247322 349.248791 C 39.847635 348.955864 31.253542 351.251778 31.253542 351.251778 C 24.564854 354.861904 27.339948 360.419599 23.252417 361.250878 C 19.014667 362.501755 17.971042 363.546792 14.247198 367.251922 C 9.637855 371.875417 14.840167 383.331236 17.251573 386.252588 C 17.923605 387.954731 22.264136 392.293217 33.253823 403.250267 C 40.361541 409.892584 40.717322 414.571498 45.247603 418.252877 C 51.643759 425.101034 51.303791 426.391496 55.249009 430.247047 C 58.941228 433.334656 54.426759 433.334656 59.249572 441.2516 C 64.088196 448.788531 61.020571 450.348169 64.246321 457.251744 C 64.246321 457.251744 76.303352 471.87434 81.252664 475.246959 C 81.252664 475.246959 84.114727 479.165846 82.248852 480.250467 C 80.991758 482.293039 88.249695 486.251511 88.249695 486.251511 L 89.253789 495.253077 L 95.246726 498.253599 L 99.247289 497.248147 L 109.248694 499.251134 L 108.252507 496.250612 L 113.249257 496.250612 L 119.2501 497.248147 L 119.2501 493.25009 C 136.201099 494.793894 144.423599 490.835422 158.25163 483.250989 C 176.301598 473.956497 186.24766 477.249945 186.24766 477.249945 C 186.24766 477.249945 216.14119 465.437865 247.252282 462.247336 C 253.411251 461.566479 259.728344 461.265635 266.251 461.249801 C 314.320998 463.023197 368.249527 451.250701 368.249527 451.250701 C 368.249527 451.250701 386.006964 446.793461 401.250213 444.252122 C 406.847838 443.389175 412.30315 442.708318 416.248369 442.249135 C 428.384462 442.708318 517.685552 434.79929 535.253239 437.253543 C 556.513144 440.626161 571.092268 443.753354 627.25036 448.250179 C 683.590295 452.08198 710.969637 446.856796 734.253542 414.246903 C 746.097104 398.959284 738.277824 284.377349 696.2482 240.248302 C 690.445013 234.769777 674.885514 239.132013 673.24892 201.249435 C 672.23692 189.91237 666.022608 183.1513 670.252451 166.248624 C 673.272639 153.510261 681.28167 151.800201 677.249482 144.247436 C 673.399139 135.705053 670.663576 115.406008 670.252451 110.252077 C 670.315701 104.789386 669.082326 89.398846 667.248077 74.253732 C 664.20417 56.654365 670.450108 47.708218 669.248358 42.253443 C 668.56842 32.9352 658.234952 53.669677 662.251327 30.251356 C 662.583389 26.308717 663.144733 23.783212 663.247514 21.24979 L 631.250922 31.24889 C 632.966578 33.837731 642.643828 47.629048 644.248796 51.247092 C 650.265452 66.669299 648.897671 121.391218 644.248796 136.251322 C 638.010765 154.943228 607.484735 169.993339 608.251642 205.247491 C 608.251642 205.247491 578.903643 222.395593 564.253362 219.252566 C 550.2593 216.671642 513.376646 201.88279 509.249583 198.248913 Z M 509.249583 198.248913 " stroke="#000000" stroke-width="2.083" stroke-opacity="1" stroke-miterlimit="4"/></g><path fill="#000000" d="M 361.125 205.625 C 361.289062 203.882812 360.777344 195.660156 360.136719 192.304688 C 359.746094 188.464844 360.777344 185.382812 361.125 181.449219 C 361.804688 177.15625 362.445312 162.125 363.101562 160.234375 C 363.476562 158.011719 363.476562 124.089844 363.101562 118.789062 C 362.445312 113.8125 357.171875 110.398438 357.171875 110.398438 C 357.171875 110.398438 358.847656 139.511719 358.160156 148.390625 C 357.816406 156.984375 359.230469 167.90625 357.171875 175.035156 C 355.113281 182.296875 355.628906 183.839844 356.183594 192.796875 C 356.65625 201.316406 357.6875 209.023438 357.667969 210.5625 C 357.667969 210.5625 357.6875 212.109375 356.679688 217.46875 C 355.628906 222.386719 354.085938 218.015625 356.679688 226.347656 C 359.230469 234.976562 358.972656 237.035156 357.667969 242.136719 C 356.402344 246.800781 356.183594 247.074219 356.183594 247.074219 C 356.183594 247.074219 361.03125 238.578125 361.125 232.269531 C 361.125 232.269531 361.289062 228.554688 360.628906 227.828125 C 360.261719 227.011719 364.121094 232.152344 363.59375 237.699219 C 363.59375 237.699219 362.0625 248.34375 364.089844 251.019531 C 365.664062 253.996094 367.054688 255.953125 367.054688 255.953125 C 367.054688 255.953125 365.148438 250.910156 365.570312 248.058594 C 366.179688 245.257812 367.546875 241.152344 367.546875 241.152344 C 367.546875 241.152344 367.980469 245 367.546875 246.578125 C 366.953125 248.597656 367.054688 251.019531 367.054688 251.019531 C 367.054688 251.019531 368.496094 251.683594 369.03125 248.058594 C 370.039062 244.488281 371.007812 242.632812 371.007812 242.632812 L 371.5 245.097656 C 371.5 245.097656 374.15625 242.6875 373.972656 240.65625 C 373.640625 238.578125 374.929688 231.894531 371.5 225.363281 C 367.722656 218.53125 367.054688 217.960938 367.054688 217.960938 C 367.054688 217.960938 371.582031 221.359375 371.996094 222.402344 C 372.613281 223.929688 371.839844 219.304688 370.511719 218.453125 C 369.265625 217.246094 367.980469 216.476562 365.570312 214.015625 C 362.832031 211.335938 361.289062 208.765625 361.125 205.625 " fill-opacity="1" fill-rule="nonzero"/><path fill="#f5f2e6" d="M 52.824219 82.277344 C 56.484375 82.203125 55.710938 82.460938 56.28125 82.277344 C 57.253906 81.945312 61.628906 80.664062 63.199219 79.808594 C 64.71875 78.605469 64.71875 72.4375 72.09375 66.488281 C 72.09375 66.488281 72.953125 65.757812 75.058594 64.511719 C 77.582031 63.1875 77.035156 64.019531 77.035156 64.019531 C 77.035156 64.019531 76.554688 64.472656 79.011719 63.527344 C 81.703125 62.417969 83.457031 62.539062 83.457031 62.539062 C 83.457031 62.539062 82.476562 63.957031 83.457031 63.527344 C 84.019531 63.441406 82.730469 62.929688 85.433594 63.03125 C 88.390625 62.929688 89.878906 63.527344 89.878906 63.527344 C 89.878906 63.527344 89.679688 64.214844 90.867188 64.511719 C 92.25 64.730469 93.539062 65.242188 93.339844 65.992188 C 93.539062 66.785156 91.855469 67.472656 91.855469 67.472656 L 91.363281 67.96875 C 91.363281 67.96875 90.707031 68.582031 90.867188 69.445312 C 91.222656 70.125 90.867188 71.914062 90.867188 71.914062 L 91.855469 73.394531 L 91.363281 75.863281 L 89.878906 76.355469 C 89.878906 76.355469 89.9375 77.835938 89.878906 78.820312 C 89.421875 79.375 84.53125 82.460938 84.445312 83.261719 C 84.019531 84.515625 81.976562 84.25 81.976562 84.25 L 80.492188 86.222656 L 78.023438 85.234375 L 72.09375 88.195312 L 71.105469 87.703125 L 69.621094 87.703125 L 66.660156 88.195312 L 65.671875 87.210938 C 65.671875 87.210938 64.203125 86.058594 62.707031 85.234375 C 61.628906 84.515625 63.945312 86.828125 64.1875 88.195312 C 64.460938 89.398438 63.199219 88.195312 63.199219 88.195312 L 61.222656 86.714844 C 61.222656 86.714844 62.402344 89.144531 62.210938 89.675781 C 61.886719 90.683594 60.730469 90.171875 60.730469 90.171875 C 60.730469 90.171875 58.542969 86.828125 57.765625 86.714844 C 57 86.316406 58.027344 89.144531 58.257812 89.675781 C 58.027344 90.683594 56.28125 90.664062 56.28125 90.664062 " fill-opacity="1" fill-rule="nonzero"/><g clip-path="url(#bc6ea295ec)"><path stroke-linecap="butt" transform="matrix(0.494071, 0, 0, -0.493404, -4.117255, 315.285507)" fill="none" stroke-linejoin="miter" d="M 115.249538 472.246437 C 122.657694 472.396859 121.092256 471.87434 122.246569 472.246437 C 124.215225 472.919377 133.070225 475.516135 136.248537 477.249945 C 139.324068 479.688364 139.324068 492.189219 154.251067 504.246725 C 154.251067 504.246725 155.990442 505.727194 160.251911 508.252699 C 165.359348 510.936543 164.252473 509.250234 164.252473 509.250234 C 164.252473 509.250234 163.280005 508.331869 168.253036 510.247769 C 173.700442 512.496181 177.250348 512.250756 177.250348 512.250756 C 177.250348 512.250756 175.265879 509.376905 177.250348 510.247769 C 178.388848 510.421942 175.779785 511.459062 181.25091 511.253221 C 187.235941 511.459062 190.248222 510.247769 190.248222 510.247769 C 190.248222 510.247769 189.845003 508.854387 192.248503 508.252699 C 195.047316 507.80935 197.656378 506.772231 197.253159 505.252177 C 197.656378 503.645038 194.248784 502.251655 194.248784 502.251655 L 193.252597 501.246204 C 193.252597 501.246204 191.924347 500.003243 192.248503 498.253599 C 192.967972 496.87605 192.248503 493.25009 192.248503 493.25009 L 194.248784 490.249568 L 193.252597 485.246059 L 190.248222 484.248524 C 190.248222 484.248524 190.366816 481.248002 190.248222 479.252932 C 189.323191 478.128726 179.424566 471.87434 179.250629 470.251367 C 178.388848 467.710028 174.253879 468.24838 174.253879 468.24838 L 171.249504 464.250323 L 166.252754 466.25331 L 154.251067 460.252266 L 152.250786 461.249801 L 149.246411 461.249801 L 143.253474 460.252266 L 141.253193 462.247336 C 141.253193 462.247336 138.280443 464.582835 135.25235 466.25331 C 133.070225 467.710028 137.758631 463.023197 138.248818 460.252266 C 138.802256 457.813847 136.248537 460.252266 136.248537 460.252266 L 132.247975 463.252788 C 132.247975 463.252788 134.635662 458.328449 134.248256 457.251744 C 133.592037 455.209173 131.251787 456.246292 131.251787 456.246292 C 131.251787 456.246292 126.824287 463.023197 125.250944 463.252788 C 123.701319 464.060316 125.780662 458.328449 126.247131 457.251744 C 125.780662 455.209173 122.246569 455.248757 122.246569 455.248757 " stroke="#000000" stroke-width="2.083" stroke-opacity="1" stroke-miterlimit="4"/></g><path fill="#000000" d="M 281.085938 290.492188 C 281.085938 290.492188 274.441406 297.296875 274.664062 298.878906 C 274.441406 300.382812 278.558594 300.894531 282.074219 301.347656 C 285.765625 301.921875 288.851562 299.867188 290.472656 299.375 C 291.941406 298.839844 293.929688 297.894531 293.929688 297.894531 C 294 295.242188 293.4375 292.960938 293.4375 292.960938 L 290.964844 294.4375 L 289.980469 292.464844 L 285.53125 294.4375 L 284.050781 292.464844 L 282.566406 289.011719 L 281.085938 290.492188 " fill-opacity="1" fill-rule="nonzero"/><path fill="#000000" d="M 165.472656 297.894531 C 165.472656 297.894531 167.90625 297.808594 169.917969 296.90625 C 172.023438 295.753906 171.402344 293.453125 171.402344 293.453125 L 171.894531 299.375 L 170.90625 301.347656 C 165.847656 305.519531 160.53125 304.800781 160.53125 304.800781 C 160.53125 304.800781 150.921875 307.0625 148.179688 304.308594 C 146.496094 302.640625 155.589844 290.492188 155.589844 290.492188 L 156.085938 294.933594 L 158.554688 294.933594 L 158.554688 296.414062 L 161.519531 296.90625 L 163.992188 298.386719 L 165.472656 297.894531 " fill-opacity="1" fill-rule="nonzero"/><path fill="#000000" d="M 129.40625 305.789062 L 131.382812 306.773438 C 128.792969 310.144531 122.914062 311.300781 120.019531 311.214844 C 117.171875 311.046875 107.179688 312.714844 106.183594 310.722656 C 105.117188 308.601562 112.453125 305.90625 111.617188 303.8125 C 110.933594 301.351562 108.722656 307.0625 106.679688 308.253906 C 104.605469 309.117188 104.207031 307.761719 104.207031 307.761719 C 104.207031 307.761719 106.148438 305.519531 108.160156 302.332031 C 109.917969 299.871094 112.605469 296.90625 112.605469 296.90625 L 114.089844 299.867188 L 116.558594 299.375 L 116.558594 302.332031 L 120.019531 303.320312 L 122.488281 302.332031 C 122.488281 302.332031 126.734375 307.0625 129.40625 305.789062 " fill-opacity="1" fill-rule="nonzero"/><path fill="#000000" d="M 322.09375 303.8125 L 318.140625 302.828125 L 317.152344 301.347656 L 315.671875 300.359375 L 313.695312 297.398438 L 311.222656 298.386719 L 310.234375 296.414062 C 310.234375 296.414062 302.746094 304.492188 302.824219 307.761719 C 302.746094 310.660156 305.789062 307.269531 305.789062 307.269531 L 309.246094 303.8125 L 306.28125 309.734375 C 306.28125 309.734375 311.863281 310.449219 314.683594 310.722656 C 317.671875 311.175781 321.105469 309.734375 321.105469 309.734375 C 323.335938 307.0625 322.09375 303.8125 322.09375 303.8125 " fill-opacity="1" fill-rule="nonzero"/><g clip-path="url(#095bd843b8)"><path stroke-linecap="butt" transform="matrix(0.494071, 0, 0, -0.493404, -4.117255, 315.285507)" fill="none" stroke-linejoin="miter" d="M 660.251046 23.252777 L 652.249921 25.247847 L 650.24964 28.248369 L 647.253171 30.251356 L 643.252609 36.252399 L 638.247953 34.249412 L 636.247672 38.247469 C 636.247672 38.247469 621.091391 21.875228 621.249516 15.248746 C 621.091391 9.374373 627.25036 16.246281 627.25036 16.246281 L 634.24739 23.252777 L 628.246547 11.250689 C 628.246547 11.250689 639.544578 9.801888 645.25289 9.247702 C 651.301171 8.329337 658.250764 11.250689 658.250764 11.250689 C 662.765233 16.665879 660.251046 23.252777 660.251046 23.252777 " stroke="#000000" stroke-width="2.083" stroke-opacity="1" stroke-miterlimit="4"/></g><path fill="#000000" d="M 349.265625 182.4375 C 361.714844 156.5 362.117188 118.40625 360.628906 110.894531 C 356.914062 95.308594 356.914062 93.253906 305.789062 94.117188 C 300.242188 94.394531 295.503906 95.085938 291.460938 95.597656 L 291.460938 98.066406 C 291.460938 98.066406 289.878906 104.5625 291.953125 106.453125 C 294 108.671875 294.511719 111.757812 292.941406 112.375 C 291.425781 112.785156 289.367188 114.324219 291.953125 117.308594 C 294.511719 120.492188 297.085938 125.117188 292.941406 125.203125 C 288.851562 125.117188 286.277344 124.605469 287.507812 123.226562 C 288.335938 121.523438 288.335938 119.980469 287.015625 119.773438 C 285.25 119.980469 285.765625 114.839844 284.050781 117.800781 C 282.675781 121.007812 282.160156 122.035156 280.589844 120.269531 C 279.074219 118.953125 276.640625 119.773438 276.640625 119.773438 C 276.640625 119.773438 269.296875 127.175781 272.191406 134.578125 C 275.472656 141.566406 277.527344 140.539062 276.640625 146.910156 C 275.472656 152.871094 278.558594 151.332031 282.566406 153.820312 C 286.792969 156.472656 289.878906 152.359375 293.4375 151.84375 C 297.085938 151.332031 299.660156 150.304688 299.367188 155.300781 C 298.628906 160.582031 295.542969 168.292969 299.859375 171.582031 C 303.777344 174.460938 310.46875 177.03125 314.683594 175.527344 C 318.703125 173.945312 318.527344 166.367188 324.5625 174.046875 C 329.511719 180.625 328.480469 178.570312 332.46875 180.464844 C 336.714844 182.683594 335.925781 179.96875 335.925781 179.96875 L 337.902344 179.476562 L 339.878906 183.421875 L 344.820312 183.421875 L 349.265625 182.4375 " fill-opacity="1" fill-rule="nonzero"/><path fill="#000000" d="M 115.570312 204.144531 C 116.789062 200.828125 118.5 188.851562 127.921875 189.835938 C 137.027344 190.90625 145.261719 188.851562 147.191406 185.890625 C 149.378906 182.683594 154.269531 168.292969 153.613281 166.152344 C 152.726562 164.179688 150.4375 156.429688 152.625 146.910156 C 153.421875 143.101562 157.566406 140.496094 157.566406 140.496094 C 157.566406 140.496094 168.660156 131.4375 170.414062 126.683594 C 172.433594 122.539062 180.421875 122.71875 181.777344 123.226562 C 183.863281 123.578125 185.921875 122.035156 185.730469 120.269531 C 185.921875 118.953125 181.289062 116.898438 185.234375 113.851562 C 189.523438 110.730469 192.097656 106.617188 193.632812 105.464844 C 195.183594 104.5625 195.644531 101.371094 194.621094 99.542969 C 193.898438 97.878906 193.945312 96.851562 194.128906 96.089844 C 186.597656 94.835938 177.824219 92.636719 177.824219 92.636719 C 177.824219 92.636719 151.179688 86.828125 127.429688 87.703125 C 124.207031 87.695312 121.085938 87.546875 118.042969 87.210938 C 120.042969 91.199219 122.617188 99.679688 120.511719 105.464844 C 116.601562 116.953125 112.324219 125.117188 112.113281 133.589844 C 112.324219 137.453125 114.03125 140.601562 114.089844 143.457031 C 113.609375 147.734375 107.433594 149.53125 110.136719 152.832031 C 113.09375 156.214844 110.652344 187.050781 109.148438 189.835938 C 107.820312 192.707031 100.75 192.304688 100.75 192.304688 C 98.425781 192.320312 93.339844 191.316406 93.339844 191.316406 C 95.429688 197.367188 99.113281 205.804688 104.703125 211.546875 C 108.851562 210.566406 114.640625 206.195312 115.570312 204.144531 " fill-opacity="1" fill-rule="nonzero"/><path fill="#000000" d="M 247.984375 142.964844 C 242.53125 138.484375 233.269531 153.386719 221.796875 156.285156 C 210.625 159.554688 199.300781 148.761719 196.105469 143.949219 C 193.125 139.511719 198.273438 136.941406 184.742188 140.992188 C 184.742188 140.992188 174.597656 145.679688 172.390625 148.886719 C 170.480469 151.84375 165.847656 152.871094 171.402344 156.285156 C 177.171875 160.070312 175.625 161.097656 175.847656 168.128906 C 175.625 175.488281 171.507812 182.167969 171.402344 185.398438 C 171.507812 188.335938 177.171875 213.519531 183.753906 216.480469 C 184.132812 216.730469 184.414062 216.917969 184.742188 216.976562 C 195.492188 217.402344 215.089844 219.058594 222.785156 220.921875 C 232.191406 222.65625 231.820312 219.570312 243.535156 217.960938 C 244.503906 215.445312 245.496094 212.605469 246.007812 209.574219 C 248.707031 196.558594 247.679688 190.90625 245.019531 185.398438 C 242.53125 179.597656 246.648438 175.488281 249.464844 173.0625 C 251.796875 170.347656 253.855469 147.734375 247.984375 142.964844 " fill-opacity="1" fill-rule="nonzero"/><path fill="#6b575e" d="M 65.671875 80.300781 C 65.671875 80.300781 69.351562 75.265625 70.609375 73.886719 C 71.40625 72.183594 72.953125 71.152344 75.058594 69.941406 C 77.070312 69.097656 76.8125 67.554688 80.988281 67.96875 C 85.046875 68.582031 85.925781 68.460938 85.925781 68.460938 L 80.492188 69.445312 C 80.492188 69.445312 81.960938 69.097656 83.457031 69.445312 C 85.046875 70.125 86.421875 73.394531 86.421875 73.394531 C 86.421875 73.394531 84.789062 71.667969 83.457031 70.925781 C 81.703125 70.640625 85.304688 72.183594 85.433594 74.875 C 85.304688 77.320312 84.9375 78.820312 84.9375 78.820312 C 84.9375 78.820312 84.789062 73.980469 82.960938 72.902344 C 80.671875 71.925781 82.476562 74.496094 82.46875 75.367188 C 82.476562 76.035156 81.703125 73.722656 80 72.902344 C 78.613281 72.183594 82.214844 77.320312 81.480469 78.820312 C 81.1875 80.402344 81.1875 76.808594 79.011719 75.367188 C 77.070312 73.722656 78.613281 76.550781 78.515625 77.339844 C 78.613281 78.089844 77.582031 76.808594 77.035156 75.863281 C 76.554688 75.265625 74.5625 74.875 74.5625 74.875 L 77.035156 78.820312 L 74.070312 75.367188 C 74.070312 75.367188 75.011719 77.578125 75.550781 79.316406 C 76.039062 81.175781 73.574219 75.367188 73.574219 75.367188 L 74.070312 80.796875 L 72.585938 76.847656 L 72.585938 81.78125 L 71.105469 78.820312 L 72.585938 83.261719 L 69.621094 79.316406 L 71.597656 84.742188 L 68.632812 80.300781 L 68.632812 81.289062 L 67.648438 80.796875 L 67.152344 82.277344 L 65.671875 80.300781 " fill-opacity="1" fill-rule="nonzero"/><path stroke-linecap="butt" transform="matrix(0.494071, 0, 0, -0.493404, -4.117255, 315.285507)" fill="none" stroke-linejoin="miter" d="M 66.246602 362.248413 C 66.246602 362.248413 72.136758 366.666068 72.247446 371.249979 C 72.136758 375.00261 71.251259 380.251544 71.251259 380.251544 " stroke="#000000" stroke-width="2.083" stroke-opacity="1" stroke-miterlimit="4"/><path stroke-linecap="butt" transform="matrix(0.494071, 0, 0, -0.493404, -4.117255, 315.285507)" fill="none" stroke-linejoin="miter" d="M 603.246986 223.250623 C 603.246986 223.250623 597.135455 229.16458 596.249955 238.253232 C 595.048205 247.919821 589.845892 251.039097 584.248268 255.250911 " stroke="#000000" stroke-width="2.083" stroke-opacity="1" stroke-miterlimit="4"/><path stroke-linecap="butt" transform="matrix(0.494071, 0, 0, -0.493404, -4.117255, 315.285507)" fill="none" stroke-linejoin="miter" d="M 306.248717 179.248247 C 306.248717 179.248247 313.799186 185.415546 318.250404 191.250334 C 322.140279 197.916401 317.965779 199.3177 318.250404 205.247491 C 317.965779 213.544449 322.140279 235.418966 323.247154 238.253232 C 323.247154 238.253232 337.763028 253.121253 339.249403 265.250012 " stroke="#000000" stroke-width="2.083" stroke-opacity="1" stroke-miterlimit="4"/><path stroke-linecap="butt" transform="matrix(0.494071, 0, 0, -0.493404, -4.117255, 315.285507)" fill="none" stroke-linejoin="miter" d="M 244.247907 190.252799 C 244.247907 190.252799 241.67047 207.290063 232.24622 220.250101 " stroke="#000000" stroke-width="2.083" stroke-opacity="1" stroke-miterlimit="4"/><path stroke-linecap="butt" transform="matrix(0.494071, 0, 0, -0.493404, -4.117255, 315.285507)" fill="none" stroke-linejoin="miter" d="M 258.249875 112.247147 L 258.249875 100.252977 L 265.246906 87.253354 " stroke="#000000" stroke-width="2.083" stroke-opacity="1" stroke-miterlimit="4"/><path stroke-linecap="butt" transform="matrix(0.494071, 0, 0, -0.493404, -4.117255, 315.285507)" fill="none" stroke-linejoin="miter" d="M 281.249156 131.247813 L 279.248875 106.246103 L 273.248031 89.248424 " stroke="#000000" stroke-width="2.083" stroke-opacity="1" stroke-miterlimit="4"/><path stroke-linecap="butt" transform="matrix(0.494071, 0, 0, -0.493404, -4.117255, 315.285507)" fill="none" stroke-linejoin="miter" d="M 306.248717 148.25341 L 306.248717 122.246248 L 317.24631 112.247147 " stroke="#000000" stroke-width="2.083" stroke-opacity="1" stroke-miterlimit="4"/><path stroke-linecap="butt" transform="matrix(0.494071, 0, 0, -0.493404, -4.117255, 315.285507)" fill="none" stroke-linejoin="miter" d="M 613.248391 139.251844 L 606.25136 108.24909 L 610.251923 100.252977 " stroke="#000000" stroke-width="2.083" stroke-opacity="1" stroke-miterlimit="4"/><path stroke-linecap="butt" transform="matrix(0.494071, 0, 0, -0.493404, -4.117255, 315.285507)" fill="none" stroke-linejoin="miter" d="M 631.250922 137.248857 L 623.249797 116.253121 " stroke="#000000" stroke-width="2.083" stroke-opacity="1" stroke-miterlimit="4"/><path stroke-linecap="butt" transform="matrix(0.494071, 0, 0, -0.493404, -4.117255, 315.285507)" fill="none" stroke-linejoin="miter" d="M 660.251046 175.25019 L 665.247795 152.251467 L 665.247795 137.248857 L 658.250764 125.24677 " stroke="#000000" stroke-width="2.083" stroke-opacity="1" stroke-miterlimit="4"/><path stroke-linecap="butt" transform="matrix(0.494071, 0, 0, -0.493404, -4.117255, 315.285507)" fill="none" stroke-linejoin="miter" d="M 90.249976 477.249945 L 97.247007 476.25241 L 98.251101 480.250467 L 104.251945 482.253454 L 106.252226 486.251511 C 106.252226 486.251511 109.636101 489.584545 113.249257 487.249046 C 115.889944 485.420232 120.246288 487.249046 120.246288 487.249046 L 119.2501 490.249568 " stroke="#878289" stroke-width="2.083" stroke-opacity="1" stroke-miterlimit="4"/><path stroke-linecap="round" transform="matrix(0.494071, 0, 0, -0.493404, -4.117255, 315.285507)" fill="none" stroke-linejoin="round" d="M 68.246884 424.253921 C 68.246884 424.253921 64.847196 420.833801 61.249853 417.247425 C 58.593353 414.579415 52.252541 410.248846 52.252541 410.248846 " stroke="#878289" stroke-width="2.083" stroke-opacity="1" stroke-miterlimit="4"/><path stroke-linecap="butt" transform="matrix(0.494071, 0, 0, -0.493404, -4.117255, 315.285507)" fill="none" stroke-linejoin="miter" d="M 202.249909 350.246326 C 202.249909 350.246326 203.388409 342.709395 203.246097 328.253054 C 203.388409 313.543372 205.467753 306.251866 205.246378 295.247314 C 205.467753 283.332313 217.248065 261.251955 217.248065 261.251955 " stroke="#878289" stroke-width="2.083" stroke-opacity="1" stroke-miterlimit="4"/><path stroke-linecap="butt" transform="matrix(0.494071, 0, 0, -0.493404, -4.117255, 315.285507)" fill="none" stroke-linejoin="miter" d="M 569.250112 303.251344 C 569.250112 303.251344 566.925675 291.668855 568.253925 284.250678 C 569.012925 277.085844 573.179518 268.749301 575.250956 264.252477 " stroke="#878289" stroke-width="2.083" stroke-opacity="1" stroke-miterlimit="4"/><path stroke-linecap="butt" transform="matrix(0.494071, 0, 0, -0.493404, -4.117255, 315.285507)" fill="none" stroke-linejoin="miter" d="M 448.252867 423.248469 C 448.252867 423.248469 467.623179 421.530492 492.251147 421.253399 C 517.622302 421.530492 529.426333 414.579415 535.253239 418.252877 C 535.253239 418.252877 548.179957 418.751644 540.249988 406.250789 C 531.513582 393.749934 523.172489 387.503465 513.250146 385.247136 " stroke="#878289" stroke-width="2.083" stroke-opacity="1" stroke-miterlimit="4"/><path stroke-linecap="butt" transform="matrix(0.494071, 0, 0, -0.493404, -4.117255, 315.285507)" fill="none" stroke-linejoin="miter" d="M 617.248954 231.246736 C 617.248954 231.246736 621.091391 214.581569 619.249235 202.24697 C 616.924797 189.579859 621.091391 181.251233 625.250078 173.247203 C 629.424578 164.578149 633.591172 164.578149 640.248234 160.24758 " stroke="#878289" stroke-width="2.083" stroke-opacity="1" stroke-miterlimit="4"/><path stroke-linecap="butt" transform="matrix(0.494071, 0, 0, -0.493404, -4.117255, 315.285507)" fill="none" stroke-linejoin="miter" d="M 141.253193 440.246148 C 141.253193 440.246148 148.179068 438.544005 147.24613 427.246526 C 146.091818 415.624451 148.250224 418.252877 148.250224 418.252877 C 148.250224 418.252877 149.222693 417.706608 149.246411 412.251833 C 149.222693 407.295826 160.678848 397.914247 154.251067 388.247658 C 148.179068 379.166923 146.091818 366.666068 140.249099 364.2514 C 133.592037 362.501755 127.251225 361.250878 127.251225 361.250878 C 127.251225 361.250878 118.752006 359.722908 115.249538 362.248413 " stroke="#878289" stroke-width="2.083" stroke-opacity="1" stroke-miterlimit="4"/><path stroke-linecap="butt" transform="matrix(0.494071, 0, 0, -0.493404, -4.117255, 315.285507)" fill="none" stroke-linejoin="miter" d="M 65.250415 386.252588 C 65.250415 386.252588 71.441009 387.503465 75.251821 389.25311 C 78.390602 391.667778 73.172477 393.749934 80.248571 388.247658 C 87.063758 382.642462 89.151008 365.628948 96.25082 365.248935 C 99.381695 365.628948 106.078288 362.755098 114.25335 362.248413 C 119.898413 361.805064 131.623381 362.612593 140.249099 376.253488 " stroke="#878289" stroke-width="2.083" stroke-opacity="1" stroke-miterlimit="4"/><path stroke-linecap="butt" transform="matrix(0.494071, 0, 0, -0.493404, -4.117255, 315.285507)" fill="none" stroke-linejoin="miter" d="M 444.252305 412.251833 C 444.252305 412.251833 437.065524 404.857407 445.248492 399.252211 C 453.731898 393.749934 459.289992 397.914247 462.246929 393.251167 C 464.840179 389.585622 466.231679 385.421309 477.252991 389.25311 " stroke="#878289" stroke-width="2.083" stroke-opacity="1" stroke-miterlimit="4"/><path stroke-linecap="butt" transform="matrix(0.494071, 0, 0, -0.493404, -4.117255, 315.285507)" fill="none" stroke-linejoin="miter" d="M 684.246513 253.247925 C 684.246513 253.247925 680.119451 240.976661 672.252733 238.253232 C 663.453077 235.418966 660.677983 232.640119 660.251046 227.24868 " stroke="#878289" stroke-width="2.083" stroke-opacity="1" stroke-miterlimit="4"/><path stroke-linecap="butt" transform="matrix(0.494071, 0, 0, -0.493404, -4.117255, 315.285507)" fill="none" stroke-linejoin="miter" d="M 165.248661 412.251833 C 165.248661 412.251833 169.012036 404.857407 167.248942 392.253632 C 166.236942 379.855697 171.787129 384.027927 163.24838 374.250501 C 155.120755 364.583912 149.562661 361.805064 153.246974 356.247369 C 157.895849 350.697591 160.251911 355.249834 160.251911 355.249834 C 160.251911 355.249834 164.845442 364.583912 166.252754 360.253343 C 167.620536 356.247369 163.453942 345.139897 167.248942 339.24969 C 171.787129 334.024507 178.736723 335.417889 177.250348 330.248124 " stroke="#878289" stroke-width="2.083" stroke-opacity="1" stroke-miterlimit="4"/><path fill="#000000" d="M 12.3125 131.121094 C 13.253906 131.285156 15.3125 130.515625 15.273438 128.65625 C 14.796875 126.917969 14.796875 125.375 13.792969 127.175781 C 12.738281 128.972656 11.707031 130.773438 10.335938 131.617188 C 9.136719 132.316406 7.59375 131.285156 6.875 132.109375 C 6.046875 133.34375 6.449219 132.902344 7.863281 133.589844 C 9.390625 134.371094 14.285156 132.109375 14.285156 132.109375 C 14.285156 132.109375 13.253906 131.800781 12.3125 132.109375 C 11.707031 132.316406 12.3125 131.121094 12.3125 131.121094 " fill-opacity="1" fill-rule="nonzero"/><path fill="#000000" d="M 43.929688 96.089844 L 43.4375 96.089844 L 43.929688 97.570312 L 41.953125 96.089844 L 42.941406 97.570312 L 40.964844 97.078125 L 41.460938 97.570312 L 40.964844 97.570312 L 39.980469 97.078125 L 40.472656 98.066406 L 39.484375 97.570312 L 39.980469 98.558594 C 39.980469 98.558594 38.472656 97.109375 37.507812 97.570312 C 37.507812 97.570312 38.800781 96.816406 39.484375 96.089844 C 39.671875 95.621094 41.503906 95.300781 42.941406 95.105469 C 43.113281 95.121094 43.203125 95.117188 43.4375 95.105469 C 43.546875 95.085938 43.785156 95.066406 43.929688 95.105469 C 45.097656 95.027344 46.027344 95.019531 46.402344 95.105469 C 46.402344 95.105469 39.5 92.484375 37.015625 97.570312 C 35.890625 99.875 36.027344 101.023438 36.027344 101.023438 C 35.832031 101.011719 35.808594 101.0625 35.53125 101.023438 C 35.507812 100.589844 35.171875 99.785156 35.039062 99.050781 C 35.382812 98.519531 34.867188 98.78125 35.53125 97.078125 C 36.410156 94.925781 37.015625 94.609375 37.015625 94.609375 C 37.015625 94.609375 35.382812 95.4375 35.039062 97.078125 C 34.867188 98.519531 34.480469 100.835938 35.039062 101.519531 C 35.511719 102.375 36.027344 101.519531 36.027344 101.519531 C 36.542969 101.347656 37.015625 101.519531 37.015625 101.519531 C 37.742188 101.90625 38.390625 102.492188 41.460938 102.011719 C 42.464844 101.984375 44.1875 100.617188 44.425781 99.542969 C 44.761719 100.300781 44.644531 101.089844 44.425781 101.519531 C 42.910156 103.363281 40.078125 103.132812 38.992188 103 C 37.277344 102.667969 35.898438 102.324219 36.027344 102.503906 C 36.027344 102.503906 36.398438 102.949219 38.003906 103 C 37.929688 103.203125 42.933594 103.882812 44.917969 101.519531 C 47.347656 98.78125 45.546875 97.109375 43.929688 96.089844 " fill-opacity="1" fill-rule="nonzero"/><path fill="#e3dbe3" d="M 37.507812 100.039062 C 37.507812 100.039062 37.957031 101.863281 41.460938 101.519531 C 41.460938 101.519531 38.472656 102.503906 37.507812 100.53125 L 37.015625 100.039062 L 36.519531 101.023438 L 37.507812 99.050781 L 37.507812 100.039062 " fill-opacity="1" fill-rule="nonzero"/><path fill="#ffffff" d="M 40.472656 98.558594 L 40.964844 99.050781 L 41.460938 98.558594 L 40.472656 98.558594 " fill-opacity="1" fill-rule="nonzero"/><path fill="#f8c9cf" d="M 296.402344 214.015625 C 296.402344 214.015625 297.214844 210.4375 294.425781 206.613281 C 294.425781 206.613281 291.023438 202.542969 283.554688 201.679688 C 277.015625 200.929688 267.878906 206.710938 265.769531 208.585938 C 263.761719 210.050781 247.488281 217.46875 247.488281 217.46875 C 249.234375 218.308594 251.089844 219.253906 252.921875 219.933594 C 253.558594 221.140625 254.78125 223.902344 254.40625 226.347656 C 253.855469 229.453125 253.339844 231.253906 254.40625 231.777344 C 255.398438 232.792969 256.945312 232.539062 257.371094 230.296875 C 257.972656 228.425781 257.457031 225.855469 257.863281 224.375 C 258.382812 223.089844 259.089844 222.53125 259.347656 222.402344 C 259.347656 222.402344 262.605469 222.257812 261.816406 224.871094 C 260.542969 227.398438 261.816406 231.285156 261.816406 231.285156 C 261.816406 231.285156 264.148438 234.59375 264.285156 232.765625 C 264.148438 230.480469 266.207031 226.882812 266.261719 224.871094 C 266.207031 222.773438 271.195312 220.804688 271.203125 223.882812 C 271.09375 224.339844 271.113281 225.238281 270.710938 226.84375 C 270.324219 229.96875 270.214844 231.777344 270.214844 231.777344 C 270.214844 231.777344 271.351562 235.105469 272.6875 232.765625 C 274.441406 229.96875 273.925781 229.453125 274.167969 227.828125 C 273.925781 226.601562 275.40625 223.820312 275.652344 222.894531 C 276.664062 222.847656 277.5 222.660156 278.121094 222.402344 C 279.027344 222.613281 279.585938 223.101562 279.601562 224.375 C 279.585938 227.398438 281.085938 229.804688 281.085938 229.804688 C 281.085938 229.804688 283.191406 231.507812 283.554688 229.308594 C 284.21875 227.398438 283.703125 225.339844 284.050781 223.882812 C 284.734375 222.257812 286.519531 220.429688 286.519531 220.429688 C 286.519531 220.429688 293.953125 217.378906 296.402344 214.015625 " fill-opacity="1" fill-rule="nonzero"/><path stroke-linecap="butt" transform="matrix(0.494071, 0, 0, -0.493404, -4.117255, 315.285507)" fill="none" stroke-linejoin="miter" d="M 608.251642 205.247491 C 608.251642 205.247491 609.896142 212.499412 604.251079 220.250101 C 604.251079 220.250101 597.364736 228.499557 582.247986 230.249201 C 569.012925 231.769255 550.520207 220.052177 546.250832 216.252044 C 542.187019 213.28319 509.249583 198.248913 509.249583 198.248913 C 512.783677 196.54677 516.539146 194.630869 520.247177 193.253321 C 521.535895 190.806985 524.010551 185.209706 523.251552 180.253698 C 522.13677 173.959728 521.093145 170.310016 523.251552 169.249146 C 525.259739 167.19074 528.390614 167.705342 529.252395 172.249668 C 530.469957 176.041884 529.426333 181.251233 530.248582 184.251755 C 531.300114 186.85643 532.731145 187.988553 533.252957 188.249812 C 533.252957 188.249812 539.84677 188.542739 538.249707 183.246303 C 535.67227 178.12404 538.249707 170.246681 538.249707 170.246681 C 538.249707 170.246681 542.969738 163.541029 543.246457 167.246159 C 542.969738 171.877571 547.136332 179.169077 547.247019 183.246303 C 547.136332 187.497702 557.232613 191.487842 557.248425 185.24929 C 557.02705 184.323008 557.066581 182.502111 556.252238 179.248247 C 555.469519 172.914691 555.248144 169.249146 555.248144 169.249146 C 555.248144 169.249146 557.548863 162.503909 560.2528 167.246159 C 563.802706 172.914691 562.759081 173.959728 563.249269 177.253177 C 562.759081 179.739097 565.75555 185.375961 566.253643 187.252277 C 568.301362 187.34728 569.9933 187.727294 571.250393 188.249812 C 573.084643 187.822297 574.215237 186.832679 574.246862 184.251755 C 574.215237 178.12404 577.251237 173.247203 577.251237 173.247203 C 577.251237 173.247203 581.512705 169.795415 582.247986 174.252655 C 583.592049 178.12404 582.548424 182.29627 583.25208 185.24929 C 584.635674 188.542739 588.24883 192.247869 588.24883 192.247869 C 588.24883 192.247869 603.294423 198.431002 608.251642 205.247491 Z M 608.251642 205.247491 " stroke="#000000" stroke-width="2.083" stroke-opacity="1" stroke-miterlimit="4"/></svg>