<svg xmlns="http://www.w3.org/2000/svg" xmlns:xlink="http://www.w3.org/1999/xlink" width="500" zoomAndPan="magnify" viewBox="0 0 375 374.999991" height="500" preserveAspectRatio="xMidYMid meet" version="1.0"><defs><clipPath id="c3e7908bf1"><path d="M 261 281 L 332.390625 281 L 332.390625 364 L 261 364 Z M 261 281 " clip-rule="nonzero"/></clipPath><clipPath id="6efe6207d7"><path d="M 42.890625 327 L 97 327 L 97 372 L 42.890625 372 Z M 42.890625 327 " clip-rule="nonzero"/></clipPath></defs><path fill="#ffa856" d="M 44.171875 370.328125 C 46.261719 369.828125 48.355469 369.347656 50.449219 368.878906 C 63.160156 366.046875 75.984375 363.804688 88.921875 362.160156 C 93.757812 361.539062 98.605469 361.003906 103.464844 360.546875 C 119.355469 359.054688 139.390625 360.875 152.914062 350.917969 C 164.300781 342.535156 170.03125 324.335938 160.796875 311.910156 C 151.125 298.898438 134.976562 301.71875 121.679688 304.664062 C 107.535156 307.800781 94.976562 318.574219 83.375 327.878906 C 81.550781 329.34375 79.75 330.769531 77.96875 332.125 C 64.480469 342.402344 51.691406 353.746094 44.503906 369.589844 C 44.394531 369.835938 44.28125 370.082031 44.171875 370.328125 Z M 44.171875 370.328125 " fill-opacity="1" fill-rule="nonzero"/><g clip-path="url(#c3e7908bf1)"><path fill="#ffa856" d="M 262.726562 321.773438 C 264.574219 327.542969 267.949219 332.695312 271.53125 337.585938 C 276.070312 343.789062 280.980469 349.683594 286.265625 355.265625 C 287.785156 356.960938 289.457031 358.492188 291.277344 359.859375 C 297.761719 364.46875 306.457031 364.65625 314.253906 363.046875 C 317.472656 362.476562 320.503906 361.390625 323.355469 359.789062 C 324.574219 359.0625 325.695312 358.203125 326.710938 357.210938 C 327.726562 356.21875 328.613281 355.121094 329.367188 353.917969 C 330.121094 352.714844 330.726562 351.441406 331.175781 350.09375 C 331.628906 348.746094 331.917969 347.367188 332.039062 345.953125 C 332.121094 344.621094 332.035156 343.304688 331.78125 341.996094 C 331.527344 340.6875 331.113281 339.429688 330.535156 338.230469 C 329.960938 337.027344 329.246094 335.914062 328.386719 334.894531 C 327.527344 333.875 326.554688 332.980469 325.46875 332.207031 C 325.183594 332.015625 324.890625 331.832031 324.589844 331.660156 C 320.972656 329.585938 316.574219 329.160156 313.027344 326.964844 C 310.671875 325.382812 308.738281 323.394531 307.226562 320.996094 C 306.507812 319.945312 305.832031 318.859375 305.167969 317.785156 C 301.886719 312.808594 299.117188 307.5625 296.859375 302.046875 C 295.035156 297.207031 294.984375 292.652344 294.265625 287.65625 C 292.636719 276.285156 277.355469 281.992188 271.933594 286.980469 C 270.785156 288.066406 269.71875 289.230469 268.730469 290.464844 C 267.742188 291.703125 266.84375 293 266.039062 294.359375 C 265.230469 295.722656 264.519531 297.132812 263.910156 298.589844 C 263.296875 300.046875 262.789062 301.542969 262.382812 303.070312 C 261.980469 304.601562 261.683594 306.148438 261.492188 307.71875 C 261.304688 309.289062 261.222656 310.863281 261.253906 312.445312 C 261.28125 314.027344 261.417969 315.597656 261.667969 317.160156 C 261.914062 318.722656 262.265625 320.261719 262.726562 321.773438 Z M 262.726562 321.773438 " fill-opacity="1" fill-rule="nonzero"/></g><path fill="#ffa856" d="M 130.996094 255.753906 C 127.34375 282.230469 129.785156 310.359375 132.382812 337.328125 C 132.972656 343.457031 133.703125 350.050781 136.054688 354.164062 C 138.214844 357.9375 141.257812 358.757812 144.113281 359.367188 C 167.738281 364.453125 191.601562 366.101562 215.703125 364.316406 C 219.589844 364.027344 223.929688 363.226562 226.476562 357.375 C 227.175781 355.761719 227.726562 353.789062 228.648438 352.710938 C 228.957031 352.347656 229.332031 352.078125 229.777344 351.90625 C 230.222656 351.730469 230.683594 351.675781 231.15625 351.738281 C 236.351562 352.140625 241.152344 360.242188 246.246094 358.160156 C 249.960938 356.636719 252.621094 349.996094 254.183594 343.101562 C 255.75 336.210938 256.554688 328.664062 258.371094 322.023438 C 261.410156 310.914062 266.953125 303.417969 270.644531 293.113281 C 276.128906 277.796875 277.007812 257.957031 277.582031 239.171875 C 277.90625 234.058594 277.722656 228.964844 277.035156 223.886719 C 276.035156 218.105469 273.765625 213.601562 271.542969 209.382812 C 263.683594 194.460938 254.890625 179.710938 244.203125 175.929688 C 238.859375 174.042969 233.382812 175.042969 227.980469 176.050781 C 207.355469 179.898438 186.070312 183.332031 166.332031 196.761719 C 150.675781 207.417969 135.761719 221.203125 130.996094 255.753906 Z M 130.996094 255.753906 " fill-opacity="1" fill-rule="nonzero"/><path fill="#ffddbd" d="M 284.539062 373.628906 C 278.457031 373.628906 277.460938 374.945312 268.027344 373.75 C 254.203125 372 252.144531 366.128906 250.121094 361.515625 C 241.863281 342.691406 236.523438 309.207031 240.378906 288.976562 C 245.53125 261.941406 280.007812 193.898438 300.238281 212.917969 C 305.558594 217.921875 296.792969 270.214844 293.050781 288.933594 C 290.429688 302.0625 288.742188 313.9375 285.160156 326.917969 C 284.027344 330.785156 283.164062 334.710938 282.574219 338.699219 C 281.984375 343.40625 282.746094 344.816406 283.519531 345.5625 C 285.871094 347.839844 292.214844 347.15625 293.890625 349.296875 C 293.988281 349.417969 294.070312 349.550781 294.132812 349.695312 C 301.527344 366.179688 296.425781 373.628906 284.539062 373.628906 Z M 284.539062 373.628906 " fill-opacity="1" fill-rule="nonzero"/><path fill="#e2d2bb" d="M 291.246094 349.851562 C 290.195312 349.789062 289.140625 349.800781 288.089844 349.886719 C 285.460938 350.195312 282.855469 350.644531 280.273438 351.230469 C 275.671875 352.199219 271.066406 353.164062 266.460938 354.132812 C 266.269531 353.449219 266.25 352.761719 266.40625 352.070312 C 266.566406 351.375 266.878906 350.761719 267.347656 350.230469 C 268.324219 349.097656 269.445312 348.132812 270.707031 347.328125 C 272.167969 346.292969 273.625 345.257812 275.085938 344.226562 C 276.976562 342.886719 281.171875 345.886719 281.871094 346.546875 C 283.996094 348.5625 289.730469 347.957031 291.246094 349.851562 Z M 291.246094 349.851562 " fill-opacity="1" fill-rule="nonzero"/><path fill="#ffa856" d="M 292.152344 14.644531 C 318.828125 5.160156 324.628906 18.589844 314.238281 42.28125 C 305.933594 61.21875 308.410156 79.128906 284.199219 79.246094 C 258.753906 79.367188 254.617188 67.472656 257.003906 53.925781 C 261.042969 30.96875 270.207031 22.449219 292.152344 14.644531 Z M 292.152344 14.644531 " fill-opacity="1" fill-rule="nonzero"/><path fill="#ffddbd" d="M 264.378906 43.417969 C 269.652344 39.148438 299.691406 14.34375 313.835938 21.773438 C 323.21875 26.707031 301.660156 68.203125 295.699219 73.800781 C 291.769531 77.488281 276.542969 74.722656 270.476562 70.941406 C 261.070312 65.070312 260.410156 46.628906 264.378906 43.417969 Z M 264.378906 43.417969 " fill-opacity="1" fill-rule="nonzero"/><path fill="#ffa856" d="M 136.191406 37.355469 C 140.96875 55.472656 137.132812 71.386719 154.148438 77.085938 C 156.113281 74.980469 186.878906 44.566406 187.460938 44.246094 C 188.082031 43.902344 188.703125 43.570312 189.332031 43.25 C 186.132812 29.683594 177.925781 21.945312 162.292969 13.46875 C 137.40625 -0.0234375 129.59375 12.34375 136.191406 37.355469 Z M 136.191406 37.355469 " fill-opacity="1" fill-rule="nonzero"/><path fill="#ffddbd" d="M 153.460938 63.90625 C 154.578125 65.335938 157.765625 67.824219 161.757812 70.386719 C 168.882812 63.070312 180.183594 54.964844 185.601562 49.867188 C 183.183594 44.042969 179.902344 38.757812 175.753906 34.003906 C 171.203125 28.972656 149.417969 9.542969 142.054688 17.523438 C 134.863281 25.3125 148.4375 57.453125 153.460938 63.90625 Z M 153.460938 63.90625 " fill-opacity="1" fill-rule="nonzero"/><path fill="#ffddbd" d="M 158.058594 373.117188 C 164.144531 373.117188 162.125 373.246094 171.628906 373.441406 C 183.324219 373.679688 189.445312 367.824219 190.726562 362.953125 C 196.578125 340.738281 204.824219 314.960938 200.96875 294.730469 C 195.816406 267.695312 202.9375 200.597656 182.710938 219.617188 C 177.386719 224.625 155.148438 201.070312 155.148438 201.070312 C 143.71875 224.75 142.433594 258.832031 146.011719 271.8125 C 147.484375 277.140625 156.4375 339.855469 155.5 340.386719 C 137.359375 350.675781 146.175781 373.117188 158.058594 373.117188 Z M 158.058594 373.117188 " fill-opacity="1" fill-rule="nonzero"/><path fill="#ffa856" d="M 146.011719 156.621094 C 150.621094 154.824219 152.863281 150.078125 157.136719 148.558594 C 157.375 147.246094 153.351562 141.324219 153.507812 140.957031 C 155.207031 137.050781 150.746094 143.980469 149.179688 139.554688 C 147.910156 135.976562 145.640625 129.699219 146.722656 123.769531 C 143.941406 121.335938 139.347656 128.097656 140.988281 124.121094 C 142.285156 120.972656 140.699219 114.859375 141.570312 110.675781 C 136.308594 113.1875 136.007812 107.628906 144.699219 90.433594 C 147.761719 85.273438 151.207031 80.378906 155.027344 75.746094 C 164.417969 61.714844 180.734375 46.25 192.714844 40.902344 C 202.433594 36.5625 216.351562 35.96875 224.023438 35.351562 C 225.835938 35.203125 227.515625 35.148438 229.03125 35.160156 C 231.441406 35.175781 233.820312 35.292969 236.128906 35.492188 C 245.976562 36.34375 254.675781 38.726562 260.121094 41.667969 C 285.214844 55.226562 302.335938 83.179688 303.585938 85.378906 C 316.832031 108.648438 310.96875 111.972656 305.226562 107.402344 C 306.53125 115.734375 305.046875 122.925781 308.164062 128.445312 C 308.5625 129.152344 306.683594 131.054688 304.132812 133.3125 C 303.941406 135.710938 305.050781 137.847656 304.484375 139.4375 C 303.851562 141.222656 298.832031 139.375 296.996094 137.449219 C 295.863281 138.425781 289.003906 150.304688 289.269531 152.535156 C 293.835938 152.652344 293.636719 156.039062 303.378906 158.941406 C 314.605469 162.289062 311.777344 199.4375 304.769531 219.664062 C 291.101562 259.128906 255.238281 292.496094 232.824219 293.234375 C 219.378906 293.675781 224.246094 305.582031 213.527344 301.316406 C 208.722656 301.816406 192.46875 287.757812 188.675781 284.183594 C 171.339844 267.839844 151.183594 252.089844 141.898438 221.515625 C 135.539062 200.558594 132.914062 161.730469 146.011719 156.621094 Z M 146.011719 156.621094 " fill-opacity="1" fill-rule="nonzero"/><path fill="#ffddbd" d="M 162.210938 140.117188 C 166.039062 146.667969 180.785156 154.960938 190.089844 160.769531 C 193.613281 162.964844 215.617188 182.066406 231.203125 175.476562 C 246.789062 168.882812 269.695312 160.007812 277.699219 145.109375 C 273.390625 145.039062 275.746094 144.46875 271.539062 143.53125 C 280.011719 140.292969 293.308594 138.09375 277.132812 123.121094 C 264.628906 111.546875 287.757812 101.023438 264.679688 92.644531 C 259.625 90.808594 245.5 82.023438 242.03125 77.917969 C 240.140625 75.679688 235.488281 69.675781 234.507812 66.917969 C 231.464844 58.351562 230.949219 55.109375 230.617188 46.027344 C 230.503906 42.917969 230.988281 39.171875 231.160156 35.492188 C 228.6875 35.292969 226.144531 35.175781 223.566406 35.160156 C 221.953125 35.148438 220.15625 35.203125 218.21875 35.351562 C 216.863281 41.894531 216.066406 48.503906 215.832031 55.183594 C 215.519531 60.671875 215.503906 66.453125 212.738281 71.203125 C 210.796875 74.535156 207.6875 77 204.65625 79.386719 C 199.886719 83.128906 195.0625 86.90625 189.554688 89.449219 C 184.238281 91.90625 178.019531 93.425781 174.550781 98.140625 C 171.683594 102.042969 171.429688 107.214844 171.285156 112.050781 C 168.1875 111.597656 165.339844 114.304688 164.503906 117.316406 C 163.667969 120.328125 164.320312 123.53125 164.980469 126.589844 C 166.167969 132.128906 167.355469 137.667969 168.546875 143.207031 C 166.269531 142.519531 164.15625 141.488281 162.210938 140.117188 Z M 162.210938 140.117188 " fill-opacity="1" fill-rule="nonzero"/><path fill="#ffddbd" d="M 159.910156 196.691406 C 160.003906 189.820312 159.992188 183.175781 164.75 177.960938 C 168.203125 174.175781 172.890625 172.023438 178.003906 170.808594 C 178.34375 170.421875 178.6875 170.050781 179.042969 169.703125 C 185.074219 163.792969 204.496094 160.394531 209.40625 163.132812 C 213.875 163.214844 240.6875 162.398438 245.148438 162.042969 C 249.878906 159.011719 266.046875 160.238281 272.425781 165.769531 C 272.804688 166.097656 273.171875 166.445312 273.53125 166.808594 C 278.710938 167.710938 283.519531 169.574219 287.199219 173.140625 C 292.265625 178.058594 294.054688 185.238281 294.566406 192.09375 C 295.535156 205.074219 287.734375 224.46875 284.1875 212.117188 C 283.460938 209.589844 281.804688 217.058594 277.367188 226.871094 C 275.433594 237.796875 272.671875 248.261719 267.640625 243.355469 C 266.695312 244.5625 265.703125 245.742188 264.648438 246.886719 C 258.375 253.695312 241.5 274.179688 233.816406 280.550781 C 231.921875 279.636719 229.585938 285.152344 226.6875 289.175781 C 223.816406 291.40625 220.882812 279.972656 219.050781 281.003906 C 210.992188 275.109375 192.894531 255.691406 186.21875 249.277344 C 185.097656 248.199219 184.03125 247.082031 183.019531 245.933594 C 178.292969 251.140625 174.898438 240.859375 172.300781 230.074219 C 167.273438 220.550781 164.832031 213.144531 164.59375 215.761719 C 163.804688 224.53125 159.734375 209.707031 159.910156 196.691406 Z M 159.910156 196.691406 " fill-opacity="1" fill-rule="nonzero"/><path fill="#000000" d="M 267.886719 79.265625 C 266.140625 78.277344 264.335938 77.410156 262.472656 76.664062 C 260.757812 75.988281 258.980469 75.597656 257.136719 75.492188 C 255.285156 75.402344 253.449219 75.546875 251.628906 75.921875 C 249.660156 76.269531 247.777344 76.878906 245.976562 77.75 C 246.453125 76.742188 247.128906 75.890625 248.011719 75.207031 C 248.867188 74.507812 249.792969 73.929688 250.792969 73.464844 C 252.867188 72.492188 255.050781 72.070312 257.339844 72.195312 C 258.453125 72.261719 259.539062 72.476562 260.597656 72.832031 C 261.652344 73.1875 262.644531 73.679688 263.574219 74.300781 C 264.5 74.921875 265.328125 75.652344 266.0625 76.496094 C 266.792969 77.339844 267.402344 78.261719 267.886719 79.265625 Z M 267.886719 79.265625 " fill-opacity="1" fill-rule="nonzero"/><path fill="#000000" d="M 202.261719 79.265625 C 200.515625 78.277344 198.710938 77.410156 196.847656 76.664062 C 195.132812 75.988281 193.355469 75.597656 191.515625 75.492188 C 189.660156 75.402344 187.824219 75.546875 186.003906 75.921875 C 184.035156 76.269531 182.152344 76.878906 180.351562 77.75 C 180.828125 76.742188 181.507812 75.890625 182.390625 75.207031 C 183.242188 74.507812 184.167969 73.929688 185.167969 73.464844 C 187.242188 72.492188 189.425781 72.070312 191.714844 72.195312 C 192.828125 72.261719 193.914062 72.476562 194.972656 72.832031 C 196.03125 73.1875 197.023438 73.679688 197.949219 74.300781 C 198.875 74.921875 199.707031 75.652344 200.4375 76.496094 C 201.167969 77.339844 201.777344 78.261719 202.261719 79.265625 Z M 202.261719 79.265625 " fill-opacity="1" fill-rule="nonzero"/><path fill="#000000" d="M 231.3125 79.546875 C 241.265625 84.136719 237.945312 94.011719 232.253906 100.484375 C 227.933594 105.394531 224.273438 108.546875 220.941406 108.648438 C 218.945312 108.707031 217.636719 107.695312 214.789062 105.21875 C 209.191406 100.355469 201.746094 93.03125 205.550781 84.957031 C 209.585938 76.398438 224.140625 76.234375 231.3125 79.546875 Z M 231.3125 79.546875 " fill-opacity="1" fill-rule="nonzero"/><path fill="#ffddbd" d="M 213.148438 86.886719 C 212.746094 87.339844 212.414062 87.851562 212.035156 88.324219 C 211.851562 88.558594 211.59375 88.800781 211.300781 88.742188 C 210.976562 88.675781 210.84375 88.28125 210.828125 87.949219 C 210.792969 87.375 210.898438 86.832031 211.136719 86.3125 C 211.390625 85.800781 211.714844 85.335938 212.109375 84.921875 C 212.519531 84.421875 213.011719 84.019531 213.578125 83.707031 C 214.269531 83.371094 217.546875 82.6875 216.714844 84.261719 C 216.402344 84.847656 215.496094 85.097656 214.960938 85.425781 C 214.285156 85.820312 213.679688 86.308594 213.148438 86.886719 Z M 213.148438 86.886719 " fill-opacity="1" fill-rule="nonzero"/><path fill="#000000" d="M 224.949219 113.230469 C 226.449219 115.402344 228.386719 117.070312 230.757812 118.234375 C 231.804688 118.78125 232.882812 119.261719 233.992188 119.671875 C 235.105469 120.082031 236.234375 120.417969 237.386719 120.683594 C 238.542969 120.949219 239.707031 121.140625 240.882812 121.257812 C 242.0625 121.375 243.242188 121.414062 244.425781 121.378906 C 245.609375 121.34375 246.785156 121.234375 247.953125 121.050781 C 249.121094 120.863281 250.273438 120.605469 251.410156 120.273438 C 252.542969 119.941406 253.652344 119.539062 254.738281 119.0625 C 255.820312 118.589844 256.871094 118.046875 257.882812 117.4375 C 259.285156 116.578125 260.90625 115.542969 262.449219 116.109375 C 264.367188 116.816406 264.65625 119.402344 264.363281 121.421875 C 264.082031 123.25 263.609375 125.027344 262.9375 126.75 C 262.261719 128.472656 261.410156 130.101562 260.378906 131.636719 C 259.34375 133.171875 258.15625 134.574219 256.8125 135.847656 C 255.46875 137.121094 254 138.230469 252.410156 139.175781 C 250.941406 140.015625 249.421875 140.75 247.851562 141.378906 C 244.480469 142.769531 241.027344 143.910156 237.492188 144.792969 C 233.957031 145.679688 230.375 146.300781 226.746094 146.664062 C 223.117188 147.023438 219.484375 147.121094 215.839844 146.949219 C 212.199219 146.78125 208.589844 146.347656 205.011719 145.648438 C 197.742188 144.214844 190.5 141.574219 184.996094 136.617188 C 179.492188 131.65625 175.988281 124.070312 177.3125 116.785156 C 177.398438 115.875 177.761719 115.09375 178.394531 114.4375 C 179.660156 113.351562 181.609375 114.027344 183.058594 114.847656 C 186.65625 116.890625 190.003906 119.636719 194.066406 120.425781 C 198.023438 121.195312 202.113281 119.96875 205.765625 118.261719 C 210.835938 115.894531 215.667969 112.308594 217.816406 107.148438 C 220.890625 99.761719 223.574219 111.050781 224.949219 113.230469 Z M 224.949219 113.230469 " fill-opacity="1" fill-rule="nonzero"/><path fill="#ff6e72" d="M 201.5 138.628906 C 198.019531 145.863281 200.96875 152.667969 196.558594 159.574219 C 193.234375 164.78125 183.011719 172.773438 188.394531 179.800781 C 197.550781 191.753906 219.550781 180.824219 228.121094 166.167969 C 231.863281 159.773438 238.527344 147.78125 240.332031 140.75 C 242.722656 131.441406 235.867188 125.585938 226.808594 131.40625 C 221.078125 124.054688 208.40625 124.273438 201.5 138.628906 Z M 201.5 138.628906 " fill-opacity="1" fill-rule="nonzero"/><path fill="#000000" d="M 214.667969 145.558594 C 213.390625 151.652344 212.785156 156.8125 208.597656 161.65625 C 212.976562 162.070312 216.796875 150.46875 218.105469 147.363281 C 221.542969 139.214844 231.792969 129.773438 232 127.964844 C 232.398438 124.445312 231.988281 124.347656 227.710938 125.546875 C 221.609375 127.253906 215.808594 140.121094 214.667969 145.558594 Z M 214.667969 145.558594 " fill-opacity="1" fill-rule="nonzero"/><g clip-path="url(#6efe6207d7)"><path fill="#ffddbd" d="M 42.898438 371.820312 C 44.875 371.414062 48.464844 368.953125 50.449219 368.878906 C 63.160156 366.046875 75.984375 363.804688 88.921875 362.160156 C 87.625 361.550781 86.324219 360.945312 85.023438 360.332031 C 89.414062 357.355469 93.304688 353.832031 96.699219 349.757812 C 92.917969 347.507812 89.144531 345.253906 85.371094 343.003906 C 87.578125 339.386719 89.660156 335.695312 91.617188 331.9375 C 88.746094 332.539062 85.847656 332.691406 82.929688 332.382812 C 83.121094 330.890625 83.269531 329.386719 83.375 327.878906 C 81.550781 329.34375 79.75 330.769531 77.96875 332.125 C 64.480469 342.402344 50.097656 352.003906 42.898438 371.820312 Z M 42.898438 371.820312 " fill-opacity="1" fill-rule="nonzero"/></g><path fill="#e2d2bb" d="M 152.886719 350.085938 C 153.875 350.035156 154.863281 350.042969 155.847656 350.113281 C 158.328125 350.332031 160.761719 350.777344 163.183594 351.222656 C 167.503906 352.023438 171.828125 352.820312 176.148438 353.621094 C 176.328125 353.046875 176.34375 352.472656 176.195312 351.890625 C 176.042969 351.308594 175.75 350.8125 175.316406 350.398438 C 174.378906 349.449219 173.328125 348.652344 172.164062 348.003906 C 170.792969 347.148438 169.425781 346.292969 168.054688 345.441406 C 166.277344 344.335938 162.34375 346.8125 161.6875 347.359375 C 159.691406 349.023438 154.308594 348.523438 152.886719 350.085938 Z M 152.886719 350.085938 " fill-opacity="1" fill-rule="nonzero"/><path fill="#ffddbd" d="M 293.257812 339.820312 C 296.1875 338.761719 299.121094 337.699219 302.050781 336.640625 C 306.042969 335.019531 310.164062 333.878906 314.421875 333.21875 C 316.859375 332.917969 319.277344 333.015625 321.675781 333.515625 C 321.425781 333.359375 321.167969 333.207031 320.902344 333.0625 C 317.710938 331.347656 313.828125 330.992188 310.703125 329.175781 C 308.597656 327.953125 301.835938 328.023438 300.394531 329.828125 C 299.167969 331.359375 297.671875 332.691406 296.425781 334.207031 C 295.039062 335.890625 293.980469 337.761719 293.257812 339.820312 Z M 293.257812 339.820312 " fill-opacity="1" fill-rule="nonzero"/></svg>