<svg xmlns="http://www.w3.org/2000/svg" xmlns:xlink="http://www.w3.org/1999/xlink" width="500" zoomAndPan="magnify" viewBox="0 0 375 374.999991" height="500" preserveAspectRatio="xMidYMid meet" version="1.0"><defs><clipPath id="e2d85edc17"><path d="M 162 5.859375 L 235 5.859375 L 235 78 L 162 78 Z M 162 5.859375 " clip-rule="nonzero"/></clipPath><clipPath id="94d5561ebb"><path d="M 155 357 L 170 357 L 170 368.835938 L 155 368.835938 Z M 155 357 " clip-rule="nonzero"/></clipPath><clipPath id="0b94537257"><path d="M 186 357 L 201 357 L 201 368.835938 L 186 368.835938 Z M 186 357 " clip-rule="nonzero"/></clipPath></defs><path fill="#efefef" d="M 33.722656 181.585938 C 33.722656 50.777344 104.113281 40.261719 190.945312 40.261719 C 277.773438 40.261719 348.160156 94.824219 348.160156 181.585938 C 348.160156 268.34375 277.773438 317.648438 190.945312 317.648438 C 104.113281 317.648438 33.722656 321.585938 33.722656 181.585938 " fill-opacity="1" fill-rule="nonzero"/><path fill="#efefef" d="M 34.316406 217.367188 C 16.683594 217.367188 2.390625 203.085938 2.390625 185.464844 C 2.390625 167.839844 16.683594 153.554688 34.316406 153.554688 C 51.957031 153.554688 66.25 167.839844 66.25 185.464844 C 66.25 203.085938 51.957031 217.367188 34.316406 217.367188 " fill-opacity="1" fill-rule="nonzero"/><path fill="#efefef" d="M 43.984375 283.089844 C 24.78125 283.089844 9.203125 267.523438 9.203125 248.335938 C 9.203125 229.136719 24.78125 213.582031 43.984375 213.582031 C 63.199219 213.582031 78.773438 229.136719 78.773438 248.335938 C 78.773438 267.523438 63.199219 283.089844 43.984375 283.089844 " fill-opacity="1" fill-rule="nonzero"/><path fill="#efefef" d="M 78.109375 331.773438 C 60.636719 331.773438 46.460938 317.609375 46.460938 300.144531 C 46.460938 282.675781 60.636719 268.515625 78.109375 268.515625 C 95.601562 268.515625 109.773438 282.675781 109.773438 300.144531 C 109.773438 317.609375 95.601562 331.773438 78.109375 331.773438 " fill-opacity="1" fill-rule="nonzero"/><path fill="#efefef" d="M 141.210938 337.507812 C 120.3125 337.507812 103.382812 320.59375 103.382812 299.714844 C 103.382812 278.84375 120.3125 261.914062 141.210938 261.914062 C 162.09375 261.914062 179.027344 278.84375 179.027344 299.714844 C 179.027344 320.59375 162.09375 337.507812 141.210938 337.507812 " fill-opacity="1" fill-rule="nonzero"/><path fill="#efefef" d="M 202.34375 344.324219 C 186.332031 344.324219 173.339844 331.359375 173.339844 315.351562 C 173.339844 299.34375 186.332031 286.367188 202.34375 286.367188 C 218.367188 286.367188 231.355469 299.34375 231.355469 315.351562 C 231.355469 331.359375 218.367188 344.324219 202.34375 344.324219 " fill-opacity="1" fill-rule="nonzero"/><path fill="#efefef" d="M 264.742188 335.949219 C 246.402344 335.949219 231.539062 321.09375 231.539062 302.765625 C 231.539062 284.441406 246.402344 269.582031 264.742188 269.582031 C 283.078125 269.582031 297.949219 284.441406 297.949219 302.765625 C 297.949219 321.09375 283.078125 335.949219 264.742188 335.949219 " fill-opacity="1" fill-rule="nonzero"/><path fill="#efefef" d="M 315.132812 296.351562 C 297.753906 296.351562 283.664062 282.269531 283.664062 264.898438 C 283.664062 247.53125 297.753906 233.449219 315.132812 233.449219 C 332.519531 233.449219 346.609375 247.53125 346.609375 264.898438 C 346.609375 282.269531 332.519531 296.351562 315.132812 296.351562 " fill-opacity="1" fill-rule="nonzero"/><path fill="#efefef" d="M 340.28125 240.816406 C 322.523438 240.816406 308.125 226.4375 308.125 208.683594 C 308.125 190.9375 322.523438 176.558594 340.28125 176.558594 C 358.042969 176.558594 372.441406 190.9375 372.441406 208.683594 C 372.441406 226.4375 358.042969 240.816406 340.28125 240.816406 " fill-opacity="1" fill-rule="nonzero"/><path fill="#efefef" d="M 338.453125 183.996094 C 318.3125 183.996094 301.984375 167.683594 301.984375 147.558594 C 301.984375 127.433594 318.3125 111.113281 338.453125 111.113281 C 358.589844 111.113281 374.917969 127.433594 374.917969 147.558594 C 374.917969 167.683594 358.589844 183.996094 338.453125 183.996094 " fill-opacity="1" fill-rule="nonzero"/><path fill="#efefef" d="M 310.957031 123.234375 C 294.128906 123.234375 280.484375 109.59375 280.484375 92.785156 C 280.484375 75.960938 294.128906 62.324219 310.957031 62.324219 C 327.789062 62.324219 341.4375 75.960938 341.4375 92.785156 C 341.4375 109.59375 327.789062 123.234375 310.957031 123.234375 " fill-opacity="1" fill-rule="nonzero"/><path fill="#efefef" d="M 260.636719 92.222656 C 240.347656 92.222656 223.902344 75.789062 223.902344 55.515625 C 223.902344 35.238281 240.347656 18.800781 260.636719 18.800781 C 280.933594 18.800781 297.378906 35.238281 297.378906 55.515625 C 297.382812 75.789062 280.933594 92.222656 260.636719 92.222656 " fill-opacity="1" fill-rule="nonzero"/><g clip-path="url(#e2d85edc17)"><path fill="#efefef" d="M 198.460938 77.957031 C 178.535156 77.957031 162.390625 61.820312 162.390625 41.914062 C 162.390625 22.003906 178.535156 5.863281 198.460938 5.863281 C 218.382812 5.863281 234.542969 22.003906 234.542969 41.914062 C 234.542969 61.820312 218.382812 77.957031 198.460938 77.957031 " fill-opacity="1" fill-rule="nonzero"/></g><path fill="#efefef" d="M 135.085938 79.292969 C 115.371094 79.292969 99.386719 63.328125 99.386719 43.625 C 99.386719 23.929688 115.371094 7.949219 135.085938 7.949219 C 154.792969 7.949219 170.777344 23.929688 170.777344 43.625 C 170.777344 63.328125 154.792969 79.292969 135.085938 79.292969 " fill-opacity="1" fill-rule="nonzero"/><path fill="#efefef" d="M 76.53125 95.941406 C 59.953125 95.941406 46.515625 82.515625 46.515625 65.957031 C 46.515625 49.386719 59.953125 35.960938 76.53125 35.960938 C 93.101562 35.960938 106.542969 49.386719 106.542969 65.957031 C 106.546875 82.515625 93.101562 95.941406 76.53125 95.941406 " fill-opacity="1" fill-rule="nonzero"/><path fill="#efefef" d="M 43.765625 154.808594 C 23.84375 154.808594 7.703125 138.675781 7.703125 118.773438 C 7.703125 98.867188 23.84375 82.730469 43.765625 82.730469 C 63.675781 82.730469 79.832031 98.867188 79.832031 118.773438 C 79.832031 138.675781 63.675781 154.808594 43.765625 154.808594 " fill-opacity="1" fill-rule="nonzero"/><path fill="#efefef" d="M 33.722656 215.203125 C 15.140625 215.203125 0.0820312 200.152344 0.0820312 181.585938 C 0.0820312 163.023438 15.140625 147.96875 33.722656 147.96875 C 52.304688 147.96875 67.371094 163.023438 67.371094 181.585938 C 67.371094 200.152344 52.304688 215.203125 33.722656 215.203125 " fill-opacity="1" fill-rule="nonzero"/><path fill="#e6e7e8" d="M 301.246094 178.707031 C 301.246094 283.167969 245.03125 291.570312 175.6875 291.570312 C 106.351562 291.570312 50.136719 247.992188 50.136719 178.707031 C 50.136719 109.421875 106.351562 70.050781 175.6875 70.050781 C 245.03125 70.050781 301.246094 66.898438 301.246094 178.707031 " fill-opacity="1" fill-rule="nonzero"/><path fill="#e6e7e8" d="M 300.773438 150.128906 C 314.851562 150.128906 326.269531 161.539062 326.269531 175.605469 C 326.269531 189.679688 314.851562 201.089844 300.773438 201.089844 C 286.683594 201.089844 275.269531 189.679688 275.269531 175.605469 C 275.269531 161.539062 286.683594 150.128906 300.773438 150.128906 " fill-opacity="1" fill-rule="nonzero"/><path fill="#e6e7e8" d="M 293.046875 97.644531 C 308.390625 97.644531 320.824219 110.078125 320.824219 125.398438 C 320.824219 140.730469 308.390625 153.15625 293.046875 153.15625 C 277.707031 153.15625 265.269531 140.730469 265.269531 125.398438 C 265.269531 110.078125 277.707031 97.644531 293.046875 97.644531 " fill-opacity="1" fill-rule="nonzero"/><path fill="#e6e7e8" d="M 265.796875 58.769531 C 279.753906 58.769531 291.074219 70.078125 291.074219 84.027344 C 291.074219 97.976562 279.753906 109.285156 265.796875 109.285156 C 251.832031 109.285156 240.511719 97.976562 240.511719 84.027344 C 240.511719 70.078125 251.832031 58.769531 265.796875 58.769531 " fill-opacity="1" fill-rule="nonzero"/><path fill="#e6e7e8" d="M 217.21875 40.933594 C 233.90625 40.933594 247.425781 54.441406 247.425781 71.117188 C 247.425781 87.78125 233.90625 101.304688 217.21875 101.304688 C 200.539062 101.304688 187.015625 87.78125 187.015625 71.117188 C 187.015625 54.441406 200.539062 40.933594 217.21875 40.933594 " fill-opacity="1" fill-rule="nonzero"/><path fill="#e6e7e8" d="M 166.589844 48.746094 C 179.375 48.746094 189.75 59.101562 189.75 71.882812 C 189.75 84.664062 179.375 95.027344 166.589844 95.027344 C 153.792969 95.027344 143.417969 84.664062 143.417969 71.882812 C 143.417969 59.101562 153.792969 48.746094 166.589844 48.746094 " fill-opacity="1" fill-rule="nonzero"/><path fill="#e6e7e8" d="M 116.753906 55.429688 C 131.398438 55.429688 143.273438 67.296875 143.273438 81.929688 C 143.273438 96.566406 131.398438 108.429688 116.753906 108.429688 C 102.113281 108.429688 90.238281 96.566406 90.238281 81.929688 C 90.238281 67.296875 102.113281 55.429688 116.753906 55.429688 " fill-opacity="1" fill-rule="nonzero"/><path fill="#e6e7e8" d="M 76.511719 87.054688 C 90.390625 87.054688 101.644531 98.300781 101.644531 112.171875 C 101.644531 126.042969 90.390625 137.289062 76.511719 137.289062 C 62.632812 137.289062 51.375 126.042969 51.375 112.171875 C 51.375 98.300781 62.632812 87.054688 76.511719 87.054688 " fill-opacity="1" fill-rule="nonzero"/><path fill="#e6e7e8" d="M 56.429688 131.402344 C 70.613281 131.402344 82.105469 142.890625 82.105469 157.066406 C 82.105469 171.234375 70.613281 182.722656 56.429688 182.722656 C 42.246094 182.722656 30.75 171.234375 30.75 157.066406 C 30.75 142.890625 42.246094 131.402344 56.429688 131.402344 " fill-opacity="1" fill-rule="nonzero"/><path fill="#e6e7e8" d="M 57.894531 176.78125 C 73.976562 176.78125 87.015625 189.808594 87.015625 205.878906 C 87.015625 221.953125 73.976562 234.984375 57.894531 234.984375 C 41.8125 234.984375 28.769531 221.953125 28.769531 205.878906 C 28.769531 189.808594 41.8125 176.78125 57.894531 176.78125 " fill-opacity="1" fill-rule="nonzero"/><path fill="#e6e7e8" d="M 79.847656 225.304688 C 93.289062 225.304688 104.1875 236.195312 104.1875 249.621094 C 104.1875 263.054688 93.289062 273.945312 79.851562 273.945312 C 66.40625 273.945312 55.507812 263.054688 55.507812 249.621094 C 55.507812 236.195312 66.40625 225.304688 79.847656 225.304688 " fill-opacity="1" fill-rule="nonzero"/><path fill="#e6e7e8" d="M 120.035156 250.070312 C 136.234375 250.070312 149.371094 263.195312 149.371094 279.382812 C 149.371094 295.574219 136.238281 308.703125 120.035156 308.703125 C 103.828125 308.703125 90.691406 295.574219 90.691406 279.382812 C 90.691406 263.195312 103.828125 250.070312 120.035156 250.070312 " fill-opacity="1" fill-rule="nonzero"/><path fill="#e6e7e8" d="M 169.6875 261.460938 C 185.597656 261.460938 198.492188 274.351562 198.492188 290.246094 C 198.492188 306.144531 185.597656 319.035156 169.6875 319.035156 C 153.777344 319.035156 140.871094 306.144531 140.871094 290.246094 C 140.871094 274.351562 153.777344 261.460938 169.6875 261.460938 " fill-opacity="1" fill-rule="nonzero"/><path fill="#e6e7e8" d="M 220.296875 260.394531 C 236.042969 260.394531 248.808594 273.144531 248.808594 288.878906 C 248.808594 304.609375 236.042969 317.367188 220.296875 317.367188 C 204.5625 317.367188 191.796875 304.609375 191.796875 288.878906 C 191.796875 273.144531 204.5625 260.394531 220.296875 260.394531 " fill-opacity="1" fill-rule="nonzero"/><path fill="#e6e7e8" d="M 267.058594 247.097656 C 280.296875 247.097656 291.027344 257.820312 291.027344 271.046875 C 291.027344 284.277344 280.296875 295 267.058594 295 C 253.828125 295 243.089844 284.277344 243.089844 271.046875 C 243.089844 257.820312 253.828125 247.097656 267.058594 247.097656 " fill-opacity="1" fill-rule="nonzero"/><path fill="#e6e7e8" d="M 293.226562 200.085938 C 309.132812 200.085938 322.023438 212.96875 322.023438 228.867188 C 322.023438 244.761719 309.132812 257.648438 293.226562 257.648438 C 277.324219 257.648438 264.421875 244.761719 264.421875 228.867188 C 264.421875 212.96875 277.324219 200.085938 293.226562 200.085938 " fill-opacity="1" fill-rule="nonzero"/><path fill="#e6e7e8" d="M 301.246094 151.859375 C 316.082031 151.859375 328.109375 163.878906 328.109375 178.703125 C 328.109375 193.527344 316.082031 205.550781 301.246094 205.550781 C 286.40625 205.550781 274.375 193.527344 274.375 178.703125 C 274.375 163.878906 286.40625 151.859375 301.246094 151.859375 " fill-opacity="1" fill-rule="nonzero"/><g clip-path="url(#94d5561ebb)"><path fill="#3f200e" d="M 155.230469 357.457031 C 156.824219 364.328125 159.492188 368.835938 162.523438 368.835938 C 165.550781 368.835938 168.21875 364.328125 169.808594 357.457031 L 155.230469 357.457031 " fill-opacity="1" fill-rule="nonzero"/></g><path fill="#deb893" d="M 171.355469 342.6875 C 171.355469 328.246094 167.402344 316.542969 162.523438 316.542969 C 157.640625 316.542969 153.6875 328.246094 153.6875 342.6875 C 153.6875 348.167969 154.261719 353.253906 155.230469 357.457031 L 169.808594 357.457031 C 170.785156 353.253906 171.355469 348.167969 171.355469 342.6875 " fill-opacity="1" fill-rule="nonzero"/><path fill="#e6e7e8" d="M 177.355469 321.371094 C 177.355469 329.375 170.859375 335.863281 162.851562 335.863281 C 154.84375 335.863281 148.351562 329.375 148.351562 321.371094 C 148.351562 313.371094 154.84375 306.882812 162.851562 306.882812 C 170.859375 306.882812 177.355469 313.371094 177.355469 321.371094 " fill-opacity="1" fill-rule="nonzero"/><g clip-path="url(#0b94537257)"><path fill="#3f200e" d="M 186.40625 357.457031 C 188.003906 364.328125 190.667969 368.835938 193.699219 368.835938 C 196.722656 368.835938 199.394531 364.328125 200.984375 357.457031 L 186.40625 357.457031 " fill-opacity="1" fill-rule="nonzero"/></g><path fill="#deb893" d="M 202.527344 342.6875 C 202.527344 328.246094 198.574219 316.542969 193.699219 316.542969 C 188.816406 316.542969 184.863281 328.246094 184.863281 342.6875 C 184.863281 348.167969 185.4375 353.253906 186.40625 357.457031 L 200.984375 357.457031 C 201.960938 353.253906 202.527344 348.167969 202.527344 342.6875 " fill-opacity="1" fill-rule="nonzero"/><path fill="#e6e7e8" d="M 208.53125 321.371094 C 208.53125 329.375 202.035156 335.863281 194.027344 335.863281 C 186.019531 335.863281 179.527344 329.375 179.527344 321.371094 C 179.527344 313.371094 186.019531 306.882812 194.027344 306.882812 C 202.035156 306.882812 208.53125 313.371094 208.53125 321.371094 " fill-opacity="1" fill-rule="nonzero"/><path fill="#e6e7e8" d="M 116.761719 278.941406 C 116.761719 293.253906 105.152344 304.859375 90.828125 304.859375 C 76.503906 304.859375 64.890625 293.253906 64.890625 278.941406 C 64.890625 264.628906 76.503906 253.027344 90.828125 253.027344 C 105.152344 253.027344 116.761719 264.628906 116.761719 278.941406 " fill-opacity="1" fill-rule="nonzero"/><path fill="#e6e7e8" d="M 204.371094 283.714844 C 204.371094 298.023438 192.769531 309.628906 178.445312 309.628906 C 164.121094 309.628906 152.507812 298.023438 152.507812 283.714844 C 152.507812 269.398438 164.121094 257.792969 178.445312 257.792969 C 192.769531 257.792969 204.371094 269.398438 204.371094 283.714844 " fill-opacity="1" fill-rule="nonzero"/><path fill="#f9f9f9" d="M 220.324219 175.054688 C 214.429688 157.144531 215.742188 140.996094 222.691406 137.675781 C 229.679688 134.453125 242.957031 143.761719 252.988281 159.730469 C 262.992188 175.652344 262.925781 194.40625 251.804688 199.636719 C 240.683594 204.84375 226.1875 192.925781 220.324219 175.054688 " fill-opacity="1" fill-rule="nonzero"/><path fill="#deb893" d="M 226.925781 174.175781 C 221.757812 159.511719 221.804688 146.65625 226.546875 144.382812 C 231.316406 142.1875 241.25 150.367188 249.238281 163.699219 C 257.21875 176.996094 258.203125 192.003906 250.609375 195.578125 C 243.007812 199.136719 232.0625 188.800781 226.925781 174.175781 " fill-opacity="1" fill-rule="nonzero"/><path fill="#f9f9f9" d="M 137.550781 179.183594 C 145.84375 162.246094 146.753906 146.066406 140.328125 141.832031 C 133.84375 137.683594 119.421875 145.085938 107.296875 159.539062 C 95.199219 173.941406 92.703125 192.527344 102.996094 199.222656 C 113.304688 205.90625 129.292969 196.082031 137.550781 179.183594 " fill-opacity="1" fill-rule="nonzero"/><path fill="#deb893" d="M 233.882812 178.863281 C 233.882812 219.449219 209.183594 252.351562 178.722656 252.351562 C 148.257812 252.351562 123.5625 219.449219 123.5625 178.863281 C 123.5625 138.277344 148.257812 105.375 178.722656 105.375 C 209.183594 105.375 233.882812 138.277344 233.882812 178.863281 " fill-opacity="1" fill-rule="nonzero"/><path fill="#deb893" d="M 131.132812 177.410156 C 138.253906 163.589844 139.972656 150.851562 135.585938 147.945312 C 131.160156 145.121094 120.199219 151.863281 110.464844 163.980469 C 100.734375 176.0625 97.703125 190.796875 104.742188 195.371094 C 111.789062 199.9375 124.039062 191.191406 131.132812 177.410156 " fill-opacity="1" fill-rule="nonzero"/><path fill="#231f20" d="M 166.859375 195.683594 C 166.859375 201.019531 164.535156 205.34375 161.675781 205.34375 C 158.8125 205.34375 156.492188 201.019531 156.492188 195.683594 C 156.492188 190.347656 158.8125 186.023438 161.675781 186.023438 C 164.535156 186.023438 166.859375 190.347656 166.859375 195.683594 " fill-opacity="1" fill-rule="nonzero"/><path fill="#231f20" d="M 193.351562 195.683594 C 193.351562 201.019531 191.027344 205.34375 188.164062 205.34375 C 185.304688 205.34375 182.980469 201.019531 182.980469 195.683594 C 182.980469 190.347656 185.304688 186.023438 188.164062 186.023438 C 191.027344 186.023438 193.351562 190.347656 193.351562 195.683594 " fill-opacity="1" fill-rule="nonzero"/><path fill="#f1f2f2" d="M 240.3125 128.875 C 240.3125 149.578125 223.511719 166.367188 202.792969 166.367188 L 151.042969 166.367188 C 130.324219 166.367188 113.515625 149.578125 113.515625 128.875 C 113.515625 108.164062 130.324219 91.375 151.042969 91.375 L 202.792969 91.375 C 223.511719 91.375 240.3125 108.164062 240.3125 128.875 " fill-opacity="1" fill-rule="nonzero"/><path fill="#f1f2f2" d="M 252.339844 105.402344 C 252.339844 117.414062 242.605469 127.148438 230.589844 127.148438 C 218.5625 127.148438 208.824219 117.414062 208.824219 105.402344 C 208.824219 93.394531 218.5625 83.65625 230.589844 83.65625 C 242.605469 83.65625 252.339844 93.394531 252.339844 105.402344 " fill-opacity="1" fill-rule="nonzero"/><path fill="#f1f2f2" d="M 217.203125 91.375 C 217.203125 105.933594 205.394531 117.734375 190.828125 117.734375 C 176.257812 117.734375 164.449219 105.933594 164.449219 91.375 C 164.449219 76.820312 176.257812 65.019531 190.828125 65.019531 C 205.394531 65.019531 217.203125 76.820312 217.203125 91.375 " fill-opacity="1" fill-rule="nonzero"/><path fill="#f1f2f2" d="M 167.539062 92.980469 C 167.539062 104.222656 158.425781 113.335938 147.171875 113.335938 C 135.925781 113.335938 126.800781 104.222656 126.800781 92.980469 C 126.800781 81.738281 135.925781 72.625 147.171875 72.625 C 158.425781 72.625 167.539062 81.738281 167.539062 92.980469 " fill-opacity="1" fill-rule="nonzero"/><path fill="#f1f2f2" d="M 141.253906 120.316406 C 141.253906 133.664062 130.429688 144.484375 117.066406 144.484375 C 103.707031 144.484375 92.878906 133.664062 92.878906 120.316406 C 92.878906 106.964844 103.707031 96.140625 117.066406 96.140625 C 130.429688 96.140625 141.253906 106.964844 141.253906 120.316406 " fill-opacity="1" fill-rule="nonzero"/><path fill="#f1f2f2" d="M 152.269531 157.679688 C 152.269531 169.945312 142.316406 179.890625 130.035156 179.890625 C 117.757812 179.890625 107.800781 169.945312 107.800781 157.679688 C 107.800781 145.410156 117.757812 135.460938 130.035156 135.460938 C 142.316406 135.460938 152.269531 145.410156 152.269531 157.679688 " fill-opacity="1" fill-rule="nonzero"/><path fill="#f1f2f2" d="M 195.21875 166.375 C 195.21875 179.03125 184.945312 189.289062 172.28125 189.289062 C 159.609375 189.289062 149.339844 179.03125 149.339844 166.375 C 149.339844 153.710938 159.609375 143.445312 172.28125 143.445312 C 184.945312 143.445312 195.21875 153.710938 195.21875 166.375 " fill-opacity="1" fill-rule="nonzero"/><path fill="#f1f2f2" d="M 239.570312 161.21875 C 239.570312 174.660156 228.667969 185.546875 215.230469 185.546875 C 201.789062 185.546875 190.882812 174.660156 190.882812 161.21875 C 190.882812 147.789062 201.789062 136.898438 215.230469 136.898438 C 228.667969 136.898438 239.570312 147.789062 239.570312 161.21875 " fill-opacity="1" fill-rule="nonzero"/><path fill="#f1f2f2" d="M 264.003906 128.878906 C 264.003906 141.945312 253.394531 152.546875 240.3125 152.546875 C 227.230469 152.546875 216.621094 141.945312 216.621094 128.878906 C 216.621094 115.800781 227.230469 105.207031 240.3125 105.207031 C 253.394531 105.207031 264.003906 115.800781 264.003906 128.878906 " fill-opacity="1" fill-rule="nonzero"/><path fill="#f1f2f2" d="M 226.648438 133.550781 C 226.648438 146.988281 215.746094 157.875 202.308594 157.875 C 188.867188 157.875 177.957031 146.988281 177.957031 133.550781 C 177.957031 120.121094 188.867188 109.226562 202.308594 109.226562 C 215.746094 109.226562 226.648438 120.121094 226.648438 133.550781 " fill-opacity="1" fill-rule="nonzero"/><path fill="#957252" d="M 328.65625 132.789062 C 328.023438 128.269531 326.980469 123.867188 325.53125 119.738281 C 324.085938 115.605469 322.3125 111.707031 320.265625 108.078125 C 318.207031 104.46875 315.890625 101.125 313.382812 98.046875 C 310.867188 94.96875 308.132812 92.199219 305.273438 89.675781 C 302.40625 87.140625 299.363281 84.925781 296.21875 82.980469 C 294.640625 82.019531 293.046875 81.089844 291.421875 80.261719 C 290.609375 79.828125 289.789062 79.449219 288.964844 79.074219 L 287.722656 78.511719 C 287.53125 78.417969 287.273438 78.316406 287.03125 78.21875 L 286.304688 77.921875 L 284.839844 77.347656 L 284.105469 77.066406 L 283.664062 76.902344 L 282.386719 76.441406 L 282.171875 76.363281 L 282.0625 76.324219 L 281.425781 76.121094 C 279.828125 75.632812 278.234375 75.109375 276.601562 74.746094 C 273.355469 73.914062 270.03125 73.359375 266.691406 72.953125 C 263.34375 72.585938 259.949219 72.503906 256.554688 72.589844 C 253.148438 72.695312 249.730469 73.113281 246.332031 73.726562 C 242.925781 74.378906 239.53125 75.269531 236.1875 76.472656 C 232.84375 77.695312 229.527344 79.144531 226.3125 80.941406 C 223.09375 82.722656 219.960938 84.855469 216.953125 87.25 C 215.457031 88.445312 214.003906 89.78125 212.582031 91.125 C 211.878906 91.828125 211.179688 92.535156 210.492188 93.246094 C 209.796875 93.953125 209.140625 94.738281 208.472656 95.488281 C 205.832031 98.546875 203.433594 101.941406 201.320312 105.570312 C 199.203125 109.214844 197.460938 113.140625 196.042969 117.167969 L 195.539062 118.691406 L 195.292969 119.449219 L 195.171875 119.832031 C 195.132812 119.957031 195.09375 120.082031 195.042969 120.246094 C 194.683594 121.480469 194.34375 122.714844 194.042969 123.953125 L 193.871094 124.648438 C 193.851562 124.734375 193.855469 124.742188 193.84375 124.789062 L 193.765625 125.265625 L 193.617188 126.210938 L 193.5 126.917969 L 193.480469 127.035156 C 193.648438 126.378906 193.234375 128.058594 193.265625 127.957031 L 193.058594 129.398438 C 192.925781 130.355469 192.796875 131.308594 192.667969 132.261719 C 192.5625 133.21875 192.492188 134.179688 192.40625 135.132812 C 192.367188 135.632812 192.332031 136.128906 192.308594 136.628906 L 216.859375 136.628906 C 216.890625 136.476562 216.925781 136.324219 216.953125 136.171875 L 217.132812 135.300781 L 217.351562 134.480469 L 217.59375 133.566406 C 217.675781 133.261719 217.757812 132.949219 217.847656 132.707031 C 218.019531 132.179688 218.195312 131.648438 218.371094 131.121094 C 218.582031 130.582031 218.792969 130.042969 219 129.5 C 219.890625 127.351562 220.964844 125.285156 222.214844 123.335938 C 223.476562 121.398438 224.921875 119.585938 226.5 117.910156 C 226.90625 117.503906 227.285156 117.066406 227.710938 116.679688 L 228.972656 115.507812 C 229.851562 114.769531 230.726562 114.023438 231.652344 113.359375 C 233.5 112.007812 235.441406 110.78125 237.480469 109.765625 C 245.625 105.617188 254.96875 104.199219 264.058594 105.234375 C 266.332031 105.492188 268.605469 105.832031 270.84375 106.390625 C 271.96875 106.625 273.074219 106.984375 274.1875 107.28125 L 275.851562 107.828125 L 276.28125 107.96875 L 276.671875 108.121094 L 277.453125 108.414062 C 281.6875 110.066406 285.78125 112.394531 289.390625 115.347656 C 293.011719 118.289062 296.210938 121.839844 298.726562 125.84375 C 301.246094 129.84375 303.070312 134.304688 303.945312 138.898438 C 304.378906 141.199219 304.582031 143.515625 304.535156 145.804688 C 304.511719 146.953125 304.421875 148.085938 304.285156 149.203125 C 304.199219 149.765625 304.15625 150.328125 304.035156 150.878906 L 303.878906 151.699219 L 303.796875 152.117188 L 303.777344 152.21875 C 303.773438 152.226562 303.773438 152.226562 303.777344 152.226562 C 303.773438 152.230469 303.773438 152.226562 303.773438 152.238281 L 303.714844 152.460938 C 303.566406 153.046875 303.414062 153.703125 303.261719 154.125 L 303.039062 154.839844 L 302.753906 155.585938 C 302.386719 156.582031 301.921875 157.523438 301.441406 158.445312 C 300.433594 160.257812 299.210938 161.898438 297.835938 163.335938 C 295.09375 166.226562 291.765625 168.25 288.355469 169.550781 C 284.933594 170.851562 281.414062 171.433594 278.027344 171.457031 C 276.335938 171.464844 274.667969 171.363281 273.054688 171.125 C 271.441406 170.875 269.875 170.542969 268.359375 170.121094 C 266.816406 169.683594 265.453125 169.175781 264.089844 168.542969 C 262.742188 167.917969 261.46875 167.210938 260.285156 166.421875 C 255.535156 163.257812 252.289062 158.976562 250.550781 155.019531 C 249.667969 153.042969 249.15625 151.144531 248.847656 149.46875 C 248.550781 147.789062 248.5 146.328125 248.542969 145.152344 C 248.585938 143.972656 248.699219 143.074219 248.800781 142.472656 C 248.910156 141.878906 248.964844 141.566406 248.964844 141.566406 L 246.246094 140.726562 C 246.246094 140.726562 246.042969 141.042969 245.664062 141.703125 C 245.304688 142.363281 244.769531 143.382812 244.269531 144.851562 C 243.757812 146.316406 243.25 148.25 243.046875 150.636719 C 242.953125 151.824219 242.878906 153.144531 242.949219 154.542969 C 243.011719 155.945312 243.1875 157.429688 243.46875 159 C 244.011719 162.136719 245.128906 165.507812 246.820312 168.90625 C 247.238281 169.765625 247.710938 170.597656 248.199219 171.460938 C 248.699219 172.296875 249.25 173.132812 249.835938 173.957031 C 251.003906 175.601562 252.324219 177.222656 253.796875 178.785156 C 255.269531 180.355469 256.914062 181.8125 258.710938 183.167969 C 259.160156 183.515625 259.621094 183.847656 260.089844 184.167969 C 260.324219 184.332031 260.5625 184.496094 260.796875 184.660156 C 261.039062 184.824219 261.339844 184.992188 261.609375 185.152344 C 261.894531 185.320312 262.179688 185.484375 262.457031 185.648438 L 262.675781 185.773438 L 262.78125 185.832031 L 262.847656 185.875 L 263.125 186.054688 L 263.664062 186.410156 L 263.9375 186.585938 C 264.070312 186.636719 263.730469 186.535156 264.257812 186.710938 L 264.351562 186.761719 L 264.535156 186.859375 C 268.480469 188.960938 272.980469 190.65625 277.980469 191.519531 C 282.980469 192.402344 288.496094 192.46875 294.351562 191.164062 C 297.28125 190.527344 300.289062 189.5 303.320312 188.039062 C 306.359375 186.59375 309.40625 184.628906 312.351562 182.097656 C 313.085938 181.460938 313.820312 180.8125 314.535156 180.089844 C 314.894531 179.738281 315.253906 179.382812 315.609375 179.015625 C 315.960938 178.636719 316.308594 178.253906 316.65625 177.863281 C 318.039062 176.300781 319.347656 174.554688 320.585938 172.703125 C 321.800781 170.816406 322.953125 168.820312 323.949219 166.671875 L 324.679688 165.046875 C 324.957031 164.355469 325.222656 163.652344 325.476562 162.941406 C 326.101562 161.136719 326.160156 161.039062 326.417969 160.371094 L 326.5 160.160156 C 326.351562 160.777344 326.75 159.203125 326.730469 159.28125 L 326.785156 159.082031 L 327.007812 158.285156 L 327.4375 156.671875 C 327.730469 155.59375 327.9375 154.484375 328.175781 153.375 C 328.601562 151.148438 328.890625 148.871094 329.070312 146.574219 C 329.417969 141.980469 329.296875 137.3125 328.65625 132.789062 " fill-opacity="1" fill-rule="nonzero"/><path fill="#b48a64" d="M 332.144531 131.261719 C 331.488281 126.574219 330.40625 122.007812 328.90625 117.722656 C 327.410156 113.433594 325.566406 109.382812 323.445312 105.625 C 321.304688 101.878906 318.902344 98.410156 316.300781 95.210938 C 313.691406 92.023438 310.855469 89.148438 307.878906 86.527344 C 304.910156 83.894531 301.75 81.601562 298.492188 79.582031 C 296.855469 78.582031 295.199219 77.621094 293.515625 76.753906 C 292.671875 76.308594 291.820312 75.914062 290.960938 75.527344 L 289.675781 74.941406 C 289.476562 74.847656 289.210938 74.738281 288.960938 74.640625 L 288.203125 74.332031 L 286.683594 73.734375 L 285.921875 73.441406 L 285.464844 73.277344 L 284.136719 72.792969 L 283.914062 72.714844 L 283.804688 72.671875 L 283.144531 72.464844 C 281.484375 71.957031 279.832031 71.410156 278.132812 71.035156 C 274.765625 70.175781 271.324219 69.59375 267.855469 69.175781 C 264.378906 68.792969 260.855469 68.714844 257.332031 68.796875 C 253.800781 68.910156 250.257812 69.339844 246.726562 69.980469 C 243.195312 70.65625 239.671875 71.578125 236.203125 72.824219 C 232.734375 74.09375 229.292969 75.601562 225.957031 77.460938 C 222.617188 79.3125 219.367188 81.527344 216.246094 84.007812 C 214.695312 85.253906 213.1875 86.636719 211.707031 88.027344 C 210.980469 88.757812 210.257812 89.496094 209.542969 90.234375 C 208.824219 90.964844 208.136719 91.777344 207.445312 92.554688 C 204.707031 95.734375 202.21875 99.253906 200.023438 103.019531 C 197.828125 106.800781 196.015625 110.871094 194.550781 115.054688 L 194.027344 116.632812 L 193.773438 117.421875 L 193.648438 117.816406 C 193.605469 117.945312 193.5625 118.078125 193.511719 118.246094 C 193.140625 119.527344 192.785156 120.804688 192.472656 122.09375 L 192.351562 122.574219 L 192.296875 122.8125 C 192.273438 122.902344 192.277344 122.910156 192.269531 122.960938 L 192.1875 123.453125 L 192.03125 124.4375 L 191.910156 125.171875 L 191.890625 125.292969 C 192.0625 124.609375 191.632812 126.351562 191.667969 126.246094 L 191.449219 127.738281 C 191.316406 128.738281 191.183594 129.726562 191.042969 130.714844 C 190.9375 131.707031 190.863281 132.707031 190.777344 133.691406 C 190.734375 134.210938 190.699219 134.726562 190.671875 135.246094 L 216.148438 135.246094 C 216.179688 135.085938 216.214844 134.925781 216.246094 134.769531 L 216.429688 133.871094 L 216.660156 133.019531 L 216.910156 132.066406 C 216.996094 131.75 217.078125 131.429688 217.171875 131.171875 C 217.355469 130.625 217.535156 130.078125 217.714844 129.527344 C 217.933594 128.96875 218.152344 128.410156 218.371094 127.851562 C 219.292969 125.621094 220.40625 123.480469 221.703125 121.453125 C 223.015625 119.441406 224.515625 117.558594 226.152344 115.820312 C 226.574219 115.402344 226.964844 114.945312 227.410156 114.546875 L 228.714844 113.328125 C 229.628906 112.566406 230.53125 111.789062 231.5 111.101562 C 233.414062 109.703125 235.425781 108.425781 237.546875 107.371094 C 245.996094 103.066406 255.691406 101.597656 265.117188 102.667969 C 267.480469 102.9375 269.839844 103.292969 272.160156 103.871094 C 273.332031 104.113281 274.476562 104.484375 275.628906 104.792969 L 277.359375 105.359375 L 277.804688 105.507812 L 278.207031 105.664062 L 279.019531 105.972656 C 283.414062 107.683594 287.660156 110.097656 291.40625 113.164062 C 295.164062 116.21875 298.480469 119.898438 301.09375 124.054688 C 303.710938 128.203125 305.605469 132.835938 306.507812 137.605469 C 306.957031 139.984375 307.164062 142.390625 307.121094 144.769531 C 307.097656 145.957031 307 147.132812 306.859375 148.296875 C 306.769531 148.871094 306.722656 149.460938 306.601562 150.03125 L 306.4375 150.886719 L 306.355469 151.3125 L 306.332031 151.421875 C 306.328125 151.433594 306.328125 151.429688 306.332031 151.429688 C 306.328125 151.4375 306.328125 151.433594 306.328125 151.441406 L 306.273438 151.671875 C 306.113281 152.277344 305.957031 152.964844 305.796875 153.398438 L 305.5625 154.140625 L 305.273438 154.914062 C 304.894531 155.949219 304.410156 156.925781 303.910156 157.878906 C 302.863281 159.761719 301.597656 161.464844 300.171875 162.953125 C 297.324219 165.953125 293.867188 168.054688 290.332031 169.40625 C 286.78125 170.753906 283.128906 171.359375 279.617188 171.378906 C 277.859375 171.390625 276.132812 171.285156 274.460938 171.035156 C 272.785156 170.78125 271.15625 170.433594 269.585938 169.996094 C 267.980469 169.542969 266.570312 169.015625 265.15625 168.363281 C 263.753906 167.710938 262.429688 166.980469 261.207031 166.15625 C 256.28125 162.875 252.90625 158.433594 251.109375 154.328125 C 250.191406 152.277344 249.660156 150.304688 249.339844 148.566406 C 249.03125 146.828125 248.976562 145.308594 249.019531 144.085938 C 249.0625 142.863281 249.1875 141.933594 249.289062 141.3125 C 249.40625 140.6875 250.503906 135.78125 249.964844 135.507812 C 249.425781 135.242188 246.425781 139.824219 246.035156 140.507812 C 245.664062 141.199219 245.105469 142.253906 244.589844 143.777344 C 244.054688 145.296875 243.53125 147.300781 243.324219 149.78125 C 243.222656 151.015625 243.144531 152.382812 243.21875 153.835938 C 243.285156 155.289062 243.464844 156.832031 243.757812 158.457031 C 244.324219 161.714844 245.480469 165.210938 247.238281 168.734375 C 247.671875 169.625 248.15625 170.492188 248.664062 171.386719 C 249.1875 172.253906 249.757812 173.121094 250.363281 173.972656 C 251.578125 175.683594 252.949219 177.363281 254.476562 178.984375 C 256 180.617188 257.710938 182.128906 259.574219 183.535156 C 260.039062 183.898438 260.515625 184.238281 261 184.574219 C 261.246094 184.742188 261.492188 184.914062 261.734375 185.082031 C 261.988281 185.253906 262.300781 185.425781 262.582031 185.597656 C 262.875 185.765625 263.167969 185.9375 263.460938 186.109375 L 263.683594 186.234375 L 263.796875 186.300781 L 264.148438 186.527344 L 264.710938 186.898438 L 264.996094 187.082031 C 265.136719 187.136719 264.78125 187.027344 265.328125 187.210938 L 265.425781 187.261719 L 265.617188 187.363281 C 269.710938 189.546875 274.375 191.304688 279.570312 192.199219 C 284.753906 193.117188 290.480469 193.183594 296.554688 191.828125 C 299.59375 191.171875 302.710938 190.105469 305.855469 188.589844 C 309.011719 187.089844 312.175781 185.050781 315.230469 182.421875 C 315.992188 181.765625 316.757812 181.089844 317.496094 180.34375 C 317.871094 179.976562 318.242188 179.609375 318.609375 179.226562 C 318.972656 178.835938 319.335938 178.433594 319.695312 178.027344 C 321.128906 176.410156 322.484375 174.597656 323.777344 172.679688 C 325.03125 170.71875 326.226562 168.644531 327.265625 166.421875 L 328.023438 164.734375 C 328.308594 164.015625 328.582031 163.285156 328.851562 162.550781 C 329.5 160.675781 329.558594 160.570312 329.824219 159.882812 L 329.910156 159.660156 C 329.753906 160.300781 330.167969 158.664062 330.152344 158.75 L 330.207031 158.542969 L 330.4375 157.714844 L 330.886719 156.042969 C 331.1875 154.921875 331.402344 153.769531 331.644531 152.617188 C 332.089844 150.3125 332.394531 147.949219 332.578125 145.566406 C 332.9375 140.796875 332.8125 135.953125 332.144531 131.261719 " fill-opacity="1" fill-rule="nonzero"/><path fill="#f1f2f2" d="M 225.210938 131.707031 C 225.210938 145.140625 214.308594 156.03125 200.871094 156.03125 C 187.429688 156.03125 176.523438 145.140625 176.523438 131.707031 C 176.523438 118.277344 187.429688 107.382812 200.871094 107.382812 C 214.308594 107.382812 225.210938 118.277344 225.210938 131.707031 " fill-opacity="1" fill-rule="nonzero"/><path fill="#957252" d="M 21.46875 131.5625 C 22.101562 127.039062 23.140625 122.640625 24.589844 118.511719 C 26.035156 114.378906 27.808594 110.476562 29.851562 106.851562 C 31.917969 103.238281 34.230469 99.894531 36.742188 96.8125 C 39.253906 93.742188 41.988281 90.972656 44.855469 88.445312 C 47.714844 85.910156 50.761719 83.699219 53.902344 81.75 C 55.480469 80.789062 57.074219 79.859375 58.699219 79.027344 C 59.507812 78.597656 60.332031 78.21875 61.160156 77.84375 L 62.398438 77.277344 C 62.589844 77.191406 62.851562 77.085938 63.085938 76.988281 L 63.820312 76.695312 L 65.28125 76.113281 L 66.015625 75.835938 L 66.457031 75.675781 L 67.738281 75.210938 L 68.058594 75.09375 L 68.695312 74.890625 C 70.296875 74.40625 71.886719 73.878906 73.523438 73.515625 C 76.769531 72.6875 80.085938 72.128906 83.429688 71.722656 C 86.78125 71.355469 90.171875 71.277344 93.570312 71.359375 C 96.976562 71.464844 100.386719 71.882812 103.789062 72.496094 C 107.195312 73.152344 110.59375 74.042969 113.933594 75.238281 C 117.277344 76.460938 120.589844 77.917969 123.808594 79.710938 C 127.027344 81.492188 130.160156 83.625 133.167969 86.019531 C 134.667969 87.21875 136.113281 88.550781 137.542969 89.890625 C 138.246094 90.597656 138.941406 91.304688 139.628906 92.019531 C 140.324219 92.722656 140.984375 93.511719 141.648438 94.257812 C 144.289062 97.320312 146.6875 100.710938 148.800781 104.34375 C 150.917969 107.980469 152.664062 111.910156 154.078125 115.9375 L 154.582031 117.457031 L 154.828125 118.222656 L 154.949219 118.601562 C 154.988281 118.722656 155.03125 118.851562 155.078125 119.015625 C 155.4375 120.246094 155.777344 121.480469 156.082031 122.722656 L 156.195312 123.1875 L 156.25 123.417969 C 156.273438 123.503906 156.269531 123.507812 156.277344 123.5625 L 156.507812 124.976562 L 156.625 125.6875 L 156.640625 125.804688 C 156.472656 125.148438 156.890625 126.828125 156.859375 126.726562 L 157.066406 128.167969 C 157.195312 129.125 157.324219 130.082031 157.457031 131.03125 C 157.558594 131.988281 157.632812 132.953125 157.710938 133.902344 C 157.757812 134.402344 157.789062 134.898438 157.816406 135.398438 L 133.265625 135.398438 C 133.234375 135.246094 133.199219 135.09375 133.167969 134.941406 L 132.988281 134.070312 L 132.773438 133.253906 L 132.527344 132.339844 C 132.449219 132.03125 132.367188 131.722656 132.273438 131.472656 C 132.101562 130.945312 131.925781 130.417969 131.753906 129.890625 C 131.542969 129.347656 131.332031 128.808594 131.121094 128.269531 C 130.234375 126.125 129.15625 124.058594 127.910156 122.105469 C 126.644531 120.164062 125.199219 118.355469 123.621094 116.679688 C 123.21875 116.273438 122.835938 115.835938 122.414062 115.449219 L 121.148438 114.277344 C 120.269531 113.542969 119.398438 112.792969 118.46875 112.128906 C 116.621094 110.78125 114.683594 109.550781 112.640625 108.539062 C 104.496094 104.386719 95.152344 102.972656 86.066406 104 C 83.789062 104.265625 81.515625 104.605469 79.28125 105.164062 C 78.152344 105.398438 77.046875 105.753906 75.9375 106.050781 L 74.269531 106.59375 L 73.839844 106.738281 L 73.453125 106.886719 L 72.671875 107.1875 C 68.433594 108.835938 64.339844 111.164062 60.734375 114.117188 C 57.113281 117.0625 53.910156 120.609375 51.394531 124.613281 C 48.875 128.613281 47.046875 133.074219 46.179688 137.671875 C 45.738281 139.964844 45.542969 142.289062 45.589844 144.578125 C 45.613281 145.71875 45.699219 146.855469 45.835938 147.976562 C 45.925781 148.535156 45.96875 149.097656 46.085938 149.648438 L 46.246094 150.472656 L 46.324219 150.882812 L 46.34375 150.988281 C 46.347656 151 46.347656 151 46.347656 150.992188 C 46.347656 151 46.347656 151 46.351562 151.007812 L 46.40625 151.230469 C 46.558594 151.8125 46.710938 152.476562 46.863281 152.894531 L 47.085938 153.609375 L 47.367188 154.355469 C 47.734375 155.351562 48.203125 156.292969 48.679688 157.214844 C 49.691406 159.027344 50.914062 160.667969 52.28125 162.105469 C 55.027344 164.992188 58.359375 167.019531 61.769531 168.320312 C 65.1875 169.625 68.710938 170.207031 72.09375 170.222656 C 73.789062 170.234375 75.449219 170.132812 77.066406 169.890625 C 78.679688 169.648438 80.25 169.3125 81.761719 168.890625 C 83.308594 168.453125 84.667969 167.945312 86.03125 167.316406 C 87.382812 166.691406 88.65625 165.984375 89.835938 165.1875 C 94.582031 162.027344 97.835938 157.75 99.570312 153.789062 C 100.457031 151.8125 100.96875 149.910156 101.277344 148.238281 C 101.570312 146.558594 101.625 145.097656 101.582031 143.921875 C 101.539062 142.742188 101.417969 141.847656 101.320312 141.246094 C 101.210938 140.644531 101.15625 140.335938 101.15625 140.335938 L 103.878906 139.496094 C 103.878906 139.496094 104.082031 139.8125 104.457031 140.472656 C 104.816406 141.136719 105.355469 142.152344 105.855469 143.625 C 106.367188 145.085938 106.875 147.019531 107.074219 149.410156 C 107.167969 150.597656 107.242188 151.917969 107.171875 153.3125 C 107.109375 154.714844 106.933594 156.203125 106.652344 157.765625 C 106.109375 160.910156 104.996094 164.277344 103.300781 167.671875 C 102.882812 168.53125 102.414062 169.371094 101.925781 170.230469 C 101.417969 171.070312 100.875 171.902344 100.289062 172.722656 C 99.117188 174.371094 97.796875 175.992188 96.324219 177.550781 C 94.855469 179.128906 93.207031 180.585938 91.40625 181.9375 C 90.960938 182.289062 90.5 182.617188 90.03125 182.941406 C 89.800781 183.101562 89.5625 183.265625 89.328125 183.429688 C 89.082031 183.597656 88.785156 183.761719 88.511719 183.925781 C 88.230469 184.089844 87.945312 184.253906 87.660156 184.417969 L 87.339844 184.601562 L 87.273438 184.648438 L 86.183594 185.355469 C 86.046875 185.40625 86.394531 185.304688 85.863281 185.484375 L 85.769531 185.53125 L 85.585938 185.628906 C 81.640625 187.734375 77.144531 189.425781 72.136719 190.289062 C 67.140625 191.171875 61.625 191.242188 55.773438 189.933594 C 52.839844 189.300781 49.835938 188.273438 46.804688 186.808594 C 43.765625 185.363281 40.714844 183.402344 37.773438 180.867188 C 37.035156 180.230469 36.300781 179.582031 35.585938 178.863281 C 35.226562 178.507812 34.867188 178.15625 34.515625 177.785156 C 34.164062 177.410156 33.8125 177.023438 33.46875 176.632812 C 32.082031 175.074219 30.777344 173.324219 29.535156 171.472656 C 28.320312 169.585938 27.167969 167.589844 26.171875 165.445312 L 25.441406 163.820312 C 25.167969 163.128906 24.898438 162.425781 24.644531 161.714844 C 24.015625 159.910156 23.960938 159.808594 23.707031 159.144531 L 23.621094 158.929688 C 23.773438 159.550781 23.375 157.972656 23.390625 158.054688 L 23.335938 157.851562 L 23.113281 157.054688 L 22.679688 155.441406 C 22.390625 154.363281 22.183594 153.253906 21.949219 152.144531 C 21.519531 149.917969 21.230469 147.640625 21.050781 145.347656 C 20.703125 140.75 20.828125 136.082031 21.46875 131.5625 " fill-opacity="1" fill-rule="nonzero"/><path fill="#b48a64" d="M 17.972656 130.03125 C 18.632812 125.339844 19.714844 120.777344 21.21875 116.492188 C 22.714844 112.203125 24.558594 108.15625 26.675781 104.394531 C 28.820312 100.648438 31.21875 97.175781 33.820312 93.980469 C 36.429688 90.792969 39.269531 87.917969 42.242188 85.296875 C 45.207031 82.667969 48.371094 80.371094 51.632812 78.347656 C 53.269531 77.351562 54.925781 76.390625 56.609375 75.527344 C 57.449219 75.078125 58.304688 74.683594 59.160156 74.296875 L 60.445312 73.710938 C 60.648438 73.617188 60.914062 73.511719 61.164062 73.40625 L 61.917969 73.101562 L 63.4375 72.503906 L 64.199219 72.210938 L 64.65625 72.046875 L 65.984375 71.5625 L 66.207031 71.484375 L 66.316406 71.445312 L 66.980469 71.230469 C 68.640625 70.730469 70.289062 70.183594 71.988281 69.804688 C 75.355469 68.941406 78.800781 68.367188 82.269531 67.945312 C 85.742188 67.566406 89.261719 67.484375 92.789062 67.566406 C 96.320312 67.675781 99.863281 68.109375 103.394531 68.746094 C 106.925781 69.425781 110.453125 70.351562 113.921875 71.597656 C 117.386719 72.863281 120.828125 74.371094 124.167969 76.234375 C 127.503906 78.082031 130.753906 80.296875 133.875 82.777344 C 135.429688 84.019531 136.9375 85.410156 138.414062 86.796875 C 139.144531 87.53125 139.867188 88.265625 140.582031 89.003906 C 141.300781 89.738281 141.984375 90.550781 142.675781 91.328125 C 145.417969 94.507812 147.90625 98.023438 150.097656 101.792969 C 152.292969 105.566406 154.105469 109.644531 155.570312 113.824219 L 156.09375 115.402344 L 156.351562 116.191406 L 156.476562 116.585938 C 156.515625 116.714844 156.5625 116.847656 156.609375 117.015625 C 156.984375 118.292969 157.335938 119.578125 157.648438 120.863281 L 157.769531 121.34375 L 157.828125 121.585938 C 157.847656 121.675781 157.84375 121.679688 157.855469 121.730469 L 158.09375 123.203125 L 158.210938 123.9375 L 158.230469 124.0625 C 158.058594 123.382812 158.492188 125.121094 158.457031 125.019531 L 158.671875 126.511719 C 158.808594 127.503906 158.941406 128.496094 159.074219 129.488281 C 159.183594 130.476562 159.261719 131.476562 159.34375 132.464844 C 159.390625 132.984375 159.421875 133.496094 159.449219 134.011719 L 133.976562 134.011719 C 133.941406 133.855469 133.90625 133.699219 133.875 133.539062 L 133.691406 132.636719 L 133.464844 131.789062 L 133.210938 130.839844 C 133.128906 130.523438 133.042969 130.199219 132.949219 129.945312 C 132.769531 129.394531 132.589844 128.847656 132.40625 128.296875 C 132.1875 127.738281 131.972656 127.179688 131.753906 126.617188 C 130.832031 124.390625 129.714844 122.246094 128.417969 120.222656 C 127.105469 118.207031 125.609375 116.332031 123.972656 114.59375 C 123.550781 114.171875 123.15625 113.714844 122.714844 113.320312 L 121.40625 112.101562 C 120.492188 111.339844 119.589844 110.5625 118.625 109.867188 C 116.707031 108.472656 114.695312 107.191406 112.578125 106.140625 C 104.125 101.835938 94.429688 100.367188 85.003906 101.4375 C 82.640625 101.710938 80.28125 102.0625 77.960938 102.640625 C 76.789062 102.886719 75.644531 103.253906 74.488281 103.566406 L 72.761719 104.128906 L 72.316406 104.277344 L 71.914062 104.433594 L 71.105469 104.742188 C 66.707031 106.453125 62.460938 108.871094 58.714844 111.9375 C 54.957031 114.988281 51.640625 118.667969 49.023438 122.824219 C 46.414062 126.972656 44.519531 131.605469 43.617188 136.371094 C 43.160156 138.753906 42.953125 141.164062 43.003906 143.539062 C 43.023438 144.726562 43.121094 145.902344 43.261719 147.066406 C 43.351562 147.644531 43.398438 148.230469 43.519531 148.800781 L 43.6875 149.65625 L 43.769531 150.082031 L 43.789062 150.191406 C 43.789062 150.203125 43.789062 150.203125 43.789062 150.199219 C 43.789062 150.203125 43.789062 150.203125 43.792969 150.210938 L 43.851562 150.441406 C 44.011719 151.046875 44.164062 151.730469 44.324219 152.171875 L 44.554688 152.910156 L 44.847656 153.683594 C 45.230469 154.71875 45.710938 155.695312 46.210938 156.652344 C 47.257812 158.53125 48.527344 160.234375 49.953125 161.726562 C 52.796875 164.726562 56.253906 166.824219 59.792969 168.175781 C 63.339844 169.527344 66.996094 170.128906 70.507812 170.152344 C 72.261719 170.160156 73.988281 170.054688 75.664062 169.808594 C 77.339844 169.550781 78.96875 169.207031 80.535156 168.765625 C 82.144531 168.3125 83.554688 167.785156 84.96875 167.132812 C 86.367188 166.484375 87.6875 165.75 88.914062 164.925781 C 93.84375 161.648438 97.214844 157.207031 99.015625 153.097656 C 99.933594 151.046875 100.464844 149.074219 100.78125 147.339844 C 101.089844 145.597656 101.148438 144.078125 101.101562 142.859375 C 101.054688 141.636719 100.933594 140.703125 100.832031 140.082031 C 100.71875 139.460938 99.621094 134.550781 100.15625 134.28125 C 100.695312 134.011719 103.699219 138.59375 104.089844 139.28125 C 104.457031 139.96875 105.015625 141.023438 105.535156 142.546875 C 106.066406 144.070312 106.59375 146.074219 106.800781 148.550781 C 106.898438 149.785156 106.976562 151.152344 106.902344 152.601562 C 106.835938 154.058594 106.65625 155.601562 106.363281 157.222656 C 105.800781 160.484375 104.640625 163.980469 102.886719 167.503906 C 102.453125 168.394531 101.96875 169.265625 101.460938 170.15625 C 100.933594 171.027344 100.367188 171.890625 99.761719 172.742188 C 98.546875 174.453125 97.175781 176.132812 95.648438 177.753906 C 94.121094 179.386719 92.410156 180.898438 90.546875 182.308594 C 90.085938 182.667969 89.609375 183.007812 89.121094 183.34375 C 88.875 183.515625 88.632812 183.683594 88.386719 183.851562 C 88.136719 184.023438 87.820312 184.195312 87.539062 184.367188 C 87.246094 184.539062 86.953125 184.707031 86.660156 184.878906 L 86.4375 185.003906 L 86.324219 185.070312 L 86.253906 185.113281 L 85.972656 185.300781 L 85.410156 185.664062 L 85.128906 185.851562 C 84.988281 185.902344 85.34375 185.796875 84.792969 185.984375 L 84.695312 186.03125 L 84.503906 186.132812 C 80.414062 188.316406 75.746094 190.074219 70.550781 190.96875 C 65.367188 191.886719 59.644531 191.957031 53.566406 190.601562 C 50.527344 189.9375 47.410156 188.875 44.261719 187.359375 C 41.113281 185.859375 37.949219 183.820312 34.890625 181.195312 C 34.128906 180.53125 33.367188 179.859375 32.625 179.113281 C 32.253906 178.746094 31.878906 178.378906 31.511719 177.996094 C 31.144531 177.605469 30.785156 177.203125 30.429688 176.800781 C 28.992188 175.179688 27.636719 173.371094 26.347656 171.445312 C 25.089844 169.488281 23.890625 167.417969 22.855469 165.1875 L 22.097656 163.503906 C 21.816406 162.785156 21.539062 162.054688 21.273438 161.320312 C 20.621094 159.445312 20.5625 159.34375 20.300781 158.652344 L 20.210938 158.429688 C 20.367188 159.074219 19.953125 157.4375 19.972656 157.519531 L 19.914062 157.316406 L 19.683594 156.484375 L 19.238281 154.808594 C 18.933594 153.691406 18.71875 152.542969 18.476562 151.390625 C 18.03125 149.082031 17.730469 146.71875 17.542969 144.332031 C 17.179688 139.570312 17.308594 134.722656 17.972656 130.03125 " fill-opacity="1" fill-rule="nonzero"/><path fill="#f1f2f2" d="M 124.910156 130.476562 C 124.910156 143.914062 135.8125 154.800781 149.25 154.800781 C 162.695312 154.800781 173.597656 143.914062 173.597656 130.476562 C 173.597656 117.042969 162.695312 106.152344 149.25 106.152344 C 135.8125 106.152344 124.910156 117.042969 124.910156 130.476562 " fill-opacity="1" fill-rule="nonzero"/></svg>