<svg xmlns="http://www.w3.org/2000/svg" xmlns:xlink="http://www.w3.org/1999/xlink" width="500" zoomAndPan="magnify" viewBox="0 0 375 374.999991" height="500" preserveAspectRatio="xMidYMid meet" version="1.0"><path fill="#ac7d3d" d="M 174.972656 261.902344 C 176.714844 268.261719 174.28125 283.308594 170.316406 295.847656 C 165.441406 311.28125 172.460938 336.496094 172.441406 336.496094 C 152.476562 352.445312 127.007812 336.695312 135.488281 332.222656 C 143.988281 327.75 152.257812 311.285156 156.578125 297.964844 C 160.835938 284.644531 170.460938 279.035156 140.03125 233.253906 C 120.96875 204.726562 118.839844 182.921875 118.863281 182.914062 C 118.910156 182.875 162.835938 217.242188 174.972656 261.902344 " fill-opacity="1" fill-rule="nonzero"/><path fill="#86612f" d="M 120.039062 185 C 121.101562 191.183594 125.457031 209.867188 140.738281 232.753906 C 167.527344 273.039062 163.546875 282.523438 159.175781 293.441406 C 158.5625 294.964844 157.925781 296.554688 157.378906 298.234375 C 152.828125 312.296875 144.433594 328.492188 135.859375 333.003906 C 134.539062 333.695312 134.566406 334.476562 134.699219 335 C 135.5 338.046875 143.667969 343.214844 154.660156 342.542969 C 160.722656 342.175781 166.523438 339.964844 171.480469 336.152344 C 170.453125 332.183594 164.972656 309.964844 169.511719 295.5625 C 173.71875 282.265625 175.734375 267.898438 174.15625 262.144531 C 163.5625 223.273438 128.289062 191.804688 120.039062 185 Z M 154.757812 344.296875 C 144.011719 344.953125 134.289062 340.101562 133.085938 335.457031 C 132.65625 333.804688 133.390625 332.335938 135.109375 331.4375 C 143.210938 327.171875 151.480469 310.953125 155.777344 297.679688 C 156.339844 295.945312 156.996094 294.320312 157.617188 292.761719 C 161.804688 282.3125 165.605469 273.238281 139.328125 233.742188 C 120.359375 205.367188 118.011719 183.238281 118.007812 183.003906 C 117.945312 182.335938 117.878906 181.664062 117.820312 181 C 118.34375 181.40625 118.863281 181.8125 119.382812 182.214844 C 119.878906 182.527344 163.722656 217.238281 175.789062 261.664062 C 177.703125 268.628906 174.875 284.269531 171.117188 296.113281 C 166.382812 311.121094 173.1875 336 173.253906 336.242188 C 173.304688 336.4375 173.359375 336.632812 173.40625 336.828125 C 173.257812 336.953125 173.105469 337.070312 172.953125 337.191406 C 167.628906 341.4375 161.34375 343.894531 154.757812 344.296875 " fill-opacity="1" fill-rule="nonzero"/><path fill="#ac7d3d" d="M 285.132812 250.3125 C 285.261719 256.929688 282.5 272.808594 278.304688 285.261719 C 273.160156 300.601562 279.722656 325.949219 279.707031 325.949219 C 259.445312 341.507812 234.25 325.257812 242.804688 320.949219 C 251.394531 316.640625 259.972656 300.351562 264.523438 287.113281 C 269.019531 273.882812 269.28125 249.015625 239.464844 202.699219 C 239.464844 202.691406 258.53125 200.003906 265.417969 193.933594 C 265.449219 193.921875 284.835938 232.871094 285.132812 250.3125 " fill-opacity="1" fill-rule="nonzero"/><path fill="#86612f" d="M 240.921875 203.359375 C 264.039062 239.542969 272.019531 267.882812 265.320312 287.410156 C 260.511719 301.371094 251.828125 317.402344 243.175781 321.738281 C 241.835938 322.410156 241.851562 323.1875 241.976562 323.714844 C 242.714844 326.777344 250.796875 332.105469 261.804688 331.652344 C 267.882812 331.398438 273.726562 329.300781 278.75 325.589844 C 277.792969 321.59375 272.710938 299.28125 277.515625 284.972656 C 281.648438 272.667969 284.417969 256.847656 284.285156 250.339844 C 284.007812 234.796875 268.125 201.363281 265.125 195.289062 C 258.699219 200.125 245.234375 202.648438 240.921875 203.359375 Z M 261.871094 333.402344 C 251.109375 333.84375 241.472656 328.804688 240.34375 324.140625 C 239.953125 322.480469 240.714844 321.027344 242.445312 320.15625 C 250.628906 316.050781 259.191406 300 263.726562 286.816406 C 270.300781 267.628906 262.132812 239.429688 238.753906 203.1875 C 238.503906 202.796875 238.257812 202.414062 238 202.023438 C 238.457031 201.960938 238.90625 201.894531 239.351562 201.835938 C 239.546875 201.796875 258.246094 199.097656 264.855469 193.273438 C 265.132812 193.027344 265.414062 192.785156 265.6875 192.546875 C 265.851562 192.875 266.019531 193.207031 266.179688 193.53125 C 267.015625 195.117188 285.691406 232.855469 285.988281 250.300781 C 286.113281 256.957031 283.300781 273.066406 279.109375 285.546875 C 274.105469 300.464844 280.472656 325.46875 280.523438 325.722656 C 280.574219 325.914062 280.625 326.109375 280.675781 326.296875 C 280.519531 326.417969 280.359375 326.535156 280.207031 326.65625 C 274.804688 330.796875 268.476562 333.125 261.871094 333.402344 " fill-opacity="1" fill-rule="nonzero"/><path fill="#c28e46" d="M 86.324219 93.257812 C 83.105469 107.386719 78.355469 130.828125 96.320312 156.011719 C 114.238281 181.214844 128.183594 191.152344 136.152344 201.179688 C 144.726562 211.96875 146.3125 217.875 159.472656 236.636719 C 190.902344 281.699219 186.488281 303.941406 182.203125 317.234375 C 177.84375 330.550781 169.707031 350.179688 161.222656 354.617188 C 152.761719 359.050781 178.066406 374.929688 198.015625 359.066406 C 198.03125 359.0625 191.222656 330.679688 195.898438 315.179688 C 200.558594 299.683594 212.417969 273.382812 201.574219 257.824219 C 190.71875 242.28125 189.226562 224.425781 201.152344 203.398438 C 200.421875 204.785156 199.6875 206.167969 198.953125 207.554688 C 198.988281 207.523438 238.574219 216.691406 261.21875 200.570312 C 260.667969 196.988281 260.105469 193.398438 259.546875 189.816406 C 259.535156 189.820312 260.902344 208.035156 276.632812 230.933594 C 307.65625 276.3125 302.355469 298.796875 297.816406 311.996094 C 293.195312 325.214844 284.691406 344.667969 276.132812 348.925781 C 267.59375 353.183594 292.582031 369.582031 312.828125 354.152344 C 312.839844 354.152344 306.570312 325.625 311.550781 310.234375 C 316.503906 294.835938 328.855469 268.789062 318.316406 253.007812 C 307.753906 237.238281 306.609375 219.347656 318.929688 198.585938 C 336.289062 169.371094 335.890625 124.050781 302.726562 111.179688 C 277.863281 101.578125 263.558594 71.328125 232.71875 72.683594 C 205.457031 73.910156 190.296875 91.15625 180.984375 112.5625 C 171.675781 133.984375 173.710938 138.789062 163.597656 144.027344 C 149.789062 151.210938 133.75 141.039062 133.597656 123.46875 C 133.5 111.238281 139.808594 95.339844 138.773438 75.035156 C 137.933594 58.851562 140.953125 19.804688 100.683594 22.574219 C 67.160156 24.988281 75.46875 43.9375 48.792969 50.738281 C 22.128906 57.605469 15.722656 65.1875 18.824219 87.316406 C 21.953125 109.460938 36.820312 115.558594 52.703125 107.203125 C 68.632812 98.835938 69.011719 94.507812 80.769531 93.585938 C 95.84375 92.421875 107.105469 96.238281 117.640625 79.421875 " fill-opacity="1" fill-rule="nonzero"/><path fill="#86612f" d="M 261.054688 193.894531 C 262.371094 200.515625 266.296875 214.351562 277.328125 230.429688 C 306.523438 273.125 304.296875 295.8125 298.601562 312.300781 C 295.980469 319.789062 286.722656 344.632812 276.488281 349.71875 C 275.667969 350.121094 275.25 350.640625 275.242188 351.246094 C 275.21875 352.480469 276.777344 354.574219 280.300781 356.488281 C 286.324219 359.75 299.636719 362.796875 311.890625 353.773438 C 311.023438 349.546875 306.089844 324.375 310.75 309.960938 C 311.511719 307.605469 312.4375 305.007812 313.417969 302.265625 C 318.808594 287.171875 326.3125 266.507812 317.613281 253.503906 C 306.320312 236.628906 306.410156 218 318.195312 198.128906 C 329.167969 179.648438 332.503906 156.023438 326.476562 137.921875 C 322.328125 125.46875 314.007812 116.484375 302.40625 112 C 292.390625 108.125 284 100.898438 275.847656 93.917969 C 263.675781 83.496094 250.992188 72.742188 232.75 73.558594 C 209.574219 74.601562 192.828125 87.53125 181.78125 112.910156 C 178.902344 119.523438 177.132812 124.496094 175.714844 128.496094 C 172.566406 137.363281 171.269531 141.03125 163.996094 144.8125 C 157.363281 148.25 149.992188 148.042969 143.730469 144.230469 C 136.921875 140.074219 132.796875 132.324219 132.726562 123.480469 C 132.679688 118.367188 133.71875 112.789062 134.917969 106.324219 C 136.589844 97.226562 138.511719 86.941406 137.902344 75.085938 C 137.820312 73.605469 137.777344 71.941406 137.730469 70.132812 C 137.402344 58.238281 136.9375 40.25 126.054688 30.398438 C 120.117188 25.035156 111.613281 22.640625 100.734375 23.445312 C 82.625 24.734375 77.050781 30.90625 71.171875 37.417969 C 66.285156 42.851562 61.238281 48.449219 49.003906 51.582031 C 22.683594 58.367188 16.691406 65.753906 19.691406 87.1875 C 21.15625 97.589844 25.285156 104.796875 31.644531 108.042969 C 37.390625 110.992188 44.722656 110.414062 52.304688 106.425781 C 58.152344 103.347656 61.886719 100.832031 64.886719 98.8125 C 69.988281 95.378906 73.070312 93.308594 80.707031 92.714844 C 83.613281 92.492188 86.339844 92.449219 88.992188 92.410156 C 99.976562 92.25 108.625 92.160156 116.894531 78.960938 C 117.390625 79.269531 117.882812 79.578125 118.375 79.890625 C 109.59375 93.902344 100.070312 94.003906 89.011719 94.160156 C 88.347656 94.171875 87.675781 94.183594 87.003906 94.195312 C 84.046875 107.203125 79.308594 130.660156 97.015625 155.5 C 108.789062 172.035156 118.671875 181.835938 126.597656 189.714844 C 130.613281 193.710938 134.074219 197.164062 136.820312 200.617188 C 141.195312 206.128906 143.734375 210.332031 146.9375 215.664062 C 149.953125 220.660156 153.695312 226.882812 160.164062 236.125 C 189.953125 278.832031 188.257812 301.277344 183 317.515625 C 180.515625 325.066406 171.734375 350.101562 161.59375 355.40625 C 160.785156 355.824219 160.378906 356.347656 160.371094 356.953125 C 160.378906 358.183594 161.980469 360.246094 165.535156 362.085938 C 171.621094 365.222656 184.988281 367.988281 197.074219 358.710938 C 196.125 354.5 190.710938 329.445312 195.101562 314.921875 C 195.8125 312.554688 196.695312 309.941406 197.625 307.175781 C 202.730469 291.96875 209.835938 271.164062 200.886719 258.339844 C 190.273438 243.144531 189.136719 226.292969 197.703125 208.164062 C 197.695312 208.160156 197.675781 208.160156 197.660156 208.148438 C 197.847656 207.792969 198.035156 207.441406 198.226562 207.085938 C 198.898438 205.722656 199.632812 204.34375 200.414062 202.964844 C 200.910156 203.25 201.410156 203.53125 201.90625 203.820312 C 201.359375 204.855469 200.8125 205.890625 200.261719 206.925781 C 206.808594 208.179688 240.253906 213.988281 260.292969 200.160156 C 260.019531 198.386719 259.742188 196.609375 259.460938 194.828125 C 258.851562 191.863281 258.714844 190.105469 258.695312 189.882812 C 259.261719 189.816406 259.828125 189.75 260.394531 189.679688 C 260.613281 191.085938 260.835938 192.492188 261.054688 193.894531 Z M 294.933594 361.484375 C 289.15625 361.6875 283.738281 360.324219 279.53125 358.042969 C 275.761719 355.992188 273.527344 353.449219 273.570312 351.214844 C 273.582031 350.300781 273.976562 349.023438 275.773438 348.136719 C 283.453125 344.316406 291.761719 326.816406 297.023438 311.703125 C 302.566406 295.636719 304.6875 273.472656 275.941406 231.445312 C 267.832031 219.636719 263.5 209.136719 261.210938 201.636719 C 239.78125 216.40625 204.84375 209.667969 199.417969 208.546875 C 190.800781 226.367188 191.828125 242.367188 202.265625 257.304688 C 211.726562 270.886719 204.441406 292.191406 199.207031 307.75 C 198.285156 310.503906 197.410156 313.113281 196.703125 315.445312 C 192.152344 330.527344 198.773438 358.566406 198.828125 358.851562 C 198.875 359.042969 198.921875 359.226562 198.964844 359.417969 C 198.820312 359.527344 198.671875 359.648438 198.519531 359.761719 C 187.265625 368.691406 173.511719 368.152344 164.800781 363.65625 C 160.988281 361.691406 158.707031 359.1875 158.703125 356.957031 C 158.699219 356.046875 159.066406 354.761719 160.847656 353.832031 C 168.457031 349.859375 176.425781 332.1875 181.40625 316.957031 C 186.527344 301.128906 188.136719 279.203125 158.777344 237.152344 C 152.273438 227.863281 148.511719 221.609375 145.488281 216.574219 C 142.308594 211.3125 139.796875 207.152344 135.492188 201.722656 C 132.800781 198.351562 129.371094 194.921875 125.394531 190.976562 C 117.417969 183.046875 107.476562 173.199219 95.617188 156.527344 C 77.640625 131.320312 82.183594 107.601562 85.203125 94.238281 C 83.777344 94.28125 82.320312 94.347656 80.828125 94.460938 C 73.65625 95.015625 70.882812 96.886719 65.851562 100.269531 C 62.820312 102.316406 59.042969 104.859375 53.101562 107.976562 C 45.003906 112.234375 37.113281 112.828125 30.84375 109.609375 C 23.964844 106.089844 19.507812 98.429688 17.964844 87.445312 C 14.8125 65.050781 21.359375 56.898438 48.582031 49.882812 C 60.296875 46.882812 65.152344 41.484375 69.859375 36.253906 C 75.714844 29.769531 81.789062 23.035156 100.621094 21.703125 C 100.683594 21.699219 100.738281 21.695312 100.800781 21.683594 C 112.074219 20.921875 120.980469 23.4375 127.242188 29.097656 C 138.675781 39.449219 139.144531 57.886719 139.480469 70.082031 C 139.53125 71.867188 139.574219 73.523438 139.652344 74.984375 C 140.265625 87.046875 138.328125 97.453125 136.625 106.628906 C 135.441406 113.011719 134.421875 118.511719 134.460938 123.457031 C 134.523438 131.6875 138.328125 138.890625 144.636719 142.726562 C 150.367188 146.21875 157.121094 146.410156 163.207031 143.253906 C 169.871094 139.789062 171.011719 136.554688 174.082031 127.90625 C 175.507812 123.882812 177.28125 118.882812 180.1875 112.222656 C 191.527344 86.15625 208.773438 72.882812 232.683594 71.808594 C 251.605469 70.960938 264.542969 81.9375 276.976562 92.582031 C 285.019531 99.46875 293.292969 106.59375 303.035156 110.363281 C 315.132812 115.042969 323.800781 124.402344 328.113281 137.359375 C 334.292969 155.933594 330.886719 180.136719 319.660156 199.039062 C 308.085938 218.535156 307.972656 236.019531 319.011719 252.503906 C 328.210938 266.273438 320.519531 287.421875 315 302.875 C 314.019531 305.605469 313.089844 308.191406 312.34375 310.507812 C 307.503906 325.488281 313.589844 353.671875 313.644531 353.957031 C 313.683594 354.144531 313.722656 354.332031 313.765625 354.519531 C 313.613281 354.628906 313.46875 354.746094 313.316406 354.855469 C 307.457031 359.316406 301 361.269531 294.933594 361.484375 " fill-opacity="1" fill-rule="nonzero"/><path fill="#c28e46" d="M 326.972656 136.699219 C 326.976562 136.683594 351.566406 135.160156 345.011719 173.628906 C 343.871094 173.664062 342.738281 173.6875 341.597656 173.722656 C 341.597656 173.722656 344.851562 151.019531 329.742188 148.519531 C 329.742188 148.519531 328.933594 141.429688 326.972656 136.699219 " fill-opacity="1" fill-rule="nonzero"/><path fill="#845333" d="M 345.453125 170.742188 C 345.453125 170.742188 360.511719 175.628906 352.984375 189.875 C 348.953125 197.535156 341.183594 195.183594 340.726562 204.875 C 340.753906 204.871094 321.308594 179.976562 341.839844 170.835938 C 341.757812 171.792969 341.679688 172.761719 341.597656 173.722656 C 342.738281 173.6875 343.871094 173.664062 345.011719 173.628906 C 345.15625 172.667969 345.308594 171.699219 345.453125 170.742188 " fill-opacity="1" fill-rule="nonzero"/><path fill="#c28e46" d="M 112.910156 36.363281 C 112.875 36.363281 127.414062 -0.0273438 143.976562 15.457031 C 159.441406 30.011719 138.28125 44.234375 121.75 45.304688 " fill-opacity="1" fill-rule="nonzero"/><path fill="#86612f" d="M 121.800781 46.1875 C 121.769531 45.59375 121.742188 45.019531 121.703125 44.429688 C 131.828125 43.777344 144.6875 37.890625 147.820312 29.453125 C 149.492188 24.941406 148.003906 20.445312 143.367188 16.097656 C 140.175781 13.109375 136.839844 11.96875 133.457031 12.730469 C 122.378906 15.210938 113.808594 36.460938 113.730469 36.679688 C 113.1875 36.464844 112.636719 36.257812 112.085938 36.046875 C 112.445312 35.136719 121.085938 13.707031 133.074219 11.019531 C 137.066406 10.128906 140.933594 11.402344 144.578125 14.824219 C 151.042969 20.894531 150.804688 26.453125 149.476562 30.050781 C 146.089844 39.15625 132.480469 45.496094 121.800781 46.1875 " fill-opacity="1" fill-rule="nonzero"/><path fill="#dbad89" d="M 124.296875 40.25 C 132.746094 39.707031 143.523438 32.417969 135.628906 25.003906 C 127.183594 17.105469 119.769531 35.679688 119.785156 35.679688 C 121.285156 37.195312 122.789062 38.722656 124.296875 40.25 " fill-opacity="1" fill-rule="nonzero"/><path fill="#86612f" d="M 120.816406 35.464844 C 122.089844 36.757812 123.367188 38.050781 124.636719 39.339844 C 129.628906 38.894531 135.753906 35.917969 137.191406 31.996094 C 137.980469 29.871094 137.25 27.726562 135.019531 25.640625 C 133.71875 24.421875 132.378906 23.847656 131.054688 23.933594 C 126.535156 24.207031 122.332031 31.90625 120.816406 35.464844 Z M 124.34375 41.117188 C 124.210938 41.128906 124.074219 41.136719 123.941406 41.148438 C 122.214844 39.390625 120.476562 37.636719 118.746094 35.882812 C 118.816406 35.714844 118.890625 35.535156 118.964844 35.355469 C 119.167969 34.835938 124.109375 22.609375 130.953125 22.179688 C 132.792969 22.070312 134.566406 22.800781 136.238281 24.359375 C 139.703125 27.617188 139.5625 30.628906 138.847656 32.59375 C 137.066406 37.414062 129.933594 40.761719 124.34375 41.117188 " fill-opacity="1" fill-rule="nonzero"/><path fill="#ffffff" d="M 101.121094 48.273438 C 99.558594 53.246094 94.265625 56.054688 89.285156 54.542969 C 84.300781 53.035156 81.507812 47.769531 83.054688 42.792969 C 84.609375 37.804688 89.914062 34.984375 94.914062 36.503906 C 99.90625 38.015625 102.679688 43.289062 101.121094 48.273438 " fill-opacity="1" fill-rule="nonzero"/><path fill="#86612f" d="M 91.5625 36.992188 C 88.027344 37.238281 84.941406 39.667969 83.890625 43.042969 C 83.214844 45.226562 83.4375 47.539062 84.5 49.558594 C 85.574219 51.566406 87.363281 53.039062 89.542969 53.707031 C 90.550781 54.007812 91.582031 54.132812 92.628906 54.050781 C 96.152344 53.808594 99.230469 51.386719 100.277344 48.011719 C 100.964844 45.828125 100.761719 43.511719 99.695312 41.5 C 98.632812 39.488281 96.839844 38.003906 94.652344 37.339844 C 93.640625 37.035156 92.601562 36.921875 91.5625 36.992188 Z M 92.734375 55.804688 C 91.480469 55.890625 90.230469 55.746094 89.023438 55.386719 C 86.390625 54.585938 84.226562 52.8125 82.941406 50.382812 C 81.65625 47.960938 81.398438 45.167969 82.21875 42.535156 C 83.476562 38.46875 87.191406 35.53125 91.449219 35.242188 C 92.703125 35.15625 93.964844 35.296875 95.171875 35.667969 C 97.8125 36.464844 99.972656 38.246094 101.253906 40.675781 C 102.535156 43.101562 102.785156 45.890625 101.960938 48.523438 C 100.6875 52.585938 96.976562 55.511719 92.734375 55.804688 " fill-opacity="1" fill-rule="nonzero"/><path fill="#845333" d="M 98.074219 48.050781 C 97.050781 51.332031 93.5625 53.171875 90.289062 52.175781 C 87.019531 51.179688 85.183594 47.726562 86.195312 44.445312 C 87.21875 41.167969 90.710938 39.320312 93.992188 40.320312 C 97.277344 41.304688 99.097656 44.773438 98.074219 48.050781 " fill-opacity="1" fill-rule="nonzero"/><path fill="#351f17" d="M 94.90625 47.976562 C 94.339844 49.78125 92.425781 50.800781 90.621094 50.257812 C 88.816406 49.703125 87.804688 47.800781 88.363281 46 C 88.925781 44.191406 90.851562 43.171875 92.660156 43.726562 C 94.460938 44.269531 95.46875 46.175781 94.90625 47.976562 " fill-opacity="1" fill-rule="nonzero"/><path fill="#ffffff" d="M 95.5625 48.355469 C 95.367188 48.96875 94.707031 49.316406 94.089844 49.128906 C 93.46875 48.941406 93.128906 48.28125 93.320312 47.667969 C 93.507812 47.054688 94.167969 46.703125 94.785156 46.890625 C 95.414062 47.082031 95.757812 47.734375 95.5625 48.355469 " fill-opacity="1" fill-rule="nonzero"/><path fill="#86612f" d="M 100.769531 48.097656 C 102.230469 43.1875 99.484375 38.015625 94.558594 36.519531 C 89.628906 35.03125 84.40625 37.773438 82.820312 42.65625 C 88.804688 44.460938 94.789062 46.273438 100.769531 48.097656 " fill-opacity="1" fill-rule="nonzero"/><path fill="#52423b" d="M 23.457031 73.863281 C 23.457031 73.863281 23.1875 68.792969 26.96875 65.222656 C 30.75 61.640625 37.449219 60.011719 39.28125 62.675781 C 41.554688 65.984375 37.875 69.539062 32.273438 70.570312 C 27.128906 71.515625 24.085938 73.15625 23.457031 73.863281 " fill-opacity="1" fill-rule="nonzero"/><path fill="#a4783b" d="M 32.105469 67.558594 C 28.371094 68.246094 25.652344 69.253906 24.007812 70.089844 C 23.371094 72.191406 23.457031 73.863281 23.457031 73.863281 C 24.085938 73.15625 27.128906 71.515625 32.273438 70.570312 C 37.367188 69.636719 40.859375 66.609375 39.734375 63.574219 C 38.367188 65.414062 35.566406 66.925781 32.105469 67.558594 " fill-opacity="1" fill-rule="nonzero"/><path fill="#6d4e25" d="M 35.390625 62.253906 C 32.769531 62.457031 29.628906 63.910156 27.566406 65.851562 C 25.417969 67.886719 24.691406 70.488281 24.449219 72.152344 C 26.03125 71.324219 28.617188 70.355469 32.121094 69.710938 C 35.460938 69.097656 38.113281 67.535156 38.875 65.710938 C 39.234375 64.863281 39.132812 64.007812 38.558594 63.175781 C 37.890625 62.207031 36.285156 62.179688 35.390625 62.253906 Z M 22.699219 76.03125 C 22.660156 75.324219 22.621094 74.617188 22.582031 73.917969 C 22.570312 73.691406 22.335938 68.394531 26.363281 64.589844 C 28.726562 62.34375 32.222656 60.742188 35.261719 60.503906 C 37.457031 60.324219 39.148438 60.925781 40.003906 62.171875 C 40.925781 63.511719 41.089844 64.964844 40.496094 66.382812 C 39.488281 68.765625 36.398438 70.703125 32.425781 71.433594 C 27.273438 72.382812 24.53125 73.96875 24.113281 74.4375 C 23.636719 74.972656 23.167969 75.503906 22.699219 76.03125 " fill-opacity="1" fill-rule="nonzero"/><path fill="#86612f" d="M 24.515625 103.691406 C 24.460938 103.113281 24.417969 102.53125 24.363281 101.949219 C 24.578125 101.925781 44.597656 99.824219 62.886719 81.457031 C 63.292969 81.871094 63.707031 82.277344 64.121094 82.691406 C 45.359375 101.53125 24.730469 103.667969 24.515625 103.691406 " fill-opacity="1" fill-rule="nonzero"/><path fill="#86612f" d="M 67.011719 87.316406 C 66.433594 87.335938 65.84375 87.347656 65.265625 87.363281 C 65.148438 80.855469 58.882812 80.566406 58.617188 80.5625 C 58.644531 79.976562 58.667969 79.394531 58.691406 78.808594 C 58.773438 78.8125 66.871094 79.179688 67.011719 87.316406 " fill-opacity="1" fill-rule="nonzero"/><path fill="#86612f" d="M 32.699219 108.867188 C 30.753906 109.023438 29.425781 108.699219 29.308594 108.671875 C 29.453125 108.105469 29.597656 107.539062 29.746094 106.96875 C 29.960938 107.023438 35.0625 108.226562 39.867188 103.839844 C 40.25 104.273438 40.644531 104.707031 41.035156 105.136719 C 38.054688 107.851562 34.960938 108.6875 32.699219 108.867188 " fill-opacity="1" fill-rule="nonzero"/><path fill="#86612f" d="M 294.582031 349.757812 C 294.582031 349.757812 293.125 338.039062 285.195312 340.671875 C 277.265625 343.316406 266.570312 354.308594 275.558594 356.132812 C 284.300781 357.902344 291.460938 352.449219 294.582031 349.757812 " fill-opacity="1" fill-rule="nonzero"/><path fill="#624621" d="M 287.222656 341.171875 C 286.671875 341.191406 286.066406 341.304688 285.445312 341.507812 C 279.539062 343.480469 272.785156 349.78125 272.976562 353.125 C 273.039062 354.191406 273.960938 354.917969 275.710938 355.261719 C 277.007812 355.53125 278.332031 355.640625 279.65625 355.589844 C 284.304688 355.410156 289.015625 353.328125 293.675781 349.40625 C 293.34375 347.566406 291.847656 341 287.222656 341.171875 Z M 279.722656 357.335938 C 279.722656 357.335938 279.722656 357.335938 279.71875 357.335938 C 278.265625 357.390625 276.8125 357.28125 275.394531 356.988281 C 272.160156 356.332031 271.386719 354.582031 271.308594 353.226562 C 271.050781 348.769531 278.765625 341.898438 284.9375 339.839844 C 285.714844 339.582031 286.453125 339.441406 287.167969 339.414062 C 294.03125 339.164062 295.359375 349.222656 295.410156 349.648438 C 295.429688 349.8125 295.449219 349.972656 295.46875 350.121094 C 295.347656 350.238281 295.230469 350.339844 295.109375 350.445312 C 290.035156 354.820312 284.863281 357.144531 279.722656 357.335938 " fill-opacity="1" fill-rule="nonzero"/><path fill="#86612f" d="M 276.710938 359.570312 C 276.726562 359.550781 299.949219 368.277344 299.171875 355.261719 C 298.65625 346.617188 292.828125 345.585938 288.339844 346.71875 C 281.304688 348.503906 269.53125 354.042969 276.710938 359.570312 " fill-opacity="1" fill-rule="nonzero"/><path fill="#624621" d="M 277.105469 358.785156 C 278.125 359.148438 285.550781 361.734375 291.398438 361.523438 C 294.148438 361.425781 296.105469 360.726562 297.214844 359.449219 C 298.078125 358.453125 298.441406 357.101562 298.34375 355.3125 C 297.921875 348.425781 294.066406 347.113281 290.90625 347.230469 C 290.136719 347.253906 289.339844 347.378906 288.535156 347.574219 C 282.503906 349.105469 275.925781 352.507812 275.351562 355.539062 C 275.144531 356.625 275.71875 357.6875 277.105469 358.785156 Z M 291.457031 363.28125 C 284.882812 363.507812 276.777344 360.519531 276.433594 360.398438 C 276.363281 360.359375 276.289062 360.316406 276.222656 360.28125 C 274.210938 358.730469 273.363281 357.019531 273.714844 355.195312 C 274.601562 350.496094 283.539062 347.035156 288.140625 345.871094 C 289.058594 345.636719 289.964844 345.503906 290.847656 345.476562 C 293.417969 345.386719 299.464844 346.140625 300.003906 355.199219 C 300.140625 357.457031 299.617188 359.285156 298.453125 360.625 C 297.03125 362.269531 294.671875 363.15625 291.457031 363.28125 " fill-opacity="1" fill-rule="nonzero"/><path fill="#86612f" d="M 179.597656 355.066406 C 179.601562 355.066406 177.910156 343.375 170.035156 346.175781 C 162.148438 348.984375 151.667969 360.203125 160.691406 361.835938 C 169.46875 363.421875 176.535156 357.820312 179.597656 355.066406 " fill-opacity="1" fill-rule="nonzero"/><path fill="#624621" d="M 172.074219 346.632812 C 171.523438 346.667969 170.925781 346.789062 170.308594 347.007812 C 164.4375 349.105469 157.796875 355.546875 158.050781 358.886719 C 158.136719 359.953125 159.070312 360.652344 160.832031 360.96875 C 162.128906 361.207031 163.464844 361.289062 164.78125 361.207031 C 164.777344 361.207031 164.78125 361.207031 164.78125 361.207031 C 169.421875 360.933594 174.09375 358.753906 178.679688 354.726562 C 178.324219 352.894531 176.6875 346.363281 172.074219 346.632812 Z M 164.878906 362.957031 C 164.878906 362.957031 164.878906 362.957031 164.875 362.957031 C 163.433594 363.046875 161.972656 362.953125 160.550781 362.699219 C 157.300781 362.113281 156.5 360.371094 156.386719 359.027344 C 156.042969 354.574219 163.636719 347.539062 169.773438 345.351562 C 170.535156 345.074219 171.273438 344.917969 171.980469 344.878906 C 178.84375 344.480469 180.363281 354.511719 180.425781 354.933594 C 180.449219 355.097656 180.46875 355.257812 180.496094 355.414062 C 180.378906 355.515625 180.257812 355.628906 180.136719 355.734375 C 175.148438 360.222656 170.019531 362.652344 164.878906 362.957031 " fill-opacity="1" fill-rule="nonzero"/><path fill="#86612f" d="M 161.917969 365.253906 C 161.929688 365.234375 185.320312 373.46875 184.292969 360.464844 C 183.613281 351.84375 177.765625 350.921875 173.296875 352.15625 C 166.292969 354.085938 154.628906 359.878906 161.917969 365.253906 " fill-opacity="1" fill-rule="nonzero"/><path fill="#624621" d="M 162.289062 364.457031 C 163.3125 364.796875 170.804688 367.226562 176.636719 366.890625 C 179.386719 366.730469 181.332031 366 182.414062 364.695312 C 183.253906 363.675781 183.601562 362.324219 183.464844 360.539062 C 182.914062 353.660156 179.035156 352.429688 175.875 352.613281 C 175.109375 352.65625 174.308594 352.789062 173.511719 353.011719 C 167.503906 354.664062 160.992188 358.203125 160.480469 361.25 C 160.289062 362.339844 160.886719 363.394531 162.289062 364.457031 Z M 176.730469 368.640625 C 176.734375 368.640625 176.730469 368.640625 176.730469 368.640625 C 170.15625 369.019531 162.003906 366.199219 161.652344 366.085938 C 161.578125 366.039062 161.507812 366.003906 161.429688 365.964844 C 159.394531 364.464844 158.527344 362.769531 158.828125 360.9375 C 159.632812 356.222656 168.503906 352.578125 173.085938 351.3125 C 173.992188 351.0625 174.894531 350.910156 175.78125 350.859375 C 178.347656 350.710938 184.417969 351.347656 185.128906 360.386719 C 185.300781 362.640625 184.8125 364.476562 183.667969 365.84375 C 182.285156 367.519531 179.945312 368.464844 176.730469 368.640625 " fill-opacity="1" fill-rule="nonzero"/><path fill="#86612f" d="M 259.203125 321.921875 C 259.203125 321.921875 257.902344 311.898438 251.097656 314.203125 C 244.296875 316.5 235.148438 325.957031 242.882812 327.464844 C 250.40625 328.9375 256.539062 324.230469 259.203125 321.921875 " fill-opacity="1" fill-rule="nonzero"/><path fill="#624621" d="M 252.851562 314.734375 C 252.386719 314.753906 251.878906 314.859375 251.359375 315.039062 C 246.433594 316.699219 240.605469 322.148438 240.777344 324.910156 C 240.828125 325.75 241.585938 326.324219 243.035156 326.601562 C 248.011719 327.582031 253.210938 325.855469 258.292969 321.570312 C 257.976562 319.929688 256.660156 314.574219 252.851562 314.734375 Z M 246.46875 328.601562 C 246.46875 328.601562 246.476562 328.601562 246.46875 328.601562 C 245.214844 328.660156 243.960938 328.570312 242.726562 328.320312 C 239.867188 327.769531 239.179688 326.222656 239.097656 325.015625 C 238.847656 321.050781 245.453125 315.191406 250.839844 313.367188 C 251.503906 313.140625 252.160156 313.015625 252.78125 312.984375 C 258.785156 312.730469 259.988281 321.429688 260.039062 321.804688 C 260.058594 321.960938 260.082031 322.125 260.097656 322.285156 C 259.984375 322.386719 259.859375 322.492188 259.742188 322.59375 C 255.378906 326.382812 250.921875 328.40625 246.46875 328.601562 " fill-opacity="1" fill-rule="nonzero"/><path fill="#86612f" d="M 243.890625 330.398438 C 243.898438 330.394531 263.90625 337.722656 263.175781 326.59375 C 262.695312 319.210938 257.683594 318.359375 253.828125 319.355469 C 247.785156 320.914062 237.699219 325.71875 243.890625 330.398438 " fill-opacity="1" fill-rule="nonzero"/><path fill="#624621" d="M 244.289062 329.617188 C 245.21875 329.9375 251.550781 332.085938 256.515625 331.871094 C 258.855469 331.773438 260.507812 331.175781 261.421875 330.101562 C 262.136719 329.273438 262.4375 328.148438 262.339844 326.652344 C 261.964844 320.871094 258.703125 319.78125 256.039062 319.902344 C 255.382812 319.929688 254.710938 320.023438 254.027344 320.210938 C 248.894531 321.527344 243.300781 324.445312 242.828125 326.988281 C 242.765625 327.3125 242.578125 328.285156 244.289062 329.617188 Z M 256.589844 333.625 C 250.917969 333.863281 243.910156 331.339844 243.621094 331.230469 C 243.546875 331.191406 243.472656 331.152344 243.402344 331.117188 C 241.625 329.765625 240.875 328.269531 241.175781 326.648438 C 241.933594 322.558594 249.648438 319.535156 253.625 318.503906 C 254.417969 318.304688 255.207031 318.179688 255.972656 318.148438 C 258.21875 318.050781 263.5 318.683594 264.011719 326.527344 C 264.144531 328.492188 263.691406 330.085938 262.671875 331.273438 C 261.441406 332.710938 259.386719 333.503906 256.589844 333.625 " fill-opacity="1" fill-rule="nonzero"/><path fill="#86612f" d="M 151.988281 332.863281 C 151.988281 332.863281 150.503906 322.863281 143.746094 325.300781 C 136.988281 327.734375 128.019531 337.371094 135.773438 338.726562 C 143.320312 340.050781 149.363281 335.230469 151.988281 332.863281 " fill-opacity="1" fill-rule="nonzero"/><path fill="#624621" d="M 145.507812 325.808594 C 145.035156 325.835938 144.542969 325.949219 144.015625 326.125 C 139.128906 327.890625 133.402344 333.457031 133.625 336.207031 C 133.6875 337.046875 134.460938 337.613281 135.914062 337.863281 C 137.015625 338.054688 138.152344 338.121094 139.277344 338.046875 C 143.21875 337.789062 147.171875 335.941406 151.066406 332.53125 C 150.71875 330.890625 149.316406 325.570312 145.507812 325.808594 Z M 139.378906 339.792969 C 138.128906 339.871094 136.867188 339.808594 135.632812 339.59375 C 132.765625 339.089844 132.046875 337.558594 131.949219 336.355469 C 131.632812 332.390625 138.128906 326.402344 143.476562 324.476562 C 144.136719 324.230469 144.785156 324.097656 145.40625 324.058594 C 151.40625 323.6875 152.757812 332.359375 152.808594 332.730469 C 152.835938 332.890625 152.863281 333.042969 152.886719 333.207031 C 152.765625 333.316406 152.652344 333.421875 152.535156 333.527344 C 148.234375 337.398438 143.8125 339.511719 139.378906 339.792969 " fill-opacity="1" fill-rule="nonzero"/><path fill="#86612f" d="M 136.835938 341.636719 C 136.839844 341.628906 156.96875 348.570312 156.039062 337.460938 C 155.421875 330.082031 150.402344 329.324219 146.5625 330.40625 C 140.558594 332.082031 130.554688 337.074219 136.835938 341.636719 " fill-opacity="1" fill-rule="nonzero"/><path fill="#624621" d="M 137.210938 340.847656 C 138.152344 341.152344 144.515625 343.171875 149.476562 342.867188 C 151.804688 342.71875 153.441406 342.097656 154.347656 340.996094 C 155.046875 340.160156 155.324219 339.023438 155.199219 337.535156 C 154.71875 331.753906 151.441406 330.734375 148.785156 330.902344 C 148.132812 330.949219 147.460938 331.054688 146.785156 331.25 C 141.667969 332.675781 136.125 335.6875 135.707031 338.246094 C 135.652344 338.566406 135.488281 339.546875 137.210938 340.847656 Z M 149.574219 344.613281 C 143.910156 344.964844 136.867188 342.578125 136.574219 342.476562 C 136.5 342.441406 136.425781 342.398438 136.351562 342.363281 C 134.558594 341.050781 133.785156 339.566406 134.058594 337.945312 C 134.734375 333.851562 142.386719 330.664062 146.34375 329.558594 C 147.132812 329.335938 147.921875 329.195312 148.6875 329.152344 C 150.929688 329.003906 156.214844 329.546875 156.871094 337.378906 C 157.035156 339.335938 156.613281 340.9375 155.613281 342.144531 C 154.402344 343.605469 152.371094 344.441406 149.574219 344.613281 " fill-opacity="1" fill-rule="nonzero"/><path fill="#86612f" d="M 178.628906 118.1875 C 178.625 118.195312 179.78125 128.886719 187.683594 131.953125 C 187.683594 131.953125 186.71875 123.875 189.476562 121.402344 C 189.476562 121.402344 194.449219 129.273438 199.585938 128.425781 C 199.585938 128.425781 196.851562 125.375 199.289062 122.050781 C 199.292969 122.050781 205.78125 128.839844 212.253906 129.097656 C 212.253906 129.097656 209.308594 127.425781 209.535156 122.882812 C 209.535156 122.882812 217.109375 128.421875 221.644531 127.046875 C 221.648438 127.046875 219.320312 122.945312 219.015625 119.339844 C 219.015625 119.339844 226.515625 126.605469 232.15625 127.652344 C 232.15625 127.652344 229.8125 122.96875 229.660156 119.273438 C 229.660156 119.273438 236.550781 124.40625 240.636719 124.222656 C 240.636719 124.222656 237.5 121.171875 237.523438 118.269531 C 237.523438 118.269531 247.222656 121.683594 251.992188 120.546875 C 251.992188 120.546875 244.777344 116.140625 245.3125 113.28125 C 245.3125 113.28125 254.683594 119.484375 263.773438 116.515625 C 263.773438 116.511719 257.0625 113.878906 257.792969 110.367188 C 257.792969 110.363281 268.53125 112.695312 271.347656 110.992188 C 271.347656 110.992188 265.6875 109.613281 264.527344 105.304688 C 264.527344 105.304688 273.125 108.167969 277.203125 105.398438 C 277.203125 105.398438 271.679688 103.867188 270.394531 100.148438 C 270.394531 100.148438 276.4375 103.070312 282.464844 98.367188 C 282.464844 98.367188 271.039062 88.351562 266.460938 85.054688 C 261.902344 81.75 246.644531 70.3125 227.761719 73.097656 C 208.878906 75.878906 195.109375 86.867188 188.046875 99.164062 C 180.890625 111.613281 178.632812 118.195312 178.628906 118.1875 " fill-opacity="1" fill-rule="nonzero"/><path fill="#5e4320" d="M 179.519531 118.28125 C 179.707031 119.613281 181.046875 127.355469 186.6875 130.519531 C 186.539062 127.898438 186.578125 122.824219 188.902344 120.746094 C 189.152344 120.519531 189.410156 120.289062 189.667969 120.0625 C 189.84375 120.351562 190.027344 120.640625 190.207031 120.921875 C 190.25 120.988281 193.980469 126.8125 197.992188 127.53125 C 197.28125 125.984375 196.972656 123.738281 198.589844 121.53125 C 198.796875 121.253906 198.996094 120.976562 199.199219 120.707031 C 199.4375 120.945312 199.679688 121.191406 199.914062 121.441406 C 199.964844 121.492188 204.65625 126.339844 209.835938 127.808594 C 209.140625 126.691406 208.554688 125.074219 208.667969 122.84375 C 208.699219 122.304688 208.722656 121.765625 208.746094 121.230469 C 209.179688 121.542969 209.609375 121.855469 210.042969 122.171875 C 210.109375 122.214844 216.136719 126.582031 220.320312 126.386719 C 219.582031 124.875 218.371094 122.054688 218.144531 119.410156 C 218.085938 118.640625 218.023438 117.871094 217.957031 117.097656 C 218.515625 117.632812 219.0625 118.171875 219.617188 118.707031 C 219.679688 118.765625 225.554688 124.40625 230.59375 126.292969 C 229.871094 124.539062 228.886719 121.75 228.785156 119.3125 C 228.765625 118.703125 228.734375 118.09375 228.710938 117.484375 C 229.199219 117.84375 229.683594 118.207031 230.171875 118.570312 C 231.652344 119.667969 235.449219 122.144531 238.5 123.035156 C 237.597656 121.773438 236.640625 120.023438 236.65625 118.261719 C 236.660156 117.851562 236.664062 117.445312 236.664062 117.035156 C 237.046875 117.171875 237.429688 117.308594 237.8125 117.441406 C 237.890625 117.46875 244.640625 119.824219 249.460938 119.902344 C 247.152344 118.21875 244.023438 115.476562 244.457031 113.125 C 244.539062 112.695312 244.617188 112.261719 244.699219 111.832031 C 245.066406 112.074219 245.429688 112.308594 245.792969 112.550781 C 245.855469 112.597656 252.195312 116.710938 259.261719 116.429688 C 259.914062 116.398438 260.558594 116.335938 261.203125 116.238281 C 259.085938 115.027344 256.375 112.914062 256.945312 110.191406 C 257.003906 109.902344 257.066406 109.613281 257.125 109.328125 C 257.410156 109.390625 257.699219 109.445312 257.976562 109.507812 C 258.042969 109.527344 264.25 110.855469 268.304688 110.730469 C 266.507812 109.78125 264.390625 108.164062 263.679688 105.539062 C 263.539062 105.015625 263.402344 104.492188 263.261719 103.964844 C 263.773438 104.140625 264.289062 104.308594 264.800781 104.480469 C 264.847656 104.492188 269.039062 105.859375 272.796875 105.71875 C 273.570312 105.691406 274.253906 105.597656 274.875 105.449219 C 273.011719 104.589844 270.460938 102.992188 269.578125 100.433594 C 269.347656 99.769531 269.117188 99.109375 268.886719 98.449219 C 269.515625 98.746094 270.144531 99.054688 270.773438 99.355469 C 270.792969 99.359375 272.710938 100.257812 275.359375 100.15625 C 277.375 100.082031 279.296875 99.457031 281.058594 98.308594 C 278.355469 95.933594 269.726562 88.488281 265.949219 85.765625 C 265.828125 85.675781 265.703125 85.59375 265.585938 85.5 C 260.8125 82.035156 248.089844 72.851562 231.871094 73.582031 C 230.539062 73.636719 229.199219 73.769531 227.878906 73.964844 C 211.222656 76.417969 196.597656 86.03125 188.804688 99.601562 C 182.441406 110.667969 179.949219 117.121094 179.519531 118.28125 Z M 188.714844 133.289062 C 188.261719 133.117188 187.816406 132.945312 187.367188 132.765625 C 179.066406 129.550781 177.8125 118.75 177.765625 118.289062 C 177.761719 118.21875 177.757812 118.152344 177.75 118.09375 C 177.765625 118.03125 177.792969 117.972656 177.8125 117.90625 C 177.90625 117.636719 180.183594 111.109375 187.292969 98.730469 C 195.351562 84.699219 210.449219 74.757812 227.636719 72.226562 C 229.007812 72.03125 230.410156 71.894531 231.800781 71.832031 C 248.628906 71.070312 262.175781 80.859375 266.609375 84.078125 C 266.730469 84.164062 266.847656 84.25 266.972656 84.34375 C 271.527344 87.625 282.578125 97.296875 283.039062 97.710938 C 283.304688 97.941406 283.566406 98.175781 283.835938 98.402344 C 283.554688 98.628906 283.273438 98.84375 282.996094 99.0625 C 280.703125 100.855469 278.152344 101.804688 275.414062 101.90625 C 274.246094 101.957031 273.210938 101.828125 272.355469 101.660156 C 274.238281 103.640625 277.398438 104.546875 277.4375 104.554688 C 278.050781 104.726562 278.65625 104.898438 279.261719 105.0625 C 278.742188 105.421875 278.214844 105.769531 277.691406 106.128906 C 276.488281 106.941406 274.871094 107.394531 272.859375 107.46875 C 270.371094 107.558594 267.785156 107.070312 266.109375 106.660156 C 267.859375 109.199219 271.515625 110.132812 271.554688 110.140625 C 272.234375 110.308594 272.921875 110.476562 273.605469 110.648438 C 273.007812 111.007812 272.398438 111.375 271.792969 111.738281 C 271.074219 112.179688 270 112.414062 268.5 112.472656 C 265.226562 112.601562 260.742188 111.832031 258.699219 111.4375 C 259.28125 113.378906 262.738281 115.164062 264.097656 115.691406 C 264.851562 115.996094 265.601562 116.285156 266.359375 116.585938 C 265.585938 116.84375 264.808594 117.09375 264.042969 117.34375 C 262.550781 117.835938 260.960938 118.113281 259.324219 118.175781 C 254.144531 118.386719 249.449219 116.480469 246.878906 115.179688 C 248.082031 116.734375 250.546875 118.640625 252.4375 119.796875 C 253.046875 120.164062 253.648438 120.535156 254.25 120.910156 C 253.5625 121.066406 252.875 121.238281 252.191406 121.398438 C 251.632812 121.53125 250.996094 121.613281 250.304688 121.644531 C 246.390625 121.808594 241.074219 120.3125 238.597656 119.542969 C 239.246094 121.625 241.214844 123.566406 241.242188 123.59375 C 241.722656 124.070312 242.207031 124.542969 242.6875 125.011719 C 242.015625 125.042969 241.34375 125.074219 240.671875 125.105469 C 237.558594 125.242188 233.132812 122.65625 230.761719 121.105469 C 231.371094 124.125 232.914062 127.21875 232.929688 127.253906 C 233.191406 127.785156 233.457031 128.308594 233.722656 128.839844 C 233.144531 128.726562 232.570312 128.621094 231.992188 128.515625 C 227.902344 127.75 223.015625 123.988281 220.359375 121.71875 C 221.09375 124.300781 222.382812 126.582031 222.398438 126.613281 C 222.582031 126.929688 222.761719 127.25 222.945312 127.570312 C 222.585938 127.675781 222.242188 127.785156 221.890625 127.890625 C 221.429688 128.027344 220.925781 128.113281 220.40625 128.132812 C 216.933594 128.304688 212.671875 125.953125 210.480469 124.570312 C 210.882812 127.246094 212.601562 128.285156 212.683594 128.332031 C 213.691406 128.925781 214.695312 129.515625 215.707031 130.113281 C 214.546875 130.066406 213.378906 130.019531 212.207031 129.96875 C 206.769531 129.75 201.457031 125.304688 199.472656 123.453125 C 198.441406 125.789062 200.148438 127.746094 200.226562 127.84375 C 200.582031 128.238281 200.933594 128.640625 201.292969 129.03125 C 200.765625 129.121094 200.246094 129.207031 199.71875 129.289062 C 195.234375 130.023438 191.035156 125.054688 189.425781 122.855469 C 188.121094 125.191406 188.320312 129.980469 188.539062 131.847656 C 188.59375 132.324219 188.65625 132.804688 188.714844 133.289062 " fill-opacity="1" fill-rule="nonzero"/><path fill="#604420" d="M 81.234375 93.722656 C 80.578125 93.75 79.925781 93.78125 79.273438 93.820312 C 78.40625 72.65625 58.652344 46.488281 58.433594 46.230469 C 58.964844 45.832031 59.484375 45.433594 60.011719 45.027344 C 60.867188 46.105469 80.355469 71.953125 81.234375 93.722656 " fill-opacity="1" fill-rule="nonzero"/><path fill="#604420" d="M 90.6875 73.675781 C 80.996094 74.359375 74.511719 73.027344 74.363281 72.996094 C 74.507812 72.351562 74.65625 71.707031 74.796875 71.066406 C 75.164062 71.128906 107.917969 77.855469 136.707031 52.148438 C 137.140625 52.640625 137.574219 53.132812 138.015625 53.617188 C 121.28125 68.554688 103.285156 72.796875 90.6875 73.675781 " fill-opacity="1" fill-rule="nonzero"/><path fill="#604420" d="M 169.113281 187.550781 C 169.09375 187.550781 169.082031 187.550781 169.070312 187.550781 C 114.003906 190.746094 99.605469 77.144531 98.992188 72.234375 C 99.640625 72.152344 100.296875 72.066406 100.941406 71.988281 C 101.121094 73.207031 115.695312 188.675781 168.972656 185.578125 C 168.980469 185.578125 168.992188 185.578125 169.011719 185.578125 C 180.496094 184.917969 188.953125 180.5 194.183594 172.375 C 210.371094 147.3125 191.117188 94.75 190.859375 94.226562 C 191.472656 93.992188 192.085938 93.753906 192.695312 93.523438 C 193.585938 95.710938 212.535156 147.566406 195.804688 173.453125 C 190.214844 182.136719 181.246094 186.859375 169.113281 187.550781 " fill-opacity="1" fill-rule="nonzero"/></svg>