<svg xmlns="http://www.w3.org/2000/svg" xmlns:xlink="http://www.w3.org/1999/xlink" width="500" zoomAndPan="magnify" viewBox="0 0 375 374.999991" height="500" preserveAspectRatio="xMidYMid meet" version="1.0"><defs><clipPath id="8742779204"><path d="M 125 23.679688 L 311.496094 23.679688 L 311.496094 351.421875 L 125 351.421875 Z M 125 23.679688 " clip-rule="nonzero"/></clipPath><clipPath id="8d96296f81"><path d="M 35.234375 47.367188 L 374.984375 47.367188 L 374.984375 129 L 35.234375 129 Z M 35.234375 47.367188 " clip-rule="nonzero"/></clipPath></defs><g clip-path="url(#8742779204)"><path fill="#186a36" d="M 310.828125 255.753906 C 308.199219 216.730469 291.367188 196.769531 276.515625 179.15625 C 269.355469 170.664062 263.199219 163.183594 259.1875 154.5625 C 275.488281 151.0625 288 141.117188 290.246094 129.59375 C 297.734375 120.027344 301.613281 105.863281 301.613281 91.046875 C 301.613281 79.375 299.21875 67.308594 294.308594 56.800781 C 282.886719 32.351562 259.433594 23.675781 242.828125 23.675781 C 232.042969 23.675781 226.273438 25.75 225.683594 29.84375 C 225.675781 29.890625 225.671875 29.9375 225.671875 29.980469 C 225.671875 29.980469 225.644531 30.328125 225.644531 30.332031 C 225.644531 32.101562 226.59375 35.089844 232.84375 36.929688 C 240.109375 39.070312 257.757812 49.003906 262.875 64.597656 C 263.339844 66.003906 263.652344 67.355469 263.921875 68.683594 C 261.171875 65.421875 256.683594 62.089844 249.308594 59.980469 C 238.796875 56.976562 228.796875 57.867188 220.257812 62.429688 C 215.59375 58.324219 209.328125 56.152344 201.457031 56.152344 C 191.6875 56.152344 183.339844 58.925781 176.5 64.199219 C 173.398438 61.539062 169.578125 59.984375 165.023438 59.71875 C 151.636719 58.933594 134.171875 64.125 126.972656 93.328125 C 123.757812 106.390625 125.386719 118.960938 131.558594 128.722656 C 136.320312 136.253906 143.300781 141.292969 151.214844 142.910156 C 158.316406 144.359375 164.859375 143.484375 170.28125 140.484375 C 178.050781 146.988281 188.09375 149.695312 198.152344 147.777344 C 199.878906 147.445312 201.621094 146.84375 203.363281 146.121094 C 206.007812 157.632812 211.300781 168.796875 219.332031 179.324219 C 225.761719 187.753906 232.480469 194.523438 238.980469 201.074219 C 253.808594 216.015625 266.605469 228.914062 269.070312 255.210938 C 269.457031 259.367188 269.632812 263.1875 269.632812 266.703125 C 269.632812 287.601562 263.449219 297.632812 259.347656 301.984375 C 255.691406 305.867188 251.351562 307.835938 246.804688 307.679688 C 243.105469 307.550781 240.210938 306.222656 238.203125 303.730469 C 235.765625 300.707031 234.484375 295.761719 234.441406 289.398438 C 247.554688 283.039062 256.644531 273.875 257.152344 266.3125 C 257.183594 265.820312 257.203125 265.316406 257.203125 264.800781 C 257.203125 247.574219 239.183594 218.257812 228.742188 215.300781 C 222.960938 213.660156 220.550781 214.960938 218 216.332031 C 215.597656 217.625 212.882812 219.085938 205.183594 219.085938 C 197.585938 219.085938 193.273438 215.882812 189.105469 212.78125 C 185.089844 209.796875 180.945312 206.71875 175.183594 209.082031 C 167.933594 212.0625 152.09375 223.4375 142.429688 236.210938 C 137.296875 242.839844 134.386719 249.085938 133.789062 254.757812 C 133.699219 255.605469 133.652344 256.457031 133.652344 257.3125 C 133.652344 264.394531 136.691406 271.640625 142.363281 277.976562 C 142.375 277.996094 142.574219 278.238281 142.574219 278.238281 C 151.226562 288.039062 164.917969 294.585938 181.316406 296.953125 C 180.65625 297.613281 179.960938 298.160156 179.21875 298.570312 C 174.71875 301.078125 172.695312 300.777344 170.355469 300.425781 C 168.578125 300.160156 166.5625 299.855469 163.699219 300.714844 C 162.871094 300.964844 162.316406 301.722656 162.316406 302.574219 C 162.316406 302.628906 162.316406 302.683594 162.320312 302.734375 C 162.394531 303.648438 163.097656 304.386719 164.011719 304.503906 C 165.476562 304.691406 167.046875 305.105469 167.828125 305.464844 C 167.605469 306.09375 167.039062 307.046875 166.335938 307.839844 C 165.996094 308.214844 165.820312 308.695312 165.820312 309.171875 C 165.820312 309.578125 165.945312 309.976562 166.199219 310.316406 C 166.757812 311.058594 167.734375 311.316406 168.566406 310.914062 L 177.644531 306.519531 C 179.625 305.585938 182.097656 304.339844 184.558594 302.34375 C 184.566406 304.320312 184.640625 306.210938 184.804688 307.984375 C 185.46875 315.269531 187.382812 321.816406 190.5 327.453125 C 194.378906 334.464844 200.085938 340.082031 207.460938 344.144531 C 220.726562 351.445312 239.132812 353.40625 256.738281 349.40625 C 282.539062 344.933594 311.203125 320.515625 311.203125 266.699219 C 311.203125 263.179688 311.082031 259.527344 310.828125 255.753906 " fill-opacity="1" fill-rule="nonzero"/></g><path fill="#f6e157" d="M 256.183594 346.792969 C 241.441406 350.148438 222.917969 349.601562 208.78125 341.820312 C 202.269531 338.242188 196.691406 333.128906 192.839844 326.160156 C 190.015625 321.058594 188.121094 314.960938 187.464844 307.742188 C 187.015625 302.828125 187.140625 297.394531 187.9375 291.402344 C 194.980469 238.4375 216.839844 267.347656 223.398438 294.316406 C 229.953125 321.28125 256.183594 346.792969 256.183594 346.792969 " fill-opacity="1" fill-rule="nonzero"/><path fill="#d6c036" d="M 222.082031 289.550781 C 214.316406 264.230469 194.570312 241.558594 187.9375 291.402344 C 187.605469 293.902344 187.414062 296.277344 187.308594 298.585938 C 198.964844 308.554688 211.09375 300.183594 222.082031 289.550781 " fill-opacity="1" fill-rule="nonzero"/><path fill="#2d8f3d" d="M 201.589844 261.050781 C 194.671875 261.417969 189.835938 271.597656 187.214844 291.304688 C 186.433594 297.171875 186.273438 302.722656 186.738281 307.808594 C 187.375 314.820312 189.214844 321.113281 192.199219 326.511719 C 195.90625 333.210938 201.363281 338.574219 208.425781 342.460938 C 221.265625 349.527344 239.179688 351.410156 256.347656 347.503906 C 256.605469 347.445312 256.816406 347.246094 256.886719 346.992188 C 256.957031 346.734375 256.882812 346.457031 256.695312 346.269531 C 256.429688 346.019531 230.535156 320.59375 224.105469 294.144531 C 220.054688 277.5 210.53125 260.574219 201.589844 261.050781 Z M 209.128906 341.183594 C 202.308594 337.433594 197.042969 332.257812 193.476562 325.804688 C 190.589844 320.585938 188.8125 314.488281 188.1875 307.675781 C 187.734375 302.699219 187.890625 297.261719 188.660156 291.5 C 191.105469 273.121094 195.722656 262.824219 201.664062 262.507812 C 209.488281 262.089844 218.851562 278.707031 222.6875 294.488281 C 228.511719 318.429688 249.90625 341.40625 254.679688 346.308594 C 238.269531 349.746094 221.335938 347.894531 209.128906 341.183594 " fill-opacity="1" fill-rule="nonzero"/><path fill="#2d8f3d" d="M 186.832031 307.378906 C 186.628906 307.730469 186.75 308.171875 187.101562 308.375 C 187.253906 308.460938 202.59375 317.0625 221.175781 309.078125 C 221.542969 308.917969 221.714844 308.488281 221.554688 308.117188 C 221.394531 307.75 220.96875 307.578125 220.597656 307.738281 C 202.710938 315.429688 187.972656 307.195312 187.824219 307.109375 C 187.476562 306.910156 187.03125 307.03125 186.832031 307.378906 " fill-opacity="1" fill-rule="nonzero"/><path fill="#2d8f3d" d="M 225.03125 323.339844 C 211.105469 332.105469 193.273438 325.542969 193.097656 325.476562 C 192.71875 325.335938 192.300781 325.523438 192.15625 325.902344 C 192.015625 326.277344 192.207031 326.695312 192.582031 326.839844 C 192.765625 326.910156 211.261719 333.730469 225.8125 324.570312 C 226.148438 324.359375 226.253906 323.910156 226.039062 323.566406 C 225.824219 323.230469 225.375 323.125 225.03125 323.339844 " fill-opacity="1" fill-rule="nonzero"/><path fill="#2d8f3d" d="M 235.140625 336.042969 C 226.59375 343.503906 209.058594 341.125 208.878906 341.101562 C 208.484375 341.042969 208.117188 341.320312 208.058594 341.71875 C 208 342.117188 208.277344 342.484375 208.675781 342.542969 C 209.421875 342.652344 227.050781 345.042969 236.101562 337.136719 C 236.402344 336.875 236.4375 336.410156 236.171875 336.109375 C 235.90625 335.804688 235.449219 335.777344 235.140625 336.042969 " fill-opacity="1" fill-rule="nonzero"/><path fill="#5ab736" d="M 204.453125 126.445312 C 204.453125 126.445312 200.324219 150.007812 221.453125 177.703125 C 242.582031 205.398438 268.085938 216.089844 271.730469 254.960938 C 275.371094 293.832031 260.800781 310.835938 246.710938 310.351562 C 232.628906 309.867188 229.710938 294.804688 232.867188 277.3125 C 236.023438 259.816406 216.351562 265.40625 216.597656 296.503906 C 216.839844 327.601562 232.382812 350.921875 256.183594 346.792969 C 279.988281 342.660156 312.371094 318.449219 308.164062 255.933594 C 303.949219 193.414062 262.035156 180.449219 253.433594 146.769531 C 244.832031 113.089844 208.902344 83.769531 204.453125 126.445312 " fill-opacity="1" fill-rule="nonzero"/><path fill="#73c532" d="M 215.816406 107.140625 C 213.019531 107.34375 210.636719 112.949219 209.753906 121.421875 C 209.738281 121.554688 209.710938 121.757812 209.691406 121.894531 C 209.554688 122.738281 206.636719 142.820312 225.203125 167.15625 C 231.214844 175.035156 237.695312 181.566406 243.964844 187.882812 C 259.523438 203.566406 274.222656 218.378906 277.039062 248.402344 C 279.324219 272.820312 274.878906 292.324219 264.519531 303.320312 C 258.824219 309.363281 251.542969 312.550781 244.015625 312.289062 C 237.25 312.058594 231.585938 309.351562 227.644531 304.460938 C 224.308594 300.324219 222.648438 295.125 221.953125 289.710938 C 221.953125 289.84375 221.9375 289.953125 221.9375 290.089844 C 221.9375 290.261719 221.9375 290.4375 221.941406 290.613281 C 222.070312 307.5625 227.199219 321.90625 235.65625 328.96875 C 240.425781 332.945312 246.066406 334.40625 252.429688 333.300781 C 275.734375 329.257812 301.652344 305.179688 297.976562 250.625 C 295.578125 215.019531 280.59375 197.25 266.105469 180.058594 C 256.417969 168.570312 247.269531 157.71875 243.472656 142.863281 C 238.34375 122.765625 222.835938 106.628906 215.816406 107.140625 " fill-opacity="1" fill-rule="nonzero"/><path fill="#50ad37" d="M 215.867188 146.121094 C 224.714844 157.917969 242.503906 161.863281 257.371094 157.144531 C 255.726562 153.867188 254.375 150.449219 253.433594 146.769531 C 244.832031 113.089844 208.902344 83.769531 204.453125 126.445312 C 204.453125 126.445312 202.855469 135.585938 206.753906 149.175781 C 210.269531 149.679688 213.074219 148.914062 215.867188 146.121094 " fill-opacity="1" fill-rule="nonzero"/><path fill="#50ad37" d="M 232.488281 279.707031 C 232.605469 278.910156 232.722656 278.117188 232.867188 277.3125 C 236.023438 259.816406 216.351562 265.40625 216.597656 296.503906 C 216.652344 303.488281 217.484375 310.074219 219.003906 316.050781 C 219.492188 303.09375 224.066406 290.410156 232.488281 279.707031 " fill-opacity="1" fill-rule="nonzero"/><path fill="#50ad37" d="M 308.164062 255.933594 C 307.414062 244.832031 305.464844 235.3125 302.734375 226.941406 C 304.847656 264.703125 301.9375 301.914062 272.214844 328.8125 C 260.789062 341.667969 243.074219 342.96875 228.3125 335.8125 C 235.15625 344.382812 244.707031 348.78125 256.183594 346.792969 C 279.988281 342.660156 312.371094 318.449219 308.164062 255.933594 " fill-opacity="1" fill-rule="nonzero"/><path fill="#2d8f3d" d="M 217.625 104.492188 C 212.285156 104.882812 205.539062 108.992188 203.730469 126.367188 C 203.730469 126.347656 203.730469 126.332031 203.734375 126.316406 C 203.695312 126.554688 199.796875 150.519531 220.875 178.144531 C 227.21875 186.460938 233.898438 193.195312 240.359375 199.703125 C 255.445312 214.910156 268.476562 228.035156 271.003906 255.027344 C 273.777344 284.644531 265.777344 297.996094 260.765625 303.316406 C 256.707031 307.621094 251.859375 309.796875 246.738281 309.621094 C 242.453125 309.472656 239.070312 307.902344 236.691406 304.949219 C 232.4375 299.679688 231.335938 289.910156 233.585938 277.441406 C 234.433594 272.738281 233.714844 269.144531 231.613281 267.578125 C 230.207031 266.53125 228.371094 266.492188 226.441406 267.46875 C 221.085938 270.1875 215.742188 280.21875 215.867188 296.507812 C 216.019531 316.21875 222.136719 332.550781 232.640625 341.324219 C 239.316406 346.898438 247.5 349.039062 256.308594 347.507812 C 283.097656 342.859375 312.945312 316.074219 308.886719 255.882812 C 306.304688 217.496094 289.691406 197.792969 275.03125 180.410156 C 265.597656 169.21875 257.449219 159.558594 254.136719 146.589844 C 248.371094 124 230.625 103.539062 217.625 104.492188 Z M 261.824219 304.316406 C 270.777344 294.816406 274.550781 277.265625 272.457031 254.890625 C 269.875 227.382812 256.675781 214.078125 241.390625 198.675781 C 234.96875 192.199219 228.320312 185.503906 222.03125 177.261719 C 201.363281 150.171875 205.128906 126.804688 205.167969 126.566406 C 205.171875 126.550781 205.175781 126.535156 205.179688 126.519531 C 206.527344 113.5625 210.871094 106.449219 217.734375 105.941406 C 229.882812 105.054688 247.21875 125.367188 252.726562 146.953125 C 256.121094 160.242188 264.765625 170.496094 273.914062 181.347656 C 288.429688 198.5625 304.878906 218.074219 307.4375 255.980469 C 311.421875 315.207031 282.25 341.527344 256.0625 346.074219 C 247.683594 347.527344 239.914062 345.492188 233.570312 340.207031 C 223.398438 331.707031 217.476562 315.777344 217.324219 296.496094 C 217.203125 280.917969 222.308594 271.203125 227.101562 268.769531 C 228.511719 268.054688 229.800781 268.046875 230.742188 268.75 C 232.363281 269.953125 232.886719 273.105469 232.152344 277.183594 C 229.824219 290.074219 231.03125 300.261719 235.558594 305.867188 C 238.214844 309.160156 241.957031 310.917969 246.6875 311.078125 C 252.160156 311.269531 257.535156 308.867188 261.824219 304.316406 " fill-opacity="1" fill-rule="nonzero"/><path fill="#5ab736" d="M 253.511719 266.136719 C 252.828125 276.34375 229.226562 296.019531 192.066406 295.289062 C 154.90625 294.558594 133.773438 273.425781 135.71875 254.960938 C 137.664062 236.496094 166.160156 215.28125 175.226562 211.554688 C 184.296875 207.828125 187.859375 221.757812 204.210938 221.757812 C 220.5625 221.757812 217.324219 215.121094 227.042969 217.871094 C 236.757812 220.625 254.5625 250.425781 253.511719 266.136719 " fill-opacity="1" fill-rule="nonzero"/><path fill="#73c532" d="M 247.179688 264.734375 C 246.570312 273.84375 225.503906 291.410156 192.335938 290.753906 C 159.167969 290.105469 140.3125 271.242188 142.042969 254.761719 C 143.777344 238.28125 169.210938 219.34375 177.308594 216.019531 C 185.398438 212.695312 188.582031 225.125 203.175781 225.125 C 217.773438 225.125 214.882812 219.203125 223.550781 221.660156 C 232.222656 224.113281 248.117188 250.714844 247.179688 264.734375 " fill-opacity="1" fill-rule="nonzero"/><path fill="#2d8f3d" d="M 175.921875 210.878906 C 166.433594 214.777344 137.957031 235.964844 135.964844 254.882812 C 135.179688 262.332031 138.046875 270.167969 144.023438 276.945312 C 154.363281 288.65625 172.21875 295.609375 193.019531 296.019531 C 230.3125 296.75 254.484375 277.117188 255.210938 266.183594 C 256.277344 250.261719 238.1875 219.996094 228.214844 217.167969 C 223.191406 215.746094 221.304688 216.761719 218.921875 218.042969 C 216.453125 219.375 213.375 221.03125 205.183594 221.03125 C 196.941406 221.03125 192.160156 217.476562 187.941406 214.339844 C 184.039062 211.4375 180.667969 208.933594 175.921875 210.878906 Z M 193.050781 294.558594 C 172.65625 294.160156 155.183594 287.390625 145.117188 275.980469 C 139.410156 269.511719 136.675781 262.074219 137.414062 255.035156 C 139.316406 236.988281 167.484375 215.921875 176.476562 212.230469 C 180.457031 210.589844 183.234375 212.652344 187.074219 215.507812 C 191.253906 218.617188 196.460938 222.488281 205.183594 222.488281 C 213.742188 222.488281 217.136719 220.660156 219.609375 219.328125 C 221.871094 218.113281 223.359375 217.3125 227.816406 218.570312 C 237.160156 221.21875 254.765625 251.015625 253.757812 266.085938 C 253.078125 276.257812 228.90625 295.261719 193.050781 294.558594 " fill-opacity="1" fill-rule="nonzero"/><path fill="#c7282a" d="M 193.765625 279.984375 C 192.15625 280.261719 190.667969 280.320312 189.132812 280.167969 C 189.132812 280.167969 188.664062 295.53125 180.167969 300.269531 C 171.664062 305.007812 170.328125 300.757812 164.257812 302.574219 C 164.257812 302.574219 169.964844 303.304688 169.964844 305.007812 C 169.964844 306.707031 167.777344 309.136719 167.777344 309.136719 C 167.777344 309.136719 171.058594 307.679688 175.066406 305.613281 C 179.070312 303.546875 185.265625 301.726562 189.515625 292.859375 C 193.765625 283.992188 193.765625 279.984375 193.765625 279.984375 " fill-opacity="1" fill-rule="nonzero"/><path fill="#231f20" d="M 170.289062 243.796875 C 170.703125 246.484375 168.863281 248.996094 166.179688 249.410156 C 163.496094 249.828125 160.984375 247.992188 160.566406 245.304688 C 160.152344 242.621094 161.988281 240.105469 164.675781 239.691406 C 167.359375 239.273438 169.871094 241.109375 170.289062 243.796875 " fill-opacity="1" fill-rule="nonzero"/><path fill="#2d8f3d" d="M 169.9375 223 C 168.511719 223.488281 167.363281 224.5 166.699219 225.859375 C 166.523438 226.21875 166.671875 226.65625 167.03125 226.835938 C 167.394531 227.011719 167.832031 226.859375 168.007812 226.5 C 168.5 225.492188 169.351562 224.738281 170.410156 224.378906 C 171.46875 224.011719 172.605469 224.082031 173.609375 224.578125 C 174.617188 225.070312 175.371094 225.921875 175.734375 226.980469 C 176.097656 228.039062 176.027344 229.179688 175.53125 230.183594 C 175.355469 230.546875 175.503906 230.984375 175.863281 231.160156 C 176.230469 231.335938 176.664062 231.1875 176.84375 230.824219 C 177.503906 229.46875 177.601562 227.9375 177.113281 226.507812 C 176.621094 225.082031 175.609375 223.933594 174.253906 223.269531 C 172.898438 222.605469 171.367188 222.507812 169.9375 223 " fill-opacity="1" fill-rule="nonzero"/><path fill="#2d8f3d" d="M 221.554688 227.355469 C 220.085938 227.703125 218.84375 228.601562 218.054688 229.886719 C 217.265625 231.171875 217.019531 232.6875 217.371094 234.160156 C 217.464844 234.550781 217.859375 234.792969 218.25 234.699219 C 218.640625 234.605469 218.882812 234.214844 218.789062 233.820312 C 218.527344 232.730469 218.707031 231.605469 219.296875 230.648438 C 219.882812 229.699219 220.800781 229.03125 221.890625 228.773438 C 222.984375 228.511719 224.109375 228.691406 225.0625 229.28125 C 226.011719 229.867188 226.679688 230.789062 226.9375 231.878906 C 227.03125 232.269531 227.421875 232.511719 227.816406 232.417969 C 228.207031 232.328125 228.449219 231.933594 228.355469 231.542969 C 228.007812 230.074219 227.109375 228.832031 225.824219 228.039062 C 224.539062 227.25 223.023438 227.003906 221.554688 227.355469 " fill-opacity="1" fill-rule="nonzero"/><path fill="#231f20" d="M 219.710938 247.890625 C 218.488281 250.320312 219.46875 253.277344 221.898438 254.5 C 224.324219 255.714844 227.28125 254.738281 228.5 252.308594 C 229.71875 249.882812 228.738281 246.921875 226.308594 245.703125 C 223.886719 244.484375 220.929688 245.460938 219.710938 247.890625 " fill-opacity="1" fill-rule="nonzero"/><path fill="#f6e157" d="M 196.117188 233.582031 C 196.117188 233.582031 200.164062 229.535156 204.535156 232.125 C 208.90625 234.714844 200.488281 244.429688 195.628906 244.59375 C 190.773438 244.757812 187.53125 237.46875 187.53125 234.554688 C 187.53125 231.640625 192.390625 226.617188 196.117188 233.582031 " fill-opacity="1" fill-rule="nonzero"/><path fill="#2d8f3d" d="M 190.839844 229.453125 C 188.53125 230.03125 186.804688 232.625 186.804688 234.554688 C 186.804688 236.847656 188.441406 240.890625 190.875 243.246094 C 192.335938 244.660156 193.992188 245.378906 195.652344 245.324219 C 199.742188 245.183594 205.296875 239.566406 206.308594 235.625 C 206.78125 233.777344 206.28125 232.316406 204.90625 231.5 C 201.507812 229.484375 198.089844 231.050781 196.269531 232.507812 C 194.230469 229.289062 192.027344 229.15625 190.839844 229.453125 Z M 191.886719 242.199219 C 189.554688 239.9375 188.261719 236.246094 188.261719 234.554688 C 188.261719 233.214844 189.570312 231.273438 191.195312 230.867188 C 193.121094 230.382812 194.582031 232.265625 195.472656 233.925781 C 195.582031 234.128906 195.78125 234.265625 196.007812 234.304688 C 196.234375 234.335938 196.464844 234.261719 196.628906 234.097656 C 196.78125 233.949219 200.339844 230.488281 204.164062 232.75 C 204.457031 232.925781 205.355469 233.460938 204.898438 235.265625 C 203.976562 238.859375 198.679688 243.761719 195.605469 243.867188 C 194.328125 243.910156 193.078125 243.347656 191.886719 242.199219 " fill-opacity="1" fill-rule="nonzero"/><path fill="#f6e157" d="M 194.660156 242.816406 C 194.660156 242.816406 198.707031 238.765625 203.074219 241.359375 C 207.449219 243.949219 199.03125 253.664062 194.171875 253.828125 C 189.316406 253.988281 186.074219 246.703125 186.074219 243.785156 C 186.074219 240.871094 190.933594 235.851562 194.660156 242.816406 " fill-opacity="1" fill-rule="nonzero"/><path fill="#2d8f3d" d="M 189.382812 238.6875 C 187.074219 239.261719 185.347656 241.855469 185.347656 243.785156 C 185.347656 246.082031 186.984375 250.121094 189.417969 252.476562 C 190.878906 253.894531 192.535156 254.613281 194.195312 254.554688 C 198.285156 254.417969 203.839844 248.800781 204.851562 244.859375 C 205.324219 243.011719 204.820312 241.546875 203.449219 240.730469 C 200.046875 238.714844 196.632812 240.285156 194.8125 241.738281 C 192.773438 238.519531 190.570312 238.386719 189.382812 238.6875 Z M 190.429688 251.429688 C 188.097656 249.167969 186.804688 245.476562 186.804688 243.785156 C 186.804688 242.449219 188.113281 240.503906 189.738281 240.097656 C 191.660156 239.613281 193.128906 241.496094 194.011719 243.15625 C 194.125 243.363281 194.320312 243.5 194.550781 243.535156 C 194.777344 243.566406 195.007812 243.492188 195.175781 243.332031 C 195.324219 243.183594 198.882812 239.71875 202.707031 241.984375 C 203.003906 242.160156 203.898438 242.691406 203.441406 244.5 C 202.519531 248.09375 197.21875 252.996094 194.148438 253.097656 C 192.871094 253.140625 191.621094 252.578125 190.429688 251.429688 " fill-opacity="1" fill-rule="nonzero"/><path fill="#f6e157" d="M 193.589844 252.1875 C 193.589844 252.1875 197.132812 248.644531 200.960938 250.910156 C 204.789062 253.179688 197.417969 261.6875 193.164062 261.832031 C 188.910156 261.972656 186.074219 255.59375 186.074219 253.039062 C 186.074219 250.488281 190.328125 246.089844 193.589844 252.1875 " fill-opacity="1" fill-rule="nonzero"/><path fill="#2d8f3d" d="M 188.949219 248.480469 C 186.886719 249 185.34375 251.316406 185.34375 253.039062 C 185.34375 255.070312 186.789062 258.636719 188.9375 260.714844 C 190.234375 261.972656 191.707031 262.609375 193.1875 262.558594 C 196.800781 262.441406 201.710938 257.480469 202.597656 254.003906 C 203.023438 252.339844 202.578125 251.023438 201.335938 250.285156 C 198.363281 248.527344 195.378906 249.84375 193.746094 251.113281 C 191.945312 248.332031 190.003906 248.21875 188.949219 248.480469 Z M 189.949219 259.667969 C 188 257.78125 186.800781 254.535156 186.800781 253.039062 C 186.800781 251.910156 187.957031 250.234375 189.304688 249.894531 C 190.929688 249.488281 192.183594 251.105469 192.945312 252.53125 C 193.054688 252.734375 193.253906 252.871094 193.480469 252.90625 C 193.710938 252.941406 193.941406 252.863281 194.101562 252.703125 C 194.230469 252.574219 197.300781 249.59375 200.589844 251.539062 C 200.832031 251.683594 201.578125 252.125 201.1875 253.636719 C 200.390625 256.757812 195.800781 261.011719 193.140625 261.101562 C 192.046875 261.136719 190.972656 260.65625 189.949219 259.667969 " fill-opacity="1" fill-rule="nonzero"/><path fill="#2d8f3d" d="M 181.796875 268.691406 C 181.191406 269.164062 180.25 268.964844 179.695312 268.25 C 179.136719 267.535156 179.175781 266.574219 179.78125 266.105469 C 180.386719 265.632812 182.402344 268.222656 181.796875 268.691406 " fill-opacity="1" fill-rule="nonzero"/><path fill="#2d8f3d" d="M 199.417969 270.585938 C 199.910156 271.171875 200.871094 271.179688 201.566406 270.597656 C 202.261719 270.019531 202.429688 269.070312 201.9375 268.484375 C 201.445312 267.894531 198.925781 269.996094 199.417969 270.585938 " fill-opacity="1" fill-rule="nonzero"/><path fill="#2d8f3d" d="M 147.949219 262.027344 C 147.757812 262.386719 147.894531 262.828125 148.25 263.015625 C 148.414062 263.101562 164.5625 271.628906 176.230469 276.6875 C 182.0625 279.210938 185.648438 280.558594 189.0625 280.894531 C 190.648438 281.050781 192.226562 280.988281 193.890625 280.703125 C 196.160156 280.320312 198.746094 279.507812 202.539062 277.988281 C 213.433594 273.628906 229.890625 268.40625 240.261719 266.855469 C 240.65625 266.796875 240.9375 266.425781 240.875 266.027344 C 240.816406 265.628906 240.445312 265.355469 240.046875 265.414062 C 229.074219 267.054688 212.632812 272.382812 201.996094 276.636719 C 198.304688 278.113281 195.808594 278.898438 193.644531 279.269531 C 192.089844 279.535156 190.679688 279.589844 189.207031 279.445312 C 185.984375 279.121094 182.507812 277.8125 176.8125 275.347656 C 165.191406 270.316406 149.09375 261.8125 148.933594 261.726562 C 148.578125 261.535156 148.136719 261.671875 147.949219 262.027344 " fill-opacity="1" fill-rule="nonzero"/><path fill="#a3db70" d="M 240.992188 169.203125 C 239.234375 170.632812 238.277344 172.265625 238.152344 174.054688 C 237.957031 176.835938 239.863281 178.921875 239.945312 179.011719 C 240.222656 179.304688 240.679688 179.320312 240.972656 179.050781 C 241.269531 178.777344 241.285156 178.316406 241.015625 178.019531 C 241 178.003906 239.449219 176.289062 239.605469 174.144531 C 239.707031 172.78125 240.480469 171.496094 241.910156 170.335938 C 243.285156 169.21875 244.640625 168.753906 245.941406 168.957031 C 248.152344 169.304688 249.570312 171.441406 249.582031 171.460938 C 249.804688 171.796875 250.253906 171.890625 250.59375 171.671875 C 250.929688 171.453125 251.023438 171.003906 250.804688 170.664062 C 250.734375 170.554688 249.03125 167.972656 246.179688 167.519531 C 244.449219 167.246094 242.703125 167.8125 240.992188 169.203125 " fill-opacity="1" fill-rule="nonzero"/><path fill="#a3db70" d="M 263.425781 197 C 262.003906 197.832031 261.101562 198.980469 260.746094 200.410156 C 260.042969 203.25 261.808594 206.152344 261.878906 206.269531 C 262.09375 206.613281 262.542969 206.71875 262.882812 206.507812 C 263.226562 206.296875 263.332031 205.847656 263.121094 205.503906 C 263.105469 205.480469 261.605469 202.992188 262.164062 200.75 C 262.421875 199.722656 263.097656 198.882812 264.164062 198.253906 C 265.152344 197.675781 266.105469 197.53125 267.085938 197.808594 C 269.546875 198.511719 271.230469 201.660156 271.246094 201.691406 C 271.433594 202.046875 271.875 202.183594 272.230469 201.996094 C 272.585938 201.808594 272.722656 201.367188 272.535156 201.011719 C 272.457031 200.863281 270.550781 197.285156 267.488281 196.410156 C 266.125 196.019531 264.757812 196.21875 263.425781 197 " fill-opacity="1" fill-rule="nonzero"/><path fill="#a3db70" d="M 288 242.8125 C 282.777344 242.8125 281.964844 251.371094 281.933594 251.738281 C 281.898438 252.136719 282.191406 252.492188 282.59375 252.523438 C 282.996094 252.5625 283.347656 252.265625 283.382812 251.867188 C 283.390625 251.789062 284.105469 244.269531 288 244.269531 C 288.882812 244.269531 289.515625 244.53125 289.945312 245.074219 C 290.9375 246.316406 290.648438 248.832031 290.449219 249.695312 C 290.359375 250.089844 290.605469 250.480469 290.996094 250.566406 C 291.390625 250.65625 291.777344 250.414062 291.867188 250.023438 C 291.90625 249.867188 292.722656 246.21875 291.085938 244.167969 C 290.371094 243.265625 289.335938 242.8125 288 242.8125 " fill-opacity="1" fill-rule="nonzero"/><path fill="#a3db70" d="M 292.542969 262.273438 C 289.992188 264.207031 289.449219 268.257812 289.445312 271.316406 L 289.710938 275.238281 C 289.738281 275.636719 290.078125 275.878906 290.480469 275.851562 C 290.882812 275.824219 291.179688 275.414062 291.148438 275.007812 L 290.902344 271.320312 C 290.90625 268.589844 291.347656 265.003906 293.421875 263.433594 C 294.300781 262.769531 295.046875 262.542969 295.632812 262.765625 C 296.679688 263.160156 297.238281 264.90625 297.367188 265.546875 C 297.445312 265.941406 297.824219 266.199219 298.21875 266.121094 C 298.617188 266.042969 298.875 265.660156 298.796875 265.265625 C 298.734375 264.953125 298.136719 262.160156 296.15625 261.402344 C 295.066406 260.988281 293.851562 261.28125 292.542969 262.273438 " fill-opacity="1" fill-rule="nonzero"/><path fill="#a3db70" d="M 286.128906 269.246094 C 283.773438 269.722656 281.773438 272.136719 280.195312 276.410156 C 280.054688 276.789062 280.246094 277.203125 280.625 277.347656 C 281 277.488281 281.414062 277.292969 281.558594 276.914062 C 282.933594 273.207031 284.609375 271.050781 286.40625 270.679688 C 288.179688 270.3125 289.628906 271.804688 289.644531 271.820312 C 289.921875 272.109375 290.378906 272.125 290.671875 271.847656 C 290.964844 271.570312 290.976562 271.113281 290.703125 270.820312 C 290.621094 270.734375 288.703125 268.726562 286.128906 269.246094 " fill-opacity="1" fill-rule="nonzero"/><path fill="#a3db70" d="M 263.316406 319.523438 C 263.011719 319.789062 262.984375 320.25 263.25 320.550781 C 263.515625 320.855469 263.972656 320.882812 264.277344 320.617188 C 266.363281 318.785156 272.335938 314.085938 274.921875 314.34375 C 275.335938 314.386719 275.507812 314.554688 275.601562 314.679688 C 276.019531 315.230469 276.179688 315.808594 276.089844 316.445312 C 275.820312 318.292969 273.585938 319.949219 273.566406 319.96875 C 273.238281 320.203125 273.171875 320.660156 273.410156 320.984375 C 273.648438 321.3125 274.101562 321.382812 274.425781 321.144531 C 274.539062 321.0625 277.167969 319.117188 277.527344 316.660156 C 277.679688 315.628906 277.421875 314.664062 276.761719 313.796875 C 276.367188 313.273438 275.78125 312.964844 275.066406 312.894531 C 271.386719 312.523438 264.128906 318.804688 263.316406 319.523438 " fill-opacity="1" fill-rule="nonzero"/><path fill="#a3db70" d="M 250.117188 321.519531 C 249.757812 321.695312 249.609375 322.132812 249.78125 322.492188 C 249.957031 322.855469 250.394531 323.003906 250.757812 322.828125 C 253.410156 321.535156 260.84375 318.621094 263.335938 320.636719 C 263.664062 320.898438 263.683594 321.113281 263.664062 321.285156 C 263.445312 323.011719 258.320312 326.105469 254.746094 327.75 C 254.394531 327.914062 254.226562 328.328125 254.378906 328.691406 C 254.53125 329.050781 254.9375 329.230469 255.304688 329.09375 C 255.375 329.066406 262.195312 326.546875 265.523438 328.023438 C 266.097656 328.277344 266.132812 328.574219 266.144531 328.683594 C 266.304688 329.921875 263.890625 332.4375 262.128906 333.832031 C 261.816406 334.078125 261.757812 334.535156 262.007812 334.851562 C 262.257812 335.171875 262.714844 335.222656 263.035156 334.976562 C 263.851562 334.332031 267.90625 330.992188 267.59375 328.5 C 267.523438 327.945312 267.210938 327.179688 266.113281 326.691406 C 264.535156 325.992188 262.421875 326.039062 260.445312 326.320312 C 262.71875 324.875 264.902344 323.097656 265.109375 321.464844 C 265.117188 321.382812 265.125 321.292969 265.125 321.195312 C 265.125 320.695312 264.949219 320.0625 264.253906 319.503906 C 260.597656 316.542969 251.179688 321.003906 250.117188 321.519531 " fill-opacity="1" fill-rule="nonzero"/><path fill="#231f20" d="M 236.011719 123.90625 C 235.617188 123.980469 235.359375 124.359375 235.433594 124.757812 C 235.65625 125.933594 235.960938 129.324219 234.722656 130.855469 C 234.300781 131.382812 233.730469 131.648438 232.972656 131.664062 C 229.046875 131.773438 228.273438 128.304688 228.242188 128.160156 C 228.164062 127.785156 227.808594 127.535156 227.429688 127.589844 C 227.050781 127.640625 226.777344 127.976562 226.800781 128.355469 C 226.804688 128.390625 227.003906 131.789062 225.316406 133.589844 C 224.613281 134.339844 223.695312 134.703125 222.507812 134.703125 C 217.769531 134.703125 217.410156 126.578125 217.40625 126.496094 C 217.390625 126.097656 217.054688 125.78125 216.652344 125.796875 C 216.25 125.8125 215.9375 126.148438 215.949219 126.550781 C 215.964844 126.945312 216.371094 136.164062 222.507812 136.164062 C 224.101562 136.164062 225.40625 135.632812 226.382812 134.582031 C 227.386719 133.511719 227.832031 132.105469 228.054688 130.871094 C 229.023438 132.101562 230.554688 133.1875 233.007812 133.121094 C 234.203125 133.09375 235.160156 132.636719 235.863281 131.769531 C 237.769531 129.398438 236.902344 124.683594 236.863281 124.484375 C 236.789062 124.089844 236.40625 123.828125 236.011719 123.90625 Z M 228.253906 128.253906 C 228.253906 128.273438 228.253906 128.304688 228.253906 128.308594 C 228.253906 128.300781 228.253906 128.261719 228.253906 128.253906 " fill-opacity="1" fill-rule="nonzero"/><path fill="#5ab736" d="M 262.015625 86.355469 C 262.015625 86.355469 270.757812 80.042969 265.414062 63.761719 C 260.070312 47.488281 241.855469 36.796875 233.597656 34.367188 C 225.339844 31.9375 225.582031 26.347656 242.828125 26.347656 C 260.070312 26.347656 281.445312 35.582031 291.886719 57.933594 C 302.332031 80.28125 301.359375 112.597656 287.273438 129.117188 C 273.1875 145.636719 229.144531 139.644531 229.144531 114.050781 C 229.144531 88.460938 243.070312 86.519531 262.015625 86.355469 " fill-opacity="1" fill-rule="nonzero"/><path fill="#73c532" d="M 266.410156 50.6875 C 269.042969 54.691406 270.855469 58.378906 272.078125 61.71875 C 276.019531 72.480469 273.816406 79.527344 273.191406 81.148438 C 272.652344 82.535156 271.65625 83.675781 270.472656 84.125 C 257.972656 88.875 254.152344 92.054688 260.378906 109.042969 C 263.269531 116.941406 269.945312 118.894531 273.660156 119.355469 C 283.03125 120.515625 292.234375 115.078125 293.753906 107.472656 C 295.496094 98.792969 293.492188 86.375 289.015625 74.152344 C 285.496094 64.546875 280.445312 55.0625 274.480469 47.605469 C 264 34.503906 252.210938 30.675781 243.21875 31.304688 C 250.992188 34.78125 259.925781 40.851562 266.410156 50.6875 " fill-opacity="1" fill-rule="nonzero"/><path fill="#50ad37" d="M 268.328125 97.53125 C 284.449219 77.820312 269.179688 38.320312 236.25 35.316406 C 245.253906 38.921875 260.585938 49.046875 265.414062 63.761719 C 270.757812 80.042969 262.015625 86.355469 262.015625 86.355469 C 251.289062 86.449219 242.175781 87.117188 236.28125 92.320312 C 245.59375 104.941406 257.8125 111.207031 268.328125 97.53125 " fill-opacity="1" fill-rule="nonzero"/><path fill="#2d8f3d" d="M 227.609375 30.121094 C 227.589844 30.234375 227.582031 30.351562 227.582031 30.460938 C 227.582031 32.28125 229.714844 33.984375 233.394531 35.066406 C 240.964844 37.292969 259.367188 47.671875 264.722656 63.988281 C 265.957031 67.757812 266.433594 70.964844 266.433594 73.667969 C 266.433594 81.46875 262.539062 85 261.753906 85.632812 C 242.84375 85.8125 228.414062 88.105469 228.414062 114.050781 C 228.414062 123.964844 234.980469 132.066406 246.421875 136.285156 C 259.773438 141.207031 278.90625 140.046875 287.828125 129.585938 C 301.484375 113.570312 303.605469 81.285156 292.546875 57.621094 C 281.511719 34.003906 258.863281 25.621094 242.828125 25.621094 C 233.566406 25.621094 228.019531 27.261719 227.609375 30.121094 Z M 246.921875 134.917969 C 236.085938 130.921875 229.871094 123.316406 229.871094 114.050781 C 229.871094 89.273438 243.199219 87.246094 262.019531 87.085938 C 262.171875 87.085938 262.316406 87.035156 262.441406 86.949219 C 262.8125 86.679688 271.554688 80.128906 266.105469 63.535156 C 260.570312 46.671875 241.605469 35.964844 233.800781 33.667969 C 230.355469 32.65625 228.921875 31.226562 229.050781 30.332031 C 229.226562 29.125 232.320312 27.078125 242.828125 27.078125 C 258.4375 27.078125 280.480469 35.238281 291.226562 58.242188 C 302.066406 81.433594 300.042969 113.015625 286.71875 128.640625 C 279.222656 137.429688 261.375 140.246094 246.921875 134.917969 " fill-opacity="1" fill-rule="nonzero"/><path fill="#73c532" d="M 51.625 113.324219 C 54.765625 110.246094 55.632812 102.695312 51.503906 99.71875 C 47.375 96.742188 37.761719 94.78125 26.75 98.183594 C 15.742188 101.582031 33.0625 115.996094 38.972656 116.402344 C 44.886719 116.808594 48.566406 116.320312 51.625 113.324219 " fill-opacity="1" fill-rule="nonzero"/><path fill="#5f3c1b" d="M 26.539062 97.484375 C 22.816406 98.632812 22.273438 100.902344 22.472656 102.605469 C 23.164062 108.542969 34.132812 116.800781 38.925781 117.128906 C 44.761719 117.527344 48.789062 117.117188 52.132812 113.84375 C 53.914062 112.101562 55.023438 109.066406 55.023438 106.082031 C 55.023438 105.789062 55.015625 105.496094 54.992188 105.203125 C 54.792969 102.5625 53.703125 100.410156 51.925781 99.128906 C 47.492188 95.929688 37.652344 94.050781 26.539062 97.484375 Z M 39.023438 115.675781 C 34.953125 115.398438 24.503906 107.460938 23.917969 102.433594 C 23.722656 100.738281 24.71875 99.574219 26.964844 98.878906 C 37.132812 95.738281 46.792969 97.21875 51.078125 100.308594 C 52.5 101.335938 53.375 103.109375 53.539062 105.3125 C 53.75 108.117188 52.753906 111.199219 51.113281 112.804688 C 48.148438 115.710938 44.578125 116.054688 39.023438 115.675781 Z M 39.023438 115.675781 " fill-opacity="1" fill-rule="nonzero"/><path fill="#5f3c1b" d="M 38.109375 104.058594 C 38 104.445312 38.230469 104.847656 38.617188 104.957031 C 50.78125 108.359375 50.894531 113.257812 50.894531 113.304688 C 50.894531 113.703125 51.210938 114.039062 51.609375 114.046875 C 52.003906 114.054688 52.335938 113.75 52.351562 113.351562 C 52.363281 113.109375 52.441406 107.308594 39.007812 103.550781 C 38.621094 103.445312 38.21875 103.671875 38.109375 104.058594 " fill-opacity="1" fill-rule="nonzero"/><path fill="#73c532" d="M 37.195312 48.214844 C 37.195312 48.214844 35.980469 55.585938 44.15625 57.363281 C 52.332031 59.148438 61.804688 44.003906 61.320312 35.984375 C 60.835938 27.96875 39.382812 31.207031 37.195312 48.214844 " fill-opacity="1" fill-rule="nonzero"/><path fill="#5f3c1b" d="M 36.472656 48.113281 C 36.46875 48.152344 36.410156 48.535156 36.410156 49.148438 C 36.410156 51.402344 37.179688 56.585938 44.003906 58.078125 C 46.699219 58.664062 49.695312 57.632812 52.660156 55.089844 C 58.09375 50.433594 62.394531 41.664062 62.046875 35.945312 C 61.875 33.082031 59.359375 31.222656 55.484375 31.089844 C 48.730469 30.863281 38.019531 36.113281 36.472656 48.113281 Z M 44.3125 56.652344 C 36.929688 55.042969 37.871094 48.605469 37.914062 48.332031 C 37.914062 48.324219 37.914062 48.316406 37.917969 48.308594 C 39.34375 37.203125 49.214844 32.335938 55.4375 32.546875 C 58.539062 32.652344 60.464844 33.953125 60.59375 36.03125 C 60.910156 41.269531 56.757812 49.65625 51.710938 53.984375 C 49.894531 55.542969 47.136719 57.269531 44.3125 56.652344 Z M 36.472656 48.125 C 36.472656 48.121094 36.472656 48.097656 36.472656 48.097656 C 36.472656 48.105469 36.472656 48.113281 36.472656 48.125 " fill-opacity="1" fill-rule="nonzero"/><path fill="#5f3c1b" d="M 49.269531 42.664062 C 48.988281 42.757812 42.347656 45.070312 38.621094 54.589844 C 38.476562 54.96875 38.65625 55.390625 39.035156 55.535156 C 39.410156 55.683594 39.835938 55.5 39.980469 55.121094 C 43.441406 46.277344 49.671875 44.070312 49.734375 44.046875 C 50.113281 43.917969 50.316406 43.503906 50.1875 43.125 C 50.0625 42.742188 49.652344 42.539062 49.269531 42.664062 " fill-opacity="1" fill-rule="nonzero"/><g clip-path="url(#8d96296f81)"><path fill="#9e7345" d="M 367.421875 67.894531 C 367.421875 67.894531 346.371094 64.492188 327.269531 74.855469 C 308.164062 85.222656 303.949219 90.40625 262.015625 86.355469 C 220.078125 82.308594 157.902344 83.601562 141.386719 82.957031 C 124.871094 82.308594 111.597656 79.714844 94.433594 79.714844 C 77.269531 79.714844 50.714844 75.183594 37.113281 47.972656 C 37.113281 47.972656 32.984375 56.476562 40.269531 68.621094 C 47.558594 80.769531 65.527344 84.171875 65.769531 90.972656 C 66.015625 97.777344 55.816406 106.765625 51.6875 108.707031 C 47.558594 110.652344 47.558594 115.996094 55.328125 113.566406 C 63.101562 111.136719 81.558594 105.304688 102.929688 106.035156 C 124.304688 106.765625 123.253906 116.96875 157.253906 119.886719 C 191.257812 122.800781 268.089844 129.359375 287.757812 128.632812 C 307.429688 127.898438 314.230469 125.957031 326.617188 120.125 C 339.003906 114.296875 347.75 112.351562 354.0625 114.050781 C 360.375 115.753906 388.144531 80.6875 367.421875 67.894531 " fill-opacity="1" fill-rule="nonzero"/></g><path fill="#9e7345" d="M 91.226562 106.257812 C 82.296875 106.5 73.617188 107.40625 65.757812 110.53125 C 72.558594 108.761719 81.359375 106.9375 91.226562 106.257812 " fill-opacity="1" fill-rule="nonzero"/><path fill="#865d2a" d="M 250.839844 107.25 C 246.152344 104.125 247.757812 92.210938 253.617188 85.636719 C 215.382812 82.714844 165.273438 83.417969 145.644531 83.066406 C 139.132812 85.238281 132.71875 87.492188 126.488281 89.757812 C 124.546875 91.703125 138.148438 101.421875 134.261719 103.363281 C 125.21875 105.949219 115.3125 106.171875 105.339844 106.171875 C 124.265625 107.558594 124.585938 117.085938 157.253906 119.886719 C 191.257812 122.800781 268.089844 129.359375 287.757812 128.632812 C 307.429688 127.898438 314.230469 125.957031 326.617188 120.125 C 327.457031 119.730469 328.234375 119.402344 329.039062 119.042969 C 301.960938 120.378906 273.957031 124.207031 250.839844 107.25 " fill-opacity="1" fill-rule="nonzero"/><path fill="#5f3c1b" d="M 349.269531 112.769531 C 343.390625 112.757812 335.941406 114.929688 326.304688 119.46875 C 313.792969 125.355469 307.210938 127.179688 287.734375 127.902344 C 267.894531 128.640625 190.40625 121.996094 157.320312 119.15625 C 139.023438 117.589844 131.054688 113.949219 124.023438 110.730469 C 118.054688 108.003906 112.898438 105.644531 102.957031 105.304688 C 81.628906 104.582031 63.179688 110.351562 55.300781 112.8125 C 51.65625 113.949219 50.058594 113.378906 49.742188 112.558594 C 49.691406 112.429688 49.664062 112.289062 49.664062 112.136719 C 49.664062 111.265625 50.488281 110.074219 51.996094 109.367188 C 56.496094 107.25 66.503906 98.265625 66.503906 91.210938 C 66.503906 91.121094 66.503906 91.035156 66.5 90.945312 C 66.371094 87.285156 62.097656 84.761719 56.691406 81.5625 C 51.300781 78.378906 44.589844 74.410156 40.894531 68.246094 C 37.570312 62.707031 36.695312 57.929688 36.695312 54.441406 C 36.695312 52.386719 36.996094 50.824219 37.277344 49.769531 C 50.765625 75.027344 75.6875 80.445312 94.433594 80.445312 C 104.144531 80.445312 112.785156 81.292969 121.144531 82.121094 C 127.5625 82.75 134.199219 83.402344 141.359375 83.683594 C 145.992188 83.867188 154.171875 83.898438 164.527344 83.929688 C 191.308594 84.027344 231.777344 84.171875 261.945312 87.082031 C 300.183594 90.773438 307.210938 86.851562 322.609375 78.265625 L 327.617188 75.5 C 340.722656 68.382812 354.839844 67.84375 362.152344 68.164062 C 362.644531 68.1875 363.695312 68.296875 363.535156 67.488281 C 363.375 66.679688 362.597656 66.734375 362.078125 66.710938 C 354.492188 66.40625 340.179688 67.019531 326.921875 74.214844 L 321.898438 76.992188 C 306.773438 85.425781 299.871094 89.28125 262.085938 85.632812 C 231.847656 82.714844 191.339844 82.566406 164.535156 82.472656 C 154.191406 82.4375 146.023438 82.40625 141.414062 82.226562 C 134.300781 81.949219 127.6875 81.296875 121.289062 80.667969 C 112.894531 79.839844 104.21875 78.988281 94.433594 78.988281 C 75.726562 78.988281 50.714844 73.550781 37.765625 47.648438 C 37.644531 47.398438 37.386719 47.238281 37.109375 47.242188 C 36.832031 47.246094 36.582031 47.40625 36.460938 47.652344 C 36.285156 48.015625 32.242188 56.652344 39.648438 68.996094 C 43.53125 75.476562 50.417969 79.546875 55.953125 82.820312 C 60.777344 85.671875 64.941406 88.136719 65.042969 91 C 65.265625 97.277344 55.425781 106.140625 51.375 108.046875 C 49.027344 109.152344 47.710938 111.367188 48.382812 113.089844 C 48.660156 113.800781 50 115.996094 55.546875 114.261719 C 63.542969 111.761719 81.828125 106.046875 102.90625 106.765625 C 112.558594 107.09375 117.589844 109.394531 123.417969 112.058594 C 130.558594 115.320312 138.648438 119.023438 157.195312 120.613281 C 190.308594 123.453125 267.859375 130.101562 287.789062 129.359375 C 307.375 128.632812 314.40625 126.679688 326.929688 120.785156 C 336.21875 116.414062 343.359375 114.292969 348.957031 114.226562 C 349.332031 114.226562 350.144531 114.078125 350.386719 113.519531 C 350.628906 112.960938 349.75 112.773438 349.269531 112.769531 " fill-opacity="1" fill-rule="nonzero"/><path fill="#5f3c1b" d="M 65.757812 90.25 C 65.363281 90.257812 65.042969 90.574219 65.042969 90.972656 C 65.042969 91.160156 65.136719 95.507812 73.222656 95.507812 C 77.625 95.507812 81.183594 94.71875 84.046875 94.085938 C 86.09375 93.632812 87.863281 93.242188 89.410156 93.242188 C 89.816406 93.242188 90.140625 92.914062 90.140625 92.511719 C 90.140625 92.109375 89.816406 91.785156 89.410156 91.785156 C 87.703125 91.785156 85.863281 92.191406 83.734375 92.660156 C 80.796875 93.316406 77.464844 94.050781 73.222656 94.050781 C 66.6875 94.050781 66.503906 91.085938 66.5 90.960938 C 66.484375 90.5625 66.15625 90.246094 65.757812 90.25 " fill-opacity="1" fill-rule="nonzero"/><path fill="#5f3c1b" d="M 362.785156 77.855469 C 339.125 78.566406 327.953125 85.199219 318.09375 91.050781 C 310.9375 95.296875 304.753906 98.96875 294.972656 99.964844 C 271.523438 102.359375 238.867188 98.550781 238.539062 98.511719 C 238.140625 98.460938 237.78125 98.75 237.730469 99.148438 C 237.683594 99.542969 237.96875 99.910156 238.371094 99.957031 C 238.699219 99.996094 271.511719 103.824219 295.121094 101.414062 C 305.222656 100.386719 311.835938 96.457031 318.839844 92.300781 C 328.546875 86.542969 339.546875 80.011719 362.828125 79.3125 C 363.234375 79.296875 363.546875 78.960938 363.535156 78.5625 C 363.523438 78.15625 363.183594 77.84375 362.785156 77.855469 " fill-opacity="1" fill-rule="nonzero"/><path fill="#5f3c1b" d="M 235.382812 115.445312 C 235.347656 115.847656 235.644531 116.203125 236.042969 116.234375 C 236.40625 116.269531 272.644531 119.476562 284.359375 119.476562 C 284.761719 119.476562 285.085938 119.152344 285.085938 118.746094 C 285.085938 118.347656 284.761719 118.019531 284.359375 118.019531 C 272.703125 118.019531 236.539062 114.816406 236.171875 114.785156 C 235.773438 114.75 235.417969 115.042969 235.382812 115.445312 " fill-opacity="1" fill-rule="nonzero"/><path fill="#5f3c1b" d="M 331.992188 101.5 C 331.679688 101.753906 331.628906 102.214844 331.882812 102.523438 C 332.132812 102.839844 332.59375 102.890625 332.90625 102.636719 C 342.613281 94.804688 354.824219 94.859375 354.945312 94.863281 C 355.347656 94.867188 355.675781 94.546875 355.683594 94.140625 C 355.691406 93.742188 355.367188 93.410156 354.964844 93.40625 C 354.445312 93.394531 342.117188 93.332031 331.992188 101.5 " fill-opacity="1" fill-rule="nonzero"/><path fill="#5f3c1b" d="M 324.191406 105.574219 C 324.164062 105.601562 321.203125 108.210938 317.566406 108.96875 C 317.171875 109.050781 316.917969 109.4375 317 109.828125 C 317.082031 110.222656 317.46875 110.476562 317.859375 110.394531 C 321.894531 109.558594 325.03125 106.777344 325.164062 106.660156 C 325.460938 106.390625 325.488281 105.933594 325.222656 105.632812 C 324.953125 105.332031 324.488281 105.304688 324.191406 105.574219 " fill-opacity="1" fill-rule="nonzero"/><path fill="#5f3c1b" d="M 96.738281 92.1875 C 96.738281 92.859375 96.191406 93.402344 95.523438 93.402344 C 94.855469 93.402344 94.308594 92.859375 94.308594 92.1875 C 94.308594 91.515625 94.855469 90.972656 95.523438 90.972656 C 96.191406 90.972656 96.738281 91.515625 96.738281 92.1875 " fill-opacity="1" fill-rule="nonzero"/><path fill="#5f3c1b" d="M 108.394531 93.523438 C 108.394531 94.191406 107.851562 94.738281 107.183594 94.738281 C 106.511719 94.738281 105.964844 94.191406 105.964844 93.523438 C 105.964844 92.855469 106.511719 92.308594 107.183594 92.308594 C 107.851562 92.308594 108.394531 92.855469 108.394531 93.523438 " fill-opacity="1" fill-rule="nonzero"/><path fill="#5f3c1b" d="M 296.503906 115.996094 C 296.503906 116.667969 295.957031 117.210938 295.289062 117.210938 C 294.617188 117.210938 294.074219 116.667969 294.074219 115.996094 C 294.074219 115.328125 294.617188 114.78125 295.289062 114.78125 C 295.957031 114.78125 296.503906 115.328125 296.503906 115.996094 " fill-opacity="1" fill-rule="nonzero"/><path fill="#73c532" d="M 37.195312 48.214844 C 37.195312 48.214844 39.539062 60.847656 30.394531 64.492188 C 21.246094 68.136719 0.558594 58.296875 0.804688 50.039062 C 1.042969 41.777344 31.933594 35.945312 37.195312 48.214844 " fill-opacity="1" fill-rule="nonzero"/><path fill="#5f3c1b" d="M 13.953125 41.167969 C 7.636719 42.371094 0.210938 45.410156 0.0742188 50.015625 C -0.015625 53.035156 2.363281 56.398438 6.765625 59.480469 C 13.570312 64.246094 24.371094 67.675781 30.664062 65.171875 C 40.253906 61.347656 37.933594 48.210938 37.914062 48.082031 C 37.902344 48.03125 37.882812 47.976562 37.863281 47.925781 C 34.765625 40.707031 23.625 39.332031 13.953125 41.167969 Z M 7.601562 58.285156 C 3.671875 55.535156 1.457031 52.535156 1.53125 50.058594 C 1.617188 47.121094 6.957031 43.984375 14.230469 42.601562 C 23.011719 40.929688 33.703125 42.0625 36.496094 48.460938 C 36.542969 48.75 36.722656 49.960938 36.722656 51.671875 C 36.722656 55.503906 35.769531 61.566406 30.125 63.8125 C 24.367188 66.109375 13.949219 62.730469 7.601562 58.285156 " fill-opacity="1" fill-rule="nonzero"/><path fill="#5f3c1b" d="M 17.089844 51.867188 C 16.691406 51.929688 16.414062 52.300781 16.476562 52.699219 C 16.539062 53.097656 16.914062 53.367188 17.308594 53.308594 C 31.929688 51.0625 36.601562 56.019531 36.648438 56.070312 C 36.917969 56.367188 37.375 56.394531 37.675781 56.128906 C 37.976562 55.863281 38.007812 55.40625 37.742188 55.105469 C 37.539062 54.875 32.605469 49.484375 17.089844 51.867188 " fill-opacity="1" fill-rule="nonzero"/><path fill="#73c532" d="M 48.125 113.40625 C 48.125 113.40625 43.59375 111.785156 38.570312 115.589844 C 33.550781 119.398438 30.636719 137.539062 38.734375 138.914062 C 46.828125 140.292969 56.382812 128.949219 56.460938 120.046875 C 56.542969 111.136719 50.066406 111.300781 48.125 113.40625 " fill-opacity="1" fill-rule="nonzero"/><path fill="#5f3c1b" d="M 48.015625 112.628906 C 47.042969 112.34375 42.871094 111.417969 38.128906 115.011719 C 34.371094 117.859375 31.902344 127.765625 33.414062 133.933594 C 34.21875 137.21875 36.015625 139.191406 38.613281 139.632812 C 41.800781 140.175781 45.425781 138.914062 48.808594 136.082031 C 53.695312 131.988281 57.140625 125.402344 57.191406 120.050781 C 57.246094 114.328125 54.699219 112.460938 53.175781 111.859375 C 51.195312 111.074219 49.1875 111.660156 48.015625 112.628906 Z M 48.660156 113.898438 C 49.414062 113.085938 51.105469 112.605469 52.640625 113.214844 C 54.667969 114.019531 55.765625 116.441406 55.734375 120.039062 C 55.6875 124.992188 52.457031 131.125 47.875 134.960938 C 44.820312 137.515625 41.621094 138.667969 38.855469 138.195312 C 36.847656 137.855469 35.492188 136.300781 34.828125 133.585938 C 33.339844 127.511719 35.96875 118.480469 39.011719 116.171875 C 43.632812 112.671875 47.707031 114.035156 47.878906 114.09375 C 48.15625 114.1875 48.460938 114.109375 48.660156 113.898438 " fill-opacity="1" fill-rule="nonzero"/><path fill="#5f3c1b" d="M 47.609375 112.886719 C 47.417969 113.078125 42.972656 117.59375 41.980469 124.640625 C 41.921875 125.039062 42.199219 125.410156 42.597656 125.464844 C 42.996094 125.523438 43.367188 125.246094 43.421875 124.84375 C 44.34375 118.300781 48.59375 113.960938 48.640625 113.917969 C 48.921875 113.632812 48.921875 113.175781 48.636719 112.886719 C 48.351562 112.609375 47.890625 112.609375 47.609375 112.886719 " fill-opacity="1" fill-rule="nonzero"/><path fill="#5ab736" d="M 180.515625 75.425781 C 178.832031 69.929688 174.746094 62.96875 164.867188 62.386719 C 148.351562 61.414062 135.234375 70.972656 129.566406 93.972656 C 123.609375 118.140625 135.886719 137.050781 151.75 140.292969 C 167.617188 143.53125 178.628906 134.457031 181.058594 119.074219 C 183.484375 103.6875 181.652344 79.117188 180.515625 75.425781 " fill-opacity="1" fill-rule="nonzero"/><path fill="#73c532" d="M 135.65625 91.945312 C 133.128906 102.214844 134.289062 111.914062 138.929688 119.253906 C 142.15625 124.359375 146.742188 127.746094 151.847656 128.785156 C 157.117188 129.863281 161.519531 129.210938 164.925781 126.847656 C 168.570312 124.316406 170.992188 119.863281 171.921875 113.972656 C 174.195312 99.574219 172.398438 76.871094 171.605469 73.71875 C 169.679688 67.457031 165.96875 66.4375 162.949219 66.261719 C 149.238281 65.453125 140.054688 74.09375 135.65625 91.945312 " fill-opacity="1" fill-rule="nonzero"/><path fill="#50ad37" d="M 161.460938 105.304688 C 155.636719 109.191406 165.351562 122.800781 159.523438 126.683594 C 150.871094 132.453125 141.15625 129.65625 131.957031 123.863281 C 136.195312 132.613281 143.46875 138.597656 151.75 140.292969 C 167.617188 143.53125 178.628906 134.457031 181.058594 119.074219 C 182.285156 111.289062 182.421875 101.160156 182.113281 92.566406 C 173.867188 94.554688 166.429688 98.6875 161.460938 105.304688 " fill-opacity="1" fill-rule="nonzero"/><path fill="#2d8f3d" d="M 128.859375 93.792969 C 125.773438 106.332031 127.3125 118.371094 133.203125 127.6875 C 137.675781 134.765625 144.210938 139.496094 151.605469 141.003906 C 159.128906 142.539062 165.914062 141.40625 171.226562 137.722656 C 176.828125 133.835938 180.476562 127.425781 181.777344 119.1875 C 184.195312 103.875 182.429688 79.167969 181.214844 75.214844 C 179.417969 69.363281 175.132812 62.261719 164.90625 61.660156 C 152.261719 60.917969 135.738281 65.886719 128.859375 93.792969 Z M 151.898438 139.578125 C 144.894531 138.148438 138.695312 133.648438 134.433594 126.90625 C 128.757812 117.929688 127.28125 106.292969 130.277344 94.144531 C 135.527344 72.824219 147.476562 62.09375 164.820312 63.113281 C 174.210938 63.667969 178.164062 70.230469 179.820312 75.640625 C 180.835938 78.949219 182.832031 103.160156 180.335938 118.957031 C 179.101562 126.792969 175.664062 132.867188 170.394531 136.523438 C 165.417969 139.976562 159.019531 141.03125 151.898438 139.578125 " fill-opacity="1" fill-rule="nonzero"/><path fill="#5ab736" d="M 224.613281 74.699219 C 224.613281 74.699219 222.507812 58.824219 201.457031 58.824219 C 180.410156 58.824219 165.105469 72.265625 160.25 101.421875 C 155.390625 130.574219 176.039062 149.277344 197.652344 145.148438 C 219.269531 141.019531 232.875 107.738281 224.613281 74.699219 " fill-opacity="1" fill-rule="nonzero"/><path fill="#73c532" d="M 166.945312 98.164062 C 165.015625 109.734375 167.796875 120.167969 174.5625 126.777344 C 180.085938 132.171875 187.613281 134.433594 195.222656 132.980469 C 202.273438 131.632812 207.199219 125.957031 210.089844 121.433594 C 218.226562 108.691406 220.53125 89.769531 216.101562 72.050781 C 216.054688 71.875 215.992188 71.519531 215.957031 71.339844 C 215.6875 69.789062 213.652344 62.0625 200.488281 62.0625 C 182.222656 62.0625 170.9375 74.210938 166.945312 98.164062 " fill-opacity="1" fill-rule="nonzero"/><path fill="#50ad37" d="M 198.378906 134.460938 C 188.535156 138.835938 176.847656 138.285156 167.121094 133.5 C 174.351562 142.839844 185.851562 147.402344 197.652344 145.148438 C 214.359375 141.957031 226.269531 121.34375 227.011719 96.890625 C 219.417969 99.503906 212.195312 103.90625 206.152344 109.191406 C 200.324219 115.023438 206.152344 130.574219 198.378906 134.460938 " fill-opacity="1" fill-rule="nonzero"/><path fill="#2d8f3d" d="M 159.53125 101.300781 C 157.140625 115.65625 160.808594 128.816406 169.597656 137.394531 C 177.132812 144.761719 187.414062 147.847656 197.789062 145.867188 C 205.722656 144.347656 212.789062 139.050781 218.222656 130.546875 C 227.578125 115.898438 230.296875 94.429688 225.320312 74.519531 C 225.324219 74.546875 225.332031 74.574219 225.335938 74.601562 C 225.3125 74.4375 222.898438 58.097656 201.457031 58.097656 C 178.738281 58.097656 164.238281 73.035156 159.53125 101.300781 Z M 170.617188 136.351562 C 162.171875 128.105469 158.65625 115.414062 160.96875 101.539062 C 165.546875 74.070312 179.546875 59.554688 201.457031 59.554688 C 221.585938 59.554688 223.804688 74.171875 223.890625 74.796875 C 223.894531 74.820312 223.898438 74.847656 223.90625 74.875 C 228.789062 94.40625 226.140625 115.4375 216.996094 129.761719 C 211.78125 137.921875 205.046875 142.996094 197.515625 144.433594 C 187.613281 146.324219 177.808594 143.378906 170.617188 136.351562 " fill-opacity="1" fill-rule="nonzero"/><path fill="#5ab736" d="M 244.832031 113.089844 C 243.316406 102.703125 246.832031 89.570312 262.015625 86.355469 C 267.8125 85.128906 268.976562 68.378906 248.578125 62.550781 C 228.171875 56.71875 208.421875 66.113281 200.324219 94.296875 C 192.226562 122.476562 208.097656 148.390625 236.273438 152.601562 C 264.445312 156.8125 285.496094 142.234375 287.757812 128.632812 C 287.757812 128.632812 269.996094 128.597656 258.777344 127.339844 C 250.035156 126.359375 245.835938 119.980469 244.832031 113.089844 " fill-opacity="1" fill-rule="nonzero"/><path fill="#73c532" d="M 207.796875 96.441406 C 204.410156 108.230469 205.785156 119.769531 211.679688 128.933594 C 217.238281 137.585938 226.378906 143.261719 237.421875 144.914062 C 254.621094 147.484375 267.417969 142.285156 274.339844 136.128906 C 268.945312 135.941406 262.886719 135.625 257.910156 135.066406 C 246.792969 133.820312 238.832031 125.828125 237.144531 114.207031 C 236.878906 112.398438 236.742188 110.566406 236.742188 108.726562 C 236.742188 96.285156 243.0625 83.84375 257.867188 79.519531 C 257.820312 78.933594 257.675781 78.171875 257.183594 77.21875 C 255.574219 74.101562 251.761719 71.546875 246.441406 70.023438 C 228.203125 64.8125 214.117188 74.441406 207.796875 96.441406 " fill-opacity="1" fill-rule="nonzero"/><path fill="#50ad37" d="M 246.960938 132.84375 C 263.792969 144.5 270.203125 138.308594 283.183594 138.097656 C 285.628906 135.058594 287.230469 131.820312 287.757812 128.632812 C 287.757812 128.632812 269.996094 128.597656 258.777344 127.339844 C 250.035156 126.359375 245.835938 119.980469 244.832031 113.089844 C 243.316406 102.703125 246.832031 89.570312 262.015625 86.355469 C 262.445312 86.265625 262.847656 86.078125 263.222656 85.824219 C 240.867188 85.121094 233.601562 121.386719 246.960938 132.84375 " fill-opacity="1" fill-rule="nonzero"/><path fill="#2d8f3d" d="M 199.625 94.09375 C 195.550781 108.269531 197.292969 122.273438 204.523438 133.53125 C 211.429688 144.277344 222.664062 151.304688 236.164062 153.320312 C 263.890625 157.46875 285.992188 143.699219 288.480469 128.75 C 288.515625 128.542969 288.453125 128.324219 288.316406 128.160156 C 288.175781 127.996094 287.976562 127.902344 287.761719 127.902344 C 287.582031 127.902344 269.90625 127.855469 258.859375 126.617188 C 248.472656 125.453125 246.09375 116.695312 245.554688 112.984375 C 244.023438 102.476562 247.582031 90.15625 262.164062 87.070312 C 264.582031 86.558594 266.289062 83.84375 266.410156 80.3125 C 266.628906 74.179688 262.132812 65.667969 248.777344 61.851562 C 226.039062 55.351562 207.203125 67.707031 199.625 94.09375 Z M 236.378906 151.878906 C 223.300781 149.925781 212.425781 143.125 205.75 132.742188 C 198.75 121.847656 197.070312 108.265625 201.027344 94.496094 C 208.359375 68.972656 226.503906 57 248.375 63.253906 C 260.925781 66.839844 265.152344 74.65625 264.953125 80.261719 C 264.855469 83.109375 263.613281 85.273438 261.863281 85.644531 C 246.277344 88.945312 242.558594 102.546875 244.113281 113.195312 C 245.355469 121.746094 250.671875 127.164062 258.695312 128.066406 C 268.34375 129.144531 282.9375 129.324219 286.773438 129.355469 C 283.941406 141.777344 264.03125 156.011719 236.378906 151.878906 " fill-opacity="1" fill-rule="nonzero"/><path fill="#a3db70" d="M 227.117188 97.207031 C 225.367188 100.710938 224.402344 105.992188 225.90625 108.417969 C 226.464844 109.320312 227.316406 109.800781 228.375 109.800781 C 231.796875 109.800781 232.886719 106.8125 232.988281 105.230469 C 233.015625 104.828125 232.707031 104.484375 232.308594 104.460938 C 231.910156 104.433594 231.5625 104.738281 231.535156 105.136719 C 231.511719 105.464844 231.230469 108.34375 228.375 108.34375 C 227.824219 108.34375 227.433594 108.125 227.144531 107.652344 C 226.078125 105.929688 226.675781 101.351562 228.421875 97.859375 C 228.601562 97.496094 228.453125 97.0625 228.09375 96.882812 C 227.734375 96.703125 227.296875 96.84375 227.117188 97.207031 " fill-opacity="1" fill-rule="nonzero"/><path fill="#a3db70" d="M 223.667969 80.121094 C 218.71875 84.078125 217.246094 89.632812 218.375 92.847656 C 218.949219 94.488281 220.160156 95.429688 221.695312 95.429688 C 223.804688 95.429688 225.363281 94.53125 226.480469 93.578125 C 226.425781 93.960938 226.335938 94.3125 226.335938 94.707031 C 226.335938 95.730469 226.539062 96.753906 227.132812 97.589844 C 227.953125 98.765625 229.34375 99.34375 231.261719 99.316406 C 236.902344 99.226562 239.605469 90.980469 239.714844 90.628906 C 239.839844 90.246094 239.625 89.835938 239.246094 89.710938 C 238.863281 89.589844 238.453125 89.796875 238.328125 90.183594 C 238.304688 90.257812 235.835938 97.785156 231.238281 97.855469 C 229.832031 97.875 228.847656 97.507812 228.320312 96.753906 C 227.546875 95.644531 227.621094 93.554688 228.53125 91.148438 C 228.667969 90.792969 228.5 90.386719 228.152344 90.230469 C 227.804688 90.066406 227.390625 90.207031 227.207031 90.546875 C 227.132812 90.6875 225.324219 93.972656 221.695312 93.972656 C 220.550781 93.972656 220.003906 93.097656 219.746094 92.367188 C 218.921875 90.015625 219.878906 85.015625 224.582031 81.257812 C 224.894531 81.003906 224.945312 80.546875 224.695312 80.230469 C 224.441406 79.917969 223.984375 79.867188 223.667969 80.121094 " fill-opacity="1" fill-rule="nonzero"/><path fill="#a3db70" d="M 181.179688 85.140625 C 181.042969 85.519531 181.242188 85.9375 181.621094 86.074219 C 181.996094 86.207031 182.417969 86.007812 182.550781 85.628906 C 183.285156 83.578125 185.910156 77.835938 188.277344 78.324219 C 188.726562 78.417969 189.03125 78.636719 189.238281 79.019531 C 190.042969 80.480469 189.132812 83.660156 188.714844 84.761719 C 188.570312 85.136719 188.753906 85.554688 189.132812 85.703125 C 189.511719 85.84375 189.929688 85.65625 190.074219 85.28125 C 190.253906 84.8125 191.789062 80.636719 190.519531 78.320312 C 190.109375 77.566406 189.433594 77.074219 188.570312 76.898438 C 184.546875 76.0625 181.511719 84.207031 181.179688 85.140625 " fill-opacity="1" fill-rule="nonzero"/><path fill="#a3db70" d="M 178.414062 110.414062 C 174.167969 112.78125 174.25 120.476562 174.253906 120.800781 C 174.265625 121.203125 174.589844 121.523438 174.996094 121.519531 C 175.398438 121.507812 175.71875 121.179688 175.710938 120.777344 C 175.710938 120.703125 175.640625 113.628906 179.121094 111.683594 C 179.816406 111.296875 180.457031 111.226562 181.074219 111.464844 C 182.667969 112.082031 183.820312 114.628906 184.128906 115.558594 C 184.257812 115.9375 184.671875 116.144531 185.050781 116.019531 C 185.433594 115.890625 185.636719 115.480469 185.511719 115.097656 C 185.457031 114.933594 184.160156 111.097656 181.605469 110.105469 C 180.566406 109.707031 179.492188 109.804688 178.414062 110.414062 " fill-opacity="1" fill-rule="nonzero"/><path fill="#a3db70" d="M 187.566406 111.667969 C 185.953125 112.253906 184.804688 113.257812 184.160156 114.65625 C 182.867188 117.425781 184.042969 120.722656 184.09375 120.863281 C 184.234375 121.242188 184.652344 121.433594 185.03125 121.296875 C 185.40625 121.160156 185.601562 120.742188 185.464844 120.363281 C 185.378906 120.132812 183.476562 114.703125 188.066406 113.035156 C 189.152344 112.640625 189.96875 112.667969 190.558594 113.113281 C 191.828125 114.082031 191.90625 116.882812 191.824219 117.882812 C 191.796875 118.28125 192.09375 118.632812 192.496094 118.667969 C 192.894531 118.699219 193.246094 118.398438 193.277344 118 C 193.316406 117.550781 193.570312 113.570312 191.441406 111.953125 C 190.441406 111.191406 189.136719 111.097656 187.566406 111.667969 " fill-opacity="1" fill-rule="nonzero"/><path fill="#a3db70" d="M 141.257812 86.589844 C 141.113281 86.746094 137.65625 90.511719 137.78125 95.847656 C 137.824219 97.488281 138.355469 98.636719 139.371094 99.257812 C 141.300781 100.445312 144.167969 99.097656 144.292969 99.039062 C 144.65625 98.867188 144.808594 98.433594 144.636719 98.070312 C 144.460938 97.707031 144.027344 97.554688 143.664062 97.726562 C 143.03125 98.023438 141.171875 98.65625 140.132812 98.015625 C 139.566406 97.667969 139.269531 96.925781 139.242188 95.816406 C 139.128906 91.085938 142.292969 87.617188 142.324219 87.582031 C 142.597656 87.285156 142.582031 86.828125 142.289062 86.550781 C 141.992188 86.28125 141.53125 86.292969 141.257812 86.589844 " fill-opacity="1" fill-rule="nonzero"/><path fill="#a3db70" d="M 144.949219 93.84375 C 144.90625 93.910156 140.640625 100.398438 146.179688 105.019531 C 147.515625 106.125 148.8125 106.46875 150.046875 106.03125 C 153.164062 104.929688 154.398438 99.175781 154.53125 98.523438 C 154.605469 98.132812 154.351562 97.746094 153.957031 97.667969 C 153.5625 97.589844 153.175781 97.84375 153.097656 98.242188 C 152.789062 99.785156 151.546875 103.957031 149.5625 104.660156 C 148.835938 104.914062 148.035156 104.664062 147.117188 103.894531 C 142.589844 100.125 146.011719 94.878906 146.160156 94.65625 C 146.386719 94.324219 146.296875 93.871094 145.960938 93.648438 C 145.628906 93.425781 145.175781 93.511719 144.949219 93.84375 " fill-opacity="1" fill-rule="nonzero"/><path fill="#a3db70" d="M 191.417969 275.53125 C 178.949219 275.855469 151.992188 262.734375 151.992188 262.734375 C 151.992188 262.734375 182.351562 278.285156 190.609375 278.285156 C 194.222656 278.285156 200.296875 275.863281 207.492188 273.144531 C 201.167969 274.449219 195.265625 275.429688 191.417969 275.53125 " fill-opacity="1" fill-rule="nonzero"/></svg>